<svg width="451" height="146" viewBox="0 0 451 146" fill="none" xmlns="http://www.w3.org/2000/svg">
<path d="M163.855 59V37.1818H168.102V59H163.855ZM166 33.8153C165.261 33.8153 164.627 33.5691 164.097 33.0767C163.576 32.5748 163.315 31.9782 163.315 31.2869C163.315 30.5862 163.576 29.9896 164.097 29.4972C164.627 28.9953 165.261 28.7443 166 28.7443C166.739 28.7443 167.368 28.9953 167.889 29.4972C168.42 29.9896 168.685 30.5862 168.685 31.2869C168.685 31.9782 168.42 32.5748 167.889 33.0767C167.368 33.5691 166.739 33.8153 166 33.8153ZM178.063 46.0455V59H173.816V37.1818H177.893V40.733H178.163C178.665 39.5777 179.451 38.6496 180.521 37.9489C181.6 37.2481 182.959 36.8977 184.597 36.8977C186.084 36.8977 187.386 37.2102 188.504 37.8352C189.621 38.4508 190.487 39.3693 191.103 40.5909C191.719 41.8125 192.026 43.3229 192.026 45.1222V59H187.779V45.6335C187.779 44.0521 187.367 42.8163 186.543 41.9261C185.719 41.0265 184.588 40.5767 183.148 40.5767C182.164 40.5767 181.288 40.7898 180.521 41.2159C179.763 41.642 179.162 42.267 178.717 43.0909C178.281 43.9053 178.063 44.8902 178.063 46.0455ZM201.969 46.0455V59H197.722V29.9091H201.913V40.733H202.183C202.694 39.5587 203.475 38.6259 204.526 37.9347C205.577 37.2434 206.951 36.8977 208.646 36.8977C210.142 36.8977 211.449 37.2055 212.566 37.821C213.693 38.4366 214.564 39.3551 215.18 40.5767C215.805 41.7888 216.117 43.304 216.117 45.1222V59H211.87V45.6335C211.87 44.0331 211.458 42.7926 210.634 41.9119C209.81 41.0218 208.665 40.5767 207.197 40.5767C206.193 40.5767 205.293 40.7898 204.498 41.2159C203.712 41.642 203.092 42.267 202.637 43.0909C202.192 43.9053 201.969 44.8902 201.969 46.0455ZM230.975 59.4403C228.93 59.4403 227.145 58.9716 225.62 58.0341C224.095 57.0966 222.912 55.785 222.069 54.0994C221.226 52.4138 220.805 50.4441 220.805 48.1903C220.805 45.9271 221.226 43.9479 222.069 42.2528C222.912 40.5578 224.095 39.2415 225.62 38.304C227.145 37.3665 228.93 36.8977 230.975 36.8977C233.021 36.8977 234.806 37.3665 236.33 38.304C237.855 39.2415 239.039 40.5578 239.881 42.2528C240.724 43.9479 241.146 45.9271 241.146 48.1903C241.146 50.4441 240.724 52.4138 239.881 54.0994C239.039 55.785 237.855 57.0966 236.33 58.0341C234.806 58.9716 233.021 59.4403 230.975 59.4403ZM230.989 55.875C232.315 55.875 233.414 55.5246 234.285 54.8239C235.156 54.1231 235.8 53.1903 236.217 52.0256C236.643 50.8608 236.856 49.5777 236.856 48.1761C236.856 46.7841 236.643 45.5057 236.217 44.3409C235.8 43.1667 235.156 42.2244 234.285 41.5142C233.414 40.804 232.315 40.4489 230.989 40.4489C229.654 40.4489 228.546 40.804 227.665 41.5142C226.794 42.2244 226.146 43.1667 225.719 44.3409C225.303 45.5057 225.094 46.7841 225.094 48.1761C225.094 49.5777 225.303 50.8608 225.719 52.0256C226.146 53.1903 226.794 54.1231 227.665 54.8239C228.546 55.5246 229.654 55.875 230.989 55.875ZM259.707 49.9517V37.1818H263.969V59H259.793V55.2216H259.565C259.063 56.3864 258.259 57.357 257.151 58.1335C256.052 58.9006 254.684 59.2841 253.045 59.2841C251.644 59.2841 250.403 58.9763 249.324 58.3608C248.254 57.7358 247.411 56.8125 246.795 55.5909C246.189 54.3693 245.886 52.8589 245.886 51.0597V37.1818H250.134V50.5483C250.134 52.035 250.545 53.2187 251.369 54.0994C252.193 54.9801 253.263 55.4205 254.58 55.4205C255.375 55.4205 256.166 55.2216 256.952 54.8239C257.747 54.4261 258.405 53.8248 258.926 53.0199C259.456 52.215 259.717 51.1922 259.707 49.9517ZM286.025 42.5085L282.175 43.1903C282.014 42.6979 281.759 42.2292 281.408 41.7841C281.067 41.339 280.603 40.9744 280.016 40.6903C279.429 40.4062 278.695 40.2642 277.815 40.2642C276.612 40.2642 275.608 40.5341 274.803 41.0739C273.998 41.6042 273.596 42.2907 273.596 43.1335C273.596 43.8627 273.866 44.4498 274.406 44.8949C274.945 45.34 275.817 45.7045 277.019 45.9886L280.485 46.7841C282.493 47.2481 283.989 47.9631 284.974 48.929C285.959 49.8949 286.451 51.1496 286.451 52.6932C286.451 54 286.072 55.1648 285.315 56.1875C284.567 57.2008 283.52 57.9962 282.175 58.5739C280.84 59.1515 279.292 59.4403 277.531 59.4403C275.087 59.4403 273.094 58.9195 271.55 57.8778C270.007 56.8267 269.06 55.3352 268.71 53.4034L272.815 52.7784C273.07 53.8485 273.596 54.6581 274.391 55.2074C275.187 55.7472 276.224 56.017 277.502 56.017C278.894 56.017 280.007 55.7282 280.84 55.1506C281.674 54.5634 282.09 53.8485 282.09 53.0057C282.09 52.3239 281.835 51.7509 281.323 51.2869C280.821 50.8229 280.049 50.4725 279.008 50.2358L275.315 49.4261C273.279 48.9621 271.773 48.2235 270.798 47.2102C269.832 46.197 269.349 44.9138 269.349 43.3608C269.349 42.0729 269.709 40.946 270.428 39.9801C271.148 39.0142 272.142 38.2614 273.411 37.7216C274.68 37.1723 276.134 36.8977 277.772 36.8977C280.13 36.8977 281.986 37.4091 283.34 38.4318C284.694 39.4451 285.589 40.804 286.025 42.5085ZM300.524 59.4403C298.375 59.4403 296.523 58.9811 294.97 58.0625C293.427 57.1345 292.233 55.8324 291.391 54.1562C290.557 52.4706 290.141 50.4962 290.141 48.233C290.141 45.9981 290.557 44.0284 291.391 42.3239C292.233 40.6193 293.408 39.2888 294.913 38.3324C296.429 37.3759 298.199 36.8977 300.226 36.8977C301.457 36.8977 302.65 37.1013 303.805 37.5085C304.961 37.9157 305.998 38.5549 306.916 39.4261C307.835 40.2973 308.559 41.429 309.089 42.821C309.62 44.2036 309.885 45.8845 309.885 47.8636V49.3693L292.541 49.3693V46.1875L305.723 46.1875C305.723 45.0701 305.496 44.0805 305.041 43.2187C304.587 42.3475 303.947 41.661 303.124 41.1591C302.309 40.6572 301.353 40.4062 300.254 40.4062C299.061 40.4062 298.019 40.6998 297.129 41.2869C296.249 41.8646 295.567 42.6222 295.084 43.5597C294.61 44.4877 294.374 45.4962 294.374 46.5852V49.071C294.374 50.5294 294.629 51.7699 295.141 52.7926C295.661 53.8153 296.386 54.5966 297.314 55.1364C298.242 55.6667 299.326 55.9318 300.567 55.9318C301.372 55.9318 302.106 55.8182 302.768 55.5909C303.431 55.3542 304.004 55.0038 304.487 54.5398C304.97 54.0758 305.339 53.5028 305.595 52.821L309.615 53.5455C309.293 54.7292 308.715 55.7661 307.882 56.6562C307.058 57.5369 306.021 58.2235 304.771 58.7159C303.531 59.1989 302.115 59.4403 300.524 59.4403ZM334.331 67.6364C332.598 67.6364 331.107 67.4091 329.857 66.9545C328.616 66.5 327.603 65.8987 326.817 65.1506C326.031 64.4025 325.444 63.5833 325.055 62.6932L328.706 61.1875C328.962 61.6042 329.303 62.0445 329.729 62.5085C330.164 62.982 330.751 63.3845 331.49 63.7159C332.238 64.0473 333.199 64.2131 334.374 64.2131C335.983 64.2131 337.314 63.8201 338.365 63.0341C339.416 62.2576 339.942 61.017 339.942 59.3125V55.0227H339.672C339.416 55.4867 339.047 56.0028 338.564 56.571C338.09 57.1392 337.437 57.6316 336.604 58.0483C335.77 58.465 334.686 58.6733 333.351 58.6733C331.627 58.6733 330.074 58.2708 328.692 57.4659C327.319 56.6515 326.23 55.4536 325.425 53.8722C324.629 52.2812 324.232 50.3258 324.232 48.0057C324.232 45.6856 324.625 43.697 325.411 42.0398C326.206 40.3826 327.295 39.1136 328.678 38.233C330.06 37.3428 331.627 36.8977 333.379 36.8977C334.733 36.8977 335.827 37.125 336.661 37.5795C337.494 38.0246 338.143 38.5455 338.607 39.142C339.08 39.7386 339.445 40.2642 339.7 40.7187H340.013V37.1818H344.175V59.483C344.175 61.358 343.739 62.8968 342.868 64.0994C341.997 65.3021 340.818 66.1922 339.331 66.7699C337.854 67.3475 336.187 67.6364 334.331 67.6364ZM334.288 55.1506C335.51 55.1506 336.542 54.8665 337.385 54.2983C338.237 53.7206 338.881 52.8968 339.317 51.8267C339.762 50.7472 339.984 49.4545 339.984 47.9489C339.984 46.4811 339.767 45.1884 339.331 44.071C338.895 42.9536 338.256 42.0824 337.413 41.4574C336.571 40.8229 335.529 40.5057 334.288 40.5057C333.01 40.5057 331.945 40.8371 331.092 41.5C330.24 42.1534 329.596 43.0436 329.161 44.1705C328.734 45.2973 328.521 46.5568 328.521 47.9489C328.521 49.3788 328.739 50.6335 329.175 51.7131C329.61 52.7926 330.254 53.6354 331.107 54.2415C331.968 54.8475 333.029 55.1506 334.288 55.1506ZM356.22 59.483C354.838 59.483 353.588 59.2273 352.47 58.7159C351.353 58.1951 350.467 57.4422 349.814 56.4574C349.17 55.4725 348.848 54.2652 348.848 52.8352C348.848 51.6042 349.085 50.5909 349.558 49.7955C350.032 49 350.671 48.3703 351.476 47.9062C352.281 47.4422 353.18 47.0919 354.175 46.8551C355.169 46.6184 356.182 46.4384 357.214 46.3153C358.521 46.1638 359.582 46.0407 360.396 45.946C361.211 45.8419 361.803 45.6761 362.172 45.4489C362.541 45.2216 362.726 44.8523 362.726 44.3409V44.2415C362.726 43.0009 362.375 42.0398 361.675 41.358C360.983 40.6761 359.951 40.3352 358.578 40.3352C357.148 40.3352 356.021 40.6525 355.197 41.2869C354.383 41.9119 353.82 42.608 353.507 43.375L349.516 42.4659C349.989 41.1402 350.68 40.0701 351.589 39.2557C352.508 38.4318 353.564 37.8352 354.757 37.4659C355.95 37.0871 357.205 36.8977 358.521 36.8977C359.393 36.8977 360.316 37.0019 361.291 37.2102C362.276 37.4091 363.195 37.7784 364.047 38.3182C364.909 38.858 365.614 39.6297 366.163 40.6335C366.713 41.6278 366.987 42.9205 366.987 44.5114V59H362.839V56.017H362.669C362.394 56.5663 361.982 57.1061 361.433 57.6364C360.884 58.1667 360.179 58.607 359.317 58.9574C358.455 59.3078 357.423 59.483 356.22 59.483ZM357.143 56.0739C358.318 56.0739 359.321 55.8419 360.155 55.3778C360.998 54.9138 361.637 54.3078 362.072 53.5597C362.518 52.8021 362.74 51.9924 362.74 51.1307V48.3182C362.589 48.4697 362.295 48.6117 361.859 48.7443C361.433 48.8674 360.946 48.9763 360.396 49.071C359.847 49.1562 359.312 49.2367 358.791 49.3125C358.27 49.3788 357.835 49.4356 357.484 49.483C356.661 49.5871 355.908 49.7623 355.226 50.0085C354.554 50.2547 354.014 50.6098 353.607 51.0739C353.209 51.5284 353.01 52.1345 353.01 52.892C353.01 53.9432 353.398 54.7386 354.175 55.2784C354.951 55.8087 355.941 56.0739 357.143 56.0739ZM372.644 59V37.1818H376.721V40.733H376.991C377.445 39.5303 378.189 38.5928 379.221 37.9205C380.253 37.2386 381.489 36.8977 382.928 36.8977C384.387 36.8977 385.608 37.2386 386.593 37.9205C387.587 38.6023 388.321 39.5398 388.795 40.733H389.022C389.543 39.5682 390.371 38.6402 391.508 37.9489C392.644 37.2481 393.998 36.8977 395.57 36.8977C397.549 36.8977 399.164 37.518 400.414 38.7585C401.674 39.9991 402.303 41.8693 402.303 44.3693V59H398.056V44.767C398.056 43.2898 397.654 42.2197 396.849 41.5568C396.044 40.8939 395.083 40.5625 393.965 40.5625C392.583 40.5625 391.508 40.9886 390.741 41.8409C389.974 42.6837 389.59 43.768 389.59 45.0937V59H385.357V44.4972C385.357 43.3134 384.988 42.3617 384.249 41.642C383.511 40.9223 382.549 40.5625 381.366 40.5625C380.561 40.5625 379.817 40.7756 379.136 41.2017C378.463 41.6184 377.919 42.2008 377.502 42.9489C377.095 43.697 376.891 44.5634 376.891 45.5483V59H372.644ZM417.399 59.4403C415.25 59.4403 413.398 58.9811 411.845 58.0625C410.302 57.1345 409.108 55.8324 408.266 54.1562C407.432 52.4706 407.016 50.4962 407.016 48.233C407.016 45.9981 407.432 44.0284 408.266 42.3239C409.108 40.6193 410.283 39.2888 411.788 38.3324C413.304 37.3759 415.074 36.8977 417.101 36.8977C418.332 36.8977 419.525 37.1013 420.68 37.5085C421.836 37.9157 422.873 38.5549 423.791 39.4261C424.71 40.2973 425.434 41.429 425.964 42.821C426.495 44.2036 426.76 45.8845 426.76 47.8636V49.3693H409.416V46.1875H422.598C422.598 45.0701 422.371 44.0805 421.916 43.2187C421.462 42.3475 420.822 41.661 419.999 41.1591C419.184 40.6572 418.228 40.4062 417.129 40.4062C415.936 40.4062 414.894 40.6998 414.004 41.2869C413.124 41.8646 412.442 42.6222 411.959 43.5597C411.485 44.4877 411.249 45.4962 411.249 46.5852V49.071C411.249 50.5294 411.504 51.7699 412.016 52.7926C412.536 53.8153 413.261 54.5966 414.189 55.1364C415.117 55.6667 416.201 55.9318 417.442 55.9318C418.247 55.9318 418.981 55.8182 419.643 55.5909C420.306 55.3542 420.879 55.0038 421.362 54.5398C421.845 54.0758 422.214 53.5028 422.47 52.821L426.49 53.5455C426.168 54.7292 425.59 55.7661 424.757 56.6562C423.933 57.5369 422.896 58.2235 421.646 58.7159C420.406 59.1989 418.99 59.4403 417.399 59.4403ZM447.822 42.5085L443.972 43.1903C443.811 42.6979 443.556 42.2292 443.205 41.7841C442.864 41.339 442.4 40.9744 441.813 40.6903C441.226 40.4062 440.492 40.2642 439.612 40.2642C438.409 40.2642 437.405 40.5341 436.6 41.0739C435.795 41.6042 435.393 42.2907 435.393 43.1335C435.393 43.8627 435.663 44.4498 436.202 44.8949C436.742 45.34 437.613 45.7045 438.816 45.9886L442.282 46.7841C444.29 47.2481 445.786 47.9631 446.771 48.929C447.755 49.8949 448.248 51.1496 448.248 52.6932C448.248 54 447.869 55.1648 447.112 56.1875C446.363 57.2008 445.317 57.9962 443.972 58.5739C442.637 59.1515 441.089 59.4403 439.327 59.4403C436.884 59.4403 434.891 58.9195 433.347 57.8778C431.804 56.8267 430.857 55.3352 430.506 53.4034L434.612 52.7784C434.867 53.8485 435.393 54.6581 436.188 55.2074C436.984 55.7472 438.021 56.017 439.299 56.017C440.691 56.017 441.804 55.7282 442.637 55.1506C443.47 54.5634 443.887 53.8485 443.887 53.0057C443.887 52.3239 443.631 51.7509 443.12 51.2869C442.618 50.8229 441.846 50.4725 440.805 50.2358L437.112 49.4261C435.076 48.9621 433.57 48.2235 432.594 47.2102C431.629 46.197 431.146 44.9138 431.146 43.3608C431.146 42.0729 431.505 40.946 432.225 39.9801C432.945 39.0142 433.939 38.2614 435.208 37.7216C436.477 37.1723 437.931 36.8977 439.569 36.8977C441.927 36.8977 443.783 37.4091 445.137 38.4318C446.491 39.4451 447.386 40.804 447.822 42.5085Z" fill="#010101"/>
<path d="M58.2031 0.492187L58.2031 146H41.0156L41.0156 19.0469H40.0391L4.6875 42.6797L4.6875 24.7109L41.0156 0.492187L58.2031 0.492187ZM129.297 0.492187L129.297 146H112.109L112.109 19.0469H111.133L75.7812 42.6797V24.7109L112.109 0.492187L129.297 0.492187Z" fill="#010101"/>
</svg>
