<svg width="789" height="225" viewBox="0 0 789 225" fill="none" xmlns="http://www.w3.org/2000/svg">
<path d="M627.452 95.7706C623.691 95.7706 620.451 94.9669 617.733 93.3594C615.032 91.7353 612.944 89.4567 611.469 86.5234C610.01 83.5736 609.281 80.1184 609.281 76.1577C609.281 72.2467 610.01 68.7997 611.469 65.8168C612.944 62.8338 614.999 60.5054 617.634 58.8317C620.285 57.1579 623.384 56.321 626.93 56.321C629.085 56.321 631.173 56.6773 633.195 57.3899C635.216 58.1025 637.031 59.2211 638.638 60.7457C640.246 62.2704 641.514 64.2507 642.442 66.6868C643.37 69.1063 643.834 72.0478 643.834 75.5114V78.1463H613.482V72.5781H636.55C636.55 70.6226 636.153 68.8909 635.357 67.3828C634.562 65.8582 633.443 64.6567 632.001 63.7784C630.576 62.9001 628.902 62.4609 626.98 62.4609C624.892 62.4609 623.069 62.9747 621.511 64.0021C619.97 65.013 618.777 66.3388 617.932 67.9794C617.103 69.6035 616.689 71.3684 616.689 73.2741V77.6243C616.689 80.1764 617.136 82.3473 618.031 84.1371C618.943 85.9268 620.21 87.294 621.835 88.2386C623.459 89.1667 625.356 89.6307 627.527 89.6307C628.936 89.6307 630.22 89.4318 631.38 89.0341C632.54 88.6198 633.543 88.0066 634.388 87.1946C635.233 86.3826 635.879 85.38 636.327 84.1868L643.362 85.4545C642.798 87.526 641.787 89.3407 640.329 90.8984C638.887 92.4396 637.072 93.6411 634.885 94.5028C632.714 95.348 630.237 95.7706 627.452 95.7706ZM683.65 56.8182L669.804 95H661.85L647.979 56.8182H655.958L665.628 86.2003H666.026L675.671 56.8182H683.65ZM705.792 95.7706C702.03 95.7706 698.791 94.9669 696.073 93.3594C693.372 91.7353 691.283 89.4567 689.809 86.5234C688.35 83.5736 687.621 80.1184 687.621 76.1577C687.621 72.2467 688.35 68.7997 689.809 65.8168C691.283 62.8338 693.338 60.5054 695.973 58.8317C698.625 57.1579 701.724 56.321 705.27 56.321C707.425 56.321 709.513 56.6773 711.534 57.3899C713.556 58.1025 715.371 59.2211 716.978 60.7457C718.586 62.2704 719.854 64.2507 720.782 66.6868C721.71 69.1063 722.174 72.0478 722.174 75.5114V78.1463L691.822 78.1463V72.5781H714.89C714.89 70.6226 714.493 68.8909 713.697 67.3828C712.902 65.8582 711.783 64.6567 710.341 63.7784C708.916 62.9001 707.242 62.4609 705.32 62.4609C703.232 62.4609 701.409 62.9747 699.851 64.0021C698.31 65.013 697.117 66.3388 696.272 67.9794C695.443 69.6035 695.029 71.3684 695.029 73.2741V77.6243C695.029 80.1764 695.476 82.3473 696.371 84.1371C697.283 85.9268 698.55 87.294 700.174 88.2386C701.798 89.1667 703.696 89.6307 705.867 89.6307C707.275 89.6307 708.56 89.4318 709.72 89.0341C710.88 88.6198 711.882 88.0066 712.728 87.1946C713.573 86.3826 714.219 85.38 714.667 84.1868L721.701 85.4545C721.138 87.526 720.127 89.3407 718.669 90.8984C717.227 92.4396 715.412 93.6411 713.225 94.5028C711.054 95.348 708.576 95.7706 705.792 95.7706ZM748.243 56.8182V62.7841L727.388 62.7841V56.8182L748.243 56.8182ZM732.981 47.6705H740.413V83.7891C740.413 85.2308 740.629 86.3163 741.059 87.0455C741.49 87.758 742.046 88.2469 742.725 88.5121C743.421 88.7607 744.175 88.8849 744.987 88.8849C745.584 88.8849 746.106 88.8435 746.553 88.7607C747.001 88.6778 747.349 88.6115 747.597 88.5618L748.939 94.7017C748.509 94.8674 747.895 95.0331 747.1 95.1989C746.305 95.3812 745.31 95.4806 744.117 95.4972C742.162 95.5303 740.339 95.1823 738.648 94.4531C736.958 93.724 735.591 92.5971 734.547 91.0724C733.503 89.5478 732.981 87.6338 732.981 85.3303V47.6705ZM784.461 66.1399L777.725 67.3331C777.443 66.4714 776.996 65.651 776.383 64.8722C775.786 64.0933 774.974 63.4553 773.947 62.9581C772.919 62.4609 771.635 62.2124 770.094 62.2124C767.989 62.2124 766.232 62.6847 764.824 63.6293C763.415 64.5573 762.711 65.7588 762.711 67.2337C762.711 68.5097 763.183 69.5372 764.128 70.3161C765.072 71.0949 766.597 71.733 768.702 72.2301L774.767 73.6222C778.28 74.4342 780.898 75.6854 782.622 77.3757C784.345 79.0661 785.207 81.2618 785.207 83.9631C785.207 86.25 784.544 88.2884 783.219 90.0781C781.909 91.8513 780.078 93.2434 777.725 94.2543C775.388 95.2652 772.679 95.7706 769.596 95.7706C765.321 95.7706 761.832 94.8591 759.131 93.0362C756.43 91.1967 754.773 88.5866 754.16 85.206L761.344 84.1122C761.791 85.9848 762.711 87.4018 764.103 88.3629C765.495 89.3075 767.309 89.7798 769.547 89.7798C771.983 89.7798 773.93 89.2744 775.388 88.2635C776.847 87.236 777.576 85.9848 777.576 84.5099C777.576 83.3168 777.128 82.3142 776.233 81.5021C775.355 80.6901 774.005 80.0769 772.182 79.6626L765.719 78.2457C762.156 77.4337 759.521 76.1411 757.814 74.3679C756.123 72.5947 755.278 70.3492 755.278 67.6314C755.278 65.3776 755.908 63.4055 757.167 61.7152C758.427 60.0249 760.167 58.7074 762.388 57.7628C764.608 56.8016 767.152 56.321 770.019 56.321C774.145 56.321 777.394 57.2159 779.763 59.0057C782.133 60.7789 783.699 63.157 784.461 66.1399Z" fill="#010101"/>
<path d="M83.7891 224.93C71.2891 224.93 60.0098 222.488 49.9512 217.605C39.9902 212.625 31.9824 205.789 25.9277 197.098C19.873 188.406 16.6016 178.543 16.1133 167.508H41.6016C42.5781 177.273 47.0215 185.379 54.9316 191.824C62.9395 198.27 72.5586 201.492 83.7891 201.492C92.7734 201.492 100.732 199.393 107.666 195.193C114.6 190.994 120.068 185.232 124.072 177.908C128.076 170.584 130.078 162.234 130.078 152.859C130.078 143.387 127.979 134.891 123.779 127.371C119.678 119.852 114.014 113.943 106.787 109.646C99.5605 105.252 91.3086 103.055 82.0313 103.055C75.293 103.055 68.4082 104.129 61.377 106.277C54.4434 108.328 48.7305 110.965 44.2383 114.187L19.3359 111.258L32.5195 3.73828L145.898 3.73828V27.1758L54.7852 27.1758L47.168 91.6289H48.3398C52.832 88.0156 58.4473 85.0859 65.1855 82.8398C71.9238 80.4961 79.0039 79.3242 86.4258 79.3242C99.8047 79.3242 111.719 82.498 122.168 88.8457C132.617 95.1934 140.82 103.885 146.777 114.92C152.832 125.857 155.859 138.406 155.859 152.566C155.859 166.434 152.734 178.836 146.484 189.773C140.234 200.711 131.689 209.305 120.85 215.555C110.01 221.805 97.6563 224.93 83.7891 224.93ZM253.418 224.93C237.402 224.93 223.73 220.535 212.402 211.746C201.074 202.957 192.432 190.262 186.475 173.66C180.518 156.961 177.539 136.746 177.539 113.016C177.539 89.3828 180.518 69.2168 186.475 52.5176C192.529 35.7207 201.221 22.9277 212.549 14.1387C223.877 5.25195 237.5 0.808594 253.418 0.808594C269.336 0.808594 282.959 5.25195 294.287 14.1387C305.615 22.9277 314.258 35.7207 320.215 52.5176C326.27 69.2168 329.297 89.3828 329.297 113.016C329.297 136.746 326.318 156.961 320.361 173.66C314.404 190.262 305.762 202.957 294.434 211.746C283.203 220.535 269.531 224.93 253.418 224.93ZM253.418 201.785C264.258 201.785 273.438 198.318 280.957 191.385C288.477 184.354 294.189 174.197 298.096 160.916C302.1 147.635 304.102 131.668 304.102 113.016C304.102 94.2656 302.1 78.25 298.096 64.9687C294.189 51.6875 288.477 41.5312 280.957 34.5C273.438 27.4687 264.258 23.9531 253.418 23.9531C237.207 23.9531 224.707 31.7656 215.918 47.3906C207.129 63.0156 202.734 84.8906 202.734 113.016C202.734 131.668 204.688 147.635 208.594 160.916C212.598 174.197 218.359 184.354 225.879 191.385C233.496 198.318 242.676 201.785 253.418 201.785ZM356.25 222L356.25 58.2305L381.152 58.2305V129.422H397.852L456.738 58.2305L488.965 58.2305L423.047 137.332L489.844 222H457.617L403.711 152.859H381.152L381.152 222H356.25Z" fill="#010101"/>
<rect x="487" y="89" width="100" height="100" rx="50" fill="#F84204"/>
<path d="M537 142.333C538.841 142.333 540.333 143.826 540.333 145.667V155.667C540.333 157.508 538.841 159 537 159C535.159 159 533.667 157.508 533.667 155.667V145.667C533.667 143.826 535.159 142.333 537 142.333ZM530.333 135.667C532.174 135.667 533.667 137.159 533.667 139C533.667 140.841 532.174 142.333 530.333 142.333H520.333C518.492 142.333 517 140.841 517 139C517 137.159 518.492 135.667 520.333 135.667H530.333ZM553.667 135.667C555.508 135.667 557 137.159 557 139C557 140.841 555.508 142.333 553.667 142.333H543.667C541.826 142.333 540.333 140.841 540.333 139C540.333 137.159 541.826 135.667 543.667 135.667H553.667ZM537 119C538.841 119 540.333 120.492 540.333 122.333V132.333C540.333 134.174 538.841 135.667 537 135.667C535.159 135.667 533.667 134.174 533.667 132.333V122.333C533.667 120.492 535.159 119 537 119Z" fill="white"/>
</svg>
