<svg width="645" height="219" viewBox="0 0 645 219" fill="none" xmlns="http://www.w3.org/2000/svg">
<path d="M442.005 107.114C438.972 107.114 436.362 106.716 434.175 105.92C432.004 105.125 430.231 104.073 428.855 102.763C427.48 101.454 426.452 100.021 425.773 98.4631L432.161 95.8281C432.609 96.5573 433.205 97.3279 433.951 98.1399C434.713 98.9685 435.741 99.6728 437.033 100.253C438.343 100.833 440.025 101.123 442.08 101.123C444.897 101.123 447.225 100.435 449.065 99.0597C450.904 97.7008 451.824 95.5298 451.824 92.5469V85.0398H451.352C450.904 85.8518 450.258 86.755 449.413 87.7493C448.584 88.7436 447.441 89.6054 445.982 90.3345C444.524 91.0637 442.626 91.4283 440.29 91.4283C437.274 91.4283 434.556 90.724 432.136 89.3153C429.733 87.8902 427.828 85.7938 426.419 83.0263C425.027 80.2422 424.331 76.8201 424.331 72.7599C424.331 68.6998 425.019 65.2197 426.394 62.3196C427.786 59.4195 429.692 57.1989 432.112 55.6577C434.531 54.0999 437.274 53.321 440.339 53.321C442.709 53.321 444.623 53.7188 446.082 54.5142C447.54 55.2931 448.675 56.2045 449.487 57.2486C450.316 58.2926 450.954 59.2124 451.401 60.0078H451.948V53.8182L459.232 53.8182V92.8452C459.232 96.1264 458.469 98.8194 456.945 100.924C455.42 103.029 453.357 104.586 450.755 105.597C448.17 106.608 445.253 107.114 442.005 107.114ZM441.93 85.2635C444.068 85.2635 445.875 84.7663 447.349 83.772C448.841 82.7611 449.968 81.3194 450.73 79.4467C451.509 77.5575 451.898 75.2955 451.898 72.6605C451.898 70.0919 451.517 67.8298 450.755 65.8743C449.993 63.9188 448.874 62.3942 447.399 61.3004C445.924 60.1901 444.101 59.6349 441.93 59.6349C439.693 59.6349 437.829 60.215 436.337 61.375C434.846 62.5185 433.719 64.0762 432.957 66.0483C432.211 68.0204 431.838 70.2244 431.838 72.6605C431.838 75.1629 432.219 77.3587 432.982 79.2479C433.744 81.1371 434.871 82.612 436.362 83.6726C437.87 84.7332 439.726 85.2635 441.93 85.2635ZM480.311 92.8452C477.892 92.8452 475.704 92.3977 473.749 91.5028C471.793 90.5914 470.244 89.2739 469.1 87.5504C467.973 85.8269 467.41 83.714 467.41 81.2116C467.41 79.0573 467.824 77.2841 468.653 75.892C469.481 74.5 470.6 73.398 472.009 72.5859C473.417 71.7739 474.991 71.1607 476.732 70.7464C478.472 70.3321 480.245 70.0173 482.051 69.8018C484.338 69.5367 486.194 69.3213 487.619 69.1555C489.045 68.9732 490.08 68.6832 490.727 68.2855C491.373 67.8878 491.696 67.2415 491.696 66.3466V66.1726C491.696 64.0017 491.083 62.3196 489.857 61.1264C488.647 59.9332 486.84 59.3366 484.438 59.3366C481.935 59.3366 479.963 59.8918 478.521 61.0021C477.096 62.0959 476.11 63.3139 475.563 64.6562L468.578 63.0653C469.407 60.7453 470.616 58.8726 472.207 57.4474C473.815 56.0057 475.663 54.9616 477.751 54.3153C479.839 53.6525 482.035 53.321 484.338 53.321C485.863 53.321 487.478 53.5033 489.185 53.8679C490.909 54.2159 492.516 54.8622 494.008 55.8068C495.516 56.7514 496.75 58.102 497.712 59.8587C498.673 61.5987 499.153 63.8608 499.153 66.6449V92H491.895V86.7798H491.597C491.116 87.741 490.395 88.6856 489.434 89.6136C488.473 90.5417 487.238 91.3123 485.73 91.9254C484.222 92.5386 482.416 92.8452 480.311 92.8452ZM481.927 86.8793C483.982 86.8793 485.738 86.4732 487.197 85.6612C488.672 84.8492 489.79 83.7886 490.553 82.4794C491.331 81.1536 491.721 79.7367 491.721 78.2287V73.3068C491.456 73.572 490.942 73.8205 490.18 74.0526C489.434 74.268 488.58 74.4586 487.619 74.6243C486.658 74.7734 485.722 74.9143 484.81 75.0469C483.899 75.1629 483.137 75.2623 482.523 75.3452C481.082 75.5275 479.764 75.834 478.571 76.2649C477.394 76.6958 476.45 77.3172 475.737 78.1293C475.041 78.9247 474.693 79.9853 474.693 81.3111C474.693 83.1506 475.373 84.5426 476.732 85.4872C478.09 86.4152 479.822 86.8793 481.927 86.8793ZM509.053 92V53.8182H516.187V60.0327H516.66C517.455 57.928 518.756 56.2874 520.562 55.1108C522.369 53.9176 524.531 53.321 527.05 53.321C529.602 53.321 531.74 53.9176 533.464 55.1108C535.204 56.304 536.488 57.9446 537.317 60.0327H537.714C538.626 57.9943 540.076 56.3703 542.064 55.1605C544.053 53.9342 546.423 53.321 549.174 53.321C552.637 53.321 555.463 54.4065 557.65 56.5774C559.854 58.7483 560.956 62.0213 560.956 66.3963V92H553.524V67.0923C553.524 64.5071 552.82 62.6345 551.411 61.4744C550.002 60.3144 548.32 59.7344 546.365 59.7344C543.945 59.7344 542.064 60.4801 540.722 61.9716C539.38 63.4465 538.709 65.344 538.709 67.6641V92L531.301 92V66.62C531.301 64.5485 530.655 62.883 529.362 61.6236C528.069 60.3641 526.387 59.7344 524.316 59.7344C522.907 59.7344 521.606 60.1072 520.413 60.853C519.237 61.5821 518.284 62.6013 517.555 63.9105C516.842 65.2197 516.486 66.736 516.486 68.4595V92H509.053ZM587.374 92.7706C583.612 92.7706 580.373 91.9669 577.655 90.3594C574.954 88.7353 572.866 86.4567 571.391 83.5234C569.932 80.5736 569.203 77.1184 569.203 73.1577C569.203 69.2467 569.932 65.7997 571.391 62.8168C572.866 59.8338 574.92 57.5054 577.555 55.8317C580.207 54.1579 583.306 53.321 586.852 53.321C589.007 53.321 591.095 53.6773 593.116 54.3899C595.138 55.1025 596.953 56.2211 598.56 57.7457C600.168 59.2704 601.436 61.2507 602.364 63.6868C603.292 66.1063 603.756 69.0478 603.756 72.5114V75.1463H573.404V69.5781H596.472C596.472 67.6226 596.075 65.8909 595.279 64.3828C594.484 62.8582 593.365 61.6567 591.923 60.7784C590.498 59.9001 588.824 59.4609 586.902 59.4609C584.814 59.4609 582.991 59.9747 581.433 61.0021C579.892 62.013 578.699 63.3388 577.854 64.9794C577.025 66.6035 576.611 68.3684 576.611 70.2741V74.6243C576.611 77.1764 577.058 79.3473 577.953 81.1371C578.865 82.9268 580.132 84.294 581.756 85.2386C583.38 86.1667 585.278 86.6307 587.449 86.6307C588.857 86.6307 590.142 86.4318 591.302 86.0341C592.462 85.6198 593.464 85.0066 594.31 84.1946C595.155 83.3826 595.801 82.38 596.249 81.1868L603.283 82.4545C602.72 84.526 601.709 86.3407 600.251 87.8984C598.809 89.4396 596.994 90.6411 594.807 91.5028C592.636 92.348 590.158 92.7706 587.374 92.7706ZM640.614 63.1399L633.877 64.3331C633.596 63.4714 633.148 62.651 632.535 61.8722C631.938 61.0933 631.126 60.4553 630.099 59.9581C629.071 59.4609 627.787 59.2124 626.246 59.2124C624.141 59.2124 622.385 59.6847 620.976 60.6293C619.567 61.5573 618.863 62.7588 618.863 64.2337C618.863 65.5097 619.335 66.5372 620.28 67.3161C621.225 68.0949 622.749 68.733 624.854 69.2301L630.919 70.6222C634.432 71.4342 637.051 72.6854 638.774 74.3757C640.498 76.0661 641.36 78.2618 641.36 80.9631C641.36 83.25 640.697 85.2884 639.371 87.0781C638.062 88.8513 636.231 90.2434 633.877 91.2543C631.541 92.2652 628.831 92.7706 625.749 92.7706C621.473 92.7706 617.985 91.8591 615.284 90.0362C612.582 88.1967 610.925 85.5866 610.312 82.206L617.496 81.1122C617.943 82.9848 618.863 84.4018 620.255 85.3629C621.647 86.3075 623.462 86.7798 625.699 86.7798C628.135 86.7798 630.082 86.2744 631.541 85.2635C632.999 84.236 633.728 82.9848 633.728 81.5099C633.728 80.3168 633.281 79.3142 632.386 78.5021C631.508 77.6901 630.157 77.0769 628.334 76.6626L621.871 75.2457C618.308 74.4337 615.673 73.1411 613.966 71.3679C612.276 69.5947 611.431 67.3492 611.431 64.6314C611.431 62.3776 612.06 60.4055 613.32 58.7152C614.579 57.0249 616.319 55.7074 618.54 54.7628C620.761 53.8016 623.304 53.321 626.171 53.321C630.298 53.321 633.546 54.2159 635.916 56.0057C638.285 57.7789 639.852 60.157 640.614 63.1399Z" fill="#010101"/>
<path d="M22.2656 219L119.824 25.9336V24.1758L7.32422 24.1758L7.32422 0.738281L147.363 0.738281V25.6406L50.0977 219H22.2656ZM170.801 219L170.801 55.2305H195.703L195.703 126.422H212.402L271.289 55.2305L303.516 55.2305L237.598 134.332L304.395 219H272.168L218.262 149.859H195.703V219H170.801Z" fill="#010101"/>
<rect x="302" y="86" width="100" height="100" rx="50" fill="#F84204"/>
<path d="M352 139.333C353.841 139.333 355.333 140.826 355.333 142.667V152.667C355.333 154.508 353.841 156 352 156C350.159 156 348.667 154.508 348.667 152.667V142.667C348.667 140.826 350.159 139.333 352 139.333ZM345.333 132.667C347.174 132.667 348.667 134.159 348.667 136C348.667 137.841 347.174 139.333 345.333 139.333H335.333C333.492 139.333 332 137.841 332 136C332 134.159 333.492 132.667 335.333 132.667H345.333ZM368.667 132.667C370.508 132.667 372 134.159 372 136C372 137.841 370.508 139.333 368.667 139.333H358.667C356.826 139.333 355.333 137.841 355.333 136C355.333 134.159 356.826 132.667 358.667 132.667H368.667ZM352 116C353.841 116 355.333 117.492 355.333 119.333V129.333C355.333 131.174 353.841 132.667 352 132.667C350.159 132.667 348.667 131.174 348.667 129.333V119.333C348.667 117.492 350.159 116 352 116Z" fill="white"/>
</svg>
