<svg width="320" height="160" viewBox="0 0 320 160" fill="none" xmlns="http://www.w3.org/2000/svg">
<rect width="320" height="160" rx="20" fill="#010101"/>
<path d="M48.8203 44.2344C47.3359 44.2344 46.0117 43.8711 44.8477 43.1445C43.6836 42.418 42.7695 41.3867 42.1055 40.0508C41.4414 38.707 41.1094 37.1172 41.1094 35.2812C41.1094 33.4375 41.4414 31.8438 42.1055 30.5C42.7695 29.1562 43.6836 28.1211 44.8477 27.3945C46.0117 26.668 47.3359 26.3047 48.8203 26.3047C49.6953 26.3047 50.5195 26.4336 51.293 26.6914C52.0742 26.9492 52.7773 27.3242 53.4023 27.8164C54.0273 28.3008 54.5469 28.8984 54.9609 29.6094C55.3828 30.3125 55.6719 31.1094 55.8281 32H53.7188C53.5938 31.3906 53.375 30.8555 53.0625 30.3945C52.7578 29.9336 52.3828 29.5469 51.9375 29.2344C51.5 28.9141 51.0156 28.6758 50.4844 28.5195C49.9531 28.3555 49.3984 28.2734 48.8203 28.2734C47.7656 28.2734 46.8086 28.543 45.9492 29.082C45.0898 29.6133 44.4062 30.4023 43.8984 31.4492C43.3984 32.4883 43.1484 33.7656 43.1484 35.2812C43.1484 36.7891 43.3984 38.0625 43.8984 39.1016C44.4062 40.1406 45.0898 40.9297 45.9492 41.4688C46.8086 42 47.7656 42.2656 48.8203 42.2656C49.3984 42.2656 49.9531 42.1875 50.4844 42.0312C51.0156 41.8672 51.5 41.6289 51.9375 41.3164C52.3828 40.9961 52.7578 40.6055 53.0625 40.1445C53.375 39.6836 53.5938 39.1484 53.7188 38.5391H55.8281C55.6719 39.4375 55.3828 40.2383 54.9609 40.9414C54.5469 41.6445 54.0273 42.2422 53.4023 42.7344C52.7773 43.2188 52.0742 43.5898 51.293 43.8477C50.5195 44.1055 49.6953 44.2344 48.8203 44.2344ZM58.125 44V26.5391H64.0312C65.3984 26.5391 66.5156 26.7852 67.3828 27.2773C68.2578 27.7695 68.9062 28.4336 69.3281 29.2695C69.75 30.1055 69.9609 31.0391 69.9609 32.0703C69.9609 33.0938 69.75 34.0273 69.3281 34.8711C68.9141 35.7148 68.2695 36.3867 67.3945 36.8867C66.5273 37.3789 65.4141 37.625 64.0547 37.625H59.8359V35.75H63.9844C64.9219 35.75 65.6758 35.5898 66.2461 35.2695C66.8164 34.9492 67.2305 34.5117 67.4883 33.957C67.7461 33.3945 67.875 32.7656 67.875 32.0703C67.875 31.3672 67.7461 30.7422 67.4883 30.1953C67.2305 29.6406 66.8125 29.207 66.2344 28.8945C65.6641 28.5742 64.9062 28.4141 63.9609 28.4141H60.2344V44H58.125ZM71.1797 44H68.9531L75.375 26.5391H77.5547L83.9531 44H81.75L76.5234 29.3047H76.3828L71.1797 44ZM72 37.1797H80.9297V39.0547H72V37.1797Z" fill="white"/>
<path d="M149.375 92.2891V82.3281H151.133C151.589 81.9115 151.979 81.4167 152.305 80.8438C152.63 80.2578 152.897 79.5677 153.105 78.7734C153.327 77.9661 153.516 77.0352 153.672 75.9805C153.828 74.9258 153.965 73.7083 154.082 72.3281L154.766 64.1641H169.59V82.3281H172.949V92.2891H168.789V86H153.594V92.2891H149.375ZM155.703 82.3281H165.449V67.7969H158.555L158.086 72.3281C157.891 74.6328 157.624 76.625 157.285 78.3047C156.96 79.9714 156.432 81.3125 155.703 82.3281ZM184.59 86.4492C182.546 86.4492 180.755 85.9805 179.219 85.043C177.695 84.1055 176.51 82.7904 175.664 81.0977C174.831 79.4049 174.414 77.4388 174.414 75.1992C174.414 72.9336 174.831 70.9544 175.664 69.2617C176.51 67.556 177.695 66.2344 179.219 65.2969C180.755 64.3594 182.546 63.8906 184.59 63.8906C186.647 63.8906 188.438 64.3594 189.961 65.2969C191.484 66.2344 192.669 67.556 193.516 69.2617C194.362 70.9544 194.785 72.9336 194.785 75.1992C194.785 77.4388 194.362 79.4049 193.516 81.0977C192.669 82.7904 191.484 84.1055 189.961 85.043C188.438 85.9805 186.647 86.4492 184.59 86.4492ZM184.59 82.875C185.931 82.875 187.038 82.5234 187.91 81.8203C188.783 81.1172 189.427 80.1862 189.844 79.0273C190.273 77.8555 190.488 76.5794 190.488 75.1992C190.488 73.793 190.273 72.5039 189.844 71.332C189.427 70.1602 188.783 69.2227 187.91 68.5195C187.038 67.8164 185.931 67.4648 184.59 67.4648C183.262 67.4648 182.161 67.8164 181.289 68.5195C180.43 69.2227 179.785 70.1602 179.355 71.332C178.926 72.5039 178.711 73.793 178.711 75.1992C178.711 76.5794 178.926 77.8555 179.355 79.0273C179.785 80.1862 180.43 81.1172 181.289 81.8203C182.161 82.5234 183.262 82.875 184.59 82.875ZM215.664 89.6328V53.2656H217.969V89.6328H215.664ZM216.816 86.4688C214.642 86.4688 212.754 86.1302 211.152 85.4531C209.564 84.763 208.32 83.7799 207.422 82.5039C206.523 81.2279 206.022 79.7109 205.918 77.9531H210.332C210.423 79.0078 210.762 79.8867 211.348 80.5898C211.947 81.2799 212.721 81.7943 213.672 82.1328C214.622 82.4714 215.664 82.6406 216.797 82.6406C218.034 82.6406 219.141 82.4453 220.117 82.0547C221.094 81.6641 221.855 81.1172 222.402 80.4141C222.962 79.6979 223.242 78.8646 223.242 77.9141C223.242 77.0547 222.995 76.3516 222.5 75.8047C222.018 75.2578 221.361 74.8086 220.527 74.457C219.694 74.0924 218.757 73.7734 217.715 73.5L214.297 72.5625C211.953 71.9375 210.104 71.0065 208.75 69.7695C207.396 68.5195 206.719 66.8854 206.719 64.8672C206.719 63.1875 207.168 61.7227 208.066 60.4727C208.978 59.2227 210.208 58.2526 211.758 57.5625C213.32 56.8594 215.072 56.5078 217.012 56.5078C218.991 56.5078 220.729 56.8594 222.227 57.5625C223.737 58.2526 224.928 59.2031 225.801 60.4141C226.686 61.612 227.148 62.9857 227.188 64.5352H222.93C222.773 63.194 222.148 62.1523 221.055 61.4102C219.974 60.668 218.594 60.2969 216.914 60.2969C215.742 60.2969 214.714 60.4857 213.828 60.8633C212.956 61.2279 212.279 61.7357 211.797 62.3867C211.328 63.0378 211.094 63.7865 211.094 64.6328C211.094 65.5443 211.374 66.2865 211.934 66.8594C212.507 67.4323 213.197 67.888 214.004 68.2266C214.824 68.5521 215.612 68.819 216.367 69.0273L219.199 69.7891C220.124 70.0234 221.074 70.3359 222.051 70.7266C223.027 71.1172 223.932 71.6315 224.766 72.2695C225.612 72.8945 226.289 73.6758 226.797 74.6133C227.318 75.5378 227.578 76.6576 227.578 77.9727C227.578 79.6003 227.155 81.0586 226.309 82.3477C225.462 83.6237 224.238 84.6328 222.637 85.375C221.035 86.1042 219.095 86.4688 216.816 86.4688ZM230.742 86V82.8359L240.586 72.6016C241.628 71.5078 242.487 70.5443 243.164 69.7109C243.854 68.8646 244.368 68.0638 244.707 67.3086C245.059 66.5534 245.234 65.7526 245.234 64.9062C245.234 63.9297 245.007 63.0898 244.551 62.3867C244.095 61.6836 243.477 61.1432 242.695 60.7656C241.914 60.388 241.029 60.1992 240.039 60.1992C238.997 60.1992 238.092 60.4141 237.324 60.8438C236.556 61.2604 235.957 61.8594 235.527 62.6406C235.111 63.4089 234.902 64.3138 234.902 65.3555H230.723C230.723 63.5846 231.126 62.0352 231.934 60.707C232.754 59.3789 233.874 58.3503 235.293 57.6211C236.725 56.8789 238.34 56.5078 240.137 56.5078C241.973 56.5078 243.587 56.8724 244.98 57.6016C246.374 58.3307 247.461 59.3203 248.242 60.5703C249.023 61.8073 249.414 63.207 249.414 64.7695C249.414 65.8503 249.212 66.9049 248.809 67.9336C248.418 68.9622 247.721 70.1146 246.719 71.3906C245.729 72.6536 244.349 74.1771 242.578 75.9609L236.797 82.0156V82.25H249.883V86H230.742ZM263.711 86.3906C261.471 86.3906 259.551 85.8047 257.949 84.6328C256.361 83.4609 255.143 81.7682 254.297 79.5547C253.464 77.3281 253.047 74.6328 253.047 71.4688C253.047 68.3177 253.47 65.6289 254.316 63.4023C255.163 61.1628 256.38 59.457 257.969 58.2852C259.57 57.1003 261.484 56.5078 263.711 56.5078C265.951 56.5078 267.865 57.1003 269.453 58.2852C271.055 59.457 272.272 61.1628 273.105 63.4023C273.952 65.6289 274.375 68.3177 274.375 71.4688C274.375 74.6328 273.958 77.3281 273.125 79.5547C272.292 81.7682 271.081 83.4609 269.492 84.6328C267.904 85.8047 265.977 86.3906 263.711 86.3906ZM263.711 82.6406C265.078 82.6406 266.23 82.2044 267.168 81.332C268.105 80.4596 268.822 79.1901 269.316 77.5234C269.811 75.8438 270.059 73.8255 270.059 71.4688C270.059 69.099 269.811 67.0807 269.316 65.4141C268.822 63.7344 268.105 62.4583 267.168 61.5859C266.23 60.7005 265.078 60.2578 263.711 60.2578C261.693 60.2578 260.13 61.2409 259.023 63.207C257.93 65.1602 257.383 67.9141 257.383 71.4688C257.383 73.8255 257.63 75.8438 258.125 77.5234C258.62 79.1901 259.336 80.4596 260.273 81.332C261.224 82.2044 262.37 82.6406 263.711 82.6406ZM287.891 86.3906C285.651 86.3906 283.73 85.8047 282.129 84.6328C280.54 83.4609 279.323 81.7682 278.477 79.5547C277.643 77.3281 277.227 74.6328 277.227 71.4688C277.227 68.3177 277.65 65.6289 278.496 63.4023C279.342 61.1628 280.56 59.457 282.148 58.2852C283.75 57.1003 285.664 56.5078 287.891 56.5078C290.13 56.5078 292.044 57.1003 293.633 58.2852C295.234 59.457 296.452 61.1628 297.285 63.4023C298.132 65.6289 298.555 68.3177 298.555 71.4688C298.555 74.6328 298.138 77.3281 297.305 79.5547C296.471 81.7682 295.26 83.4609 293.672 84.6328C292.083 85.8047 290.156 86.3906 287.891 86.3906ZM287.891 82.6406C289.258 82.6406 290.41 82.2044 291.348 81.332C292.285 80.4596 293.001 79.1901 293.496 77.5234C293.991 75.8438 294.238 73.8255 294.238 71.4688C294.238 69.099 293.991 67.0807 293.496 65.4141C293.001 63.7344 292.285 62.4583 291.348 61.5859C290.41 60.7005 289.258 60.2578 287.891 60.2578C285.872 60.2578 284.31 61.2409 283.203 63.207C282.109 65.1602 281.562 67.9141 281.562 71.4688C281.562 73.8255 281.81 75.8438 282.305 77.5234C282.799 79.1901 283.516 80.4596 284.453 81.332C285.404 82.2044 286.549 82.6406 287.891 82.6406Z" fill="white"/>
<rect x="20" y="20" width="2" height="120" rx="1" fill="white"/>
<rect x="28.4242" y="120" width="2" height="20" rx="1" fill="white"/>
<rect x="36.8485" y="120" width="2" height="20" rx="1" fill="white"/>
<rect x="45.2727" y="120" width="2" height="20" rx="1" fill="white"/>
<rect x="53.697" y="120" width="2" height="20" rx="1" fill="white"/>
<rect x="62.1212" y="120" width="2" height="20" rx="1" fill="white"/>
<rect x="70.5454" y="120" width="2" height="20" rx="1" fill="white"/>
<rect x="78.9697" y="120" width="2" height="20" rx="1" fill="white"/>
<rect x="87.3939" y="120" width="2" height="20" rx="1" fill="white"/>
<rect x="95.8181" y="120" width="2" height="20" rx="1" fill="white"/>
<rect x="104.242" y="120" width="2" height="20" rx="1" fill="white"/>
<rect x="112.667" y="120" width="2" height="20" rx="1" fill="white"/>
<rect x="121.091" y="120" width="2" height="20" rx="1" fill="white"/>
<rect x="129.515" y="120" width="2" height="20" rx="1" fill="white"/>
<rect x="137.939" y="120" width="2" height="20" rx="1" fill="white"/>
<rect x="146.364" y="120" width="2" height="20" rx="1" fill="white"/>
<rect x="154.788" y="120" width="2" height="20" rx="1" fill="white"/>
<rect x="163.212" y="120" width="2" height="20" rx="1" fill="white"/>
<rect x="171.636" y="120" width="2" height="20" rx="1" fill="white"/>
<rect x="180.061" y="120" width="2" height="20" rx="1" fill="white"/>
<rect x="188.485" y="120" width="2" height="20" rx="1" fill="white"/>
<rect x="196.909" y="120" width="2" height="20" rx="1" fill="white"/>
<rect x="205.333" y="120" width="2" height="20" rx="1" fill="white"/>
<rect x="213.758" y="120" width="2" height="20" rx="1" fill="white"/>
<rect x="222.182" y="120" width="2" height="20" rx="1" fill="white"/>
<rect x="230.606" y="120" width="2" height="20" rx="1" fill="white"/>
<rect x="239.03" y="120" width="2" height="20" rx="1" fill="white"/>
<rect x="247.454" y="120" width="2" height="20" rx="1" fill="white"/>
<rect x="255.879" y="120" width="2" height="20" rx="1" fill="white"/>
<rect x="264.303" y="120" width="2" height="20" rx="1" fill="white"/>
<rect x="272.727" y="120" width="2" height="20" rx="1" fill="white"/>
<rect x="281.151" y="120" width="2" height="20" rx="1" fill="white"/>
<rect x="289.576" y="120" width="2" height="20" rx="1" fill="white"/>
<rect x="298" y="120" width="2" height="20" rx="1" fill="white"/>
</svg>
