<svg width="280" height="150" viewBox="0 0 280 150" fill="none" xmlns="http://www.w3.org/2000/svg">
<rect width="280" height="150" rx="20" fill="#010101"/>
<path d="M48.8203 44.2344C47.3359 44.2344 46.0117 43.8711 44.8477 43.1445C43.6836 42.418 42.7695 41.3867 42.1055 40.0508C41.4414 38.707 41.1094 37.1172 41.1094 35.2812C41.1094 33.4375 41.4414 31.8438 42.1055 30.5C42.7695 29.1562 43.6836 28.1211 44.8477 27.3945C46.0117 26.668 47.3359 26.3047 48.8203 26.3047C49.6953 26.3047 50.5195 26.4336 51.293 26.6914C52.0742 26.9492 52.7773 27.3242 53.4023 27.8164C54.0273 28.3008 54.5469 28.8984 54.9609 29.6094C55.3828 30.3125 55.6719 31.1094 55.8281 32H53.7188C53.5938 31.3906 53.375 30.8555 53.0625 30.3945C52.7578 29.9336 52.3828 29.5469 51.9375 29.2344C51.5 28.9141 51.0156 28.6758 50.4844 28.5195C49.9531 28.3555 49.3984 28.2734 48.8203 28.2734C47.7656 28.2734 46.8086 28.543 45.9492 29.082C45.0898 29.6133 44.4062 30.4023 43.8984 31.4492C43.3984 32.4883 43.1484 33.7656 43.1484 35.2812C43.1484 36.7891 43.3984 38.0625 43.8984 39.1016C44.4062 40.1406 45.0898 40.9297 45.9492 41.4688C46.8086 42 47.7656 42.2656 48.8203 42.2656C49.3984 42.2656 49.9531 42.1875 50.4844 42.0312C51.0156 41.8672 51.5 41.6289 51.9375 41.3164C52.3828 40.9961 52.7578 40.6055 53.0625 40.1445C53.375 39.6836 53.5938 39.1484 53.7188 38.5391H55.8281C55.6719 39.4375 55.3828 40.2383 54.9609 40.9414C54.5469 41.6445 54.0273 42.2422 53.4023 42.7344C52.7773 43.2188 52.0742 43.5898 51.293 43.8477C50.5195 44.1055 49.6953 44.2344 48.8203 44.2344ZM58.125 44V26.5391H64.0312C65.3984 26.5391 66.5156 26.7852 67.3828 27.2773C68.2578 27.7695 68.9062 28.4336 69.3281 29.2695C69.75 30.1055 69.9609 31.0391 69.9609 32.0703C69.9609 33.0938 69.75 34.0273 69.3281 34.8711C68.9141 35.7148 68.2695 36.3867 67.3945 36.8867C66.5273 37.3789 65.4141 37.625 64.0547 37.625H59.8359V35.75H63.9844C64.9219 35.75 65.6758 35.5898 66.2461 35.2695C66.8164 34.9492 67.2305 34.5117 67.4883 33.957C67.7461 33.3945 67.875 32.7656 67.875 32.0703C67.875 31.3672 67.7461 30.7422 67.4883 30.1953C67.2305 29.6406 66.8125 29.207 66.2344 28.8945C65.6641 28.5742 64.9062 28.4141 63.9609 28.4141H60.2344V44H58.125ZM71.1797 44H68.9531L75.375 26.5391H77.5547L83.9531 44H81.75L76.5234 29.3047H76.3828L71.1797 44ZM72 37.1797H80.9297V39.0547H72V37.1797Z" fill="white"/>
<rect x="20" y="20" width="2" height="110" rx="1" fill="white"/>
<rect x="27.2119" y="110" width="2" height="20" rx="1" fill="white"/>
<rect x="34.4238" y="110" width="2" height="20" rx="1" fill="white"/>
<rect x="41.6367" y="110" width="2" height="20" rx="1" fill="white"/>
<rect x="48.8486" y="110" width="2" height="20" rx="1" fill="white"/>
<rect x="56.0605" y="110" width="2" height="20" rx="1" fill="white"/>
<rect x="63.2725" y="110" width="2" height="20" rx="1" fill="white"/>
<rect x="70.4844" y="110" width="2" height="20" rx="1" fill="white"/>
<rect x="77.6973" y="110" width="2" height="20" rx="1" fill="white"/>
<rect x="84.9092" y="110" width="2" height="20" rx="1" fill="white"/>
<rect x="92.1211" y="110" width="2" height="20" rx="1" fill="white"/>
<rect x="99.333" y="110" width="2" height="20" rx="1" fill="white"/>
<rect x="106.546" y="110" width="2" height="20" rx="1" fill="white"/>
<rect x="113.758" y="110" width="2" height="20" rx="1" fill="white"/>
<rect x="120.97" y="110" width="2" height="20" rx="1" fill="white"/>
<rect x="128.182" y="110" width="2" height="20" rx="1" fill="white"/>
<rect x="135.394" y="110" width="2" height="20" rx="1" fill="white"/>
<rect x="142.606" y="110" width="2" height="20" rx="1" fill="white"/>
<rect x="149.818" y="110" width="2" height="20" rx="1" fill="white"/>
<rect x="157.03" y="110" width="2" height="20" rx="1" fill="white"/>
<rect x="164.242" y="110" width="2" height="20" rx="1" fill="white"/>
<rect x="171.454" y="110" width="2" height="20" rx="1" fill="white"/>
<rect x="178.667" y="110" width="2" height="20" rx="1" fill="white"/>
<rect x="185.879" y="110" width="2" height="20" rx="1" fill="white"/>
<rect x="193.091" y="110" width="2" height="20" rx="1" fill="white"/>
<rect x="200.303" y="110" width="2" height="20" rx="1" fill="white"/>
<rect x="207.516" y="110" width="2" height="20" rx="1" fill="white"/>
<rect x="214.728" y="110" width="2" height="20" rx="1" fill="white"/>
<rect x="221.939" y="110" width="2" height="20" rx="1" fill="white"/>
<rect x="229.151" y="110" width="2" height="20" rx="1" fill="white"/>
<rect x="236.363" y="110" width="2" height="20" rx="1" fill="white"/>
<rect x="243.576" y="110" width="2" height="20" rx="1" fill="white"/>
<rect x="250.788" y="110" width="2" height="20" rx="1" fill="white"/>
<rect x="258" y="110" width="2" height="20" rx="1" fill="white"/>
<path d="M146.322 72.4545V75.3523H136.192V72.4545H146.322ZM138.909 68.0114H142.519V85.5547C142.519 86.255 142.623 86.7822 142.833 87.1364C143.042 87.4825 143.312 87.7199 143.642 87.8487C143.98 87.9695 144.346 88.0298 144.74 88.0298C145.03 88.0298 145.284 88.0097 145.501 87.9695C145.718 87.9292 145.887 87.897 146.008 87.8729L146.66 90.8551C146.451 90.9356 146.153 91.0161 145.767 91.0966C145.38 91.1851 144.897 91.2334 144.318 91.2415C143.368 91.2576 142.483 91.0885 141.662 90.7344C140.841 90.3802 140.176 89.8329 139.669 89.0923C139.162 88.3518 138.909 87.4221 138.909 86.3033V68.0114ZM158.127 91.3743C156.389 91.3743 154.871 90.9759 153.575 90.179C152.28 89.3821 151.273 88.2673 150.557 86.8345C149.841 85.4018 149.482 83.7275 149.482 81.8118C149.482 79.888 149.841 78.2057 150.557 76.7649C151.273 75.3241 152.28 74.2053 153.575 73.4084C154.871 72.6115 156.389 72.2131 158.127 72.2131C159.866 72.2131 161.383 72.6115 162.679 73.4084C163.975 74.2053 164.981 75.3241 165.698 76.7649C166.414 78.2057 166.772 79.888 166.772 81.8118C166.772 83.7275 166.414 85.4018 165.698 86.8345C164.981 88.2673 163.975 89.3821 162.679 90.179C161.383 90.9759 159.866 91.3743 158.127 91.3743ZM158.139 88.3438C159.266 88.3438 160.2 88.0459 160.941 87.4503C161.681 86.8546 162.228 86.0618 162.583 85.0717C162.945 84.0817 163.126 82.991 163.126 81.7997C163.126 80.6165 162.945 79.5298 162.583 78.5398C162.228 77.5417 161.681 76.7408 160.941 76.1371C160.2 75.5334 159.266 75.2315 158.139 75.2315C157.004 75.2315 156.063 75.5334 155.314 76.1371C154.574 76.7408 154.022 77.5417 153.66 78.5398C153.306 79.5298 153.129 80.6165 153.129 81.7997C153.129 82.991 153.306 84.0817 153.66 85.0717C154.022 86.0618 154.574 86.8546 155.314 87.4503C156.063 88.0459 157.004 88.3438 158.139 88.3438ZM187.382 94.0909V63.1818H189.362V94.0909H187.382ZM193.576 72.7685C193.447 71.6255 192.916 70.7401 191.982 70.1122C191.049 69.4763 189.874 69.1584 188.457 69.1584C187.443 69.1584 186.565 69.3194 185.825 69.6413C185.084 69.9553 184.509 70.3899 184.098 70.9453C183.696 71.4927 183.494 72.1165 183.494 72.8168C183.494 73.4044 183.631 73.9115 183.905 74.3381C184.187 74.7647 184.553 75.1229 185.004 75.4126C185.463 75.6944 185.954 75.9318 186.477 76.125C187 76.3101 187.503 76.4631 187.986 76.5838L190.401 77.2116C191.19 77.4048 191.999 77.6664 192.828 77.9964C193.657 78.3265 194.425 78.7611 195.134 79.3004C195.842 79.8397 196.414 80.5078 196.848 81.3047C197.291 82.1016 197.512 83.0554 197.512 84.1662C197.512 85.5668 197.15 86.8104 196.426 87.897C195.709 88.9837 194.667 89.8409 193.298 90.4688C191.938 91.0966 190.292 91.4105 188.36 91.4105C186.509 91.4105 184.907 91.1167 183.555 90.5291C182.203 89.9415 181.144 89.1084 180.379 88.0298C179.615 86.9432 179.192 85.6553 179.112 84.1662H182.855C182.927 85.0597 183.217 85.8042 183.724 86.3999C184.239 86.9875 184.895 87.4261 185.692 87.7159C186.497 87.9976 187.378 88.1385 188.336 88.1385C189.391 88.1385 190.328 87.9735 191.149 87.6435C191.978 87.3054 192.63 86.8385 193.105 86.2429C193.58 85.6392 193.818 84.9349 193.818 84.13C193.818 83.3975 193.608 82.7978 193.19 82.331C192.779 81.8641 192.22 81.4777 191.512 81.1719C190.811 80.866 190.018 80.5964 189.133 80.3629L186.211 79.5661C184.231 79.0268 182.661 78.2339 181.502 77.1875C180.351 76.1411 179.776 74.7566 179.776 73.0341C179.776 71.6094 180.162 70.3658 180.935 69.3033C181.708 68.2408 182.754 67.4157 184.074 66.8281C185.394 66.2325 186.883 65.9347 188.541 65.9347C190.216 65.9347 191.693 66.2285 192.972 66.8161C194.26 67.4036 195.275 68.2126 196.015 69.2429C196.756 70.2652 197.142 71.4403 197.174 72.7685H193.576ZM201.632 91V88.2955L210 79.6264C210.893 78.6847 211.63 77.8596 212.209 77.1513C212.797 76.4349 213.235 75.7547 213.525 75.1108C213.815 74.4669 213.96 73.7827 213.96 73.0582C213.96 72.2372 213.767 71.5289 213.38 70.9332C212.994 70.3295 212.467 69.8667 211.799 69.5447C211.131 69.2147 210.378 69.0497 209.541 69.0497C208.655 69.0497 207.883 69.2308 207.223 69.593C206.563 69.9553 206.056 70.4664 205.701 71.1264C205.347 71.7865 205.17 72.5592 205.17 73.4446H201.608C201.608 71.9394 201.954 70.6233 202.647 69.4964C203.339 68.3696 204.289 67.4962 205.496 66.8764C206.703 66.2486 208.076 65.9347 209.613 65.9347C211.167 65.9347 212.535 66.2446 213.718 66.8643C214.91 67.4761 215.839 68.3132 216.507 69.3757C217.176 70.4302 217.51 71.6214 217.51 72.9496C217.51 73.8672 217.337 74.7647 216.99 75.642C216.652 76.5194 216.061 77.4974 215.216 78.576C214.37 79.6465 213.195 80.9465 211.69 82.4759L206.776 87.6193V87.8004H217.908V91H201.632ZM231.093 91.4105C229.185 91.4025 227.555 90.8994 226.203 89.9013C224.85 88.9032 223.816 87.4503 223.1 85.5426C222.383 83.6349 222.025 81.3369 222.025 78.6484C222.025 75.968 222.383 73.678 223.1 71.7784C223.824 69.8788 224.863 68.4299 226.215 67.4318C227.575 66.4337 229.201 65.9347 231.093 65.9347C232.984 65.9347 234.606 66.4377 235.958 67.4439C237.311 68.442 238.345 69.8909 239.061 71.7905C239.786 73.6821 240.148 75.968 240.148 78.6484C240.148 81.3449 239.79 83.647 239.074 85.5547C238.357 87.4543 237.323 88.9072 235.971 89.9134C234.618 90.9115 232.992 91.4105 231.093 91.4105ZM231.093 88.1868C232.767 88.1868 234.075 87.3698 235.017 85.7358C235.967 84.1018 236.441 81.7393 236.441 78.6484C236.441 76.5959 236.224 74.8613 235.789 73.4446C235.363 72.0199 234.747 70.9413 233.942 70.2088C233.145 69.4683 232.195 69.098 231.093 69.098C229.426 69.098 228.118 69.919 227.169 71.5611C226.219 73.2031 225.74 75.5656 225.732 78.6484C225.732 80.709 225.945 82.4517 226.372 83.8764C226.806 85.2931 227.422 86.3677 228.219 87.1001C229.016 87.8246 229.974 88.1868 231.093 88.1868ZM253.04 91.4105C251.132 91.4025 249.502 90.8994 248.15 89.9013C246.798 88.9032 245.763 87.4503 245.047 85.5426C244.331 83.6349 243.972 81.3369 243.972 78.6484C243.972 75.968 244.331 73.678 245.047 71.7784C245.771 69.8788 246.81 68.4299 248.162 67.4318C249.522 66.4337 251.148 65.9347 253.04 65.9347C254.932 65.9347 256.553 66.4377 257.906 67.4439C259.258 68.442 260.292 69.8909 261.009 71.7905C261.733 73.6821 262.095 75.968 262.095 78.6484C262.095 81.3449 261.737 83.647 261.021 85.5547C260.304 87.4543 259.27 88.9072 257.918 89.9134C256.566 90.9115 254.94 91.4105 253.04 91.4105ZM253.04 88.1868C254.714 88.1868 256.022 87.3698 256.964 85.7358C257.914 84.1018 258.389 81.7393 258.389 78.6484C258.389 76.5959 258.171 74.8613 257.737 73.4446C257.31 72.0199 256.694 70.9413 255.889 70.2088C255.093 69.4683 254.143 69.098 253.04 69.098C251.374 69.098 250.066 69.919 249.116 71.5611C248.166 73.2031 247.687 75.5656 247.679 78.6484C247.679 80.709 247.892 82.4517 248.319 83.8764C248.754 85.2931 249.369 86.3677 250.166 87.1001C250.963 87.8246 251.921 88.1868 253.04 88.1868Z" fill="white"/>
</svg>
