<svg width="158" height="64" viewBox="0 0 158 64" fill="none" xmlns="http://www.w3.org/2000/svg">
<rect width="158" height="64" rx="10" fill="#010101"/>
<path d="M25.4785 24.1367C24.6126 24.1367 23.8402 23.9248 23.1611 23.501C22.4821 23.0771 21.9489 22.4756 21.5615 21.6963C21.1742 20.9124 20.9805 19.985 20.9805 18.9141C20.9805 17.8385 21.1742 16.9089 21.5615 16.125C21.9489 15.3411 22.4821 14.7373 23.1611 14.3135C23.8402 13.8896 24.6126 13.6777 25.4785 13.6777C25.9889 13.6777 26.4697 13.7529 26.9209 13.9033C27.3766 14.0537 27.7868 14.2725 28.1514 14.5596C28.516 14.8421 28.819 15.1908 29.0605 15.6055C29.3066 16.0156 29.4753 16.4805 29.5664 17H28.3359C28.263 16.6445 28.1354 16.3324 27.9531 16.0635C27.7754 15.7946 27.5566 15.569 27.2969 15.3867C27.0417 15.1999 26.7591 15.0609 26.4492 14.9697C26.1393 14.874 25.8158 14.8262 25.4785 14.8262C24.8633 14.8262 24.305 14.9834 23.8037 15.2979C23.3024 15.6077 22.9036 16.068 22.6074 16.6787C22.3158 17.2848 22.1699 18.0299 22.1699 18.9141C22.1699 19.7936 22.3158 20.5365 22.6074 21.1426C22.9036 21.7487 23.3024 22.209 23.8037 22.5234C24.305 22.8333 24.8633 22.9883 25.4785 22.9883C25.8158 22.9883 26.1393 22.9427 26.4492 22.8516C26.7591 22.7559 27.0417 22.6169 27.2969 22.4346C27.5566 22.2477 27.7754 22.0199 27.9531 21.751C28.1354 21.4821 28.263 21.1699 28.3359 20.8145H29.5664C29.4753 21.3385 29.3066 21.8057 29.0605 22.2158C28.819 22.626 28.516 22.9746 28.1514 23.2617C27.7868 23.5443 27.3766 23.7607 26.9209 23.9111C26.4697 24.0615 25.9889 24.1367 25.4785 24.1367ZM30.9062 24V13.8145H34.3516C35.1491 13.8145 35.8008 13.958 36.3066 14.2451C36.8171 14.5322 37.1953 14.9196 37.4414 15.4072C37.6875 15.8949 37.8105 16.4395 37.8105 17.041C37.8105 17.638 37.6875 18.1826 37.4414 18.6748C37.1999 19.167 36.8239 19.5589 36.3135 19.8506C35.8076 20.1377 35.1582 20.2812 34.3652 20.2812H31.9043V19.1875H34.3242C34.8711 19.1875 35.3109 19.0941 35.6436 18.9072C35.9762 18.7204 36.2178 18.4652 36.3682 18.1416C36.5186 17.8135 36.5938 17.4466 36.5938 17.041C36.5938 16.6309 36.5186 16.2663 36.3682 15.9473C36.2178 15.6237 35.974 15.3708 35.6367 15.1885C35.304 15.0016 34.862 14.9082 34.3105 14.9082H32.1367V24H30.9062ZM38.5215 24H37.2227L40.9688 13.8145H42.2402L45.9727 24H44.6875L41.6387 15.4277H41.5566L38.5215 24ZM39 20.0215H44.209V21.1152H39V20.0215Z" fill="white"/>
<path d="M99.6264 16.3636V17.5568H95.4553V16.3636H99.6264ZM96.5739 14.5341H98.0604V21.7578C98.0604 22.0462 98.1035 22.2633 98.1896 22.4091C98.2758 22.5516 98.3868 22.6494 98.5227 22.7024C98.6619 22.7521 98.8127 22.777 98.9751 22.777C99.0945 22.777 99.1989 22.7687 99.2884 22.7521C99.3778 22.7356 99.4474 22.7223 99.4972 22.7124L99.7656 23.9403C99.6795 23.9735 99.5568 24.0066 99.3977 24.0398C99.2386 24.0762 99.0398 24.0961 98.8011 24.0994C98.41 24.1061 98.0455 24.0365 97.7074 23.8906C97.3693 23.7448 97.0959 23.5194 96.8871 23.2145C96.6783 22.9096 96.5739 22.5268 96.5739 22.0661V14.5341ZM104.405 24.1541C103.689 24.1541 103.065 23.9901 102.531 23.6619C101.997 23.3338 101.583 22.8748 101.288 22.2848C100.993 21.6948 100.846 21.0054 100.846 20.2166C100.846 19.4245 100.993 18.7318 101.288 18.1385C101.583 17.5452 101.997 17.0845 102.531 16.7564C103.065 16.4283 103.689 16.2642 104.405 16.2642C105.121 16.2642 105.746 16.4283 106.28 16.7564C106.813 17.0845 107.228 17.5452 107.523 18.1385C107.818 18.7318 107.965 19.4245 107.965 20.2166C107.965 21.0054 107.818 21.6948 107.523 22.2848C107.228 22.8748 106.813 23.3338 106.28 23.6619C105.746 23.9901 105.121 24.1541 104.405 24.1541ZM104.41 22.9062C104.874 22.9062 105.259 22.7836 105.564 22.5384C105.869 22.2931 106.094 21.9666 106.24 21.5589C106.389 21.1513 106.464 20.7022 106.464 20.2116C106.464 19.7244 106.389 19.277 106.24 18.8693C106.094 18.4583 105.869 18.1286 105.564 17.88C105.259 17.6314 104.874 17.5071 104.41 17.5071C103.943 17.5071 103.555 17.6314 103.247 17.88C102.942 18.1286 102.715 18.4583 102.566 18.8693C102.42 19.277 102.347 19.7244 102.347 20.2116C102.347 20.7022 102.42 21.1513 102.566 21.5589C102.715 21.9666 102.942 22.2931 103.247 22.5384C103.555 22.7836 103.943 22.9062 104.41 22.9062ZM116.452 25.2727V12.5455H117.267V25.2727H116.452ZM119.002 16.4929C118.949 16.0223 118.73 15.6577 118.346 15.3991C117.961 15.1373 117.477 15.0064 116.894 15.0064C116.476 15.0064 116.115 15.0727 115.81 15.2053C115.505 15.3345 115.268 15.5135 115.099 15.7422C114.934 15.9676 114.851 16.2244 114.851 16.5128C114.851 16.7547 114.907 16.9635 115.02 17.1392C115.136 17.3149 115.287 17.4624 115.472 17.5817C115.661 17.6977 115.863 17.7955 116.079 17.875C116.294 17.9512 116.501 18.0142 116.7 18.0639L117.694 18.3224C118.019 18.402 118.352 18.5097 118.694 18.6456C119.035 18.7815 119.352 18.9605 119.643 19.1825C119.935 19.4046 120.17 19.6797 120.349 20.0078C120.532 20.3359 120.623 20.7287 120.623 21.1861C120.623 21.7628 120.474 22.2749 120.175 22.7223C119.88 23.1697 119.451 23.5227 118.888 23.7812C118.327 24.0398 117.65 24.169 116.854 24.169C116.092 24.169 115.432 24.0481 114.876 23.8061C114.319 23.5642 113.883 23.2211 113.568 22.777C113.253 22.3295 113.079 21.7992 113.046 21.1861H114.587C114.617 21.554 114.736 21.8606 114.945 22.1058C115.157 22.3478 115.427 22.5284 115.756 22.6477C116.087 22.7637 116.45 22.8217 116.844 22.8217C117.278 22.8217 117.665 22.7538 118.003 22.6179C118.344 22.4787 118.613 22.2865 118.808 22.0412C119.004 21.7926 119.101 21.5026 119.101 21.1712C119.101 20.8696 119.015 20.6226 118.843 20.4304C118.674 20.2382 118.443 20.0791 118.152 19.9531C117.863 19.8272 117.537 19.7161 117.172 19.62L115.969 19.2919C115.154 19.0698 114.508 18.7434 114.03 18.3125C113.556 17.8816 113.319 17.3116 113.319 16.6023C113.319 16.0156 113.479 15.5036 113.797 15.0661C114.115 14.6286 114.546 14.2888 115.089 14.0469C115.633 13.8016 116.246 13.679 116.929 13.679C117.618 13.679 118.226 13.8 118.753 14.0419C119.284 14.2839 119.701 14.617 120.006 15.0412C120.311 15.4621 120.47 15.946 120.483 16.4929H119.002ZM122.319 24V22.8864L125.765 19.3168C126.132 18.929 126.436 18.5893 126.674 18.2976C126.916 18.0026 127.097 17.7225 127.216 17.4574C127.336 17.1922 127.395 16.9105 127.395 16.6122C127.395 16.2741 127.316 15.9825 127.157 15.7372C126.998 15.4886 126.78 15.2981 126.505 15.1655C126.23 15.0296 125.92 14.9616 125.576 14.9616C125.211 14.9616 124.893 15.0362 124.621 15.1854C124.349 15.3345 124.141 15.545 123.995 15.8168C123.849 16.0885 123.776 16.4067 123.776 16.7713H122.309C122.309 16.1515 122.452 15.6096 122.737 15.1456C123.022 14.6816 123.413 14.322 123.91 14.0668C124.407 13.8082 124.972 13.679 125.605 13.679C126.245 13.679 126.809 13.8066 127.296 14.0618C127.786 14.3137 128.169 14.6584 128.444 15.0959C128.719 15.5301 128.857 16.0206 128.857 16.5675C128.857 16.9453 128.786 17.3149 128.643 17.6761C128.504 18.0374 128.26 18.4401 127.912 18.8842C127.564 19.325 127.08 19.8603 126.461 20.4901L124.437 22.608V22.6825H129.021V24H122.319ZM134.45 24.169C133.664 24.1657 132.993 23.9586 132.436 23.5476C131.88 23.1366 131.454 22.5384 131.159 21.7528C130.864 20.9673 130.716 20.0211 130.716 18.9141C130.716 17.8104 130.864 16.8674 131.159 16.0852C131.457 15.303 131.885 14.7064 132.441 14.2955C133.002 13.8845 133.671 13.679 134.45 13.679C135.229 13.679 135.897 13.8861 136.453 14.3004C137.01 14.7114 137.436 15.308 137.731 16.0902C138.029 16.8691 138.179 17.8104 138.179 18.9141C138.179 20.0244 138.031 20.9723 137.736 21.7578C137.441 22.54 137.015 23.1383 136.458 23.5526C135.902 23.9635 135.232 24.169 134.45 24.169ZM134.45 22.8416C135.139 22.8416 135.678 22.5052 136.066 21.8324C136.457 21.1596 136.652 20.1868 136.652 18.9141C136.652 18.0689 136.563 17.3546 136.384 16.7713C136.208 16.1847 135.955 15.7405 135.623 15.4389C135.295 15.134 134.904 14.9815 134.45 14.9815C133.764 14.9815 133.225 15.3196 132.834 15.9957C132.443 16.6719 132.246 17.6446 132.243 18.9141C132.243 19.7625 132.33 20.4801 132.506 21.0668C132.685 21.6501 132.939 22.0926 133.267 22.3942C133.595 22.6925 133.989 22.8416 134.45 22.8416ZM143.487 24.169C142.702 24.1657 142.03 23.9586 141.474 23.5476C140.917 23.1366 140.491 22.5384 140.196 21.7528C139.901 20.9673 139.753 20.0211 139.753 18.9141C139.753 17.8104 139.901 16.8674 140.196 16.0852C140.494 15.303 140.922 14.7064 141.479 14.2955C142.039 13.8845 142.708 13.679 143.487 13.679C144.266 13.679 144.934 13.8861 145.491 14.3004C146.047 14.7114 146.473 15.308 146.768 16.0902C147.067 16.8691 147.216 17.8104 147.216 18.9141C147.216 20.0244 147.068 20.9723 146.773 21.7578C146.478 22.54 146.052 23.1383 145.496 23.5526C144.939 23.9635 144.269 24.169 143.487 24.169ZM143.487 22.8416C144.176 22.8416 144.715 22.5052 145.103 21.8324C145.494 21.1596 145.689 20.1868 145.689 18.9141C145.689 18.0689 145.6 17.3546 145.421 16.7713C145.245 16.1847 144.992 15.7405 144.66 15.4389C144.332 15.134 143.941 14.9815 143.487 14.9815C142.801 14.9815 142.262 15.3196 141.871 15.9957C141.48 16.6719 141.283 17.6446 141.28 18.9141C141.28 19.7625 141.367 20.4801 141.543 21.0668C141.722 21.6501 141.976 22.0926 142.304 22.3942C142.632 22.6925 143.026 22.8416 143.487 22.8416Z" fill="white"/>
<rect x="10" y="10" width="1" height="44" rx="0.5" fill="white"/>
<rect x="14.1514" y="40" width="1" height="14" rx="0.5" fill="white"/>
<rect x="18.3027" y="40" width="1" height="14" rx="0.5" fill="white"/>
<rect x="22.4541" y="40" width="1" height="14" rx="0.5" fill="white"/>
<rect x="26.6064" y="40" width="1" height="14" rx="0.5" fill="white"/>
<rect x="30.7578" y="40" width="1" height="14" rx="0.5" fill="white"/>
<rect x="34.9092" y="40" width="1" height="14" rx="0.5" fill="white"/>
<rect x="39.0605" y="40" width="1" height="14" rx="0.5" fill="white"/>
<rect x="43.2119" y="40" width="1" height="14" rx="0.5" fill="white"/>
<rect x="47.3633" y="40" width="1" height="14" rx="0.5" fill="white"/>
<rect x="51.5156" y="40" width="1" height="14" rx="0.5" fill="white"/>
<rect x="55.667" y="40" width="1" height="14" rx="0.5" fill="white"/>
<rect x="59.8184" y="40" width="1" height="14" rx="0.5" fill="white"/>
<rect x="63.9697" y="40" width="1" height="14" rx="0.5" fill="white"/>
<rect x="68.1211" y="40" width="1" height="14" rx="0.5" fill="white"/>
<rect x="72.2725" y="40" width="1" height="14" rx="0.5" fill="white"/>
<rect x="76.4238" y="40" width="1" height="14" rx="0.5" fill="white"/>
<rect x="80.5762" y="40" width="1" height="14" rx="0.5" fill="white"/>
<rect x="84.7275" y="40" width="1" height="14" rx="0.5" fill="white"/>
<rect x="88.8789" y="40" width="1" height="14" rx="0.5" fill="white"/>
<rect x="93.0303" y="40" width="1" height="14" rx="0.5" fill="white"/>
<rect x="97.1816" y="40" width="1" height="14" rx="0.5" fill="white"/>
<rect x="101.333" y="40" width="1" height="14" rx="0.5" fill="white"/>
<rect x="105.484" y="40" width="1" height="14" rx="0.5" fill="white"/>
<rect x="109.637" y="40" width="1" height="14" rx="0.5" fill="white"/>
<rect x="113.788" y="40" width="1" height="14" rx="0.5" fill="white"/>
<rect x="117.939" y="40" width="1" height="14" rx="0.5" fill="white"/>
<rect x="122.091" y="40" width="1" height="14" rx="0.5" fill="white"/>
<rect x="126.242" y="40" width="1" height="14" rx="0.5" fill="white"/>
<rect x="130.394" y="40" width="1" height="14" rx="0.5" fill="white"/>
<rect x="134.546" y="40" width="1" height="14" rx="0.5" fill="white"/>
<rect x="138.697" y="40" width="1" height="14" rx="0.5" fill="white"/>
<rect x="142.849" y="40" width="1" height="14" rx="0.5" fill="white"/>
<rect x="147" y="40" width="1" height="14" rx="0.5" fill="white"/>
</svg>
