<svg width="320" height="160" viewBox="0 0 320 160" fill="none" xmlns="http://www.w3.org/2000/svg">
<rect width="320" height="160" rx="20" fill="#010101"/>
<path d="M48.8203 44.2344C47.3359 44.2344 46.0117 43.8711 44.8477 43.1445C43.6836 42.418 42.7695 41.3867 42.1055 40.0508C41.4414 38.707 41.1094 37.1172 41.1094 35.2812C41.1094 33.4375 41.4414 31.8438 42.1055 30.5C42.7695 29.1562 43.6836 28.1211 44.8477 27.3945C46.0117 26.668 47.3359 26.3047 48.8203 26.3047C49.6953 26.3047 50.5195 26.4336 51.293 26.6914C52.0742 26.9492 52.7773 27.3242 53.4023 27.8164C54.0273 28.3008 54.5469 28.8984 54.9609 29.6094C55.3828 30.3125 55.6719 31.1094 55.8281 32H53.7188C53.5938 31.3906 53.375 30.8555 53.0625 30.3945C52.7578 29.9336 52.3828 29.5469 51.9375 29.2344C51.5 28.9141 51.0156 28.6758 50.4844 28.5195C49.9531 28.3555 49.3984 28.2734 48.8203 28.2734C47.7656 28.2734 46.8086 28.543 45.9492 29.082C45.0898 29.6133 44.4062 30.4023 43.8984 31.4492C43.3984 32.4883 43.1484 33.7656 43.1484 35.2812C43.1484 36.7891 43.3984 38.0625 43.8984 39.1016C44.4062 40.1406 45.0898 40.9297 45.9492 41.4688C46.8086 42 47.7656 42.2656 48.8203 42.2656C49.3984 42.2656 49.9531 42.1875 50.4844 42.0312C51.0156 41.8672 51.5 41.6289 51.9375 41.3164C52.3828 40.9961 52.7578 40.6055 53.0625 40.1445C53.375 39.6836 53.5938 39.1484 53.7188 38.5391H55.8281C55.6719 39.4375 55.3828 40.2383 54.9609 40.9414C54.5469 41.6445 54.0273 42.2422 53.4023 42.7344C52.7773 43.2188 52.0742 43.5898 51.293 43.8477C50.5195 44.1055 49.6953 44.2344 48.8203 44.2344ZM58.125 44V26.5391H64.0312C65.3984 26.5391 66.5156 26.7852 67.3828 27.2773C68.2578 27.7695 68.9062 28.4336 69.3281 29.2695C69.75 30.1055 69.9609 31.0391 69.9609 32.0703C69.9609 33.0938 69.75 34.0273 69.3281 34.8711C68.9141 35.7148 68.2695 36.3867 67.3945 36.8867C66.5273 37.3789 65.4141 37.625 64.0547 37.625H59.8359V35.75H63.9844C64.9219 35.75 65.6758 35.5898 66.2461 35.2695C66.8164 34.9492 67.2305 34.5117 67.4883 33.957C67.7461 33.3945 67.875 32.7656 67.875 32.0703C67.875 31.3672 67.7461 30.7422 67.4883 30.1953C67.2305 29.6406 66.8125 29.207 66.2344 28.8945C65.6641 28.5742 64.9062 28.4141 63.9609 28.4141H60.2344V44H58.125ZM71.1797 44H68.9531L75.375 26.5391H77.5547L83.9531 44H81.75L76.5234 29.3047H76.3828L71.1797 44ZM72 37.1797H80.9297V39.0547H72V37.1797Z" fill="white"/>
<rect x="20" y="20" width="2" height="120" rx="1" fill="white"/>
<rect x="28.4238" y="120" width="2" height="20" rx="1" fill="white"/>
<rect x="36.8486" y="120" width="2" height="20" rx="1" fill="white"/>
<rect x="45.2725" y="120" width="2" height="20" rx="1" fill="white"/>
<rect x="53.6973" y="120" width="2" height="20" rx="1" fill="white"/>
<rect x="62.1211" y="120" width="2" height="20" rx="1" fill="white"/>
<rect x="70.5459" y="120" width="2" height="20" rx="1" fill="white"/>
<rect x="78.9697" y="120" width="2" height="20" rx="1" fill="white"/>
<rect x="87.3936" y="120" width="2" height="20" rx="1" fill="white"/>
<rect x="95.8184" y="120" width="2" height="20" rx="1" fill="white"/>
<rect x="104.242" y="120" width="2" height="20" rx="1" fill="white"/>
<rect x="112.667" y="120" width="2" height="20" rx="1" fill="white"/>
<rect x="121.091" y="120" width="2" height="20" rx="1" fill="white"/>
<rect x="129.515" y="120" width="2" height="20" rx="1" fill="white"/>
<rect x="137.939" y="120" width="2" height="20" rx="1" fill="white"/>
<rect x="146.363" y="120" width="2" height="20" rx="1" fill="white"/>
<rect x="154.788" y="120" width="2" height="20" rx="1" fill="white"/>
<rect x="163.212" y="120" width="2" height="20" rx="1" fill="white"/>
<rect x="171.637" y="120" width="2" height="20" rx="1" fill="white"/>
<rect x="180.061" y="120" width="2" height="20" rx="1" fill="white"/>
<rect x="188.484" y="120" width="2" height="20" rx="1" fill="white"/>
<rect x="196.909" y="120" width="2" height="20" rx="1" fill="white"/>
<rect x="205.333" y="120" width="2" height="20" rx="1" fill="white"/>
<rect x="213.758" y="120" width="2" height="20" rx="1" fill="white"/>
<rect x="222.182" y="120" width="2" height="20" rx="1" fill="white"/>
<rect x="230.606" y="120" width="2" height="20" rx="1" fill="white"/>
<rect x="239.03" y="120" width="2" height="20" rx="1" fill="white"/>
<rect x="247.454" y="120" width="2" height="20" rx="1" fill="white"/>
<rect x="255.879" y="120" width="2" height="20" rx="1" fill="white"/>
<rect x="264.303" y="120" width="2" height="20" rx="1" fill="white"/>
<rect x="272.728" y="120" width="2" height="20" rx="1" fill="white"/>
<rect x="281.151" y="120" width="2" height="20" rx="1" fill="white"/>
<rect x="289.576" y="120" width="2" height="20" rx="1" fill="white"/>
<rect x="298" y="120" width="2" height="20" rx="1" fill="white"/>
<path d="M161.555 64.1818V67.5909H149.638V64.1818H161.555ZM152.834 58.9545H157.081V79.5938C157.081 80.4176 157.204 81.0379 157.45 81.4545C157.696 81.8617 158.014 82.1411 158.402 82.2926C158.8 82.4347 159.231 82.5057 159.695 82.5057C160.036 82.5057 160.334 82.482 160.589 82.4347C160.845 82.3873 161.044 82.3494 161.186 82.321L161.953 85.8295C161.707 85.9242 161.357 86.0189 160.902 86.1136C160.447 86.2178 159.879 86.2746 159.197 86.2841C158.08 86.303 157.038 86.1042 156.072 85.6875C155.107 85.2708 154.325 84.6269 153.729 83.7557C153.132 82.8845 152.834 81.7907 152.834 80.4744V58.9545ZM175.444 86.4403C173.398 86.4403 171.613 85.9716 170.089 85.0341C168.564 84.0966 167.38 82.785 166.538 81.0994C165.695 79.4138 165.273 77.4441 165.273 75.1903C165.273 72.9271 165.695 70.9479 166.538 69.2528C167.38 67.5578 168.564 66.2415 170.089 65.304C171.613 64.3665 173.398 63.8977 175.444 63.8977C177.489 63.8977 179.274 64.3665 180.799 65.304C182.324 66.2415 183.507 67.5578 184.35 69.2528C185.193 70.9479 185.614 72.9271 185.614 75.1903C185.614 77.4441 185.193 79.4138 184.35 81.0994C183.507 82.785 182.324 84.0966 180.799 85.0341C179.274 85.9716 177.489 86.4403 175.444 86.4403ZM175.458 82.875C176.784 82.875 177.882 82.5246 178.754 81.8239C179.625 81.1231 180.269 80.1903 180.685 79.0256C181.112 77.8608 181.325 76.5777 181.325 75.1761C181.325 73.7841 181.112 72.5057 180.685 71.3409C180.269 70.1667 179.625 69.2244 178.754 68.5142C177.882 67.804 176.784 67.4489 175.458 67.4489C174.123 67.4489 173.015 67.804 172.134 68.5142C171.263 69.2244 170.614 70.1667 170.188 71.3409C169.772 72.5057 169.563 73.7841 169.563 75.1761C169.563 76.5777 169.772 77.8608 170.188 79.0256C170.614 80.1903 171.263 81.1231 172.134 81.8239C173.015 82.5246 174.123 82.875 175.458 82.875ZM209.862 89.6364V53.2727H212.191V89.6364H209.862ZM217.148 64.5511C216.997 63.2064 216.372 62.1648 215.273 61.4261C214.175 60.678 212.792 60.304 211.126 60.304C209.933 60.304 208.9 60.4934 208.029 60.8722C207.158 61.2415 206.481 61.7528 205.998 62.4062C205.524 63.0502 205.288 63.7841 205.288 64.608C205.288 65.2992 205.449 65.8958 205.771 66.3977C206.102 66.8996 206.533 67.321 207.063 67.6619C207.603 67.9934 208.181 68.2727 208.796 68.5C209.412 68.7178 210.004 68.8977 210.572 69.0398L213.413 69.7784C214.341 70.0057 215.292 70.3134 216.268 70.7017C217.243 71.09 218.147 71.6013 218.981 72.2358C219.814 72.8703 220.487 73.6562 220.998 74.5938C221.519 75.5312 221.779 76.6534 221.779 77.9602C221.779 79.608 221.353 81.071 220.501 82.3494C219.658 83.6278 218.432 84.6364 216.822 85.375C215.221 86.1136 213.285 86.483 211.012 86.483C208.834 86.483 206.95 86.1373 205.359 85.446C203.768 84.7547 202.522 83.7746 201.623 82.5057C200.723 81.2273 200.226 79.7121 200.131 77.9602H204.535C204.62 79.0114 204.961 79.8873 205.558 80.5881C206.164 81.2794 206.935 81.7955 207.873 82.1364C208.82 82.4678 209.857 82.6335 210.984 82.6335C212.224 82.6335 213.327 82.4394 214.293 82.0511C215.269 81.6534 216.036 81.1042 216.594 80.4034C217.153 79.6932 217.433 78.8646 217.433 77.9176C217.433 77.0559 217.186 76.3504 216.694 75.8011C216.211 75.2519 215.553 74.7973 214.719 74.4375C213.896 74.0777 212.963 73.7604 211.921 73.4858L208.484 72.5483C206.154 71.9138 204.308 70.9811 202.944 69.75C201.59 68.5189 200.913 66.8902 200.913 64.8636C200.913 63.1875 201.367 61.7244 202.276 60.4744C203.185 59.2244 204.416 58.2538 205.969 57.5625C207.522 56.8617 209.274 56.5114 211.225 56.5114C213.195 56.5114 214.933 56.857 216.438 57.5483C217.953 58.2396 219.147 59.1913 220.018 60.4034C220.889 61.6061 221.344 62.9886 221.381 64.5511H217.148ZM226.626 86V82.8182L236.47 72.6193C237.521 71.5114 238.388 70.5407 239.07 69.7074C239.761 68.8646 240.277 68.0644 240.618 67.3068C240.959 66.5492 241.129 65.7443 241.129 64.892C241.129 63.9261 240.902 63.0928 240.447 62.392C239.993 61.6818 239.373 61.1373 238.587 60.7585C237.801 60.3703 236.915 60.1761 235.93 60.1761C234.889 60.1761 233.98 60.3892 233.203 60.8153C232.427 61.2415 231.83 61.8428 231.413 62.6193C230.997 63.3958 230.788 64.3049 230.788 65.3466H226.598C226.598 63.5758 227.005 62.0275 227.82 60.7017C228.634 59.3759 229.751 58.3485 231.172 57.6193C232.592 56.8807 234.207 56.5114 236.016 56.5114C237.843 56.5114 239.453 56.8759 240.845 57.6051C242.247 58.3248 243.34 59.3097 244.126 60.5597C244.912 61.8002 245.305 63.2017 245.305 64.7642C245.305 65.8438 245.102 66.8996 244.695 67.9318C244.297 68.964 243.601 70.1146 242.607 71.3835C241.612 72.643 240.23 74.1723 238.459 75.9716L232.678 82.0227V82.2358H245.774V86H226.626ZM261.286 86.483C259.041 86.4735 257.124 85.8816 255.533 84.7074C253.942 83.5331 252.725 81.8239 251.882 79.5795C251.039 77.3352 250.618 74.6316 250.618 71.4688C250.618 68.3153 251.039 65.6212 251.882 63.3864C252.734 61.1515 253.956 59.447 255.547 58.2727C257.147 57.0985 259.06 56.5114 261.286 56.5114C263.511 56.5114 265.419 57.1032 267.01 58.2869C268.601 59.4612 269.818 61.1657 270.661 63.4006C271.513 65.6259 271.939 68.3153 271.939 71.4688C271.939 74.6411 271.518 77.3494 270.675 79.5938C269.832 81.8286 268.615 83.5379 267.024 84.7216C265.433 85.8958 263.52 86.483 261.286 86.483ZM261.286 82.6903C263.255 82.6903 264.794 81.7292 265.902 79.8068C267.019 77.8845 267.578 75.1051 267.578 71.4688C267.578 69.054 267.322 67.0133 266.811 65.3466C266.309 63.6705 265.585 62.4015 264.638 61.5398C263.7 60.6686 262.583 60.233 261.286 60.233C259.325 60.233 257.786 61.1989 256.669 63.1307C255.552 65.0625 254.988 67.8419 254.979 71.4688C254.979 73.893 255.23 75.9432 255.732 77.6193C256.243 79.286 256.967 80.5502 257.905 81.4119C258.842 82.2642 259.969 82.6903 261.286 82.6903ZM287.106 86.483C284.862 86.4735 282.944 85.8816 281.353 84.7074C279.762 83.5331 278.545 81.8239 277.702 79.5795C276.86 77.3352 276.438 74.6316 276.438 71.4688C276.438 68.3153 276.86 65.6212 277.702 63.3864C278.555 61.1515 279.776 59.447 281.367 58.2727C282.968 57.0985 284.88 56.5114 287.106 56.5114C289.331 56.5114 291.239 57.1032 292.83 58.2869C294.421 59.4612 295.638 61.1657 296.481 63.4006C297.333 65.6259 297.759 68.3153 297.759 71.4688C297.759 74.6411 297.338 77.3494 296.495 79.5938C295.652 81.8286 294.435 83.5379 292.844 84.7216C291.254 85.8958 289.341 86.483 287.106 86.483ZM287.106 82.6903C289.076 82.6903 290.614 81.7292 291.722 79.8068C292.84 77.8845 293.398 75.1051 293.398 71.4688C293.398 69.054 293.143 67.0133 292.631 65.3466C292.129 63.6705 291.405 62.4015 290.458 61.5398C289.521 60.6686 288.403 60.233 287.106 60.233C285.146 60.233 283.607 61.1989 282.489 63.1307C281.372 65.0625 280.808 67.8419 280.799 71.4688C280.799 73.893 281.05 75.9432 281.552 77.6193C282.063 79.286 282.788 80.5502 283.725 81.4119C284.663 82.2642 285.79 82.6903 287.106 82.6903Z" fill="white"/>
</svg>
