<svg width="158" height="64" viewBox="0 0 158 64" fill="none" xmlns="http://www.w3.org/2000/svg">
<rect width="158" height="64" rx="10" fill="#010101"/>
<path d="M25.4785 24.1367C24.6126 24.1367 23.8402 23.9248 23.1611 23.501C22.4821 23.0771 21.9489 22.4756 21.5615 21.6963C21.1742 20.9124 20.9805 19.985 20.9805 18.9141C20.9805 17.8385 21.1742 16.9089 21.5615 16.125C21.9489 15.3411 22.4821 14.7373 23.1611 14.3135C23.8402 13.8896 24.6126 13.6777 25.4785 13.6777C25.9889 13.6777 26.4697 13.7529 26.9209 13.9033C27.3766 14.0537 27.7868 14.2725 28.1514 14.5596C28.516 14.8421 28.819 15.1908 29.0605 15.6055C29.3066 16.0156 29.4753 16.4805 29.5664 17H28.3359C28.263 16.6445 28.1354 16.3324 27.9531 16.0635C27.7754 15.7946 27.5566 15.569 27.2969 15.3867C27.0417 15.1999 26.7591 15.0609 26.4492 14.9697C26.1393 14.874 25.8158 14.8262 25.4785 14.8262C24.8633 14.8262 24.305 14.9834 23.8037 15.2979C23.3024 15.6077 22.9036 16.068 22.6074 16.6787C22.3158 17.2848 22.1699 18.0299 22.1699 18.9141C22.1699 19.7936 22.3158 20.5365 22.6074 21.1426C22.9036 21.7487 23.3024 22.209 23.8037 22.5234C24.305 22.8333 24.8633 22.9883 25.4785 22.9883C25.8158 22.9883 26.1393 22.9427 26.4492 22.8516C26.7591 22.7559 27.0417 22.6169 27.2969 22.4346C27.5566 22.2477 27.7754 22.0199 27.9531 21.751C28.1354 21.4821 28.263 21.1699 28.3359 20.8145H29.5664C29.4753 21.3385 29.3066 21.8057 29.0605 22.2158C28.819 22.626 28.516 22.9746 28.1514 23.2617C27.7868 23.5443 27.3766 23.7607 26.9209 23.9111C26.4697 24.0615 25.9889 24.1367 25.4785 24.1367ZM30.9062 24V13.8145H34.3516C35.1491 13.8145 35.8008 13.958 36.3066 14.2451C36.8171 14.5322 37.1953 14.9196 37.4414 15.4072C37.6875 15.8949 37.8105 16.4395 37.8105 17.041C37.8105 17.638 37.6875 18.1826 37.4414 18.6748C37.1999 19.167 36.8239 19.5589 36.3135 19.8506C35.8076 20.1377 35.1582 20.2812 34.3652 20.2812H31.9043V19.1875H34.3242C34.8711 19.1875 35.3109 19.0941 35.6436 18.9072C35.9762 18.7204 36.2178 18.4652 36.3682 18.1416C36.5186 17.8135 36.5938 17.4466 36.5938 17.041C36.5938 16.6309 36.5186 16.2663 36.3682 15.9473C36.2178 15.6237 35.974 15.3708 35.6367 15.1885C35.304 15.0016 34.862 14.9082 34.3105 14.9082H32.1367V24H30.9062ZM38.5215 24H37.2227L40.9688 13.8145H42.2402L45.9727 24H44.6875L41.6387 15.4277H41.5566L38.5215 24ZM39 20.0215H44.209V21.1152H39V20.0215Z" fill="white"/>
<path d="M95.2812 26.2012V22.7148H95.8965C96.056 22.569 96.1927 22.3958 96.3066 22.1953C96.4206 21.9902 96.514 21.7487 96.5869 21.4707C96.6644 21.1882 96.7305 20.8623 96.7852 20.4932C96.8398 20.124 96.8877 19.6979 96.9287 19.2148L97.168 16.3574H102.356V22.7148H103.532V26.2012H102.076V24H96.7578V26.2012H95.2812ZM97.4961 22.7148H100.907V17.6289H98.4941L98.3301 19.2148C98.2617 20.0215 98.1683 20.7188 98.0498 21.3066C97.9359 21.89 97.7513 22.3594 97.4961 22.7148ZM107.606 24.1572C106.891 24.1572 106.264 23.9932 105.727 23.665C105.193 23.3369 104.779 22.8766 104.482 22.2842C104.191 21.6917 104.045 21.0036 104.045 20.2197C104.045 19.4268 104.191 18.734 104.482 18.1416C104.779 17.5446 105.193 17.082 105.727 16.7539C106.264 16.4258 106.891 16.2617 107.606 16.2617C108.326 16.2617 108.953 16.4258 109.486 16.7539C110.02 17.082 110.434 17.5446 110.73 18.1416C111.027 18.734 111.175 19.4268 111.175 20.2197C111.175 21.0036 111.027 21.6917 110.73 22.2842C110.434 22.8766 110.02 23.3369 109.486 23.665C108.953 23.9932 108.326 24.1572 107.606 24.1572ZM107.606 22.9062C108.076 22.9062 108.463 22.7832 108.769 22.5371C109.074 22.291 109.299 21.9652 109.445 21.5596C109.596 21.1494 109.671 20.7028 109.671 20.2197C109.671 19.7275 109.596 19.2764 109.445 18.8662C109.299 18.4561 109.074 18.1279 108.769 17.8818C108.463 17.6357 108.076 17.5127 107.606 17.5127C107.142 17.5127 106.757 17.6357 106.451 17.8818C106.15 18.1279 105.925 18.4561 105.774 18.8662C105.624 19.2764 105.549 19.7275 105.549 20.2197C105.549 20.7028 105.624 21.1494 105.774 21.5596C105.925 21.9652 106.15 22.291 106.451 22.5371C106.757 22.7832 107.142 22.9062 107.606 22.9062ZM118.482 25.2715V12.543H119.289V25.2715H118.482ZM118.886 24.1641C118.125 24.1641 117.464 24.0456 116.903 23.8086C116.347 23.5671 115.912 23.223 115.598 22.7764C115.283 22.3298 115.108 21.7988 115.071 21.1836H116.616C116.648 21.5527 116.767 21.8604 116.972 22.1064C117.181 22.348 117.452 22.528 117.785 22.6465C118.118 22.765 118.482 22.8242 118.879 22.8242C119.312 22.8242 119.699 22.7559 120.041 22.6191C120.383 22.4824 120.649 22.291 120.841 22.0449C121.037 21.7943 121.135 21.5026 121.135 21.1699C121.135 20.8691 121.048 20.623 120.875 20.4316C120.706 20.2402 120.476 20.083 120.185 19.96C119.893 19.8324 119.565 19.7207 119.2 19.625L118.004 19.2969C117.184 19.0781 116.536 18.7523 116.062 18.3193C115.589 17.8818 115.352 17.3099 115.352 16.6035C115.352 16.0156 115.509 15.5029 115.823 15.0654C116.142 14.6279 116.573 14.2884 117.115 14.0469C117.662 13.8008 118.275 13.6777 118.954 13.6777C119.647 13.6777 120.255 13.8008 120.779 14.0469C121.308 14.2884 121.725 14.6211 122.03 15.0449C122.34 15.4642 122.502 15.945 122.516 16.4873H121.025C120.971 16.0179 120.752 15.6533 120.369 15.3936C119.991 15.1338 119.508 15.0039 118.92 15.0039C118.51 15.0039 118.15 15.07 117.84 15.2021C117.535 15.3298 117.298 15.5075 117.129 15.7354C116.965 15.9632 116.883 16.2253 116.883 16.5215C116.883 16.8405 116.981 17.1003 117.177 17.3008C117.377 17.5013 117.619 17.6608 117.901 17.7793C118.188 17.8932 118.464 17.9867 118.729 18.0596L119.72 18.3262C120.043 18.4082 120.376 18.5176 120.718 18.6543C121.06 18.791 121.376 18.971 121.668 19.1943C121.964 19.4131 122.201 19.6865 122.379 20.0146C122.561 20.3382 122.652 20.7301 122.652 21.1904C122.652 21.7601 122.504 22.2705 122.208 22.7217C121.912 23.1683 121.483 23.5215 120.923 23.7812C120.362 24.0365 119.683 24.1641 118.886 24.1641ZM123.76 24V22.8926L127.205 19.3105C127.57 18.9277 127.87 18.5905 128.107 18.2988C128.349 18.0026 128.529 17.7223 128.647 17.458C128.771 17.1937 128.832 16.9134 128.832 16.6172C128.832 16.2754 128.752 15.9814 128.593 15.7354C128.433 15.4893 128.217 15.3001 127.943 15.168C127.67 15.0358 127.36 14.9697 127.014 14.9697C126.649 14.9697 126.332 15.0449 126.063 15.1953C125.795 15.3411 125.585 15.5508 125.435 15.8242C125.289 16.0931 125.216 16.4098 125.216 16.7744H123.753C123.753 16.1546 123.894 15.6123 124.177 15.1475C124.464 14.6826 124.856 14.3226 125.353 14.0674C125.854 13.8076 126.419 13.6777 127.048 13.6777C127.69 13.6777 128.256 13.8053 128.743 14.0605C129.231 14.3158 129.611 14.6621 129.885 15.0996C130.158 15.5326 130.295 16.0225 130.295 16.5693C130.295 16.9476 130.224 17.3167 130.083 17.6768C129.946 18.0368 129.702 18.4401 129.352 18.8867C129.005 19.3288 128.522 19.862 127.902 20.4863L125.879 22.6055V22.6875H130.459V24H123.76ZM135.299 24.1367C134.515 24.1367 133.843 23.9316 133.282 23.5215C132.726 23.1113 132.3 22.5189 132.004 21.7441C131.712 20.9648 131.566 20.0215 131.566 18.9141C131.566 17.8112 131.715 16.8701 132.011 16.0908C132.307 15.307 132.733 14.71 133.289 14.2998C133.85 13.8851 134.52 13.6777 135.299 13.6777C136.083 13.6777 136.753 13.8851 137.309 14.2998C137.869 14.71 138.295 15.307 138.587 16.0908C138.883 16.8701 139.031 17.8112 139.031 18.9141C139.031 20.0215 138.885 20.9648 138.594 21.7441C138.302 22.5189 137.878 23.1113 137.322 23.5215C136.766 23.9316 136.092 24.1367 135.299 24.1367ZM135.299 22.8242C135.777 22.8242 136.181 22.6715 136.509 22.3662C136.837 22.0609 137.088 21.6165 137.261 21.0332C137.434 20.4453 137.521 19.7389 137.521 18.9141C137.521 18.0846 137.434 17.3783 137.261 16.7949C137.088 16.207 136.837 15.7604 136.509 15.4551C136.181 15.1452 135.777 14.9902 135.299 14.9902C134.592 14.9902 134.046 15.3343 133.658 16.0225C133.275 16.7061 133.084 17.6699 133.084 18.9141C133.084 19.7389 133.171 20.4453 133.344 21.0332C133.517 21.6165 133.768 22.0609 134.096 22.3662C134.428 22.6715 134.829 22.8242 135.299 22.8242ZM143.762 24.1367C142.978 24.1367 142.306 23.9316 141.745 23.5215C141.189 23.1113 140.763 22.5189 140.467 21.7441C140.175 20.9648 140.029 20.0215 140.029 18.9141C140.029 17.8112 140.177 16.8701 140.474 16.0908C140.77 15.307 141.196 14.71 141.752 14.2998C142.312 13.8851 142.982 13.6777 143.762 13.6777C144.546 13.6777 145.215 13.8851 145.771 14.2998C146.332 14.71 146.758 15.307 147.05 16.0908C147.346 16.8701 147.494 17.8112 147.494 18.9141C147.494 20.0215 147.348 20.9648 147.057 21.7441C146.765 22.5189 146.341 23.1113 145.785 23.5215C145.229 23.9316 144.555 24.1367 143.762 24.1367ZM143.762 22.8242C144.24 22.8242 144.644 22.6715 144.972 22.3662C145.3 22.0609 145.55 21.6165 145.724 21.0332C145.897 20.4453 145.983 19.7389 145.983 18.9141C145.983 18.0846 145.897 17.3783 145.724 16.7949C145.55 16.207 145.3 15.7604 144.972 15.4551C144.644 15.1452 144.24 14.9902 143.762 14.9902C143.055 14.9902 142.508 15.3343 142.121 16.0225C141.738 16.7061 141.547 17.6699 141.547 18.9141C141.547 19.7389 141.633 20.4453 141.807 21.0332C141.98 21.6165 142.23 22.0609 142.559 22.3662C142.891 22.6715 143.292 22.8242 143.762 22.8242Z" fill="white"/>
<rect x="10" y="10" width="1" height="44" rx="0.5" fill="white"/>
<rect x="14.1514" y="40" width="1" height="14" rx="0.5" fill="white"/>
<rect x="18.3032" y="40" width="1" height="14" rx="0.5" fill="white"/>
<rect x="22.4546" y="40" width="1" height="14" rx="0.5" fill="white"/>
<rect x="26.606" y="40" width="1" height="14" rx="0.5" fill="white"/>
<rect x="30.7578" y="40" width="1" height="14" rx="0.5" fill="white"/>
<rect x="34.9092" y="40" width="1" height="14" rx="0.5" fill="white"/>
<rect x="39.0605" y="40" width="1" height="14" rx="0.5" fill="white"/>
<rect x="43.2119" y="40" width="1" height="14" rx="0.5" fill="white"/>
<rect x="47.3638" y="40" width="1" height="14" rx="0.5" fill="white"/>
<rect x="51.5151" y="40" width="1" height="14" rx="0.5" fill="white"/>
<rect x="55.6665" y="40" width="1" height="14" rx="0.5" fill="white"/>
<rect x="59.8184" y="40" width="1" height="14" rx="0.5" fill="white"/>
<rect x="63.9697" y="40" width="1" height="14" rx="0.5" fill="white"/>
<rect x="68.1211" y="40" width="1" height="14" rx="0.5" fill="white"/>
<rect x="72.2729" y="40" width="1" height="14" rx="0.5" fill="white"/>
<rect x="76.4243" y="40" width="1" height="14" rx="0.5" fill="white"/>
<rect x="80.5757" y="40" width="1" height="14" rx="0.5" fill="white"/>
<rect x="84.7271" y="40" width="1" height="14" rx="0.5" fill="white"/>
<rect x="88.8789" y="40" width="1" height="14" rx="0.5" fill="white"/>
<rect x="93.0303" y="40" width="1" height="14" rx="0.5" fill="white"/>
<rect x="97.1816" y="40" width="1" height="14" rx="0.5" fill="white"/>
<rect x="101.333" y="40" width="1" height="14" rx="0.5" fill="white"/>
<rect x="105.485" y="40" width="1" height="14" rx="0.5" fill="white"/>
<rect x="109.636" y="40" width="1" height="14" rx="0.5" fill="white"/>
<rect x="113.788" y="40" width="1" height="14" rx="0.5" fill="white"/>
<rect x="117.939" y="40" width="1" height="14" rx="0.5" fill="white"/>
<rect x="122.091" y="40" width="1" height="14" rx="0.5" fill="white"/>
<rect x="126.242" y="40" width="1" height="14" rx="0.5" fill="white"/>
<rect x="130.394" y="40" width="1" height="14" rx="0.5" fill="white"/>
<rect x="134.545" y="40" width="1" height="14" rx="0.5" fill="white"/>
<rect x="138.697" y="40" width="1" height="14" rx="0.5" fill="white"/>
<rect x="142.849" y="40" width="1" height="14" rx="0.5" fill="white"/>
<rect x="147" y="40" width="1" height="14" rx="0.5" fill="white"/>
</svg>
