<svg width="160" height="151" viewBox="0 0 160 151" fill="none" xmlns="http://www.w3.org/2000/svg">
<path d="M5.06329 84.6712C5.06329 86.0694 3.92983 87.2029 2.53165 87.2029C1.13346 87.2029 0 86.0694 0 84.6712C0 83.273 1.13346 82.1396 2.53165 82.1396C3.92983 82.1396 5.06329 83.273 5.06329 84.6712Z" fill="#939393"/>
<path d="M5.06329 93.7851C5.06329 95.1833 3.92983 96.3168 2.53165 96.3168C1.13346 96.3168 0 95.1833 0 93.7851C0 92.387 1.13346 91.2535 2.53165 91.2535C3.92983 91.2535 5.06329 92.387 5.06329 93.7851Z" fill="#939393"/>
<path d="M5.06329 102.899C5.06329 104.297 3.92983 105.431 2.53165 105.431C1.13346 105.431 0 104.297 0 102.899C0 101.501 1.13346 100.367 2.53165 100.367C3.92983 100.367 5.06329 101.501 5.06329 102.899Z" fill="#939393"/>
<path d="M5.06329 112.013C5.06329 113.411 3.92983 114.545 2.53165 114.545C1.13346 114.545 0 113.411 0 112.013C0 110.615 1.13346 109.481 2.53165 109.481C3.92983 109.481 5.06329 110.615 5.06329 112.013Z" fill="#939393"/>
<path d="M5.06329 121.127C5.06329 122.525 3.92983 123.659 2.53165 123.659C1.13346 123.659 0 122.525 0 121.127C0 119.729 1.13346 118.595 2.53165 118.595C3.92983 118.595 5.06329 119.729 5.06329 121.127Z" fill="#939393"/>
<path d="M5.06329 130.241C5.06329 131.639 3.92983 132.772 2.53165 132.772C1.13346 132.772 0 131.639 0 130.241C0 128.843 1.13346 127.709 2.53165 127.709C3.92983 127.709 5.06329 128.843 5.06329 130.241Z" fill="#939393"/>
<path d="M5.06329 139.355C5.06329 140.753 3.92983 141.886 2.53165 141.886C1.13346 141.886 0 140.753 0 139.355C0 137.957 1.13346 136.823 2.53165 136.823C3.92983 136.823 5.06329 137.957 5.06329 139.355Z" fill="#939393"/>
<path d="M5.06329 148.469C5.06329 149.867 3.92983 151 2.53165 151C1.13346 151 0 149.867 0 148.469C0 147.071 1.13346 145.937 2.53165 145.937C3.92983 145.937 5.06329 147.071 5.06329 148.469Z" fill="#939393"/>
<path d="M14.1772 57.3294C14.1772 58.7276 13.0438 59.8611 11.6456 59.8611C10.2474 59.8611 9.11392 58.7276 9.11392 57.3294C9.11392 55.9313 10.2474 54.7978 11.6456 54.7978C13.0438 54.7978 14.1772 55.9313 14.1772 57.3294Z" fill="#939393"/>
<path d="M14.1772 66.4434C14.1772 67.8416 13.0438 68.975 11.6456 68.975C10.2474 68.975 9.11392 67.8416 9.11392 66.4434C9.11392 65.0452 10.2474 63.9117 11.6456 63.9117C13.0438 63.9117 14.1772 65.0452 14.1772 66.4434Z" fill="#939393"/>
<path d="M14.1772 75.5573C14.1772 76.9555 13.0438 78.0889 11.6456 78.0889C10.2474 78.0889 9.11392 76.9555 9.11392 75.5573C9.11392 74.1591 10.2474 73.0257 11.6456 73.0257C13.0438 73.0257 14.1772 74.1591 14.1772 75.5573Z" fill="#939393"/>
<path d="M14.1772 84.6712C14.1772 86.0694 13.0438 87.2029 11.6456 87.2029C10.2474 87.2029 9.11392 86.0694 9.11392 84.6712C9.11392 83.273 10.2474 82.1396 11.6456 82.1396C13.0438 82.1396 14.1772 83.273 14.1772 84.6712Z" fill="#939393"/>
<path d="M14.1772 93.7851C14.1772 95.1833 13.0438 96.3168 11.6456 96.3168C10.2474 96.3168 9.11392 95.1833 9.11392 93.7851C9.11392 92.387 10.2474 91.2535 11.6456 91.2535C13.0438 91.2535 14.1772 92.387 14.1772 93.7851Z" fill="#939393"/>
<path d="M14.1772 102.899C14.1772 104.297 13.0438 105.431 11.6456 105.431C10.2474 105.431 9.11392 104.297 9.11392 102.899C9.11392 101.501 10.2474 100.367 11.6456 100.367C13.0438 100.367 14.1772 101.501 14.1772 102.899Z" fill="#939393"/>
<path d="M14.1772 112.013C14.1772 113.411 13.0438 114.545 11.6456 114.545C10.2474 114.545 9.11392 113.411 9.11392 112.013C9.11392 110.615 10.2474 109.481 11.6456 109.481C13.0438 109.481 14.1772 110.615 14.1772 112.013Z" fill="#939393"/>
<path d="M14.1772 121.127C14.1772 122.525 13.0438 123.659 11.6456 123.659C10.2474 123.659 9.11392 122.525 9.11392 121.127C9.11392 119.729 10.2474 118.595 11.6456 118.595C13.0438 118.595 14.1772 119.729 14.1772 121.127Z" fill="#939393"/>
<path d="M14.1772 130.241C14.1772 131.639 13.0438 132.772 11.6456 132.772C10.2474 132.772 9.11392 131.639 9.11392 130.241C9.11392 128.843 10.2474 127.709 11.6456 127.709C13.0438 127.709 14.1772 128.843 14.1772 130.241Z" fill="#939393"/>
<path d="M14.1772 139.355C14.1772 140.753 13.0438 141.886 11.6456 141.886C10.2474 141.886 9.11392 140.753 9.11392 139.355C9.11392 137.957 10.2474 136.823 11.6456 136.823C13.0438 136.823 14.1772 137.957 14.1772 139.355Z" fill="#939393"/>
<path d="M14.1772 148.469C14.1772 149.867 13.0438 151 11.6456 151C10.2474 151 9.11392 149.867 9.11392 148.469C9.11392 147.071 10.2474 145.937 11.6456 145.937C13.0438 145.937 14.1772 147.071 14.1772 148.469Z" fill="#939393"/>
<path d="M23.2911 84.6712C23.2911 86.0694 22.1577 87.2029 20.7595 87.2029C19.3613 87.2029 18.2278 86.0694 18.2278 84.6712C18.2278 83.273 19.3613 82.1396 20.7595 82.1396C22.1577 82.1396 23.2911 83.273 23.2911 84.6712Z" fill="#939393"/>
<path d="M23.2911 93.7851C23.2911 95.1833 22.1577 96.3168 20.7595 96.3168C19.3613 96.3168 18.2278 95.1833 18.2278 93.7851C18.2278 92.387 19.3613 91.2535 20.7595 91.2535C22.1577 91.2535 23.2911 92.387 23.2911 93.7851Z" fill="#939393"/>
<path d="M23.2911 102.899C23.2911 104.297 22.1577 105.431 20.7595 105.431C19.3613 105.431 18.2278 104.297 18.2278 102.899C18.2278 101.501 19.3613 100.367 20.7595 100.367C22.1577 100.367 23.2911 101.501 23.2911 102.899Z" fill="#939393"/>
<path d="M23.2911 112.013C23.2911 113.411 22.1577 114.545 20.7595 114.545C19.3613 114.545 18.2278 113.411 18.2278 112.013C18.2278 110.615 19.3613 109.481 20.7595 109.481C22.1577 109.481 23.2911 110.615 23.2911 112.013Z" fill="#939393"/>
<path d="M23.2911 121.127C23.2911 122.525 22.1577 123.659 20.7595 123.659C19.3613 123.659 18.2278 122.525 18.2278 121.127C18.2278 119.729 19.3613 118.595 20.7595 118.595C22.1577 118.595 23.2911 119.729 23.2911 121.127Z" fill="#939393"/>
<path d="M23.2911 130.241C23.2911 131.639 22.1577 132.772 20.7595 132.772C19.3613 132.772 18.2278 131.639 18.2278 130.241C18.2278 128.843 19.3613 127.709 20.7595 127.709C22.1577 127.709 23.2911 128.843 23.2911 130.241Z" fill="#939393"/>
<path d="M23.2911 139.355C23.2911 140.753 22.1577 141.886 20.7595 141.886C19.3613 141.886 18.2278 140.753 18.2278 139.355C18.2278 137.957 19.3613 136.823 20.7595 136.823C22.1577 136.823 23.2911 137.957 23.2911 139.355Z" fill="#939393"/>
<path d="M23.2911 148.469C23.2911 149.867 22.1577 151 20.7595 151C19.3613 151 18.2278 149.867 18.2278 148.469C18.2278 147.071 19.3613 145.937 20.7595 145.937C22.1577 145.937 23.2911 147.071 23.2911 148.469Z" fill="#939393"/>
<path d="M32.4051 75.5573C32.4051 76.9555 31.2716 78.0889 29.8734 78.0889C28.4752 78.0889 27.3418 76.9555 27.3418 75.5573C27.3418 74.1591 28.4752 73.0257 29.8734 73.0257C31.2716 73.0257 32.4051 74.1591 32.4051 75.5573Z" fill="#939393"/>
<path d="M32.4051 84.6712C32.4051 86.0694 31.2716 87.2029 29.8734 87.2029C28.4752 87.2029 27.3418 86.0694 27.3418 84.6712C27.3418 83.273 28.4752 82.1396 29.8734 82.1396C31.2716 82.1396 32.4051 83.273 32.4051 84.6712Z" fill="#939393"/>
<path d="M32.4051 93.7851C32.4051 95.1833 31.2716 96.3168 29.8734 96.3168C28.4752 96.3168 27.3418 95.1833 27.3418 93.7851C27.3418 92.387 28.4752 91.2535 29.8734 91.2535C31.2716 91.2535 32.4051 92.387 32.4051 93.7851Z" fill="#939393"/>
<path d="M32.4051 102.899C32.4051 104.297 31.2716 105.431 29.8734 105.431C28.4752 105.431 27.3418 104.297 27.3418 102.899C27.3418 101.501 28.4752 100.367 29.8734 100.367C31.2716 100.367 32.4051 101.501 32.4051 102.899Z" fill="#939393"/>
<path d="M32.4051 112.013C32.4051 113.411 31.2716 114.545 29.8734 114.545C28.4752 114.545 27.3418 113.411 27.3418 112.013C27.3418 110.615 28.4752 109.481 29.8734 109.481C31.2716 109.481 32.4051 110.615 32.4051 112.013Z" fill="#939393"/>
<path d="M32.4051 121.127C32.4051 122.525 31.2716 123.659 29.8734 123.659C28.4752 123.659 27.3418 122.525 27.3418 121.127C27.3418 119.729 28.4752 118.595 29.8734 118.595C31.2716 118.595 32.4051 119.729 32.4051 121.127Z" fill="#939393"/>
<path d="M32.4051 130.241C32.4051 131.639 31.2716 132.772 29.8734 132.772C28.4752 132.772 27.3418 131.639 27.3418 130.241C27.3418 128.843 28.4752 127.709 29.8734 127.709C31.2716 127.709 32.4051 128.843 32.4051 130.241Z" fill="#939393"/>
<path d="M32.4051 139.355C32.4051 140.753 31.2716 141.886 29.8734 141.886C28.4752 141.886 27.3418 140.753 27.3418 139.355C27.3418 137.957 28.4752 136.823 29.8734 136.823C31.2716 136.823 32.4051 137.957 32.4051 139.355Z" fill="#939393"/>
<path d="M32.4051 148.469C32.4051 149.867 31.2716 151 29.8734 151C28.4752 151 27.3418 149.867 27.3418 148.469C27.3418 147.071 28.4752 145.937 29.8734 145.937C31.2716 145.937 32.4051 147.071 32.4051 148.469Z" fill="#939393"/>
<path d="M41.519 93.7851C41.519 95.1833 40.3855 96.3168 38.9873 96.3168C37.5892 96.3168 36.4557 95.1833 36.4557 93.7851C36.4557 92.387 37.5892 91.2535 38.9873 91.2535C40.3855 91.2535 41.519 92.387 41.519 93.7851Z" fill="#939393"/>
<path d="M41.519 102.899C41.519 104.297 40.3855 105.431 38.9873 105.431C37.5892 105.431 36.4557 104.297 36.4557 102.899C36.4557 101.501 37.5892 100.367 38.9873 100.367C40.3855 100.367 41.519 101.501 41.519 102.899Z" fill="#939393"/>
<path d="M41.519 112.013C41.519 113.411 40.3855 114.545 38.9873 114.545C37.5892 114.545 36.4557 113.411 36.4557 112.013C36.4557 110.615 37.5892 109.481 38.9873 109.481C40.3855 109.481 41.519 110.615 41.519 112.013Z" fill="#939393"/>
<path d="M41.519 121.127C41.519 122.525 40.3855 123.659 38.9873 123.659C37.5892 123.659 36.4557 122.525 36.4557 121.127C36.4557 119.729 37.5892 118.595 38.9873 118.595C40.3855 118.595 41.519 119.729 41.519 121.127Z" fill="#939393"/>
<path d="M41.519 130.241C41.519 131.639 40.3855 132.772 38.9873 132.772C37.5892 132.772 36.4557 131.639 36.4557 130.241C36.4557 128.843 37.5892 127.709 38.9873 127.709C40.3855 127.709 41.519 128.843 41.519 130.241Z" fill="#939393"/>
<path d="M41.519 139.355C41.519 140.753 40.3855 141.886 38.9873 141.886C37.5892 141.886 36.4557 140.753 36.4557 139.355C36.4557 137.957 37.5892 136.823 38.9873 136.823C40.3855 136.823 41.519 137.957 41.519 139.355Z" fill="#939393"/>
<path d="M41.519 148.469C41.519 149.867 40.3855 151 38.9873 151C37.5892 151 36.4557 149.867 36.4557 148.469C36.4557 147.071 37.5892 145.937 38.9873 145.937C40.3855 145.937 41.519 147.071 41.519 148.469Z" fill="#939393"/>
<path d="M50.6329 57.3294C50.6329 58.7276 49.4995 59.8611 48.1013 59.8611C46.7031 59.8611 45.5696 58.7276 45.5696 57.3294C45.5696 55.9313 46.7031 54.7978 48.1013 54.7978C49.4995 54.7978 50.6329 55.9313 50.6329 57.3294Z" fill="#939393"/>
<path d="M50.6329 66.4434C50.6329 67.8416 49.4995 68.975 48.1013 68.975C46.7031 68.975 45.5696 67.8416 45.5696 66.4434C45.5696 65.0452 46.7031 63.9117 48.1013 63.9117C49.4995 63.9117 50.6329 65.0452 50.6329 66.4434Z" fill="#939393"/>
<path d="M50.6329 75.5573C50.6329 76.9555 49.4995 78.0889 48.1013 78.0889C46.7031 78.0889 45.5696 76.9555 45.5696 75.5573C45.5696 74.1591 46.7031 73.0257 48.1013 73.0257C49.4995 73.0257 50.6329 74.1591 50.6329 75.5573Z" fill="#939393"/>
<path d="M50.6329 84.6712C50.6329 86.0694 49.4995 87.2029 48.1013 87.2029C46.7031 87.2029 45.5696 86.0694 45.5696 84.6712C45.5696 83.273 46.7031 82.1396 48.1013 82.1396C49.4995 82.1396 50.6329 83.273 50.6329 84.6712Z" fill="#939393"/>
<path d="M50.6329 93.7851C50.6329 95.1833 49.4995 96.3168 48.1013 96.3168C46.7031 96.3168 45.5696 95.1833 45.5696 93.7851C45.5696 92.387 46.7031 91.2535 48.1013 91.2535C49.4995 91.2535 50.6329 92.387 50.6329 93.7851Z" fill="#939393"/>
<path d="M50.6329 102.899C50.6329 104.297 49.4995 105.431 48.1013 105.431C46.7031 105.431 45.5696 104.297 45.5696 102.899C45.5696 101.501 46.7031 100.367 48.1013 100.367C49.4995 100.367 50.6329 101.501 50.6329 102.899Z" fill="#939393"/>
<path d="M50.6329 112.013C50.6329 113.411 49.4995 114.545 48.1013 114.545C46.7031 114.545 45.5696 113.411 45.5696 112.013C45.5696 110.615 46.7031 109.481 48.1013 109.481C49.4995 109.481 50.6329 110.615 50.6329 112.013Z" fill="#939393"/>
<path d="M50.6329 121.127C50.6329 122.525 49.4995 123.659 48.1013 123.659C46.7031 123.659 45.5696 122.525 45.5696 121.127C45.5696 119.729 46.7031 118.595 48.1013 118.595C49.4995 118.595 50.6329 119.729 50.6329 121.127Z" fill="#939393"/>
<path d="M50.6329 130.241C50.6329 131.639 49.4995 132.772 48.1013 132.772C46.7031 132.772 45.5696 131.639 45.5696 130.241C45.5696 128.843 46.7031 127.709 48.1013 127.709C49.4995 127.709 50.6329 128.843 50.6329 130.241Z" fill="#939393"/>
<path d="M50.6329 139.355C50.6329 140.753 49.4995 141.886 48.1013 141.886C46.7031 141.886 45.5696 140.753 45.5696 139.355C45.5696 137.957 46.7031 136.823 48.1013 136.823C49.4995 136.823 50.6329 137.957 50.6329 139.355Z" fill="#939393"/>
<path d="M50.6329 148.469C50.6329 149.867 49.4995 151 48.1013 151C46.7031 151 45.5696 149.867 45.5696 148.469C45.5696 147.071 46.7031 145.937 48.1013 145.937C49.4995 145.937 50.6329 147.071 50.6329 148.469Z" fill="#939393"/>
<path d="M59.7468 75.5573C59.7468 76.9555 58.6134 78.0889 57.2152 78.0889C55.817 78.0889 54.6835 76.9555 54.6835 75.5573C54.6835 74.1591 55.817 73.0257 57.2152 73.0257C58.6134 73.0257 59.7468 74.1591 59.7468 75.5573Z" fill="#939393"/>
<path d="M59.7468 84.6712C59.7468 86.0694 58.6134 87.2029 57.2152 87.2029C55.817 87.2029 54.6835 86.0694 54.6835 84.6712C54.6835 83.273 55.817 82.1396 57.2152 82.1396C58.6134 82.1396 59.7468 83.273 59.7468 84.6712Z" fill="#939393"/>
<path d="M59.7468 93.7851C59.7468 95.1833 58.6134 96.3168 57.2152 96.3168C55.817 96.3168 54.6835 95.1833 54.6835 93.7851C54.6835 92.387 55.817 91.2535 57.2152 91.2535C58.6134 91.2535 59.7468 92.387 59.7468 93.7851Z" fill="#939393"/>
<path d="M59.7468 102.899C59.7468 104.297 58.6134 105.431 57.2152 105.431C55.817 105.431 54.6835 104.297 54.6835 102.899C54.6835 101.501 55.817 100.367 57.2152 100.367C58.6134 100.367 59.7468 101.501 59.7468 102.899Z" fill="#939393"/>
<path d="M59.7468 112.013C59.7468 113.411 58.6134 114.545 57.2152 114.545C55.817 114.545 54.6835 113.411 54.6835 112.013C54.6835 110.615 55.817 109.481 57.2152 109.481C58.6134 109.481 59.7468 110.615 59.7468 112.013Z" fill="#939393"/>
<path d="M59.7468 121.127C59.7468 122.525 58.6134 123.659 57.2152 123.659C55.817 123.659 54.6835 122.525 54.6835 121.127C54.6835 119.729 55.817 118.595 57.2152 118.595C58.6134 118.595 59.7468 119.729 59.7468 121.127Z" fill="#939393"/>
<path d="M59.7468 130.241C59.7468 131.639 58.6134 132.772 57.2152 132.772C55.817 132.772 54.6835 131.639 54.6835 130.241C54.6835 128.843 55.817 127.709 57.2152 127.709C58.6134 127.709 59.7468 128.843 59.7468 130.241Z" fill="#939393"/>
<path d="M59.7468 139.355C59.7468 140.753 58.6134 141.886 57.2152 141.886C55.817 141.886 54.6835 140.753 54.6835 139.355C54.6835 137.957 55.817 136.823 57.2152 136.823C58.6134 136.823 59.7468 137.957 59.7468 139.355Z" fill="#939393"/>
<path d="M59.7468 148.469C59.7468 149.867 58.6134 151 57.2152 151C55.817 151 54.6835 149.867 54.6835 148.469C54.6835 147.071 55.817 145.937 57.2152 145.937C58.6134 145.937 59.7468 147.071 59.7468 148.469Z" fill="#939393"/>
<path d="M68.8608 39.1016C68.8608 40.4998 67.7273 41.6332 66.3291 41.6332C64.9309 41.6332 63.7975 40.4998 63.7975 39.1016C63.7975 37.7034 64.9309 36.57 66.3291 36.57C67.7273 36.57 68.8608 37.7034 68.8608 39.1016Z" fill="#939393"/>
<path d="M68.8608 48.2155C68.8608 49.6137 67.7273 50.7472 66.3291 50.7472C64.9309 50.7472 63.7975 49.6137 63.7975 48.2155C63.7975 46.8173 64.9309 45.6839 66.3291 45.6839C67.7273 45.6839 68.8608 46.8173 68.8608 48.2155Z" fill="#939393"/>
<path d="M68.8608 57.3294C68.8608 58.7276 67.7273 59.8611 66.3291 59.8611C64.9309 59.8611 63.7975 58.7276 63.7975 57.3294C63.7975 55.9313 64.9309 54.7978 66.3291 54.7978C67.7273 54.7978 68.8608 55.9313 68.8608 57.3294Z" fill="#939393"/>
<path d="M68.8608 66.4434C68.8608 67.8416 67.7273 68.975 66.3291 68.975C64.9309 68.975 63.7975 67.8416 63.7975 66.4434C63.7975 65.0452 64.9309 63.9117 66.3291 63.9117C67.7273 63.9117 68.8608 65.0452 68.8608 66.4434Z" fill="#939393"/>
<path d="M68.8608 75.5573C68.8608 76.9555 67.7273 78.0889 66.3291 78.0889C64.9309 78.0889 63.7975 76.9555 63.7975 75.5573C63.7975 74.1591 64.9309 73.0257 66.3291 73.0257C67.7273 73.0257 68.8608 74.1591 68.8608 75.5573Z" fill="#939393"/>
<path d="M68.8608 84.6712C68.8608 86.0694 67.7273 87.2029 66.3291 87.2029C64.9309 87.2029 63.7975 86.0694 63.7975 84.6712C63.7975 83.273 64.9309 82.1396 66.3291 82.1396C67.7273 82.1396 68.8608 83.273 68.8608 84.6712Z" fill="#939393"/>
<path d="M68.8608 93.7851C68.8608 95.1833 67.7273 96.3168 66.3291 96.3168C64.9309 96.3168 63.7975 95.1833 63.7975 93.7851C63.7975 92.387 64.9309 91.2535 66.3291 91.2535C67.7273 91.2535 68.8608 92.387 68.8608 93.7851Z" fill="#939393"/>
<path d="M68.8608 102.899C68.8608 104.297 67.7273 105.431 66.3291 105.431C64.9309 105.431 63.7975 104.297 63.7975 102.899C63.7975 101.501 64.9309 100.367 66.3291 100.367C67.7273 100.367 68.8608 101.501 68.8608 102.899Z" fill="#939393"/>
<path d="M68.8608 112.013C68.8608 113.411 67.7273 114.545 66.3291 114.545C64.9309 114.545 63.7975 113.411 63.7975 112.013C63.7975 110.615 64.9309 109.481 66.3291 109.481C67.7273 109.481 68.8608 110.615 68.8608 112.013Z" fill="#939393"/>
<path d="M68.8608 121.127C68.8608 122.525 67.7273 123.659 66.3291 123.659C64.9309 123.659 63.7975 122.525 63.7975 121.127C63.7975 119.729 64.9309 118.595 66.3291 118.595C67.7273 118.595 68.8608 119.729 68.8608 121.127Z" fill="#939393"/>
<path d="M68.8608 130.241C68.8608 131.639 67.7273 132.772 66.3291 132.772C64.9309 132.772 63.7975 131.639 63.7975 130.241C63.7975 128.843 64.9309 127.709 66.3291 127.709C67.7273 127.709 68.8608 128.843 68.8608 130.241Z" fill="#939393"/>
<path d="M68.8608 139.355C68.8608 140.753 67.7273 141.886 66.3291 141.886C64.9309 141.886 63.7975 140.753 63.7975 139.355C63.7975 137.957 64.9309 136.823 66.3291 136.823C67.7273 136.823 68.8608 137.957 68.8608 139.355Z" fill="#939393"/>
<path d="M68.8608 148.469C68.8608 149.867 67.7273 151 66.3291 151C64.9309 151 63.7975 149.867 63.7975 148.469C63.7975 147.071 64.9309 145.937 66.3291 145.937C67.7273 145.937 68.8608 147.071 68.8608 148.469Z" fill="#939393"/>
<path d="M77.9747 57.3294C77.9747 58.7276 76.8412 59.8611 75.443 59.8611C74.0448 59.8611 72.9114 58.7276 72.9114 57.3294C72.9114 55.9313 74.0448 54.7978 75.443 54.7978C76.8412 54.7978 77.9747 55.9313 77.9747 57.3294Z" fill="#939393"/>
<path d="M77.9747 66.4434C77.9747 67.8416 76.8412 68.975 75.443 68.975C74.0448 68.975 72.9114 67.8416 72.9114 66.4434C72.9114 65.0452 74.0448 63.9117 75.443 63.9117C76.8412 63.9117 77.9747 65.0452 77.9747 66.4434Z" fill="#939393"/>
<path d="M77.9747 75.5573C77.9747 76.9555 76.8412 78.0889 75.443 78.0889C74.0448 78.0889 72.9114 76.9555 72.9114 75.5573C72.9114 74.1591 74.0448 73.0257 75.443 73.0257C76.8412 73.0257 77.9747 74.1591 77.9747 75.5573Z" fill="#939393"/>
<path d="M77.9747 84.6712C77.9747 86.0694 76.8412 87.2029 75.443 87.2029C74.0448 87.2029 72.9114 86.0694 72.9114 84.6712C72.9114 83.273 74.0448 82.1396 75.443 82.1396C76.8412 82.1396 77.9747 83.273 77.9747 84.6712Z" fill="#939393"/>
<path d="M77.9747 93.7851C77.9747 95.1833 76.8412 96.3168 75.443 96.3168C74.0448 96.3168 72.9114 95.1833 72.9114 93.7851C72.9114 92.387 74.0448 91.2535 75.443 91.2535C76.8412 91.2535 77.9747 92.387 77.9747 93.7851Z" fill="#939393"/>
<path d="M77.9747 102.899C77.9747 104.297 76.8412 105.431 75.443 105.431C74.0448 105.431 72.9114 104.297 72.9114 102.899C72.9114 101.501 74.0448 100.367 75.443 100.367C76.8412 100.367 77.9747 101.501 77.9747 102.899Z" fill="#939393"/>
<path d="M77.9747 112.013C77.9747 113.411 76.8412 114.545 75.443 114.545C74.0448 114.545 72.9114 113.411 72.9114 112.013C72.9114 110.615 74.0448 109.481 75.443 109.481C76.8412 109.481 77.9747 110.615 77.9747 112.013Z" fill="#939393"/>
<path d="M77.9747 121.127C77.9747 122.525 76.8412 123.659 75.443 123.659C74.0448 123.659 72.9114 122.525 72.9114 121.127C72.9114 119.729 74.0448 118.595 75.443 118.595C76.8412 118.595 77.9747 119.729 77.9747 121.127Z" fill="#939393"/>
<path d="M77.9747 130.241C77.9747 131.639 76.8412 132.772 75.443 132.772C74.0448 132.772 72.9114 131.639 72.9114 130.241C72.9114 128.843 74.0448 127.709 75.443 127.709C76.8412 127.709 77.9747 128.843 77.9747 130.241Z" fill="#939393"/>
<path d="M77.9747 139.355C77.9747 140.753 76.8412 141.886 75.443 141.886C74.0448 141.886 72.9114 140.753 72.9114 139.355C72.9114 137.957 74.0448 136.823 75.443 136.823C76.8412 136.823 77.9747 137.957 77.9747 139.355Z" fill="#939393"/>
<path d="M77.9747 148.469C77.9747 149.867 76.8412 151 75.443 151C74.0448 151 72.9114 149.867 72.9114 148.469C72.9114 147.071 74.0448 145.937 75.443 145.937C76.8412 145.937 77.9747 147.071 77.9747 148.469Z" fill="#939393"/>
<path d="M87.0886 84.6712C87.0886 86.0694 85.9552 87.2029 84.557 87.2029C83.1588 87.2029 82.0253 86.0694 82.0253 84.6712C82.0253 83.273 83.1588 82.1396 84.557 82.1396C85.9552 82.1396 87.0886 83.273 87.0886 84.6712Z" fill="#939393"/>
<path d="M87.0886 93.7851C87.0886 95.1833 85.9552 96.3168 84.557 96.3168C83.1588 96.3168 82.0253 95.1833 82.0253 93.7851C82.0253 92.387 83.1588 91.2535 84.557 91.2535C85.9552 91.2535 87.0886 92.387 87.0886 93.7851Z" fill="#939393"/>
<path d="M87.0886 102.899C87.0886 104.297 85.9552 105.431 84.557 105.431C83.1588 105.431 82.0253 104.297 82.0253 102.899C82.0253 101.501 83.1588 100.367 84.557 100.367C85.9552 100.367 87.0886 101.501 87.0886 102.899Z" fill="#939393"/>
<path d="M87.0886 112.013C87.0886 113.411 85.9552 114.545 84.557 114.545C83.1588 114.545 82.0253 113.411 82.0253 112.013C82.0253 110.615 83.1588 109.481 84.557 109.481C85.9552 109.481 87.0886 110.615 87.0886 112.013Z" fill="#939393"/>
<path d="M87.0886 121.127C87.0886 122.525 85.9552 123.659 84.557 123.659C83.1588 123.659 82.0253 122.525 82.0253 121.127C82.0253 119.729 83.1588 118.595 84.557 118.595C85.9552 118.595 87.0886 119.729 87.0886 121.127Z" fill="#939393"/>
<path d="M87.0886 130.241C87.0886 131.639 85.9552 132.772 84.557 132.772C83.1588 132.772 82.0253 131.639 82.0253 130.241C82.0253 128.843 83.1588 127.709 84.557 127.709C85.9552 127.709 87.0886 128.843 87.0886 130.241Z" fill="#939393"/>
<path d="M87.0886 139.355C87.0886 140.753 85.9552 141.886 84.557 141.886C83.1588 141.886 82.0253 140.753 82.0253 139.355C82.0253 137.957 83.1588 136.823 84.557 136.823C85.9552 136.823 87.0886 137.957 87.0886 139.355Z" fill="#939393"/>
<path d="M87.0886 148.469C87.0886 149.867 85.9552 151 84.557 151C83.1588 151 82.0253 149.867 82.0253 148.469C82.0253 147.071 83.1588 145.937 84.557 145.937C85.9552 145.937 87.0886 147.071 87.0886 148.469Z" fill="#939393"/>
<path d="M96.2025 84.6712C96.2025 86.0694 95.0691 87.2029 93.6709 87.2029C92.2727 87.2029 91.1392 86.0694 91.1392 84.6712C91.1392 83.273 92.2727 82.1396 93.6709 82.1396C95.0691 82.1396 96.2025 83.273 96.2025 84.6712Z" fill="#939393"/>
<path d="M96.2025 93.7851C96.2025 95.1833 95.0691 96.3168 93.6709 96.3168C92.2727 96.3168 91.1392 95.1833 91.1392 93.7851C91.1392 92.387 92.2727 91.2535 93.6709 91.2535C95.0691 91.2535 96.2025 92.387 96.2025 93.7851Z" fill="#939393"/>
<path d="M96.2025 102.899C96.2025 104.297 95.0691 105.431 93.6709 105.431C92.2727 105.431 91.1392 104.297 91.1392 102.899C91.1392 101.501 92.2727 100.367 93.6709 100.367C95.0691 100.367 96.2025 101.501 96.2025 102.899Z" fill="#939393"/>
<path d="M96.2025 112.013C96.2025 113.411 95.0691 114.545 93.6709 114.545C92.2727 114.545 91.1392 113.411 91.1392 112.013C91.1392 110.615 92.2727 109.481 93.6709 109.481C95.0691 109.481 96.2025 110.615 96.2025 112.013Z" fill="#939393"/>
<path d="M96.2025 121.127C96.2025 122.525 95.0691 123.659 93.6709 123.659C92.2727 123.659 91.1392 122.525 91.1392 121.127C91.1392 119.729 92.2727 118.595 93.6709 118.595C95.0691 118.595 96.2025 119.729 96.2025 121.127Z" fill="#939393"/>
<path d="M96.2025 130.241C96.2025 131.639 95.0691 132.772 93.6709 132.772C92.2727 132.772 91.1392 131.639 91.1392 130.241C91.1392 128.843 92.2727 127.709 93.6709 127.709C95.0691 127.709 96.2025 128.843 96.2025 130.241Z" fill="#939393"/>
<path d="M96.2025 139.355C96.2025 140.753 95.0691 141.886 93.6709 141.886C92.2727 141.886 91.1392 140.753 91.1392 139.355C91.1392 137.957 92.2727 136.823 93.6709 136.823C95.0691 136.823 96.2025 137.957 96.2025 139.355Z" fill="#939393"/>
<path d="M96.2025 148.469C96.2025 149.867 95.0691 151 93.6709 151C92.2727 151 91.1392 149.867 91.1392 148.469C91.1392 147.071 92.2727 145.937 93.6709 145.937C95.0691 145.937 96.2025 147.071 96.2025 148.469Z" fill="#939393"/>
<path d="M105.316 66.4434C105.316 67.8416 104.183 68.975 102.785 68.975C101.387 68.975 100.253 67.8416 100.253 66.4434C100.253 65.0452 101.387 63.9117 102.785 63.9117C104.183 63.9117 105.316 65.0452 105.316 66.4434Z" fill="#939393"/>
<path d="M105.316 75.5573C105.316 76.9555 104.183 78.0889 102.785 78.0889C101.387 78.0889 100.253 76.9555 100.253 75.5573C100.253 74.1591 101.387 73.0257 102.785 73.0257C104.183 73.0257 105.316 74.1591 105.316 75.5573Z" fill="#939393"/>
<path d="M105.316 84.6712C105.316 86.0694 104.183 87.2029 102.785 87.2029C101.387 87.2029 100.253 86.0694 100.253 84.6712C100.253 83.273 101.387 82.1396 102.785 82.1396C104.183 82.1396 105.316 83.273 105.316 84.6712Z" fill="#939393"/>
<path d="M105.316 93.7851C105.316 95.1833 104.183 96.3168 102.785 96.3168C101.387 96.3168 100.253 95.1833 100.253 93.7851C100.253 92.387 101.387 91.2535 102.785 91.2535C104.183 91.2535 105.316 92.387 105.316 93.7851Z" fill="#939393"/>
<path d="M105.316 102.899C105.316 104.297 104.183 105.431 102.785 105.431C101.387 105.431 100.253 104.297 100.253 102.899C100.253 101.501 101.387 100.367 102.785 100.367C104.183 100.367 105.316 101.501 105.316 102.899Z" fill="#939393"/>
<path d="M105.316 112.013C105.316 113.411 104.183 114.545 102.785 114.545C101.387 114.545 100.253 113.411 100.253 112.013C100.253 110.615 101.387 109.481 102.785 109.481C104.183 109.481 105.316 110.615 105.316 112.013Z" fill="#939393"/>
<path d="M105.316 121.127C105.316 122.525 104.183 123.659 102.785 123.659C101.387 123.659 100.253 122.525 100.253 121.127C100.253 119.729 101.387 118.595 102.785 118.595C104.183 118.595 105.316 119.729 105.316 121.127Z" fill="#939393"/>
<path d="M105.316 130.241C105.316 131.639 104.183 132.772 102.785 132.772C101.387 132.772 100.253 131.639 100.253 130.241C100.253 128.843 101.387 127.709 102.785 127.709C104.183 127.709 105.316 128.843 105.316 130.241Z" fill="#939393"/>
<path d="M105.316 139.355C105.316 140.753 104.183 141.886 102.785 141.886C101.387 141.886 100.253 140.753 100.253 139.355C100.253 137.957 101.387 136.823 102.785 136.823C104.183 136.823 105.316 137.957 105.316 139.355Z" fill="#939393"/>
<path d="M105.316 148.469C105.316 149.867 104.183 151 102.785 151C101.387 151 100.253 149.867 100.253 148.469C100.253 147.071 101.387 145.937 102.785 145.937C104.183 145.937 105.316 147.071 105.316 148.469Z" fill="#939393"/>
<path d="M114.43 2.6459C114.43 4.04409 113.297 5.17755 111.899 5.17755C110.501 5.17755 109.367 4.04409 109.367 2.6459C109.367 1.24771 110.501 0.114258 111.899 0.114258C113.297 0.114258 114.43 1.24771 114.43 2.6459Z" fill="#F84204"/>
<path d="M114.43 11.7598C114.43 13.158 113.297 14.2915 111.899 14.2915C110.501 14.2915 109.367 13.158 109.367 11.7598C109.367 10.3616 110.501 9.22818 111.899 9.22818C113.297 9.22818 114.43 10.3616 114.43 11.7598Z" fill="#F84204"/>
<path d="M114.43 20.8738C114.43 22.2719 113.297 23.4054 111.899 23.4054C110.501 23.4054 109.367 22.2719 109.367 20.8738C109.367 19.4756 110.501 18.3421 111.899 18.3421C113.297 18.3421 114.43 19.4756 114.43 20.8738Z" fill="#F84204"/>
<path d="M114.43 29.9877C114.43 31.3859 113.297 32.5193 111.899 32.5193C110.501 32.5193 109.367 31.3859 109.367 29.9877C109.367 28.5895 110.501 27.456 111.899 27.456C113.297 27.456 114.43 28.5895 114.43 29.9877Z" fill="#F84204"/>
<path d="M114.43 39.1016C114.43 40.4998 113.297 41.6332 111.899 41.6332C110.501 41.6332 109.367 40.4998 109.367 39.1016C109.367 37.7034 110.501 36.57 111.899 36.57C113.297 36.57 114.43 37.7034 114.43 39.1016Z" fill="#F84204"/>
<path d="M114.43 48.2155C114.43 49.6137 113.297 50.7472 111.899 50.7472C110.501 50.7472 109.367 49.6137 109.367 48.2155C109.367 46.8173 110.501 45.6839 111.899 45.6839C113.297 45.6839 114.43 46.8173 114.43 48.2155Z" fill="#F84204"/>
<path d="M114.43 57.3294C114.43 58.7276 113.297 59.8611 111.899 59.8611C110.501 59.8611 109.367 58.7276 109.367 57.3294C109.367 55.9313 110.501 54.7978 111.899 54.7978C113.297 54.7978 114.43 55.9313 114.43 57.3294Z" fill="#F84204"/>
<path d="M114.43 66.4434C114.43 67.8416 113.297 68.975 111.899 68.975C110.501 68.975 109.367 67.8416 109.367 66.4434C109.367 65.0452 110.501 63.9117 111.899 63.9117C113.297 63.9117 114.43 65.0452 114.43 66.4434Z" fill="#F84204"/>
<path d="M114.43 75.5573C114.43 76.9555 113.297 78.0889 111.899 78.0889C110.501 78.0889 109.367 76.9555 109.367 75.5573C109.367 74.1591 110.501 73.0257 111.899 73.0257C113.297 73.0257 114.43 74.1591 114.43 75.5573Z" fill="#F84204"/>
<path d="M114.43 84.6712C114.43 86.0694 113.297 87.2029 111.899 87.2029C110.501 87.2029 109.367 86.0694 109.367 84.6712C109.367 83.273 110.501 82.1396 111.899 82.1396C113.297 82.1396 114.43 83.273 114.43 84.6712Z" fill="#F84204"/>
<path d="M114.43 93.7851C114.43 95.1833 113.297 96.3168 111.899 96.3168C110.501 96.3168 109.367 95.1833 109.367 93.7851C109.367 92.387 110.501 91.2535 111.899 91.2535C113.297 91.2535 114.43 92.387 114.43 93.7851Z" fill="#F84204"/>
<path d="M114.43 102.899C114.43 104.297 113.297 105.431 111.899 105.431C110.501 105.431 109.367 104.297 109.367 102.899C109.367 101.501 110.501 100.367 111.899 100.367C113.297 100.367 114.43 101.501 114.43 102.899Z" fill="#F84204"/>
<path d="M114.43 112.013C114.43 113.411 113.297 114.545 111.899 114.545C110.501 114.545 109.367 113.411 109.367 112.013C109.367 110.615 110.501 109.481 111.899 109.481C113.297 109.481 114.43 110.615 114.43 112.013Z" fill="#F84204"/>
<path d="M114.43 121.127C114.43 122.525 113.297 123.659 111.899 123.659C110.501 123.659 109.367 122.525 109.367 121.127C109.367 119.729 110.501 118.595 111.899 118.595C113.297 118.595 114.43 119.729 114.43 121.127Z" fill="#F84204"/>
<path d="M114.43 130.241C114.43 131.639 113.297 132.772 111.899 132.772C110.501 132.772 109.367 131.639 109.367 130.241C109.367 128.843 110.501 127.709 111.899 127.709C113.297 127.709 114.43 128.843 114.43 130.241Z" fill="#F84204"/>
<path d="M114.43 139.355C114.43 140.753 113.297 141.886 111.899 141.886C110.501 141.886 109.367 140.753 109.367 139.355C109.367 137.957 110.501 136.823 111.899 136.823C113.297 136.823 114.43 137.957 114.43 139.355Z" fill="#F84204"/>
<path d="M114.43 148.469C114.43 149.867 113.297 151 111.899 151C110.501 151 109.367 149.867 109.367 148.469C109.367 147.071 110.501 145.937 111.899 145.937C113.297 145.937 114.43 147.071 114.43 148.469Z" fill="#F84204"/>
<path d="M123.544 20.8738C123.544 22.2719 122.411 23.4054 121.013 23.4054C119.614 23.4054 118.481 22.2719 118.481 20.8738C118.481 19.4756 119.614 18.3421 121.013 18.3421C122.411 18.3421 123.544 19.4756 123.544 20.8738Z" fill="#F84204"/>
<path d="M123.544 29.9877C123.544 31.3859 122.411 32.5193 121.013 32.5193C119.614 32.5193 118.481 31.3859 118.481 29.9877C118.481 28.5895 119.614 27.456 121.013 27.456C122.411 27.456 123.544 28.5895 123.544 29.9877Z" fill="#F84204"/>
<path d="M123.544 39.1016C123.544 40.4998 122.411 41.6332 121.013 41.6332C119.614 41.6332 118.481 40.4998 118.481 39.1016C118.481 37.7034 119.614 36.57 121.013 36.57C122.411 36.57 123.544 37.7034 123.544 39.1016Z" fill="#F84204"/>
<path d="M123.544 48.2155C123.544 49.6137 122.411 50.7472 121.013 50.7472C119.614 50.7472 118.481 49.6137 118.481 48.2155C118.481 46.8173 119.614 45.6839 121.013 45.6839C122.411 45.6839 123.544 46.8173 123.544 48.2155Z" fill="#F84204"/>
<path d="M123.544 57.3294C123.544 58.7276 122.411 59.8611 121.013 59.8611C119.614 59.8611 118.481 58.7276 118.481 57.3294C118.481 55.9313 119.614 54.7978 121.013 54.7978C122.411 54.7978 123.544 55.9313 123.544 57.3294Z" fill="#F84204"/>
<path d="M123.544 66.4434C123.544 67.8416 122.411 68.975 121.013 68.975C119.614 68.975 118.481 67.8416 118.481 66.4434C118.481 65.0452 119.614 63.9117 121.013 63.9117C122.411 63.9117 123.544 65.0452 123.544 66.4434Z" fill="#F84204"/>
<path d="M123.544 75.5573C123.544 76.9555 122.411 78.0889 121.013 78.0889C119.614 78.0889 118.481 76.9555 118.481 75.5573C118.481 74.1591 119.614 73.0257 121.013 73.0257C122.411 73.0257 123.544 74.1591 123.544 75.5573Z" fill="#F84204"/>
<path d="M123.544 84.6712C123.544 86.0694 122.411 87.2029 121.013 87.2029C119.614 87.2029 118.481 86.0694 118.481 84.6712C118.481 83.273 119.614 82.1396 121.013 82.1396C122.411 82.1396 123.544 83.273 123.544 84.6712Z" fill="#F84204"/>
<path d="M123.544 93.7851C123.544 95.1833 122.411 96.3168 121.013 96.3168C119.614 96.3168 118.481 95.1833 118.481 93.7851C118.481 92.387 119.614 91.2535 121.013 91.2535C122.411 91.2535 123.544 92.387 123.544 93.7851Z" fill="#F84204"/>
<path d="M123.544 102.899C123.544 104.297 122.411 105.431 121.013 105.431C119.614 105.431 118.481 104.297 118.481 102.899C118.481 101.501 119.614 100.367 121.013 100.367C122.411 100.367 123.544 101.501 123.544 102.899Z" fill="#F84204"/>
<path d="M123.544 112.013C123.544 113.411 122.411 114.545 121.013 114.545C119.614 114.545 118.481 113.411 118.481 112.013C118.481 110.615 119.614 109.481 121.013 109.481C122.411 109.481 123.544 110.615 123.544 112.013Z" fill="#F84204"/>
<path d="M123.544 121.127C123.544 122.525 122.411 123.659 121.013 123.659C119.614 123.659 118.481 122.525 118.481 121.127C118.481 119.729 119.614 118.595 121.013 118.595C122.411 118.595 123.544 119.729 123.544 121.127Z" fill="#F84204"/>
<path d="M123.544 130.241C123.544 131.639 122.411 132.772 121.013 132.772C119.614 132.772 118.481 131.639 118.481 130.241C118.481 128.843 119.614 127.709 121.013 127.709C122.411 127.709 123.544 128.843 123.544 130.241Z" fill="#F84204"/>
<path d="M123.544 139.355C123.544 140.753 122.411 141.886 121.013 141.886C119.614 141.886 118.481 140.753 118.481 139.355C118.481 137.957 119.614 136.823 121.013 136.823C122.411 136.823 123.544 137.957 123.544 139.355Z" fill="#F84204"/>
<path d="M123.544 148.469C123.544 149.867 122.411 151 121.013 151C119.614 151 118.481 149.867 118.481 148.469C118.481 147.071 119.614 145.937 121.013 145.937C122.411 145.937 123.544 147.071 123.544 148.469Z" fill="#F84204"/>
<path d="M132.658 29.9877C132.658 31.3859 131.525 32.5193 130.127 32.5193C128.728 32.5193 127.595 31.3859 127.595 29.9877C127.595 28.5895 128.728 27.456 130.127 27.456C131.525 27.456 132.658 28.5895 132.658 29.9877Z" fill="#F84204"/>
<path d="M132.658 39.1016C132.658 40.4998 131.525 41.6332 130.127 41.6332C128.728 41.6332 127.595 40.4998 127.595 39.1016C127.595 37.7034 128.728 36.57 130.127 36.57C131.525 36.57 132.658 37.7034 132.658 39.1016Z" fill="#F84204"/>
<path d="M132.658 48.2155C132.658 49.6137 131.525 50.7472 130.127 50.7472C128.728 50.7472 127.595 49.6137 127.595 48.2155C127.595 46.8173 128.728 45.6839 130.127 45.6839C131.525 45.6839 132.658 46.8173 132.658 48.2155Z" fill="#F84204"/>
<path d="M132.658 57.3294C132.658 58.7276 131.525 59.8611 130.127 59.8611C128.728 59.8611 127.595 58.7276 127.595 57.3294C127.595 55.9313 128.728 54.7978 130.127 54.7978C131.525 54.7978 132.658 55.9313 132.658 57.3294Z" fill="#F84204"/>
<path d="M132.658 66.4434C132.658 67.8416 131.525 68.975 130.127 68.975C128.728 68.975 127.595 67.8416 127.595 66.4434C127.595 65.0452 128.728 63.9117 130.127 63.9117C131.525 63.9117 132.658 65.0452 132.658 66.4434Z" fill="#F84204"/>
<path d="M132.658 75.5573C132.658 76.9555 131.525 78.0889 130.127 78.0889C128.728 78.0889 127.595 76.9555 127.595 75.5573C127.595 74.1591 128.728 73.0257 130.127 73.0257C131.525 73.0257 132.658 74.1591 132.658 75.5573Z" fill="#F84204"/>
<path d="M132.658 84.6712C132.658 86.0694 131.525 87.2029 130.127 87.2029C128.728 87.2029 127.595 86.0694 127.595 84.6712C127.595 83.273 128.728 82.1396 130.127 82.1396C131.525 82.1396 132.658 83.273 132.658 84.6712Z" fill="#F84204"/>
<path d="M132.658 93.7851C132.658 95.1833 131.525 96.3168 130.127 96.3168C128.728 96.3168 127.595 95.1833 127.595 93.7851C127.595 92.387 128.728 91.2535 130.127 91.2535C131.525 91.2535 132.658 92.387 132.658 93.7851Z" fill="#F84204"/>
<path d="M132.658 102.899C132.658 104.297 131.525 105.431 130.127 105.431C128.728 105.431 127.595 104.297 127.595 102.899C127.595 101.501 128.728 100.367 130.127 100.367C131.525 100.367 132.658 101.501 132.658 102.899Z" fill="#F84204"/>
<path d="M132.658 112.013C132.658 113.411 131.525 114.545 130.127 114.545C128.728 114.545 127.595 113.411 127.595 112.013C127.595 110.615 128.728 109.481 130.127 109.481C131.525 109.481 132.658 110.615 132.658 112.013Z" fill="#F84204"/>
<path d="M132.658 121.127C132.658 122.525 131.525 123.659 130.127 123.659C128.728 123.659 127.595 122.525 127.595 121.127C127.595 119.729 128.728 118.595 130.127 118.595C131.525 118.595 132.658 119.729 132.658 121.127Z" fill="#F84204"/>
<path d="M132.658 130.241C132.658 131.639 131.525 132.772 130.127 132.772C128.728 132.772 127.595 131.639 127.595 130.241C127.595 128.843 128.728 127.709 130.127 127.709C131.525 127.709 132.658 128.843 132.658 130.241Z" fill="#F84204"/>
<path d="M132.658 139.355C132.658 140.753 131.525 141.886 130.127 141.886C128.728 141.886 127.595 140.753 127.595 139.355C127.595 137.957 128.728 136.823 130.127 136.823C131.525 136.823 132.658 137.957 132.658 139.355Z" fill="#F84204"/>
<path d="M132.658 148.469C132.658 149.867 131.525 151 130.127 151C128.728 151 127.595 149.867 127.595 148.469C127.595 147.071 128.728 145.937 130.127 145.937C131.525 145.937 132.658 147.071 132.658 148.469Z" fill="#F84204"/>
<path d="M141.772 57.3294C141.772 58.7276 140.639 59.8611 139.241 59.8611C137.842 59.8611 136.709 58.7276 136.709 57.3294C136.709 55.9313 137.842 54.7978 139.241 54.7978C140.639 54.7978 141.772 55.9313 141.772 57.3294Z" fill="#939393"/>
<path d="M141.772 66.4434C141.772 67.8416 140.639 68.975 139.241 68.975C137.842 68.975 136.709 67.8416 136.709 66.4434C136.709 65.0452 137.842 63.9117 139.241 63.9117C140.639 63.9117 141.772 65.0452 141.772 66.4434Z" fill="#939393"/>
<path d="M141.772 75.5573C141.772 76.9555 140.639 78.0889 139.241 78.0889C137.842 78.0889 136.709 76.9555 136.709 75.5573C136.709 74.1591 137.842 73.0257 139.241 73.0257C140.639 73.0257 141.772 74.1591 141.772 75.5573Z" fill="#939393"/>
<path d="M141.772 84.6712C141.772 86.0694 140.639 87.2029 139.241 87.2029C137.842 87.2029 136.709 86.0694 136.709 84.6712C136.709 83.273 137.842 82.1396 139.241 82.1396C140.639 82.1396 141.772 83.273 141.772 84.6712Z" fill="#939393"/>
<path d="M141.772 93.7851C141.772 95.1833 140.639 96.3168 139.241 96.3168C137.842 96.3168 136.709 95.1833 136.709 93.7851C136.709 92.387 137.842 91.2535 139.241 91.2535C140.639 91.2535 141.772 92.387 141.772 93.7851Z" fill="#939393"/>
<path d="M141.772 102.899C141.772 104.297 140.639 105.431 139.241 105.431C137.842 105.431 136.709 104.297 136.709 102.899C136.709 101.501 137.842 100.367 139.241 100.367C140.639 100.367 141.772 101.501 141.772 102.899Z" fill="#939393"/>
<path d="M141.772 112.013C141.772 113.411 140.639 114.545 139.241 114.545C137.842 114.545 136.709 113.411 136.709 112.013C136.709 110.615 137.842 109.481 139.241 109.481C140.639 109.481 141.772 110.615 141.772 112.013Z" fill="#939393"/>
<path d="M141.772 121.127C141.772 122.525 140.639 123.659 139.241 123.659C137.842 123.659 136.709 122.525 136.709 121.127C136.709 119.729 137.842 118.595 139.241 118.595C140.639 118.595 141.772 119.729 141.772 121.127Z" fill="#939393"/>
<path d="M141.772 130.241C141.772 131.639 140.639 132.772 139.241 132.772C137.842 132.772 136.709 131.639 136.709 130.241C136.709 128.843 137.842 127.709 139.241 127.709C140.639 127.709 141.772 128.843 141.772 130.241Z" fill="#939393"/>
<path d="M141.772 139.355C141.772 140.753 140.639 141.886 139.241 141.886C137.842 141.886 136.709 140.753 136.709 139.355C136.709 137.957 137.842 136.823 139.241 136.823C140.639 136.823 141.772 137.957 141.772 139.355Z" fill="#939393"/>
<path d="M141.772 148.469C141.772 149.867 140.639 151 139.241 151C137.842 151 136.709 149.867 136.709 148.469C136.709 147.071 137.842 145.937 139.241 145.937C140.639 145.937 141.772 147.071 141.772 148.469Z" fill="#939393"/>
<path d="M150.886 93.7851C150.886 95.1833 149.753 96.3168 148.354 96.3168C146.956 96.3168 145.823 95.1833 145.823 93.7851C145.823 92.387 146.956 91.2535 148.354 91.2535C149.753 91.2535 150.886 92.387 150.886 93.7851Z" fill="#939393"/>
<path d="M150.886 102.899C150.886 104.297 149.753 105.431 148.354 105.431C146.956 105.431 145.823 104.297 145.823 102.899C145.823 101.501 146.956 100.367 148.354 100.367C149.753 100.367 150.886 101.501 150.886 102.899Z" fill="#939393"/>
<path d="M150.886 112.013C150.886 113.411 149.753 114.545 148.354 114.545C146.956 114.545 145.823 113.411 145.823 112.013C145.823 110.615 146.956 109.481 148.354 109.481C149.753 109.481 150.886 110.615 150.886 112.013Z" fill="#939393"/>
<path d="M150.886 121.127C150.886 122.525 149.753 123.659 148.354 123.659C146.956 123.659 145.823 122.525 145.823 121.127C145.823 119.729 146.956 118.595 148.354 118.595C149.753 118.595 150.886 119.729 150.886 121.127Z" fill="#939393"/>
<path d="M150.886 130.241C150.886 131.639 149.753 132.772 148.354 132.772C146.956 132.772 145.823 131.639 145.823 130.241C145.823 128.843 146.956 127.709 148.354 127.709C149.753 127.709 150.886 128.843 150.886 130.241Z" fill="#939393"/>
<path d="M150.886 139.355C150.886 140.753 149.753 141.886 148.354 141.886C146.956 141.886 145.823 140.753 145.823 139.355C145.823 137.957 146.956 136.823 148.354 136.823C149.753 136.823 150.886 137.957 150.886 139.355Z" fill="#939393"/>
<path d="M150.886 148.469C150.886 149.867 149.753 151 148.354 151C146.956 151 145.823 149.867 145.823 148.469C145.823 147.071 146.956 145.937 148.354 145.937C149.753 145.937 150.886 147.071 150.886 148.469Z" fill="#939393"/>
<path d="M160 84.6712C160 86.0694 158.867 87.2029 157.468 87.2029C156.07 87.2029 154.937 86.0694 154.937 84.6712C154.937 83.273 156.07 82.1396 157.468 82.1396C158.867 82.1396 160 83.273 160 84.6712Z" fill="#939393"/>
<path d="M160 93.7851C160 95.1833 158.867 96.3168 157.468 96.3168C156.07 96.3168 154.937 95.1833 154.937 93.7851C154.937 92.387 156.07 91.2535 157.468 91.2535C158.867 91.2535 160 92.387 160 93.7851Z" fill="#939393"/>
<path d="M160 102.899C160 104.297 158.867 105.431 157.468 105.431C156.07 105.431 154.937 104.297 154.937 102.899C154.937 101.501 156.07 100.367 157.468 100.367C158.867 100.367 160 101.501 160 102.899Z" fill="#939393"/>
<path d="M160 112.013C160 113.411 158.867 114.545 157.468 114.545C156.07 114.545 154.937 113.411 154.937 112.013C154.937 110.615 156.07 109.481 157.468 109.481C158.867 109.481 160 110.615 160 112.013Z" fill="#939393"/>
<path d="M160 121.127C160 122.525 158.867 123.659 157.468 123.659C156.07 123.659 154.937 122.525 154.937 121.127C154.937 119.729 156.07 118.595 157.468 118.595C158.867 118.595 160 119.729 160 121.127Z" fill="#939393"/>
<path d="M160 130.241C160 131.639 158.867 132.772 157.468 132.772C156.07 132.772 154.937 131.639 154.937 130.241C154.937 128.843 156.07 127.709 157.468 127.709C158.867 127.709 160 128.843 160 130.241Z" fill="#939393"/>
<path d="M160 139.355C160 140.753 158.867 141.886 157.468 141.886C156.07 141.886 154.937 140.753 154.937 139.355C154.937 137.957 156.07 136.823 157.468 136.823C158.867 136.823 160 137.957 160 139.355Z" fill="#939393"/>
<path d="M160 148.469C160 149.867 158.867 151 157.468 151C156.07 151 154.937 149.867 154.937 148.469C154.937 147.071 156.07 145.937 157.468 145.937C158.867 145.937 160 147.071 160 148.469Z" fill="#939393"/>
</svg>
