<svg width="160" height="104" viewBox="0 0 160 104" fill="none" xmlns="http://www.w3.org/2000/svg">
<path d="M5.06329 38.5C5.06329 39.8807 3.92983 41 2.53165 41C1.13346 41 0 39.8807 0 38.5C0 37.1193 1.13346 36 2.53165 36C3.92983 36 5.06329 37.1193 5.06329 38.5Z" fill="#939393"/>
<path d="M5.06329 47.5C5.06329 48.8807 3.92983 50 2.53165 50C1.13346 50 0 48.8807 0 47.5C0 46.1193 1.13346 45 2.53165 45C3.92983 45 5.06329 46.1193 5.06329 47.5Z" fill="#939393"/>
<path d="M5.06329 56.5C5.06329 57.8807 3.92983 59 2.53165 59C1.13346 59 0 57.8807 0 56.5C0 55.1193 1.13346 54 2.53165 54C3.92983 54 5.06329 55.1193 5.06329 56.5Z" fill="#939393"/>
<path d="M5.06329 65.5C5.06329 66.8807 3.92983 68 2.53165 68C1.13346 68 0 66.8807 0 65.5C0 64.1193 1.13346 63 2.53165 63C3.92983 63 5.06329 64.1193 5.06329 65.5Z" fill="#939393"/>
<path d="M5.06329 74.5C5.06329 75.8807 3.92983 77 2.53165 77C1.13346 77 0 75.8807 0 74.5C0 73.1193 1.13346 72 2.53165 72C3.92983 72 5.06329 73.1193 5.06329 74.5Z" fill="#939393"/>
<path d="M5.06329 83.5C5.06329 84.8807 3.92983 86 2.53165 86C1.13346 86 0 84.8807 0 83.5C0 82.1193 1.13346 81 2.53165 81C3.92983 81 5.06329 82.1193 5.06329 83.5Z" fill="#939393"/>
<path d="M5.06329 92.5C5.06329 93.8807 3.92983 95 2.53165 95C1.13346 95 0 93.8807 0 92.5C0 91.1193 1.13346 90 2.53165 90C3.92983 90 5.06329 91.1193 5.06329 92.5Z" fill="#939393"/>
<path d="M5.06329 101.5C5.06329 102.881 3.92983 104 2.53165 104C1.13346 104 0 102.881 0 101.5C0 100.119 1.13346 99 2.53165 99C3.92983 99 5.06329 100.119 5.06329 101.5Z" fill="#939393"/>
<path d="M14.1772 56.5C14.1772 57.8807 13.0438 59 11.6456 59C10.2474 59 9.11392 57.8807 9.11392 56.5C9.11392 55.1193 10.2474 54 11.6456 54C13.0438 54 14.1772 55.1193 14.1772 56.5Z" fill="#939393"/>
<path d="M14.1772 65.5C14.1772 66.8807 13.0438 68 11.6456 68C10.2474 68 9.11392 66.8807 9.11392 65.5C9.11392 64.1193 10.2474 63 11.6456 63C13.0438 63 14.1772 64.1193 14.1772 65.5Z" fill="#939393"/>
<path d="M14.1772 74.5C14.1772 75.8807 13.0438 77 11.6456 77C10.2474 77 9.11392 75.8807 9.11392 74.5C9.11392 73.1193 10.2474 72 11.6456 72C13.0438 72 14.1772 73.1193 14.1772 74.5Z" fill="#939393"/>
<path d="M14.1772 83.5C14.1772 84.8807 13.0438 86 11.6456 86C10.2474 86 9.11392 84.8807 9.11392 83.5C9.11392 82.1193 10.2474 81 11.6456 81C13.0438 81 14.1772 82.1193 14.1772 83.5Z" fill="#939393"/>
<path d="M14.1772 92.5C14.1772 93.8807 13.0438 95 11.6456 95C10.2474 95 9.11392 93.8807 9.11392 92.5C9.11392 91.1193 10.2474 90 11.6456 90C13.0438 90 14.1772 91.1193 14.1772 92.5Z" fill="#939393"/>
<path d="M14.1772 101.5C14.1772 102.881 13.0438 104 11.6456 104C10.2474 104 9.11392 102.881 9.11392 101.5C9.11392 100.119 10.2474 99 11.6456 99C13.0438 99 14.1772 100.119 14.1772 101.5Z" fill="#939393"/>
<path d="M23.2911 56.5C23.2911 57.8807 22.1577 59 20.7595 59C19.3613 59 18.2278 57.8807 18.2278 56.5C18.2278 55.1193 19.3613 54 20.7595 54C22.1577 54 23.2911 55.1193 23.2911 56.5Z" fill="#939393"/>
<path d="M23.2911 65.5C23.2911 66.8807 22.1577 68 20.7595 68C19.3613 68 18.2278 66.8807 18.2278 65.5C18.2278 64.1193 19.3613 63 20.7595 63C22.1577 63 23.2911 64.1193 23.2911 65.5Z" fill="#939393"/>
<path d="M23.2911 74.5C23.2911 75.8807 22.1577 77 20.7595 77C19.3613 77 18.2278 75.8807 18.2278 74.5C18.2278 73.1193 19.3613 72 20.7595 72C22.1577 72 23.2911 73.1193 23.2911 74.5Z" fill="#939393"/>
<path d="M23.2911 83.5C23.2911 84.8807 22.1577 86 20.7595 86C19.3613 86 18.2278 84.8807 18.2278 83.5C18.2278 82.1193 19.3613 81 20.7595 81C22.1577 81 23.2911 82.1193 23.2911 83.5Z" fill="#939393"/>
<path d="M23.2911 92.5C23.2911 93.8807 22.1577 95 20.7595 95C19.3613 95 18.2278 93.8807 18.2278 92.5C18.2278 91.1193 19.3613 90 20.7595 90C22.1577 90 23.2911 91.1193 23.2911 92.5Z" fill="#939393"/>
<path d="M23.2911 101.5C23.2911 102.881 22.1577 104 20.7595 104C19.3613 104 18.2278 102.881 18.2278 101.5C18.2278 100.119 19.3613 99 20.7595 99C22.1577 99 23.2911 100.119 23.2911 101.5Z" fill="#939393"/>
<path d="M32.4051 56.5C32.4051 57.8807 31.2716 59 29.8734 59C28.4752 59 27.3418 57.8807 27.3418 56.5C27.3418 55.1193 28.4752 54 29.8734 54C31.2716 54 32.4051 55.1193 32.4051 56.5Z" fill="#939393"/>
<path d="M32.4051 65.5C32.4051 66.8807 31.2716 68 29.8734 68C28.4752 68 27.3418 66.8807 27.3418 65.5C27.3418 64.1193 28.4752 63 29.8734 63C31.2716 63 32.4051 64.1193 32.4051 65.5Z" fill="#939393"/>
<path d="M32.4051 74.5C32.4051 75.8807 31.2716 77 29.8734 77C28.4752 77 27.3418 75.8807 27.3418 74.5C27.3418 73.1193 28.4752 72 29.8734 72C31.2716 72 32.4051 73.1193 32.4051 74.5Z" fill="#939393"/>
<path d="M32.4051 83.5C32.4051 84.8807 31.2716 86 29.8734 86C28.4752 86 27.3418 84.8807 27.3418 83.5C27.3418 82.1193 28.4752 81 29.8734 81C31.2716 81 32.4051 82.1193 32.4051 83.5Z" fill="#939393"/>
<path d="M32.4051 92.5C32.4051 93.8807 31.2716 95 29.8734 95C28.4752 95 27.3418 93.8807 27.3418 92.5C27.3418 91.1193 28.4752 90 29.8734 90C31.2716 90 32.4051 91.1193 32.4051 92.5Z" fill="#939393"/>
<path d="M32.4051 101.5C32.4051 102.881 31.2716 104 29.8734 104C28.4752 104 27.3418 102.881 27.3418 101.5C27.3418 100.119 28.4752 99 29.8734 99C31.2716 99 32.4051 100.119 32.4051 101.5Z" fill="#939393"/>
<path d="M41.519 74.5C41.519 75.8807 40.3855 77 38.9873 77C37.5892 77 36.4557 75.8807 36.4557 74.5C36.4557 73.1193 37.5892 72 38.9873 72C40.3855 72 41.519 73.1193 41.519 74.5Z" fill="#939393"/>
<path d="M41.519 83.5C41.519 84.8807 40.3855 86 38.9873 86C37.5892 86 36.4557 84.8807 36.4557 83.5C36.4557 82.1193 37.5892 81 38.9873 81C40.3855 81 41.519 82.1193 41.519 83.5Z" fill="#939393"/>
<path d="M41.519 92.5C41.519 93.8807 40.3855 95 38.9873 95C37.5892 95 36.4557 93.8807 36.4557 92.5C36.4557 91.1193 37.5892 90 38.9873 90C40.3855 90 41.519 91.1193 41.519 92.5Z" fill="#939393"/>
<path d="M41.519 101.5C41.519 102.881 40.3855 104 38.9873 104C37.5892 104 36.4557 102.881 36.4557 101.5C36.4557 100.119 37.5892 99 38.9873 99C40.3855 99 41.519 100.119 41.519 101.5Z" fill="#939393"/>
<path d="M50.6329 83.5C50.6329 84.8807 49.4995 86 48.1013 86C46.7031 86 45.5696 84.8807 45.5696 83.5C45.5696 82.1193 46.7031 81 48.1013 81C49.4995 81 50.6329 82.1193 50.6329 83.5Z" fill="#939393"/>
<path d="M50.6329 92.5C50.6329 93.8807 49.4995 95 48.1013 95C46.7031 95 45.5696 93.8807 45.5696 92.5C45.5696 91.1193 46.7031 90 48.1013 90C49.4995 90 50.6329 91.1193 50.6329 92.5Z" fill="#939393"/>
<path d="M50.6329 101.5C50.6329 102.881 49.4995 104 48.1013 104C46.7031 104 45.5696 102.881 45.5696 101.5C45.5696 100.119 46.7031 99 48.1013 99C49.4995 99 50.6329 100.119 50.6329 101.5Z" fill="#939393"/>
<path d="M59.7468 92.5C59.7468 93.8807 58.6134 95 57.2152 95C55.817 95 54.6835 93.8807 54.6835 92.5C54.6835 91.1193 55.817 90 57.2152 90C58.6134 90 59.7468 91.1193 59.7468 92.5Z" fill="#939393"/>
<path d="M59.7468 101.5C59.7468 102.881 58.6134 104 57.2152 104C55.817 104 54.6835 102.881 54.6835 101.5C54.6835 100.119 55.817 99 57.2152 99C58.6134 99 59.7468 100.119 59.7468 101.5Z" fill="#939393"/>
<path d="M68.8608 65.5C68.8608 66.8807 67.7273 68 66.3291 68C64.9309 68 63.7975 66.8807 63.7975 65.5C63.7975 64.1193 64.9309 63 66.3291 63C67.7273 63 68.8608 64.1193 68.8608 65.5Z" fill="#939393"/>
<path d="M68.8608 74.5C68.8608 75.8807 67.7273 77 66.3291 77C64.9309 77 63.7975 75.8807 63.7975 74.5C63.7975 73.1193 64.9309 72 66.3291 72C67.7273 72 68.8608 73.1193 68.8608 74.5Z" fill="#939393"/>
<path d="M68.8608 83.5C68.8608 84.8807 67.7273 86 66.3291 86C64.9309 86 63.7975 84.8807 63.7975 83.5C63.7975 82.1193 64.9309 81 66.3291 81C67.7273 81 68.8608 82.1193 68.8608 83.5Z" fill="#939393"/>
<path d="M68.8608 92.5C68.8608 93.8807 67.7273 95 66.3291 95C64.9309 95 63.7975 93.8807 63.7975 92.5C63.7975 91.1193 64.9309 90 66.3291 90C67.7273 90 68.8608 91.1193 68.8608 92.5Z" fill="#939393"/>
<path d="M68.8608 101.5C68.8608 102.881 67.7273 104 66.3291 104C64.9309 104 63.7975 102.881 63.7975 101.5C63.7975 100.119 64.9309 99 66.3291 99C67.7273 99 68.8608 100.119 68.8608 101.5Z" fill="#939393"/>
<path d="M77.9747 65.5C77.9747 66.8807 76.8412 68 75.443 68C74.0448 68 72.9114 66.8807 72.9114 65.5C72.9114 64.1193 74.0448 63 75.443 63C76.8412 63 77.9747 64.1193 77.9747 65.5Z" fill="#939393"/>
<path d="M77.9747 74.5C77.9747 75.8807 76.8412 77 75.443 77C74.0448 77 72.9114 75.8807 72.9114 74.5C72.9114 73.1193 74.0448 72 75.443 72C76.8412 72 77.9747 73.1193 77.9747 74.5Z" fill="#939393"/>
<path d="M77.9747 83.5C77.9747 84.8807 76.8412 86 75.443 86C74.0448 86 72.9114 84.8807 72.9114 83.5C72.9114 82.1193 74.0448 81 75.443 81C76.8412 81 77.9747 82.1193 77.9747 83.5Z" fill="#939393"/>
<path d="M77.9747 92.5C77.9747 93.8807 76.8412 95 75.443 95C74.0448 95 72.9114 93.8807 72.9114 92.5C72.9114 91.1193 74.0448 90 75.443 90C76.8412 90 77.9747 91.1193 77.9747 92.5Z" fill="#939393"/>
<path d="M77.9747 101.5C77.9747 102.881 76.8412 104 75.443 104C74.0448 104 72.9114 102.881 72.9114 101.5C72.9114 100.119 74.0448 99 75.443 99C76.8412 99 77.9747 100.119 77.9747 101.5Z" fill="#939393"/>
<path d="M87.0886 74.5C87.0886 75.8807 85.9552 77 84.557 77C83.1588 77 82.0253 75.8807 82.0253 74.5C82.0253 73.1193 83.1588 72 84.557 72C85.9552 72 87.0886 73.1193 87.0886 74.5Z" fill="#939393"/>
<path d="M87.0886 83.5C87.0886 84.8807 85.9552 86 84.557 86C83.1588 86 82.0253 84.8807 82.0253 83.5C82.0253 82.1193 83.1588 81 84.557 81C85.9552 81 87.0886 82.1193 87.0886 83.5Z" fill="#939393"/>
<path d="M87.0886 92.5C87.0886 93.8807 85.9552 95 84.557 95C83.1588 95 82.0253 93.8807 82.0253 92.5C82.0253 91.1193 83.1588 90 84.557 90C85.9552 90 87.0886 91.1193 87.0886 92.5Z" fill="#939393"/>
<path d="M87.0886 101.5C87.0886 102.881 85.9552 104 84.557 104C83.1588 104 82.0253 102.881 82.0253 101.5C82.0253 100.119 83.1588 99 84.557 99C85.9552 99 87.0886 100.119 87.0886 101.5Z" fill="#939393"/>
<path d="M96.2025 56.5C96.2025 57.8807 95.0691 59 93.6709 59C92.2727 59 91.1392 57.8807 91.1392 56.5C91.1392 55.1193 92.2727 54 93.6709 54C95.0691 54 96.2025 55.1193 96.2025 56.5Z" fill="#939393"/>
<path d="M96.2025 65.5C96.2025 66.8807 95.0691 68 93.6709 68C92.2727 68 91.1392 66.8807 91.1392 65.5C91.1392 64.1193 92.2727 63 93.6709 63C95.0691 63 96.2025 64.1193 96.2025 65.5Z" fill="#939393"/>
<path d="M96.2025 74.5C96.2025 75.8807 95.0691 77 93.6709 77C92.2727 77 91.1392 75.8807 91.1392 74.5C91.1392 73.1193 92.2727 72 93.6709 72C95.0691 72 96.2025 73.1193 96.2025 74.5Z" fill="#939393"/>
<path d="M96.2025 83.5C96.2025 84.8807 95.0691 86 93.6709 86C92.2727 86 91.1392 84.8807 91.1392 83.5C91.1392 82.1193 92.2727 81 93.6709 81C95.0691 81 96.2025 82.1193 96.2025 83.5Z" fill="#939393"/>
<path d="M96.2025 92.5C96.2025 93.8807 95.0691 95 93.6709 95C92.2727 95 91.1392 93.8807 91.1392 92.5C91.1392 91.1193 92.2727 90 93.6709 90C95.0691 90 96.2025 91.1193 96.2025 92.5Z" fill="#939393"/>
<path d="M96.2025 101.5C96.2025 102.881 95.0691 104 93.6709 104C92.2727 104 91.1392 102.881 91.1392 101.5C91.1392 100.119 92.2727 99 93.6709 99C95.0691 99 96.2025 100.119 96.2025 101.5Z" fill="#939393"/>
<path d="M105.316 83.5C105.316 84.8807 104.183 86 102.785 86C101.387 86 100.253 84.8807 100.253 83.5C100.253 82.1193 101.387 81 102.785 81C104.183 81 105.316 82.1193 105.316 83.5Z" fill="#939393"/>
<path d="M105.316 92.5C105.316 93.8807 104.183 95 102.785 95C101.387 95 100.253 93.8807 100.253 92.5C100.253 91.1193 101.387 90 102.785 90C104.183 90 105.316 91.1193 105.316 92.5Z" fill="#939393"/>
<path d="M105.316 101.5C105.316 102.881 104.183 104 102.785 104C101.387 104 100.253 102.881 100.253 101.5C100.253 100.119 101.387 99 102.785 99C104.183 99 105.316 100.119 105.316 101.5Z" fill="#939393"/>
<path d="M114.43 74.5C114.43 75.8807 113.297 77 111.899 77C110.501 77 109.367 75.8807 109.367 74.5C109.367 73.1193 110.501 72 111.899 72C113.297 72 114.43 73.1193 114.43 74.5Z" fill="#939393"/>
<path d="M114.43 83.5C114.43 84.8807 113.297 86 111.899 86C110.501 86 109.367 84.8807 109.367 83.5C109.367 82.1193 110.501 81 111.899 81C113.297 81 114.43 82.1193 114.43 83.5Z" fill="#939393"/>
<path d="M114.43 92.5C114.43 93.8807 113.297 95 111.899 95C110.501 95 109.367 93.8807 109.367 92.5C109.367 91.1193 110.501 90 111.899 90C113.297 90 114.43 91.1193 114.43 92.5Z" fill="#939393"/>
<path d="M114.43 101.5C114.43 102.881 113.297 104 111.899 104C110.501 104 109.367 102.881 109.367 101.5C109.367 100.119 110.501 99 111.899 99C113.297 99 114.43 100.119 114.43 101.5Z" fill="#939393"/>
<path d="M123.544 56.5C123.544 57.8807 122.411 59 121.013 59C119.614 59 118.481 57.8807 118.481 56.5C118.481 55.1193 119.614 54 121.013 54C122.411 54 123.544 55.1193 123.544 56.5Z" fill="#939393"/>
<path d="M123.544 65.5C123.544 66.8807 122.411 68 121.013 68C119.614 68 118.481 66.8807 118.481 65.5C118.481 64.1193 119.614 63 121.013 63C122.411 63 123.544 64.1193 123.544 65.5Z" fill="#939393"/>
<path d="M123.544 74.5C123.544 75.8807 122.411 77 121.013 77C119.614 77 118.481 75.8807 118.481 74.5C118.481 73.1193 119.614 72 121.013 72C122.411 72 123.544 73.1193 123.544 74.5Z" fill="#939393"/>
<path d="M123.544 83.5C123.544 84.8807 122.411 86 121.013 86C119.614 86 118.481 84.8807 118.481 83.5C118.481 82.1193 119.614 81 121.013 81C122.411 81 123.544 82.1193 123.544 83.5Z" fill="#939393"/>
<path d="M123.544 92.5C123.544 93.8807 122.411 95 121.013 95C119.614 95 118.481 93.8807 118.481 92.5C118.481 91.1193 119.614 90 121.013 90C122.411 90 123.544 91.1193 123.544 92.5Z" fill="#939393"/>
<path d="M123.544 101.5C123.544 102.881 122.411 104 121.013 104C119.614 104 118.481 102.881 118.481 101.5C118.481 100.119 119.614 99 121.013 99C122.411 99 123.544 100.119 123.544 101.5Z" fill="#939393"/>
<path d="M132.658 65.5C132.658 66.8807 131.525 68 130.127 68C128.728 68 127.595 66.8807 127.595 65.5C127.595 64.1193 128.728 63 130.127 63C131.525 63 132.658 64.1193 132.658 65.5Z" fill="#939393"/>
<path d="M132.658 74.5C132.658 75.8807 131.525 77 130.127 77C128.728 77 127.595 75.8807 127.595 74.5C127.595 73.1193 128.728 72 130.127 72C131.525 72 132.658 73.1193 132.658 74.5Z" fill="#939393"/>
<path d="M132.658 83.5C132.658 84.8807 131.525 86 130.127 86C128.728 86 127.595 84.8807 127.595 83.5C127.595 82.1193 128.728 81 130.127 81C131.525 81 132.658 82.1193 132.658 83.5Z" fill="#939393"/>
<path d="M132.658 92.5C132.658 93.8807 131.525 95 130.127 95C128.728 95 127.595 93.8807 127.595 92.5C127.595 91.1193 128.728 90 130.127 90C131.525 90 132.658 91.1193 132.658 92.5Z" fill="#939393"/>
<path d="M132.658 101.5C132.658 102.881 131.525 104 130.127 104C128.728 104 127.595 102.881 127.595 101.5C127.595 100.119 128.728 99 130.127 99C131.525 99 132.658 100.119 132.658 101.5Z" fill="#939393"/>
<path d="M141.772 11.5C141.772 12.8807 140.639 14 139.241 14C137.842 14 136.709 12.8807 136.709 11.5C136.709 10.1193 137.842 9 139.241 9C140.639 9 141.772 10.1193 141.772 11.5Z" fill="#F84204"/>
<path d="M141.772 20.5C141.772 21.8807 140.639 23 139.241 23C137.842 23 136.709 21.8807 136.709 20.5C136.709 19.1193 137.842 18 139.241 18C140.639 18 141.772 19.1193 141.772 20.5Z" fill="#F84204"/>
<path d="M141.772 29.5C141.772 30.8807 140.639 32 139.241 32C137.842 32 136.709 30.8807 136.709 29.5C136.709 28.1193 137.842 27 139.241 27C140.639 27 141.772 28.1193 141.772 29.5Z" fill="#F84204"/>
<path d="M141.772 38.5C141.772 39.8807 140.639 41 139.241 41C137.842 41 136.709 39.8807 136.709 38.5C136.709 37.1193 137.842 36 139.241 36C140.639 36 141.772 37.1193 141.772 38.5Z" fill="#F84204"/>
<path d="M141.772 47.5C141.772 48.8807 140.639 50 139.241 50C137.842 50 136.709 48.8807 136.709 47.5C136.709 46.1193 137.842 45 139.241 45C140.639 45 141.772 46.1193 141.772 47.5Z" fill="#F84204"/>
<path d="M141.772 56.5C141.772 57.8807 140.639 59 139.241 59C137.842 59 136.709 57.8807 136.709 56.5C136.709 55.1193 137.842 54 139.241 54C140.639 54 141.772 55.1193 141.772 56.5Z" fill="#F84204"/>
<path d="M141.772 65.5C141.772 66.8807 140.639 68 139.241 68C137.842 68 136.709 66.8807 136.709 65.5C136.709 64.1193 137.842 63 139.241 63C140.639 63 141.772 64.1193 141.772 65.5Z" fill="#F84204"/>
<path d="M141.772 74.5C141.772 75.8807 140.639 77 139.241 77C137.842 77 136.709 75.8807 136.709 74.5C136.709 73.1193 137.842 72 139.241 72C140.639 72 141.772 73.1193 141.772 74.5Z" fill="#F84204"/>
<path d="M141.772 83.5C141.772 84.8807 140.639 86 139.241 86C137.842 86 136.709 84.8807 136.709 83.5C136.709 82.1193 137.842 81 139.241 81C140.639 81 141.772 82.1193 141.772 83.5Z" fill="#F84204"/>
<path d="M141.772 92.5C141.772 93.8807 140.639 95 139.241 95C137.842 95 136.709 93.8807 136.709 92.5C136.709 91.1193 137.842 90 139.241 90C140.639 90 141.772 91.1193 141.772 92.5Z" fill="#F84204"/>
<path d="M141.772 101.5C141.772 102.881 140.639 104 139.241 104C137.842 104 136.709 102.881 136.709 101.5C136.709 100.119 137.842 99 139.241 99C140.639 99 141.772 100.119 141.772 101.5Z" fill="#F84204"/>
<path d="M150.886 2.5C150.886 3.88071 149.753 5 148.354 5C146.956 5 145.823 3.88071 145.823 2.5C145.823 1.11929 146.956 0 148.354 0C149.753 0 150.886 1.11929 150.886 2.5Z" fill="#F84204"/>
<path d="M150.886 11.5C150.886 12.8807 149.753 14 148.354 14C146.956 14 145.823 12.8807 145.823 11.5C145.823 10.1193 146.956 9 148.354 9C149.753 9 150.886 10.1193 150.886 11.5Z" fill="#F84204"/>
<path d="M150.886 20.5C150.886 21.8807 149.753 23 148.354 23C146.956 23 145.823 21.8807 145.823 20.5C145.823 19.1193 146.956 18 148.354 18C149.753 18 150.886 19.1193 150.886 20.5Z" fill="#F84204"/>
<path d="M150.886 29.5C150.886 30.8807 149.753 32 148.354 32C146.956 32 145.823 30.8807 145.823 29.5C145.823 28.1193 146.956 27 148.354 27C149.753 27 150.886 28.1193 150.886 29.5Z" fill="#F84204"/>
<path d="M150.886 38.5C150.886 39.8807 149.753 41 148.354 41C146.956 41 145.823 39.8807 145.823 38.5C145.823 37.1193 146.956 36 148.354 36C149.753 36 150.886 37.1193 150.886 38.5Z" fill="#F84204"/>
<path d="M150.886 47.5C150.886 48.8807 149.753 50 148.354 50C146.956 50 145.823 48.8807 145.823 47.5C145.823 46.1193 146.956 45 148.354 45C149.753 45 150.886 46.1193 150.886 47.5Z" fill="#F84204"/>
<path d="M150.886 56.5C150.886 57.8807 149.753 59 148.354 59C146.956 59 145.823 57.8807 145.823 56.5C145.823 55.1193 146.956 54 148.354 54C149.753 54 150.886 55.1193 150.886 56.5Z" fill="#F84204"/>
<path d="M150.886 65.5C150.886 66.8807 149.753 68 148.354 68C146.956 68 145.823 66.8807 145.823 65.5C145.823 64.1193 146.956 63 148.354 63C149.753 63 150.886 64.1193 150.886 65.5Z" fill="#F84204"/>
<path d="M150.886 74.5C150.886 75.8807 149.753 77 148.354 77C146.956 77 145.823 75.8807 145.823 74.5C145.823 73.1193 146.956 72 148.354 72C149.753 72 150.886 73.1193 150.886 74.5Z" fill="#F84204"/>
<path d="M150.886 83.5C150.886 84.8807 149.753 86 148.354 86C146.956 86 145.823 84.8807 145.823 83.5C145.823 82.1193 146.956 81 148.354 81C149.753 81 150.886 82.1193 150.886 83.5Z" fill="#F84204"/>
<path d="M150.886 92.5C150.886 93.8807 149.753 95 148.354 95C146.956 95 145.823 93.8807 145.823 92.5C145.823 91.1193 146.956 90 148.354 90C149.753 90 150.886 91.1193 150.886 92.5Z" fill="#F84204"/>
<path d="M150.886 101.5C150.886 102.881 149.753 104 148.354 104C146.956 104 145.823 102.881 145.823 101.5C145.823 100.119 146.956 99 148.354 99C149.753 99 150.886 100.119 150.886 101.5Z" fill="#F84204"/>
<path d="M160 11.5C160 12.8807 158.867 14 157.468 14C156.07 14 154.937 12.8807 154.937 11.5C154.937 10.1193 156.07 9 157.468 9C158.867 9 160 10.1193 160 11.5Z" fill="#F84204"/>
<path d="M160 20.5C160 21.8807 158.867 23 157.468 23C156.07 23 154.937 21.8807 154.937 20.5C154.937 19.1193 156.07 18 157.468 18C158.867 18 160 19.1193 160 20.5Z" fill="#F84204"/>
<path d="M160 29.5C160 30.8807 158.867 32 157.468 32C156.07 32 154.937 30.8807 154.937 29.5C154.937 28.1193 156.07 27 157.468 27C158.867 27 160 28.1193 160 29.5Z" fill="#F84204"/>
<path d="M160 38.5C160 39.8807 158.867 41 157.468 41C156.07 41 154.937 39.8807 154.937 38.5C154.937 37.1193 156.07 36 157.468 36C158.867 36 160 37.1193 160 38.5Z" fill="#F84204"/>
<path d="M160 47.5C160 48.8807 158.867 50 157.468 50C156.07 50 154.937 48.8807 154.937 47.5C154.937 46.1193 156.07 45 157.468 45C158.867 45 160 46.1193 160 47.5Z" fill="#F84204"/>
<path d="M160 56.5C160 57.8807 158.867 59 157.468 59C156.07 59 154.937 57.8807 154.937 56.5C154.937 55.1193 156.07 54 157.468 54C158.867 54 160 55.1193 160 56.5Z" fill="#F84204"/>
<path d="M160 65.5C160 66.8807 158.867 68 157.468 68C156.07 68 154.937 66.8807 154.937 65.5C154.937 64.1193 156.07 63 157.468 63C158.867 63 160 64.1193 160 65.5Z" fill="#F84204"/>
<path d="M160 74.5C160 75.8807 158.867 77 157.468 77C156.07 77 154.937 75.8807 154.937 74.5C154.937 73.1193 156.07 72 157.468 72C158.867 72 160 73.1193 160 74.5Z" fill="#F84204"/>
<path d="M160 83.5C160 84.8807 158.867 86 157.468 86C156.07 86 154.937 84.8807 154.937 83.5C154.937 82.1193 156.07 81 157.468 81C158.867 81 160 82.1193 160 83.5Z" fill="#F84204"/>
<path d="M160 92.5C160 93.8807 158.867 95 157.468 95C156.07 95 154.937 93.8807 154.937 92.5C154.937 91.1193 156.07 90 157.468 90C158.867 90 160 91.1193 160 92.5Z" fill="#F84204"/>
<path d="M160 101.5C160 102.881 158.867 104 157.468 104C156.07 104 154.937 102.881 154.937 101.5C154.937 100.119 156.07 99 157.468 99C158.867 99 160 100.119 160 101.5Z" fill="#F84204"/>
</svg>
