<svg width="350" height="84" viewBox="0 0 350 84" fill="none" xmlns="http://www.w3.org/2000/svg">
<rect y="4" width="80" height="80" rx="40" fill="#010101"/>
<path d="M39.5898 59.3906C37.6237 59.3906 35.8789 59.0586 34.3555 58.3945C32.832 57.7174 31.6276 56.7799 30.7422 55.582C29.8568 54.3841 29.388 52.9974 29.3359 51.4219H33.75C33.8151 52.2812 34.1081 53.0234 34.6289 53.6484C35.1497 54.2734 35.8333 54.7617 36.6797 55.1133C37.5391 55.4518 38.4961 55.6211 39.5508 55.6211C40.6966 55.6211 41.7122 55.4193 42.5977 55.0156C43.4831 54.612 44.1732 54.0586 44.668 53.3555C45.1758 52.6393 45.4297 51.8125 45.4297 50.875C45.4297 49.8984 45.1823 49.0391 44.6875 48.2969C44.1927 47.5417 43.4701 46.9557 42.5195 46.5391C41.569 46.1224 40.4232 45.9141 39.082 45.9141H36.6016V42.3203H39.082C40.1497 42.3203 41.0938 42.125 41.9141 41.7344C42.7344 41.3438 43.3724 40.8034 43.8281 40.1133C44.2969 39.4232 44.5312 38.6094 44.5312 37.6719C44.5312 36.7734 44.3294 35.9922 43.9258 35.3281C43.5221 34.651 42.9557 34.1302 42.2266 33.7656C41.4974 33.388 40.638 33.1992 39.6484 33.1992C38.6979 33.1992 37.8125 33.3685 36.9922 33.707C36.1719 34.0456 35.5013 34.5339 34.9805 35.1719C34.4727 35.7969 34.2057 36.5586 34.1797 37.457H29.9414C29.9805 35.8815 30.4362 34.5013 31.3086 33.3164C32.194 32.1185 33.3659 31.1875 34.8242 30.5234C36.2956 29.8464 37.9232 29.5078 39.707 29.5078C41.569 29.5078 43.1771 29.8724 44.5312 30.6016C45.8984 31.3177 46.9531 32.2812 47.6953 33.4922C48.4375 34.6901 48.8086 35.9987 48.8086 37.418C48.8086 39.0716 48.3529 40.4648 47.4414 41.5977C46.5299 42.7174 45.3125 43.4792 43.7891 43.8828V44.0977C45.7161 44.3971 47.207 45.1654 48.2617 46.4023C49.3294 47.6393 49.8633 49.1758 49.8633 51.0117C49.8633 52.6133 49.4141 54.0456 48.5156 55.3086C47.6302 56.5716 46.4128 57.5677 44.8633 58.2969C43.3268 59.026 41.569 59.3906 39.5898 59.3906Z" fill="white"/>
<rect x="56" width="28" height="28" rx="14" fill="#F84204"/>
<path d="M70.6113 18.0391V17.3535C70.6113 16.873 70.708 16.4336 70.9014 16.0352C71.1006 15.6367 71.3906 15.3174 71.7715 15.0771C72.1523 14.8369 72.6152 14.7168 73.1602 14.7168C73.7168 14.7168 74.1826 14.8369 74.5576 15.0771C74.9326 15.3174 75.2139 15.6367 75.4014 16.0352C75.5947 16.4336 75.6914 16.873 75.6914 17.3535V18.0391C75.6914 18.5195 75.5947 18.959 75.4014 19.3574C75.208 19.7559 74.9238 20.0752 74.5488 20.3154C74.1738 20.5557 73.7109 20.6758 73.1602 20.6758C72.6094 20.6758 72.1436 20.5557 71.7627 20.3154C71.3818 20.0752 71.0947 19.7559 70.9014 19.3574C70.708 18.959 70.6113 18.5195 70.6113 18.0391ZM71.9121 17.3535V18.0391C71.9121 18.4375 72.0059 18.7949 72.1934 19.1113C72.3809 19.4219 72.7031 19.5801 73.1602 19.5859C73.6113 19.5801 73.9277 19.4219 74.1094 19.1113C74.2969 18.7949 74.3906 18.4375 74.3906 18.0391V17.3535C74.3906 16.9551 74.2998 16.6006 74.1182 16.29C73.9424 15.9795 73.623 15.8242 73.1602 15.8242C72.7148 15.8242 72.3955 15.9795 72.2021 16.29C72.0088 16.6006 71.9121 16.9551 71.9121 17.3535ZM64.0898 10.5508V9.86523C64.0898 9.38477 64.1895 8.94531 64.3887 8.54688C64.5879 8.14844 64.875 7.8291 65.25 7.58887C65.6309 7.34863 66.0938 7.22852 66.6387 7.22852C67.1953 7.22852 67.6611 7.34863 68.0361 7.58887C68.417 7.8291 68.7012 8.14844 68.8887 8.54688C69.082 8.94531 69.1758 9.38477 69.1699 9.86523V10.5508C69.1758 11.0254 69.0791 11.4648 68.8799 11.8691C68.6865 12.2676 68.4023 12.5869 68.0273 12.8271C67.6523 13.0674 67.1895 13.1875 66.6387 13.1875C66.0879 13.1875 65.6221 13.0674 65.2412 12.8271C64.8604 12.5869 64.5732 12.2676 64.3799 11.8691C64.1865 11.4648 64.0898 11.0254 64.0898 10.5508ZM65.3906 9.86523V10.5508C65.3906 10.9492 65.4844 11.3066 65.6719 11.623C65.8594 11.9336 66.1816 12.0859 66.6387 12.0801C67.0898 12.0859 67.4062 11.9336 67.5879 11.623C67.7754 11.3066 67.8691 10.9492 67.8691 10.5508V9.86523C67.8691 9.4668 67.7783 9.1123 67.5967 8.80176C67.4209 8.48535 67.1016 8.33008 66.6387 8.33594C66.1934 8.33008 65.874 8.48535 65.6807 8.80176C65.4873 9.1123 65.3906 9.4668 65.3906 9.86523ZM64.582 20.5L73.582 7.4043H75.041L66.041 20.5H64.582Z" fill="white"/>
<path d="M108.141 55V38.6364H111.22V41.2358H111.391C111.689 40.3551 112.214 39.6626 112.967 39.1584C113.727 38.647 114.587 38.3913 115.545 38.3913C115.744 38.3913 115.979 38.3984 116.249 38.4126C116.526 38.4268 116.742 38.4446 116.898 38.4659V41.5128C116.771 41.4773 116.543 41.4382 116.217 41.3956C115.89 41.3459 115.563 41.321 115.237 41.321C114.484 41.321 113.813 41.4808 113.223 41.8004C112.641 42.1129 112.179 42.5497 111.838 43.1108C111.497 43.6648 111.327 44.2969 111.327 45.0071V55H108.141ZM126.122 55.3303C124.509 55.3303 123.121 54.9858 121.956 54.2969C120.798 53.6009 119.904 52.6243 119.271 51.3672C118.646 50.103 118.334 48.6222 118.334 46.9247C118.334 45.2486 118.646 43.7713 119.271 42.4929C119.904 41.2145 120.784 40.2166 121.914 39.4993C123.05 38.782 124.378 38.4233 125.898 38.4233C126.821 38.4233 127.716 38.576 128.583 38.8814C129.449 39.1868 130.227 39.6662 130.916 40.3196C131.605 40.973 132.148 41.8217 132.546 42.8658C132.943 43.9027 133.142 45.1634 133.142 46.6477V47.777H120.134V45.3906H130.021C130.021 44.5526 129.85 43.8104 129.509 43.1641C129.169 42.5107 128.689 41.9957 128.071 41.6193C127.46 41.2429 126.743 41.0547 125.919 41.0547C125.024 41.0547 124.243 41.2749 123.575 41.7152C122.915 42.1484 122.404 42.7166 122.041 43.4197C121.686 44.1158 121.509 44.8722 121.509 45.6889V47.5533C121.509 48.647 121.7 49.5774 122.084 50.3445C122.475 51.1115 123.018 51.6974 123.714 52.1023C124.41 52.5 125.223 52.6989 126.154 52.6989C126.757 52.6989 127.308 52.6136 127.805 52.4432C128.302 52.2656 128.732 52.0028 129.094 51.6548C129.456 51.3068 129.733 50.8771 129.925 50.3658L132.94 50.9091C132.698 51.7969 132.265 52.5746 131.64 53.2422C131.022 53.9027 130.244 54.4176 129.307 54.7869C128.377 55.1491 127.315 55.3303 126.122 55.3303ZM144.464 38.6364V41.1932H135.217V38.6364H144.464ZM137.752 55V36.7401C137.752 35.7173 137.976 34.8686 138.424 34.1939C138.871 33.5121 139.464 33.0043 140.203 32.6705C140.941 32.3295 141.744 32.1591 142.61 32.1591C143.25 32.1591 143.797 32.2124 144.251 32.3189C144.706 32.4183 145.043 32.5107 145.263 32.5959L144.517 35.174C144.368 35.1314 144.176 35.0817 143.942 35.0249C143.708 34.9609 143.424 34.929 143.09 34.929C142.316 34.929 141.762 35.1207 141.428 35.5043C141.101 35.8878 140.938 36.4418 140.938 37.1662V55H137.752ZM154.159 55.3303C152.547 55.3303 151.158 54.9858 149.993 54.2969C148.836 53.6009 147.941 52.6243 147.309 51.3672C146.684 50.103 146.371 48.6222 146.371 46.9247C146.371 45.2486 146.684 43.7713 147.309 42.4929C147.941 41.2145 148.821 40.2166 149.951 39.4993C151.087 38.782 152.415 38.4233 153.935 38.4233C154.858 38.4233 155.753 38.576 156.62 38.8814C157.486 39.1868 158.264 39.6662 158.953 40.3196C159.642 40.973 160.185 41.8217 160.583 42.8658C160.98 43.9027 161.179 45.1634 161.179 46.6477V47.777H148.172V45.3906H158.058C158.058 44.5526 157.887 43.8104 157.547 43.1641C157.206 42.5107 156.726 41.9957 156.108 41.6193C155.498 41.2429 154.78 41.0547 153.956 41.0547C153.061 41.0547 152.28 41.2749 151.613 41.7152C150.952 42.1484 150.441 42.7166 150.078 43.4197C149.723 44.1158 149.546 44.8722 149.546 45.6889V47.5533C149.546 48.647 149.738 49.5774 150.121 50.3445C150.512 51.1115 151.055 51.6974 151.751 52.1023C152.447 52.5 153.26 52.6989 154.191 52.6989C154.794 52.6989 155.345 52.6136 155.842 52.4432C156.339 52.2656 156.769 52.0028 157.131 51.6548C157.493 51.3068 157.77 50.8771 157.962 50.3658L160.977 50.9091C160.735 51.7969 160.302 52.5746 159.677 53.2422C159.059 53.9027 158.282 54.4176 157.344 54.7869C156.414 55.1491 155.352 55.3303 154.159 55.3303ZM164.714 55V38.6364H167.792V41.2358H167.963C168.261 40.3551 168.787 39.6626 169.54 39.1584C170.3 38.647 171.159 38.3913 172.118 38.3913C172.317 38.3913 172.551 38.3984 172.821 38.4126C173.098 38.4268 173.314 38.4446 173.471 38.4659V41.5128C173.343 41.4773 173.116 41.4382 172.789 41.3956C172.462 41.3459 172.135 41.321 171.809 41.321C171.056 41.321 170.385 41.4808 169.795 41.8004C169.213 42.1129 168.751 42.5497 168.41 43.1108C168.069 43.6648 167.899 44.2969 167.899 45.0071V55H164.714ZM180.843 55.3622C179.806 55.3622 178.868 55.1705 178.03 54.7869C177.192 54.3963 176.528 53.8317 176.038 53.093C175.555 52.3544 175.314 51.4489 175.314 50.3764C175.314 49.4531 175.491 48.6932 175.846 48.0966C176.202 47.5 176.681 47.0277 177.285 46.6797C177.888 46.3317 178.563 46.0689 179.309 45.8913C180.055 45.7138 180.814 45.5788 181.589 45.4865C182.569 45.3729 183.364 45.2805 183.975 45.2095C184.586 45.1314 185.03 45.0071 185.307 44.8366C185.584 44.6662 185.722 44.3892 185.722 44.0057V43.9311C185.722 43.0007 185.459 42.2798 184.934 41.7685C184.415 41.2571 183.641 41.0014 182.611 41.0014C181.539 41.0014 180.694 41.2393 180.076 41.7152C179.465 42.1839 179.042 42.706 178.808 43.2812L175.814 42.5994C176.17 41.6051 176.688 40.8026 177.37 40.1918C178.059 39.5739 178.851 39.1264 179.746 38.8494C180.64 38.5653 181.581 38.4233 182.569 38.4233C183.222 38.4233 183.915 38.5014 184.646 38.6577C185.385 38.8068 186.074 39.0838 186.713 39.4886C187.359 39.8935 187.888 40.4723 188.3 41.2251C188.712 41.9709 188.918 42.9403 188.918 44.1335V55H185.807V52.7628H185.68C185.474 53.1747 185.165 53.5795 184.753 53.9773C184.341 54.375 183.812 54.7053 183.165 54.968C182.519 55.2308 181.745 55.3622 180.843 55.3622ZM181.535 52.8054C182.416 52.8054 183.169 52.6314 183.794 52.2834C184.426 51.9354 184.905 51.4808 185.232 50.9197C185.566 50.3516 185.733 49.7443 185.733 49.098V46.9886C185.619 47.1023 185.399 47.2088 185.072 47.3082C184.753 47.4006 184.387 47.4822 183.975 47.5533C183.563 47.6172 183.162 47.6776 182.771 47.7344C182.381 47.7841 182.054 47.8267 181.791 47.8622C181.173 47.9403 180.608 48.0717 180.097 48.2564C179.593 48.4411 179.188 48.7074 178.883 49.0554C178.584 49.3963 178.435 49.8509 178.435 50.419C178.435 51.2074 178.726 51.804 179.309 52.2088C179.891 52.6065 180.633 52.8054 181.535 52.8054ZM196.346 33.1818V55H193.161V33.1818H196.346ZM212.894 42.6314L210.007 43.1428C209.886 42.7734 209.694 42.4219 209.431 42.0881C209.176 41.7543 208.828 41.4808 208.387 41.2678C207.947 41.0547 207.396 40.9482 206.736 40.9482C205.834 40.9482 205.081 41.1506 204.477 41.5554C203.874 41.9531 203.572 42.468 203.572 43.1001C203.572 43.647 203.774 44.0874 204.179 44.4212C204.584 44.755 205.237 45.0284 206.139 45.2415L208.739 45.8381C210.244 46.1861 211.367 46.7223 212.105 47.4467C212.844 48.1712 213.213 49.1122 213.213 50.2699C213.213 51.25 212.929 52.1236 212.361 52.8906C211.8 53.6506 211.015 54.2472 210.007 54.6804C209.005 55.1136 207.844 55.3303 206.523 55.3303C204.691 55.3303 203.195 54.9396 202.038 54.1584C200.88 53.37 200.17 52.2514 199.907 50.8026L202.986 50.3338C203.178 51.1364 203.572 51.7436 204.169 52.1555C204.765 52.5604 205.543 52.7628 206.502 52.7628C207.546 52.7628 208.38 52.5462 209.005 52.1129C209.63 51.6726 209.943 51.1364 209.943 50.5043C209.943 49.9929 209.751 49.5632 209.367 49.2152C208.991 48.8672 208.412 48.6044 207.631 48.4268L204.861 47.8196C203.334 47.4716 202.205 46.9176 201.473 46.1577C200.749 45.3977 200.387 44.4354 200.387 43.2706C200.387 42.3047 200.656 41.4595 201.196 40.7351C201.736 40.0107 202.482 39.446 203.433 39.0412C204.385 38.6293 205.475 38.4233 206.704 38.4233C208.472 38.4233 209.865 38.8068 210.88 39.5739C211.896 40.3338 212.567 41.353 212.894 42.6314Z" fill="#010101"/>
</svg>
