<svg width="160" height="142" viewBox="0 0 160 142" fill="none" xmlns="http://www.w3.org/2000/svg">
<path d="M5.06329 93.6706C5.06329 95.0688 3.92983 96.2022 2.53165 96.2022C1.13346 96.2022 0 95.0688 0 93.6706C0 92.2724 1.13346 91.139 2.53165 91.139C3.92983 91.139 5.06329 92.2724 5.06329 93.6706Z" fill="white" fill-opacity="0.5"/>
<path d="M5.06329 102.785C5.06329 104.183 3.92983 105.316 2.53165 105.316C1.13346 105.316 0 104.183 0 102.785C0 101.386 1.13346 100.253 2.53165 100.253C3.92983 100.253 5.06329 101.386 5.06329 102.785Z" fill="white" fill-opacity="0.5"/>
<path d="M5.06329 111.898C5.06329 113.297 3.92983 114.43 2.53165 114.43C1.13346 114.43 0 113.297 0 111.898C0 110.5 1.13346 109.367 2.53165 109.367C3.92983 109.367 5.06329 110.5 5.06329 111.898Z" fill="white" fill-opacity="0.5"/>
<path d="M5.06329 121.012C5.06329 122.411 3.92983 123.544 2.53165 123.544C1.13346 123.544 0 122.411 0 121.012C0 119.614 1.13346 118.481 2.53165 118.481C3.92983 118.481 5.06329 119.614 5.06329 121.012Z" fill="white" fill-opacity="0.5"/>
<path d="M5.06329 130.126C5.06329 131.524 3.92983 132.658 2.53165 132.658C1.13346 132.658 0 131.524 0 130.126C0 128.728 1.13346 127.595 2.53165 127.595C3.92983 127.595 5.06329 128.728 5.06329 130.126Z" fill="white" fill-opacity="0.5"/>
<path d="M5.06329 139.24C5.06329 140.638 3.92983 141.772 2.53165 141.772C1.13346 141.772 0 140.638 0 139.24C0 137.842 1.13346 136.709 2.53165 136.709C3.92983 136.709 5.06329 137.842 5.06329 139.24Z" fill="white" fill-opacity="0.5"/>
<path d="M14.1772 121.012C14.1772 122.411 13.0438 123.544 11.6456 123.544C10.2474 123.544 9.11392 122.411 9.11392 121.012C9.11392 119.614 10.2474 118.481 11.6456 118.481C13.0438 118.481 14.1772 119.614 14.1772 121.012Z" fill="white" fill-opacity="0.5"/>
<path d="M14.1772 130.126C14.1772 131.524 13.0438 132.658 11.6456 132.658C10.2474 132.658 9.11392 131.524 9.11392 130.126C9.11392 128.728 10.2474 127.595 11.6456 127.595C13.0438 127.595 14.1772 128.728 14.1772 130.126Z" fill="white" fill-opacity="0.5"/>
<path d="M14.1772 139.24C14.1772 140.638 13.0438 141.772 11.6456 141.772C10.2474 141.772 9.11392 140.638 9.11392 139.24C9.11392 137.842 10.2474 136.709 11.6456 136.709C13.0438 136.709 14.1772 137.842 14.1772 139.24Z" fill="white" fill-opacity="0.5"/>
<path d="M23.2911 93.6706C23.2911 95.0688 22.1577 96.2022 20.7595 96.2022C19.3613 96.2022 18.2278 95.0688 18.2278 93.6706C18.2278 92.2724 19.3613 91.139 20.7595 91.139C22.1577 91.139 23.2911 92.2724 23.2911 93.6706Z" fill="white" fill-opacity="0.5"/>
<path d="M23.2911 102.785C23.2911 104.183 22.1577 105.316 20.7595 105.316C19.3613 105.316 18.2278 104.183 18.2278 102.785C18.2278 101.386 19.3613 100.253 20.7595 100.253C22.1577 100.253 23.2911 101.386 23.2911 102.785Z" fill="white" fill-opacity="0.5"/>
<path d="M23.2911 111.898C23.2911 113.297 22.1577 114.43 20.7595 114.43C19.3613 114.43 18.2278 113.297 18.2278 111.898C18.2278 110.5 19.3613 109.367 20.7595 109.367C22.1577 109.367 23.2911 110.5 23.2911 111.898Z" fill="white" fill-opacity="0.5"/>
<path d="M23.2911 121.012C23.2911 122.411 22.1577 123.544 20.7595 123.544C19.3613 123.544 18.2278 122.411 18.2278 121.012C18.2278 119.614 19.3613 118.481 20.7595 118.481C22.1577 118.481 23.2911 119.614 23.2911 121.012Z" fill="white" fill-opacity="0.5"/>
<path d="M23.2911 130.126C23.2911 131.524 22.1577 132.658 20.7595 132.658C19.3613 132.658 18.2278 131.524 18.2278 130.126C18.2278 128.728 19.3613 127.595 20.7595 127.595C22.1577 127.595 23.2911 128.728 23.2911 130.126Z" fill="white" fill-opacity="0.5"/>
<path d="M23.2911 139.24C23.2911 140.638 22.1577 141.772 20.7595 141.772C19.3613 141.772 18.2278 140.638 18.2278 139.24C18.2278 137.842 19.3613 136.709 20.7595 136.709C22.1577 136.709 23.2911 137.842 23.2911 139.24Z" fill="white" fill-opacity="0.5"/>
<path d="M32.4051 111.898C32.4051 113.297 31.2716 114.43 29.8734 114.43C28.4752 114.43 27.3418 113.297 27.3418 111.898C27.3418 110.5 28.4752 109.367 29.8734 109.367C31.2716 109.367 32.4051 110.5 32.4051 111.898Z" fill="white" fill-opacity="0.5"/>
<path d="M32.4051 121.012C32.4051 122.411 31.2716 123.544 29.8734 123.544C28.4752 123.544 27.3418 122.411 27.3418 121.012C27.3418 119.614 28.4752 118.481 29.8734 118.481C31.2716 118.481 32.4051 119.614 32.4051 121.012Z" fill="white" fill-opacity="0.5"/>
<path d="M32.4051 130.126C32.4051 131.524 31.2716 132.658 29.8734 132.658C28.4752 132.658 27.3418 131.524 27.3418 130.126C27.3418 128.728 28.4752 127.595 29.8734 127.595C31.2716 127.595 32.4051 128.728 32.4051 130.126Z" fill="white" fill-opacity="0.5"/>
<path d="M32.4051 139.24C32.4051 140.638 31.2716 141.772 29.8734 141.772C28.4752 141.772 27.3418 140.638 27.3418 139.24C27.3418 137.842 28.4752 136.709 29.8734 136.709C31.2716 136.709 32.4051 137.842 32.4051 139.24Z" fill="white" fill-opacity="0.5"/>
<path d="M41.519 93.6706C41.519 95.0688 40.3855 96.2022 38.9873 96.2022C37.5892 96.2022 36.4557 95.0688 36.4557 93.6706C36.4557 92.2724 37.5892 91.139 38.9873 91.139C40.3855 91.139 41.519 92.2724 41.519 93.6706Z" fill="white" fill-opacity="0.5"/>
<path d="M41.519 102.785C41.519 104.183 40.3855 105.316 38.9873 105.316C37.5892 105.316 36.4557 104.183 36.4557 102.785C36.4557 101.386 37.5892 100.253 38.9873 100.253C40.3855 100.253 41.519 101.386 41.519 102.785Z" fill="white" fill-opacity="0.5"/>
<path d="M41.519 111.898C41.519 113.297 40.3855 114.43 38.9873 114.43C37.5892 114.43 36.4557 113.297 36.4557 111.898C36.4557 110.5 37.5892 109.367 38.9873 109.367C40.3855 109.367 41.519 110.5 41.519 111.898Z" fill="white" fill-opacity="0.5"/>
<path d="M41.519 121.012C41.519 122.411 40.3855 123.544 38.9873 123.544C37.5892 123.544 36.4557 122.411 36.4557 121.012C36.4557 119.614 37.5892 118.481 38.9873 118.481C40.3855 118.481 41.519 119.614 41.519 121.012Z" fill="white" fill-opacity="0.5"/>
<path d="M41.519 130.126C41.519 131.524 40.3855 132.658 38.9873 132.658C37.5892 132.658 36.4557 131.524 36.4557 130.126C36.4557 128.728 37.5892 127.595 38.9873 127.595C40.3855 127.595 41.519 128.728 41.519 130.126Z" fill="white" fill-opacity="0.5"/>
<path d="M41.519 139.24C41.519 140.638 40.3855 141.772 38.9873 141.772C37.5892 141.772 36.4557 140.638 36.4557 139.24C36.4557 137.842 37.5892 136.709 38.9873 136.709C40.3855 136.709 41.519 137.842 41.519 139.24Z" fill="white" fill-opacity="0.5"/>
<path d="M50.6329 93.6706C50.6329 95.0688 49.4995 96.2022 48.1013 96.2022C46.7031 96.2022 45.5696 95.0688 45.5696 93.6706C45.5696 92.2724 46.7031 91.139 48.1013 91.139C49.4995 91.139 50.6329 92.2724 50.6329 93.6706Z" fill="white" fill-opacity="0.5"/>
<path d="M50.6329 102.785C50.6329 104.183 49.4995 105.316 48.1013 105.316C46.7031 105.316 45.5696 104.183 45.5696 102.785C45.5696 101.386 46.7031 100.253 48.1013 100.253C49.4995 100.253 50.6329 101.386 50.6329 102.785Z" fill="white" fill-opacity="0.5"/>
<path d="M50.6329 111.898C50.6329 113.297 49.4995 114.43 48.1013 114.43C46.7031 114.43 45.5696 113.297 45.5696 111.898C45.5696 110.5 46.7031 109.367 48.1013 109.367C49.4995 109.367 50.6329 110.5 50.6329 111.898Z" fill="white" fill-opacity="0.5"/>
<path d="M50.6329 121.012C50.6329 122.411 49.4995 123.544 48.1013 123.544C46.7031 123.544 45.5696 122.411 45.5696 121.012C45.5696 119.614 46.7031 118.481 48.1013 118.481C49.4995 118.481 50.6329 119.614 50.6329 121.012Z" fill="white" fill-opacity="0.5"/>
<path d="M50.6329 130.126C50.6329 131.524 49.4995 132.658 48.1013 132.658C46.7031 132.658 45.5696 131.524 45.5696 130.126C45.5696 128.728 46.7031 127.595 48.1013 127.595C49.4995 127.595 50.6329 128.728 50.6329 130.126Z" fill="white" fill-opacity="0.5"/>
<path d="M50.6329 139.24C50.6329 140.638 49.4995 141.772 48.1013 141.772C46.7031 141.772 45.5696 140.638 45.5696 139.24C45.5696 137.842 46.7031 136.709 48.1013 136.709C49.4995 136.709 50.6329 137.842 50.6329 139.24Z" fill="white" fill-opacity="0.5"/>
<path d="M59.7468 84.5567C59.7468 85.9549 58.6134 87.0883 57.2152 87.0883C55.817 87.0883 54.6835 85.9549 54.6835 84.5567C54.6835 83.1585 55.817 82.025 57.2152 82.025C58.6134 82.025 59.7468 83.1585 59.7468 84.5567Z" fill="white" fill-opacity="0.5"/>
<path d="M59.7468 93.6706C59.7468 95.0688 58.6134 96.2022 57.2152 96.2022C55.817 96.2022 54.6835 95.0688 54.6835 93.6706C54.6835 92.2724 55.817 91.139 57.2152 91.139C58.6134 91.139 59.7468 92.2724 59.7468 93.6706Z" fill="white" fill-opacity="0.5"/>
<path d="M59.7468 102.785C59.7468 104.183 58.6134 105.316 57.2152 105.316C55.817 105.316 54.6835 104.183 54.6835 102.785C54.6835 101.386 55.817 100.253 57.2152 100.253C58.6134 100.253 59.7468 101.386 59.7468 102.785Z" fill="white" fill-opacity="0.5"/>
<path d="M59.7468 111.898C59.7468 113.297 58.6134 114.43 57.2152 114.43C55.817 114.43 54.6835 113.297 54.6835 111.898C54.6835 110.5 55.817 109.367 57.2152 109.367C58.6134 109.367 59.7468 110.5 59.7468 111.898Z" fill="white" fill-opacity="0.5"/>
<path d="M59.7468 121.012C59.7468 122.411 58.6134 123.544 57.2152 123.544C55.817 123.544 54.6835 122.411 54.6835 121.012C54.6835 119.614 55.817 118.481 57.2152 118.481C58.6134 118.481 59.7468 119.614 59.7468 121.012Z" fill="white" fill-opacity="0.5"/>
<path d="M59.7468 130.126C59.7468 131.524 58.6134 132.658 57.2152 132.658C55.817 132.658 54.6835 131.524 54.6835 130.126C54.6835 128.728 55.817 127.595 57.2152 127.595C58.6134 127.595 59.7468 128.728 59.7468 130.126Z" fill="white" fill-opacity="0.5"/>
<path d="M59.7468 139.24C59.7468 140.638 58.6134 141.772 57.2152 141.772C55.817 141.772 54.6835 140.638 54.6835 139.24C54.6835 137.842 55.817 136.709 57.2152 136.709C58.6134 136.709 59.7468 137.842 59.7468 139.24Z" fill="white" fill-opacity="0.5"/>
<path d="M68.8608 121.012C68.8608 122.411 67.7273 123.544 66.3291 123.544C64.9309 123.544 63.7975 122.411 63.7975 121.012C63.7975 119.614 64.9309 118.481 66.3291 118.481C67.7273 118.481 68.8608 119.614 68.8608 121.012Z" fill="white" fill-opacity="0.5"/>
<path d="M68.8608 130.126C68.8608 131.524 67.7273 132.658 66.3291 132.658C64.9309 132.658 63.7975 131.524 63.7975 130.126C63.7975 128.728 64.9309 127.595 66.3291 127.595C67.7273 127.595 68.8608 128.728 68.8608 130.126Z" fill="white" fill-opacity="0.5"/>
<path d="M68.8608 139.24C68.8608 140.638 67.7273 141.772 66.3291 141.772C64.9309 141.772 63.7975 140.638 63.7975 139.24C63.7975 137.842 64.9309 136.709 66.3291 136.709C67.7273 136.709 68.8608 137.842 68.8608 139.24Z" fill="white" fill-opacity="0.5"/>
<path d="M77.9747 111.898C77.9747 113.297 76.8412 114.43 75.443 114.43C74.0448 114.43 72.9114 113.297 72.9114 111.898C72.9114 110.5 74.0448 109.367 75.443 109.367C76.8412 109.367 77.9747 110.5 77.9747 111.898Z" fill="white" fill-opacity="0.5"/>
<path d="M77.9747 121.012C77.9747 122.411 76.8412 123.544 75.443 123.544C74.0448 123.544 72.9114 122.411 72.9114 121.012C72.9114 119.614 74.0448 118.481 75.443 118.481C76.8412 118.481 77.9747 119.614 77.9747 121.012Z" fill="white" fill-opacity="0.5"/>
<path d="M77.9747 130.126C77.9747 131.524 76.8412 132.658 75.443 132.658C74.0448 132.658 72.9114 131.524 72.9114 130.126C72.9114 128.728 74.0448 127.595 75.443 127.595C76.8412 127.595 77.9747 128.728 77.9747 130.126Z" fill="white" fill-opacity="0.5"/>
<path d="M77.9747 139.24C77.9747 140.638 76.8412 141.772 75.443 141.772C74.0448 141.772 72.9114 140.638 72.9114 139.24C72.9114 137.842 74.0448 136.709 75.443 136.709C76.8412 136.709 77.9747 137.842 77.9747 139.24Z" fill="white" fill-opacity="0.5"/>
<path d="M87.0886 130.126C87.0886 131.524 85.9552 132.658 84.557 132.658C83.1588 132.658 82.0253 131.524 82.0253 130.126C82.0253 128.728 83.1588 127.595 84.557 127.595C85.9552 127.595 87.0886 128.728 87.0886 130.126Z" fill="white" fill-opacity="0.5"/>
<path d="M87.0886 139.24C87.0886 140.638 85.9552 141.772 84.557 141.772C83.1588 141.772 82.0253 140.638 82.0253 139.24C82.0253 137.842 83.1588 136.709 84.557 136.709C85.9552 136.709 87.0886 137.842 87.0886 139.24Z" fill="white" fill-opacity="0.5"/>
<path d="M96.2025 102.785C96.2025 104.183 95.0691 105.316 93.6709 105.316C92.2727 105.316 91.1392 104.183 91.1392 102.785C91.1392 101.386 92.2727 100.253 93.6709 100.253C95.0691 100.253 96.2025 101.386 96.2025 102.785Z" fill="white" fill-opacity="0.5"/>
<path d="M96.2025 111.898C96.2025 113.297 95.0691 114.43 93.6709 114.43C92.2727 114.43 91.1392 113.297 91.1392 111.898C91.1392 110.5 92.2727 109.367 93.6709 109.367C95.0691 109.367 96.2025 110.5 96.2025 111.898Z" fill="white" fill-opacity="0.5"/>
<path d="M96.2025 121.012C96.2025 122.411 95.0691 123.544 93.6709 123.544C92.2727 123.544 91.1392 122.411 91.1392 121.012C91.1392 119.614 92.2727 118.481 93.6709 118.481C95.0691 118.481 96.2025 119.614 96.2025 121.012Z" fill="white" fill-opacity="0.5"/>
<path d="M96.2025 130.126C96.2025 131.524 95.0691 132.658 93.6709 132.658C92.2727 132.658 91.1392 131.524 91.1392 130.126C91.1392 128.728 92.2727 127.595 93.6709 127.595C95.0691 127.595 96.2025 128.728 96.2025 130.126Z" fill="white" fill-opacity="0.5"/>
<path d="M96.2025 139.24C96.2025 140.638 95.0691 141.772 93.6709 141.772C92.2727 141.772 91.1392 140.638 91.1392 139.24C91.1392 137.842 92.2727 136.709 93.6709 136.709C95.0691 136.709 96.2025 137.842 96.2025 139.24Z" fill="white" fill-opacity="0.5"/>
<path d="M105.316 102.785C105.316 104.183 104.183 105.316 102.785 105.316C101.387 105.316 100.253 104.183 100.253 102.785C100.253 101.386 101.387 100.253 102.785 100.253C104.183 100.253 105.316 101.386 105.316 102.785Z" fill="white" fill-opacity="0.5"/>
<path d="M105.316 111.898C105.316 113.297 104.183 114.43 102.785 114.43C101.387 114.43 100.253 113.297 100.253 111.898C100.253 110.5 101.387 109.367 102.785 109.367C104.183 109.367 105.316 110.5 105.316 111.898Z" fill="white" fill-opacity="0.5"/>
<path d="M105.316 121.012C105.316 122.411 104.183 123.544 102.785 123.544C101.387 123.544 100.253 122.411 100.253 121.012C100.253 119.614 101.387 118.481 102.785 118.481C104.183 118.481 105.316 119.614 105.316 121.012Z" fill="white" fill-opacity="0.5"/>
<path d="M105.316 130.126C105.316 131.524 104.183 132.658 102.785 132.658C101.387 132.658 100.253 131.524 100.253 130.126C100.253 128.728 101.387 127.595 102.785 127.595C104.183 127.595 105.316 128.728 105.316 130.126Z" fill="white" fill-opacity="0.5"/>
<path d="M105.316 139.24C105.316 140.638 104.183 141.772 102.785 141.772C101.387 141.772 100.253 140.638 100.253 139.24C100.253 137.842 101.387 136.709 102.785 136.709C104.183 136.709 105.316 137.842 105.316 139.24Z" fill="white" fill-opacity="0.5"/>
<path d="M114.43 111.898C114.43 113.297 113.297 114.43 111.899 114.43C110.501 114.43 109.367 113.297 109.367 111.898C109.367 110.5 110.501 109.367 111.899 109.367C113.297 109.367 114.43 110.5 114.43 111.898Z" fill="white" fill-opacity="0.5"/>
<path d="M114.43 121.012C114.43 122.411 113.297 123.544 111.899 123.544C110.501 123.544 109.367 122.411 109.367 121.012C109.367 119.614 110.501 118.481 111.899 118.481C113.297 118.481 114.43 119.614 114.43 121.012Z" fill="white" fill-opacity="0.5"/>
<path d="M114.43 130.126C114.43 131.524 113.297 132.658 111.899 132.658C110.501 132.658 109.367 131.524 109.367 130.126C109.367 128.728 110.501 127.595 111.899 127.595C113.297 127.595 114.43 128.728 114.43 130.126Z" fill="white" fill-opacity="0.5"/>
<path d="M114.43 139.24C114.43 140.638 113.297 141.772 111.899 141.772C110.501 141.772 109.367 140.638 109.367 139.24C109.367 137.842 110.501 136.709 111.899 136.709C113.297 136.709 114.43 137.842 114.43 139.24Z" fill="white" fill-opacity="0.5"/>
<path d="M123.544 66.3288C123.544 67.727 122.411 68.8605 121.013 68.8605C119.614 68.8605 118.481 67.727 118.481 66.3288C118.481 64.9306 119.614 63.7972 121.013 63.7972C122.411 63.7972 123.544 64.9306 123.544 66.3288Z" fill="#F84204"/>
<path d="M123.544 75.4428C123.544 76.8409 122.411 77.9744 121.013 77.9744C119.614 77.9744 118.481 76.8409 118.481 75.4428C118.481 74.0446 119.614 72.9111 121.013 72.9111C122.411 72.9111 123.544 74.0446 123.544 75.4428Z" fill="#F84204"/>
<path d="M123.544 84.5567C123.544 85.9549 122.411 87.0883 121.013 87.0883C119.614 87.0883 118.481 85.9549 118.481 84.5567C118.481 83.1585 119.614 82.025 121.013 82.025C122.411 82.025 123.544 83.1585 123.544 84.5567Z" fill="#F84204"/>
<path d="M123.544 93.6706C123.544 95.0688 122.411 96.2022 121.013 96.2022C119.614 96.2022 118.481 95.0688 118.481 93.6706C118.481 92.2724 119.614 91.139 121.013 91.139C122.411 91.139 123.544 92.2724 123.544 93.6706Z" fill="#F84204"/>
<path d="M123.544 102.785C123.544 104.183 122.411 105.316 121.013 105.316C119.614 105.316 118.481 104.183 118.481 102.785C118.481 101.386 119.614 100.253 121.013 100.253C122.411 100.253 123.544 101.386 123.544 102.785Z" fill="#F84204"/>
<path d="M123.544 111.898C123.544 113.297 122.411 114.43 121.013 114.43C119.614 114.43 118.481 113.297 118.481 111.898C118.481 110.5 119.614 109.367 121.013 109.367C122.411 109.367 123.544 110.5 123.544 111.898Z" fill="#F84204"/>
<path d="M123.544 121.012C123.544 122.411 122.411 123.544 121.013 123.544C119.614 123.544 118.481 122.411 118.481 121.012C118.481 119.614 119.614 118.481 121.013 118.481C122.411 118.481 123.544 119.614 123.544 121.012Z" fill="#F84204"/>
<path d="M123.544 130.126C123.544 131.524 122.411 132.658 121.013 132.658C119.614 132.658 118.481 131.524 118.481 130.126C118.481 128.728 119.614 127.595 121.013 127.595C122.411 127.595 123.544 128.728 123.544 130.126Z" fill="#F84204"/>
<path d="M123.544 139.24C123.544 140.638 122.411 141.772 121.013 141.772C119.614 141.772 118.481 140.638 118.481 139.24C118.481 137.842 119.614 136.709 121.013 136.709C122.411 136.709 123.544 137.842 123.544 139.24Z" fill="#F84204"/>
<path d="M132.658 75.4428C132.658 76.8409 131.525 77.9744 130.127 77.9744C128.728 77.9744 127.595 76.8409 127.595 75.4428C127.595 74.0446 128.728 72.9111 130.127 72.9111C131.525 72.9111 132.658 74.0446 132.658 75.4428Z" fill="#F84204"/>
<path d="M132.658 84.5567C132.658 85.9549 131.525 87.0883 130.127 87.0883C128.728 87.0883 127.595 85.9549 127.595 84.5567C127.595 83.1585 128.728 82.025 130.127 82.025C131.525 82.025 132.658 83.1585 132.658 84.5567Z" fill="#F84204"/>
<path d="M132.658 93.6706C132.658 95.0688 131.525 96.2022 130.127 96.2022C128.728 96.2022 127.595 95.0688 127.595 93.6706C127.595 92.2724 128.728 91.139 130.127 91.139C131.525 91.139 132.658 92.2724 132.658 93.6706Z" fill="#F84204"/>
<path d="M132.658 102.785C132.658 104.183 131.525 105.316 130.127 105.316C128.728 105.316 127.595 104.183 127.595 102.785C127.595 101.386 128.728 100.253 130.127 100.253C131.525 100.253 132.658 101.386 132.658 102.785Z" fill="#F84204"/>
<path d="M132.658 111.898C132.658 113.297 131.525 114.43 130.127 114.43C128.728 114.43 127.595 113.297 127.595 111.898C127.595 110.5 128.728 109.367 130.127 109.367C131.525 109.367 132.658 110.5 132.658 111.898Z" fill="#F84204"/>
<path d="M132.658 121.012C132.658 122.411 131.525 123.544 130.127 123.544C128.728 123.544 127.595 122.411 127.595 121.012C127.595 119.614 128.728 118.481 130.127 118.481C131.525 118.481 132.658 119.614 132.658 121.012Z" fill="#F84204"/>
<path d="M132.658 130.126C132.658 131.524 131.525 132.658 130.127 132.658C128.728 132.658 127.595 131.524 127.595 130.126C127.595 128.728 128.728 127.595 130.127 127.595C131.525 127.595 132.658 128.728 132.658 130.126Z" fill="#F84204"/>
<path d="M132.658 139.24C132.658 140.638 131.525 141.772 130.127 141.772C128.728 141.772 127.595 140.638 127.595 139.24C127.595 137.842 128.728 136.709 130.127 136.709C131.525 136.709 132.658 137.842 132.658 139.24Z" fill="#F84204"/>
<path d="M141.772 48.101C141.772 49.4992 140.639 50.6326 139.241 50.6326C137.842 50.6326 136.709 49.4992 136.709 48.101C136.709 46.7028 137.842 45.5693 139.241 45.5693C140.639 45.5693 141.772 46.7028 141.772 48.101Z" fill="#F84204"/>
<path d="M141.772 57.2149C141.772 58.6131 140.639 59.7465 139.241 59.7465C137.842 59.7465 136.709 58.6131 136.709 57.2149C136.709 55.8167 137.842 54.6833 139.241 54.6833C140.639 54.6833 141.772 55.8167 141.772 57.2149Z" fill="#F84204"/>
<path d="M141.772 66.3288C141.772 67.727 140.639 68.8605 139.241 68.8605C137.842 68.8605 136.709 67.727 136.709 66.3288C136.709 64.9306 137.842 63.7972 139.241 63.7972C140.639 63.7972 141.772 64.9306 141.772 66.3288Z" fill="#F84204"/>
<path d="M141.772 75.4428C141.772 76.8409 140.639 77.9744 139.241 77.9744C137.842 77.9744 136.709 76.8409 136.709 75.4428C136.709 74.0446 137.842 72.9111 139.241 72.9111C140.639 72.9111 141.772 74.0446 141.772 75.4428Z" fill="#F84204"/>
<path d="M141.772 84.5567C141.772 85.9549 140.639 87.0883 139.241 87.0883C137.842 87.0883 136.709 85.9549 136.709 84.5567C136.709 83.1585 137.842 82.025 139.241 82.025C140.639 82.025 141.772 83.1585 141.772 84.5567Z" fill="#F84204"/>
<path d="M141.772 93.6706C141.772 95.0688 140.639 96.2022 139.241 96.2022C137.842 96.2022 136.709 95.0688 136.709 93.6706C136.709 92.2724 137.842 91.139 139.241 91.139C140.639 91.139 141.772 92.2724 141.772 93.6706Z" fill="#F84204"/>
<path d="M141.772 102.785C141.772 104.183 140.639 105.316 139.241 105.316C137.842 105.316 136.709 104.183 136.709 102.785C136.709 101.386 137.842 100.253 139.241 100.253C140.639 100.253 141.772 101.386 141.772 102.785Z" fill="#F84204"/>
<path d="M141.772 111.898C141.772 113.297 140.639 114.43 139.241 114.43C137.842 114.43 136.709 113.297 136.709 111.898C136.709 110.5 137.842 109.367 139.241 109.367C140.639 109.367 141.772 110.5 141.772 111.898Z" fill="#F84204"/>
<path d="M141.772 121.012C141.772 122.411 140.639 123.544 139.241 123.544C137.842 123.544 136.709 122.411 136.709 121.012C136.709 119.614 137.842 118.481 139.241 118.481C140.639 118.481 141.772 119.614 141.772 121.012Z" fill="#F84204"/>
<path d="M141.772 130.126C141.772 131.524 140.639 132.658 139.241 132.658C137.842 132.658 136.709 131.524 136.709 130.126C136.709 128.728 137.842 127.595 139.241 127.595C140.639 127.595 141.772 128.728 141.772 130.126Z" fill="#F84204"/>
<path d="M141.772 139.24C141.772 140.638 140.639 141.772 139.241 141.772C137.842 141.772 136.709 140.638 136.709 139.24C136.709 137.842 137.842 136.709 139.241 136.709C140.639 136.709 141.772 137.842 141.772 139.24Z" fill="#F84204"/>
<path d="M150.886 121.012C150.886 122.411 149.753 123.544 148.354 123.544C146.956 123.544 145.823 122.411 145.823 121.012C145.823 119.614 146.956 118.481 148.354 118.481C149.753 118.481 150.886 119.614 150.886 121.012Z" fill="white" fill-opacity="0.5"/>
<path d="M150.886 130.126C150.886 131.524 149.753 132.658 148.354 132.658C146.956 132.658 145.823 131.524 145.823 130.126C145.823 128.728 146.956 127.595 148.354 127.595C149.753 127.595 150.886 128.728 150.886 130.126Z" fill="white" fill-opacity="0.5"/>
<path d="M150.886 139.24C150.886 140.638 149.753 141.772 148.354 141.772C146.956 141.772 145.823 140.638 145.823 139.24C145.823 137.842 146.956 136.709 148.354 136.709C149.753 136.709 150.886 137.842 150.886 139.24Z" fill="white" fill-opacity="0.5"/>
<path d="M160 121.012C160 122.411 158.867 123.544 157.468 123.544C156.07 123.544 154.937 122.411 154.937 121.012C154.937 119.614 156.07 118.481 157.468 118.481C158.867 118.481 160 119.614 160 121.012Z" fill="white" fill-opacity="0.5"/>
<path d="M160 130.126C160 131.524 158.867 132.658 157.468 132.658C156.07 132.658 154.937 131.524 154.937 130.126C154.937 128.728 156.07 127.595 157.468 127.595C158.867 127.595 160 128.728 160 130.126Z" fill="white" fill-opacity="0.5"/>
<path d="M160 139.24C160 140.638 158.867 141.772 157.468 141.772C156.07 141.772 154.937 140.638 154.937 139.24C154.937 137.842 156.07 136.709 157.468 136.709C158.867 136.709 160 137.842 160 139.24Z" fill="white" fill-opacity="0.5"/>
</svg>
