<svg width="320" height="160" viewBox="0 0 320 160" fill="none" xmlns="http://www.w3.org/2000/svg">
<rect width="320" height="160" rx="20" fill="white"/>
<path d="M42.0156 44V26.5391H47.9219C49.2891 26.5391 50.4062 26.7734 51.2734 27.2422C52.1484 27.7031 52.7969 28.3398 53.2188 29.1523C53.6406 29.957 53.8516 30.875 53.8516 31.9062C53.8516 32.9297 53.6406 33.8398 53.2188 34.6367C52.8047 35.4336 52.1602 36.0586 51.2852 36.5117C50.418 36.957 49.3047 37.1797 47.9453 37.1797H43.1875V35.2812H47.875C48.8125 35.2812 49.5664 35.1445 50.1367 34.8711C50.707 34.5977 51.1211 34.2109 51.3789 33.7109C51.6367 33.2031 51.7656 32.6016 51.7656 31.9062C51.7656 31.2031 51.6328 30.5898 51.3672 30.0664C51.1094 29.543 50.6953 29.1367 50.125 28.8477C49.5547 28.5586 48.7969 28.4141 47.8516 28.4141H44.125V44H42.0156ZM52.0703 44L47.8516 36.1484H50.2422L54.5312 44H52.0703ZM61.3281 44.2812C60.0703 44.2812 58.9805 44 58.0586 43.4375C57.1445 42.875 56.4414 42.0898 55.9492 41.082C55.457 40.0664 55.2109 38.8906 55.2109 37.5547C55.2109 36.2109 55.4531 35.0273 55.9375 34.0039C56.4219 32.9805 57.1016 32.1797 57.9766 31.6016C58.8594 31.0234 59.8906 30.7344 61.0703 30.7344C61.75 30.7344 62.4258 30.8477 63.0977 31.0742C63.7695 31.3008 64.3789 31.668 64.9258 32.1758C65.4805 32.6836 65.9219 33.3555 66.25 34.1914C66.5781 35.0273 66.7422 36.0547 66.7422 37.2734V38.1406H56.6406V36.4062H65.6523L64.7266 37.0625C64.7266 36.1875 64.5898 35.4102 64.3164 34.7305C64.043 34.0508 63.6328 33.5156 63.0859 33.125C62.5469 32.7344 61.875 32.5391 61.0703 32.5391C60.2656 32.5391 59.5742 32.7383 58.9961 33.1367C58.4258 33.5273 57.9883 34.0391 57.6836 34.6719C57.3789 35.3047 57.2266 35.9844 57.2266 36.7109V37.8594C57.2266 38.8516 57.3984 39.6914 57.7422 40.3789C58.0859 41.0664 58.5664 41.5898 59.1836 41.9492C59.8008 42.3008 60.5156 42.4766 61.3281 42.4766C61.8516 42.4766 62.3281 42.4023 62.7578 42.2539C63.1875 42.0977 63.5586 41.8672 63.8711 41.5625C64.1836 41.25 64.4219 40.8672 64.5859 40.4141L66.5312 40.9766C66.3281 41.6328 65.9844 42.2109 65.5 42.7109C65.0234 43.2031 64.4297 43.5898 63.7188 43.8711C63.0078 44.1445 62.2109 44.2812 61.3281 44.2812ZM78.8594 30.8984L74.0312 44H71.9688L67.1406 30.8984H69.3203L72.9297 41.3516H73.0703L76.6797 30.8984H78.8594ZM86.1953 44.3047C84.9453 44.3047 83.8633 44.1055 82.9492 43.707C82.0352 43.3008 81.3164 42.7383 80.793 42.0195C80.2773 41.293 79.9844 40.4531 79.9141 39.5H82.0938C82.1562 40.1562 82.3789 40.6992 82.7617 41.1289C83.1523 41.5586 83.6484 41.8789 84.25 42.0898C84.8516 42.3008 85.5 42.4062 86.1953 42.4062C87 42.4062 87.7227 42.2734 88.3633 42.0078C89.0117 41.7422 89.5234 41.3711 89.8984 40.8945C90.2734 40.418 90.4609 39.8594 90.4609 39.2188C90.4609 38.6406 90.2969 38.1719 89.9688 37.8125C89.6406 37.4531 89.2109 37.1602 88.6797 36.9336C88.1562 36.707 87.5859 36.5078 86.9688 36.3359L84.8359 35.7266C83.4688 35.3359 82.3867 34.7773 81.5898 34.0508C80.8008 33.3164 80.4062 32.3594 80.4062 31.1797C80.4062 30.2031 80.668 29.3516 81.1914 28.625C81.7227 27.8906 82.4375 27.3203 83.3359 26.9141C84.2422 26.5078 85.25 26.3047 86.3594 26.3047C87.4844 26.3047 88.4844 26.5078 89.3594 26.9141C90.2344 27.3125 90.9297 27.8594 91.4453 28.5547C91.9609 29.2422 92.2344 30.0234 92.2656 30.8984H90.2031C90.1016 30.0391 89.6875 29.3711 88.9609 28.8945C88.2422 28.418 87.3516 28.1797 86.2891 28.1797C85.5234 28.1797 84.8516 28.3047 84.2734 28.5547C83.6953 28.8047 83.2461 29.1484 82.9258 29.5859C82.6055 30.0234 82.4453 30.5234 82.4453 31.0859C82.4453 31.7031 82.6367 32.2031 83.0195 32.5859C83.4023 32.9609 83.8555 33.2539 84.3789 33.4648C84.9102 33.6758 85.3906 33.8438 85.8203 33.9688L87.5781 34.4609C88.0312 34.5859 88.5352 34.7539 89.0898 34.9648C89.6523 35.1758 90.1914 35.4609 90.707 35.8203C91.2305 36.1797 91.6602 36.6406 91.9961 37.2031C92.332 37.7578 92.5 38.4453 92.5 39.2656C92.5 40.2031 92.2539 41.0547 91.7617 41.8203C91.2695 42.5781 90.5547 43.1836 89.6172 43.6367C88.6797 44.082 87.5391 44.3047 86.1953 44.3047ZM96.5781 36.125V44H94.5859V26.5391H96.5781V32.9609H96.7656C97.0703 32.2812 97.5273 31.7422 98.1367 31.3438C98.7539 30.9375 99.5781 30.7344 100.609 30.7344C101.5 30.7344 102.281 30.9141 102.953 31.2734C103.625 31.625 104.148 32.168 104.523 32.9023C104.898 33.6289 105.086 34.5547 105.086 35.6797V44H103.07V35.8203C103.07 34.7734 102.801 33.9648 102.262 33.3945C101.723 32.8242 100.977 32.5391 100.023 32.5391C99.3594 32.5391 98.7695 32.6797 98.2539 32.9609C97.7383 33.2422 97.3281 33.6484 97.0234 34.1797C96.7266 34.7109 96.5781 35.3594 96.5781 36.125ZM111.508 44.3047C110.68 44.3047 109.926 44.1484 109.246 43.8359C108.566 43.5156 108.027 43.0547 107.629 42.4531C107.23 41.8516 107.031 41.125 107.031 40.2734C107.031 39.5234 107.18 38.918 107.477 38.457C107.773 37.9883 108.168 37.6211 108.66 37.3555C109.16 37.082 109.707 36.8789 110.301 36.7461C110.902 36.6133 111.508 36.5078 112.117 36.4297C112.914 36.3281 113.559 36.25 114.051 36.1953C114.551 36.1406 114.914 36.0469 115.141 35.9141C115.375 35.7812 115.492 35.5547 115.492 35.2344V35.1641C115.492 34.3281 115.262 33.6797 114.801 33.2188C114.348 32.75 113.656 32.5156 112.727 32.5156C111.773 32.5156 111.023 32.7266 110.477 33.1484C109.93 33.5625 109.547 34.0078 109.328 34.4844L107.406 33.8047C107.75 33.0078 108.207 32.3867 108.777 31.9414C109.355 31.4961 109.98 31.1836 110.652 31.0039C111.332 30.8242 112 30.7344 112.656 30.7344C113.078 30.7344 113.562 30.7852 114.109 30.8867C114.656 30.9805 115.188 31.1836 115.703 31.4961C116.227 31.8008 116.656 32.2656 116.992 32.8906C117.336 33.5078 117.508 34.3359 117.508 35.375V44H115.492V42.2188H115.398C115.266 42.5 115.039 42.8047 114.719 43.1328C114.398 43.4531 113.973 43.7305 113.441 43.9648C112.918 44.1914 112.273 44.3047 111.508 44.3047ZM111.812 42.5C112.609 42.5 113.281 42.3438 113.828 42.0312C114.375 41.7188 114.789 41.3164 115.07 40.8242C115.352 40.3242 115.492 39.8047 115.492 39.2656V37.4141C115.406 37.5156 115.219 37.6094 114.93 37.6953C114.648 37.7734 114.32 37.8438 113.945 37.9062C113.578 37.9688 113.219 38.0234 112.867 38.0703C112.516 38.1094 112.234 38.1406 112.023 38.1641C111.5 38.2344 111.012 38.3477 110.559 38.5039C110.105 38.6523 109.738 38.875 109.457 39.1719C109.184 39.4688 109.047 39.875 109.047 40.3906C109.047 41.0859 109.305 41.6133 109.82 41.9727C110.344 42.3242 111.008 42.5 111.812 42.5ZM120.086 44V30.8984H122.008V32.8906H122.148C122.391 32.2422 122.824 31.7188 123.449 31.3203C124.082 30.9141 124.789 30.7109 125.57 30.7109C125.719 30.7109 125.902 30.7148 126.121 30.7227C126.34 30.7227 126.508 30.7266 126.625 30.7344V32.7734C126.555 32.7578 126.398 32.7344 126.156 32.7031C125.914 32.6719 125.656 32.6562 125.383 32.6562C124.75 32.6562 124.184 32.7891 123.684 33.0547C123.184 33.3203 122.789 33.6836 122.5 34.1445C122.219 34.6055 122.078 35.1328 122.078 35.7266V44H120.086ZM132.977 44.2812C131.719 44.2812 130.629 44 129.707 43.4375C128.793 42.875 128.09 42.0898 127.598 41.082C127.105 40.0664 126.859 38.8906 126.859 37.5547C126.859 36.2109 127.102 35.0273 127.586 34.0039C128.07 32.9805 128.75 32.1797 129.625 31.6016C130.508 31.0234 131.539 30.7344 132.719 30.7344C133.398 30.7344 134.074 30.8477 134.746 31.0742C135.418 31.3008 136.027 31.668 136.574 32.1758C137.129 32.6836 137.57 33.3555 137.898 34.1914C138.227 35.0273 138.391 36.0547 138.391 37.2734V38.1406H128.289V36.4062H137.301L136.375 37.0625C136.375 36.1875 136.238 35.4102 135.965 34.7305C135.691 34.0508 135.281 33.5156 134.734 33.125C134.195 32.7344 133.523 32.5391 132.719 32.5391C131.914 32.5391 131.223 32.7383 130.645 33.1367C130.074 33.5273 129.637 34.0391 129.332 34.6719C129.027 35.3047 128.875 35.9844 128.875 36.7109V37.8594C128.875 38.8516 129.047 39.6914 129.391 40.3789C129.734 41.0664 130.215 41.5898 130.832 41.9492C131.449 42.3008 132.164 42.4766 132.977 42.4766C133.5 42.4766 133.977 42.4023 134.406 42.2539C134.836 42.0977 135.207 41.8672 135.52 41.5625C135.832 41.25 136.07 40.8672 136.234 40.4141L138.18 40.9766C137.977 41.6328 137.633 42.2109 137.148 42.7109C136.672 43.2031 136.078 43.5898 135.367 43.8711C134.656 44.1445 133.859 44.2812 132.977 44.2812Z" fill="#010101"/>
<path d="M165.469 102.289V92.3281H167.227C167.682 91.9115 168.073 91.4167 168.398 90.8438C168.724 90.2578 168.991 89.5677 169.199 88.7734C169.421 87.9661 169.609 87.0352 169.766 85.9805C169.922 84.9258 170.059 83.7083 170.176 82.3281L170.859 74.1641H185.684V92.3281H189.043V102.289H184.883V96H169.688V102.289H165.469ZM171.797 92.3281H181.543V77.7969H174.648L174.18 82.3281C173.984 84.6328 173.717 86.625 173.379 88.3047C173.053 89.9714 172.526 91.3125 171.797 92.3281ZM200.684 96.4492C198.639 96.4492 196.849 95.9805 195.312 95.043C193.789 94.1055 192.604 92.7904 191.758 91.0977C190.924 89.4049 190.508 87.4388 190.508 85.1992C190.508 82.9336 190.924 80.9544 191.758 79.2617C192.604 77.556 193.789 76.2344 195.312 75.2969C196.849 74.3594 198.639 73.8906 200.684 73.8906C202.741 73.8906 204.531 74.3594 206.055 75.2969C207.578 76.2344 208.763 77.556 209.609 79.2617C210.456 80.9544 210.879 82.9336 210.879 85.1992C210.879 87.4388 210.456 89.4049 209.609 91.0977C208.763 92.7904 207.578 94.1055 206.055 95.043C204.531 95.9805 202.741 96.4492 200.684 96.4492ZM200.684 92.875C202.025 92.875 203.132 92.5234 204.004 91.8203C204.876 91.1172 205.521 90.1862 205.938 89.0273C206.367 87.8555 206.582 86.5794 206.582 85.1992C206.582 83.793 206.367 82.5039 205.938 81.332C205.521 80.1602 204.876 79.2227 204.004 78.5195C203.132 77.8164 202.025 77.4648 200.684 77.4648C199.355 77.4648 198.255 77.8164 197.383 78.5195C196.523 79.2227 195.879 80.1602 195.449 81.332C195.02 82.5039 194.805 83.793 194.805 85.1992C194.805 86.5794 195.02 87.8555 195.449 89.0273C195.879 90.1862 196.523 91.1172 197.383 91.8203C198.255 92.5234 199.355 92.875 200.684 92.875ZM232.852 96.3906C231.562 96.3906 230.286 96.1628 229.023 95.707C227.76 95.2513 226.621 94.4961 225.605 93.4414C224.59 92.3737 223.77 90.9414 223.145 89.1445C222.533 87.3477 222.227 85.1146 222.227 82.4453C222.227 79.9062 222.48 77.6536 222.988 75.6875C223.509 73.7083 224.245 72.0417 225.195 70.6875C226.159 69.3203 227.318 68.2852 228.672 67.582C230.026 66.8659 231.549 66.5078 233.242 66.5078C234.974 66.5078 236.51 66.8529 237.852 67.543C239.193 68.2201 240.28 69.1576 241.113 70.3555C241.96 71.5534 242.487 72.9206 242.695 74.457H238.398C238.099 73.2461 237.513 72.263 236.641 71.5078C235.768 70.7396 234.635 70.3555 233.242 70.3555C231.107 70.3555 229.44 71.2865 228.242 73.1484C227.057 74.9974 226.465 77.5755 226.465 80.8828H226.68C227.188 80.0625 227.806 79.3594 228.535 78.7734C229.264 78.1745 230.078 77.7188 230.977 77.4062C231.888 77.0938 232.858 76.9375 233.887 76.9375C235.566 76.9375 237.09 77.3477 238.457 78.168C239.837 78.9883 240.931 80.1211 241.738 81.5664C242.559 82.9987 242.969 84.6458 242.969 86.5078C242.969 88.3568 242.546 90.0299 241.699 91.5273C240.866 93.0247 239.688 94.2096 238.164 95.082C236.654 95.9544 234.883 96.3906 232.852 96.3906ZM232.832 92.6992C233.952 92.6992 234.948 92.4258 235.82 91.8789C236.706 91.332 237.409 90.5964 237.93 89.6719C238.451 88.7344 238.711 87.6927 238.711 86.5469C238.711 85.4271 238.457 84.4115 237.949 83.5C237.454 82.5885 236.771 81.8659 235.898 81.332C235.039 80.7852 234.049 80.5117 232.93 80.5117C231.823 80.5117 230.82 80.7917 229.922 81.3516C229.023 81.9115 228.307 82.6536 227.773 83.5781C227.253 84.5026 226.992 85.5052 226.992 86.5859C226.992 87.6667 227.246 88.6758 227.754 89.6133C228.262 90.5508 228.952 91.2995 229.824 91.8594C230.71 92.4193 231.712 92.6992 232.832 92.6992ZM256.445 96.3906C254.206 96.3906 252.285 95.8047 250.684 94.6328C249.095 93.4609 247.878 91.7682 247.031 89.5547C246.198 87.3281 245.781 84.6328 245.781 81.4688C245.781 78.3177 246.204 75.6289 247.051 73.4023C247.897 71.1628 249.115 69.457 250.703 68.2852C252.305 67.1003 254.219 66.5078 256.445 66.5078C258.685 66.5078 260.599 67.1003 262.188 68.2852C263.789 69.457 265.007 71.1628 265.84 73.4023C266.686 75.6289 267.109 78.3177 267.109 81.4688C267.109 84.6328 266.693 87.3281 265.859 89.5547C265.026 91.7682 263.815 93.4609 262.227 94.6328C260.638 95.8047 258.711 96.3906 256.445 96.3906ZM256.445 92.6406C257.812 92.6406 258.965 92.2044 259.902 91.332C260.84 90.4596 261.556 89.1901 262.051 87.5234C262.546 85.8438 262.793 83.8255 262.793 81.4688C262.793 79.099 262.546 77.0807 262.051 75.4141C261.556 73.7344 260.84 72.4583 259.902 71.5859C258.965 70.7005 257.812 70.2578 256.445 70.2578C254.427 70.2578 252.865 71.2409 251.758 73.207C250.664 75.1602 250.117 77.9141 250.117 81.4688C250.117 83.8255 250.365 85.8438 250.859 87.5234C251.354 89.1901 252.07 90.4596 253.008 91.332C253.958 92.2044 255.104 92.6406 256.445 92.6406ZM285.703 90.5312V89.0078C285.703 87.901 285.931 86.8919 286.387 85.9805C286.842 85.069 287.513 84.3398 288.398 83.793C289.284 83.2331 290.358 82.9531 291.621 82.9531C292.91 82.9531 293.991 83.2266 294.863 83.7734C295.736 84.3203 296.393 85.056 296.836 85.9805C297.279 86.8919 297.5 87.901 297.5 89.0078V90.5312C297.5 91.638 297.272 92.6536 296.816 93.5781C296.374 94.4896 295.716 95.2188 294.844 95.7656C293.971 96.3125 292.897 96.5859 291.621 96.5859C290.345 96.5859 289.264 96.3125 288.379 95.7656C287.493 95.2188 286.823 94.4896 286.367 93.5781C285.924 92.6536 285.703 91.638 285.703 90.5312ZM289.004 89.0078V90.5312C289.004 91.3516 289.199 92.0938 289.59 92.7578C289.98 93.4219 290.658 93.7539 291.621 93.7539C292.572 93.7539 293.236 93.4219 293.613 92.7578C293.991 92.0938 294.18 91.3516 294.18 90.5312V89.0078C294.18 88.1875 293.997 87.4518 293.633 86.8008C293.268 86.1367 292.598 85.8047 291.621 85.8047C290.671 85.8047 289.993 86.1367 289.59 86.8008C289.199 87.4518 289.004 88.1875 289.004 89.0078ZM271.074 73.8906V72.3672C271.074 71.2604 271.302 70.2513 271.758 69.3398C272.227 68.4154 272.897 67.6797 273.77 67.1328C274.655 66.5859 275.723 66.3125 276.973 66.3125C278.262 66.3125 279.342 66.5859 280.215 67.1328C281.1 67.6797 281.764 68.4154 282.207 69.3398C282.65 70.2513 282.865 71.2604 282.852 72.3672V73.8906C282.865 74.9844 282.643 75.9935 282.188 76.918C281.732 77.8294 281.068 78.5651 280.195 79.125C279.323 79.6719 278.249 79.9453 276.973 79.9453C275.697 79.9453 274.616 79.6719 273.73 79.125C272.858 78.5651 272.194 77.8294 271.738 76.918C271.296 75.9935 271.074 74.9844 271.074 73.8906ZM274.375 72.3672V73.8906C274.375 74.7109 274.57 75.4531 274.961 76.1172C275.352 76.7812 276.022 77.1068 276.973 77.0938C277.936 77.1068 278.607 76.7812 278.984 76.1172C279.362 75.4531 279.551 74.7109 279.551 73.8906V72.3672C279.551 71.5469 279.368 70.8047 279.004 70.1406C278.639 69.4766 277.962 69.151 276.973 69.1641C276.035 69.151 275.365 69.4766 274.961 70.1406C274.57 70.8047 274.375 71.5469 274.375 72.3672ZM272.422 96L292.422 66.8984H295.82L275.82 96H272.422Z" fill="#010101"/>
<rect x="20" y="20" width="2" height="120" rx="1" fill="#F84204"/>
<rect x="28.4242" y="120" width="2" height="20" rx="1" fill="#F84204"/>
<rect x="36.8485" y="120" width="2" height="20" rx="1" fill="#F84204"/>
<rect x="45.2727" y="120" width="2" height="20" rx="1" fill="#F84204"/>
<rect x="53.697" y="120" width="2" height="20" rx="1" fill="#F84204"/>
<rect x="62.1212" y="120" width="2" height="20" rx="1" fill="#F84204"/>
<rect x="70.5454" y="120" width="2" height="20" rx="1" fill="#F84204"/>
<rect x="78.9697" y="120" width="2" height="20" rx="1" fill="#F84204"/>
<rect x="87.3939" y="120" width="2" height="20" rx="1" fill="#F84204"/>
<rect x="95.8181" y="120" width="2" height="20" rx="1" fill="#F84204"/>
<rect x="104.242" y="120" width="2" height="20" rx="1" fill="#F84204"/>
<rect x="112.667" y="120" width="2" height="20" rx="1" fill="#F84204"/>
<rect x="121.091" y="120" width="2" height="20" rx="1" fill="#F84204"/>
<rect x="129.515" y="120" width="2" height="20" rx="1" fill="#F84204"/>
<rect x="137.939" y="120" width="2" height="20" rx="1" fill="#F84204"/>
<rect x="146.364" y="120" width="2" height="20" rx="1" fill="#F84204"/>
<rect x="154.788" y="120" width="2" height="20" rx="1" fill="#F84204"/>
<rect x="163.212" y="120" width="2" height="20" rx="1" fill="#F84204"/>
<rect x="171.636" y="120" width="2" height="20" rx="1" fill="#F84204"/>
<rect x="180.061" y="120" width="2" height="20" rx="1" fill="#F84204"/>
<rect x="188.485" y="120" width="2" height="20" rx="1" fill="#F84204"/>
<rect x="196.909" y="120" width="2" height="20" rx="1" fill="#F84204"/>
<rect x="205.333" y="120" width="2" height="20" rx="1" fill="#F84204"/>
<rect x="213.758" y="120" width="2" height="20" rx="1" fill="#D3D3D3"/>
<rect x="222.182" y="120" width="2" height="20" rx="1" fill="#D3D3D3"/>
<rect x="230.606" y="120" width="2" height="20" rx="1" fill="#D3D3D3"/>
<rect x="239.03" y="120" width="2" height="20" rx="1" fill="#D3D3D3"/>
<rect x="247.454" y="120" width="2" height="20" rx="1" fill="#D3D3D3"/>
<rect x="255.879" y="120" width="2" height="20" rx="1" fill="#D3D3D3"/>
<rect x="264.303" y="120" width="2" height="20" rx="1" fill="#D3D3D3"/>
<rect x="272.727" y="120" width="2" height="20" rx="1" fill="#D3D3D3"/>
<rect x="281.151" y="120" width="2" height="20" rx="1" fill="#D3D3D3"/>
<rect x="289.576" y="120" width="2" height="20" rx="1" fill="#D3D3D3"/>
<rect x="298" y="120" width="2" height="20" rx="1" fill="#D3D3D3"/>
</svg>
