<svg width="158" height="64" viewBox="0 0 158 64" fill="none" xmlns="http://www.w3.org/2000/svg">
<rect width="158" height="64" rx="10" fill="white"/>
<path d="M21.4258 24V13.8145H24.8711C25.6686 13.8145 26.3203 13.9512 26.8262 14.2246C27.3366 14.4935 27.7148 14.8649 27.9609 15.3389C28.207 15.8083 28.3301 16.3438 28.3301 16.9453C28.3301 17.5423 28.207 18.0732 27.9609 18.5381C27.7194 19.0029 27.3434 19.3675 26.833 19.6318C26.3271 19.8916 25.6777 20.0215 24.8848 20.0215H22.1094V18.9141H24.8438C25.3906 18.9141 25.8304 18.8343 26.1631 18.6748C26.4958 18.5153 26.7373 18.2897 26.8877 17.998C27.0381 17.7018 27.1133 17.3509 27.1133 16.9453C27.1133 16.5352 27.0358 16.1774 26.8809 15.8721C26.7305 15.5667 26.4889 15.3298 26.1562 15.1611C25.8236 14.9925 25.3815 14.9082 24.8301 14.9082H22.6562V24H21.4258ZM27.291 24L24.8301 19.4199H26.2246L28.7266 24H27.291ZM32.6914 24.1641C31.9577 24.1641 31.3219 24 30.7842 23.6719C30.251 23.3438 29.8408 22.8857 29.5537 22.2979C29.2666 21.7054 29.123 21.0195 29.123 20.2402C29.123 19.4564 29.2643 18.766 29.5469 18.1689C29.8294 17.5719 30.2259 17.1048 30.7363 16.7676C31.2513 16.4303 31.8529 16.2617 32.541 16.2617C32.9375 16.2617 33.3317 16.3278 33.7236 16.46C34.1156 16.5921 34.471 16.8063 34.79 17.1025C35.1136 17.3988 35.3711 17.7907 35.5625 18.2783C35.7539 18.766 35.8496 19.3652 35.8496 20.0762V20.582H29.957V19.5703H35.2139L34.6738 19.9531C34.6738 19.4427 34.5941 18.9893 34.4346 18.5928C34.2751 18.1963 34.0358 17.8841 33.7168 17.6562C33.4023 17.4284 33.0104 17.3145 32.541 17.3145C32.0716 17.3145 31.6683 17.4307 31.3311 17.6631C30.9984 17.891 30.7432 18.1895 30.5654 18.5586C30.3877 18.9277 30.2988 19.3242 30.2988 19.748V20.418C30.2988 20.9967 30.3991 21.4867 30.5996 21.8877C30.8001 22.2887 31.0804 22.5941 31.4404 22.8037C31.8005 23.0088 32.2174 23.1113 32.6914 23.1113C32.9967 23.1113 33.2747 23.068 33.5254 22.9814C33.776 22.8903 33.9925 22.7559 34.1748 22.5781C34.3571 22.3958 34.4961 22.1725 34.5918 21.9082L35.7266 22.2363C35.6081 22.6191 35.4076 22.9564 35.125 23.248C34.847 23.5352 34.5007 23.7607 34.0859 23.9248C33.6712 24.0843 33.2064 24.1641 32.6914 24.1641ZM42.918 16.3574L40.1016 24H38.8984L36.082 16.3574H37.3535L39.459 22.4551H39.541L41.6465 16.3574H42.918ZM47.1973 24.1777C46.4681 24.1777 45.8369 24.0615 45.3037 23.8291C44.7705 23.5921 44.3512 23.264 44.0459 22.8447C43.7451 22.4209 43.5742 21.931 43.5332 21.375H44.8047C44.8411 21.7578 44.971 22.0745 45.1943 22.3252C45.4222 22.5758 45.7116 22.7627 46.0625 22.8857C46.4134 23.0088 46.7917 23.0703 47.1973 23.0703C47.6667 23.0703 48.0882 22.9928 48.4619 22.8379C48.8402 22.6829 49.1387 22.4665 49.3574 22.1885C49.5762 21.9105 49.6855 21.5846 49.6855 21.2109C49.6855 20.8737 49.5898 20.6003 49.3984 20.3906C49.207 20.181 48.9564 20.0101 48.6465 19.8779C48.3411 19.7458 48.0085 19.6296 47.6484 19.5293L46.4043 19.1738C45.6068 18.946 44.9756 18.6201 44.5107 18.1963C44.0505 17.7679 43.8203 17.2096 43.8203 16.5215C43.8203 15.9518 43.973 15.4551 44.2783 15.0312C44.5882 14.6029 45.0052 14.2702 45.5293 14.0332C46.0579 13.7962 46.6458 13.6777 47.293 13.6777C47.9492 13.6777 48.5326 13.7962 49.043 14.0332C49.5534 14.2656 49.959 14.5846 50.2598 14.9902C50.5605 15.3913 50.7201 15.847 50.7383 16.3574H49.5352C49.4759 15.8561 49.2344 15.4665 48.8105 15.1885C48.3913 14.9105 47.8717 14.7715 47.252 14.7715C46.8053 14.7715 46.4134 14.8444 46.0762 14.9902C45.7389 15.1361 45.4769 15.3366 45.29 15.5918C45.1032 15.847 45.0098 16.1387 45.0098 16.4668C45.0098 16.8268 45.1214 17.1185 45.3447 17.3418C45.568 17.5605 45.8324 17.7314 46.1377 17.8545C46.4476 17.9775 46.7279 18.0755 46.9785 18.1484L48.0039 18.4355C48.2682 18.5085 48.5622 18.6064 48.8857 18.7295C49.2139 18.8525 49.5283 19.0189 49.8291 19.2285C50.1344 19.4382 50.3851 19.707 50.5811 20.0352C50.777 20.3587 50.875 20.7598 50.875 21.2383C50.875 21.7852 50.7314 22.2819 50.4443 22.7285C50.1572 23.1706 49.7402 23.5238 49.1934 23.7881C48.6465 24.0479 47.9811 24.1777 47.1973 24.1777ZM53.2539 19.4062V24H52.0918V13.8145H53.2539V17.5605H53.3633C53.541 17.1641 53.8076 16.8496 54.1631 16.6172C54.5231 16.3802 55.0039 16.2617 55.6055 16.2617C56.125 16.2617 56.5807 16.3665 56.9727 16.5762C57.3646 16.7812 57.6699 17.098 57.8887 17.5264C58.1074 17.9502 58.2168 18.4902 58.2168 19.1465V24H57.041V19.2285C57.041 18.6178 56.8838 18.1462 56.5693 17.8135C56.2549 17.4808 55.8197 17.3145 55.2637 17.3145C54.8763 17.3145 54.5322 17.3965 54.2314 17.5605C53.9307 17.7246 53.6914 17.9616 53.5137 18.2715C53.3405 18.5814 53.2539 18.9596 53.2539 19.4062ZM61.9629 24.1777C61.4798 24.1777 61.04 24.0866 60.6436 23.9043C60.2471 23.7174 59.9326 23.4486 59.7002 23.0977C59.4678 22.7467 59.3516 22.3229 59.3516 21.8262C59.3516 21.3887 59.4382 21.0355 59.6113 20.7666C59.7845 20.4932 60.0146 20.279 60.3018 20.124C60.5934 19.9645 60.9124 19.846 61.2588 19.7686C61.6097 19.6911 61.9629 19.6296 62.3184 19.584C62.7832 19.5247 63.1592 19.4792 63.4463 19.4473C63.738 19.4154 63.9499 19.3607 64.082 19.2832C64.2188 19.2057 64.2871 19.0736 64.2871 18.8867V18.8457C64.2871 18.3581 64.1527 17.9798 63.8838 17.7109C63.6195 17.4375 63.2161 17.3008 62.6738 17.3008C62.1178 17.3008 61.6803 17.4238 61.3613 17.6699C61.0423 17.9115 60.819 18.1712 60.6914 18.4492L59.5703 18.0527C59.7708 17.5879 60.0374 17.2256 60.3701 16.9658C60.7074 16.7061 61.0719 16.5238 61.4639 16.4189C61.8604 16.3141 62.25 16.2617 62.6328 16.2617C62.8789 16.2617 63.1615 16.2913 63.4805 16.3506C63.7995 16.4053 64.1094 16.5238 64.4102 16.7061C64.7155 16.8838 64.9661 17.1549 65.1621 17.5195C65.3626 17.8796 65.4629 18.3626 65.4629 18.9688V24H64.2871V22.9609H64.2324C64.1549 23.125 64.0228 23.3027 63.8359 23.4941C63.6491 23.681 63.4007 23.8428 63.0908 23.9795C62.7855 24.1117 62.4095 24.1777 61.9629 24.1777ZM62.1406 23.125C62.6055 23.125 62.9974 23.0339 63.3164 22.8516C63.6354 22.6693 63.877 22.4346 64.041 22.1475C64.2051 21.8558 64.2871 21.5527 64.2871 21.2383V20.1582C64.237 20.2174 64.1276 20.2721 63.959 20.3223C63.7949 20.3678 63.6035 20.4089 63.3848 20.4453C63.1706 20.4818 62.9609 20.5137 62.7559 20.541C62.5508 20.5638 62.3867 20.582 62.2637 20.5957C61.9583 20.6367 61.6735 20.7028 61.4092 20.7939C61.1449 20.8805 60.9307 21.0104 60.7666 21.1836C60.6071 21.3568 60.5273 21.5938 60.5273 21.8945C60.5273 22.3001 60.6777 22.6077 60.9785 22.8174C61.2839 23.0225 61.6712 23.125 62.1406 23.125ZM66.9668 24V16.3574H68.0879V17.5195H68.1699C68.3112 17.1413 68.5641 16.8359 68.9287 16.6035C69.2979 16.3665 69.7103 16.248 70.166 16.248C70.2526 16.248 70.3597 16.2503 70.4873 16.2549C70.6149 16.2549 70.7129 16.2572 70.7812 16.2617V17.4512C70.7402 17.4421 70.6491 17.4284 70.5078 17.4102C70.3665 17.3919 70.2161 17.3828 70.0566 17.3828C69.6875 17.3828 69.3571 17.4603 69.0654 17.6152C68.7738 17.7702 68.5436 17.9821 68.375 18.251C68.2109 18.5199 68.1289 18.8275 68.1289 19.1738V24H66.9668ZM74.4863 24.1641C73.7526 24.1641 73.1169 24 72.5791 23.6719C72.0459 23.3438 71.6357 22.8857 71.3486 22.2979C71.0615 21.7054 70.918 21.0195 70.918 20.2402C70.918 19.4564 71.0592 18.766 71.3418 18.1689C71.6243 17.5719 72.0208 17.1048 72.5312 16.7676C73.0462 16.4303 73.6478 16.2617 74.3359 16.2617C74.7324 16.2617 75.1266 16.3278 75.5186 16.46C75.9105 16.5921 76.266 16.8063 76.585 17.1025C76.9085 17.3988 77.166 17.7907 77.3574 18.2783C77.5488 18.766 77.6445 19.3652 77.6445 20.0762V20.582H71.752V19.5703H77.0088L76.4688 19.9531C76.4688 19.4427 76.389 18.9893 76.2295 18.5928C76.07 18.1963 75.8307 17.8841 75.5117 17.6562C75.1973 17.4284 74.8053 17.3145 74.3359 17.3145C73.8665 17.3145 73.4632 17.4307 73.126 17.6631C72.7933 17.891 72.5381 18.1895 72.3604 18.5586C72.1826 18.9277 72.0938 19.3242 72.0938 19.748V20.418C72.0938 20.9967 72.194 21.4867 72.3945 21.8877C72.5951 22.2887 72.8753 22.5941 73.2354 22.8037C73.5954 23.0088 74.0124 23.1113 74.4863 23.1113C74.7917 23.1113 75.0697 23.068 75.3203 22.9814C75.571 22.8903 75.7874 22.7559 75.9697 22.5781C76.152 22.3958 76.291 22.1725 76.3867 21.9082L77.5215 22.2363C77.403 22.6191 77.2025 22.9564 76.9199 23.248C76.6419 23.5352 76.2956 23.7607 75.8809 23.9248C75.4661 24.0843 75.0013 24.1641 74.4863 24.1641Z" fill="#010101"/>
<path d="M105.683 16.3636V17.5568H101.512V16.3636H105.683ZM102.631 14.5341H104.117V21.7578C104.117 22.0462 104.16 22.2633 104.246 22.4091C104.332 22.5516 104.443 22.6494 104.579 22.7024C104.719 22.7521 104.869 22.777 105.032 22.777C105.151 22.777 105.256 22.7687 105.345 22.7521C105.434 22.7356 105.504 22.7223 105.554 22.7124L105.822 23.9403C105.736 23.9735 105.613 24.0066 105.454 24.0398C105.295 24.0762 105.096 24.0961 104.858 24.0994C104.467 24.1061 104.102 24.0365 103.764 23.8906C103.426 23.7448 103.153 23.5194 102.944 23.2145C102.735 22.9096 102.631 22.5268 102.631 22.0661V14.5341ZM110.544 24.1541C109.828 24.1541 109.203 23.9901 108.67 23.6619C108.136 23.3338 107.722 22.8748 107.427 22.2848C107.132 21.6948 106.984 21.0054 106.984 20.2166C106.984 19.4245 107.132 18.7318 107.427 18.1385C107.722 17.5452 108.136 17.0845 108.67 16.7564C109.203 16.4283 109.828 16.2642 110.544 16.2642C111.26 16.2642 111.885 16.4283 112.418 16.7564C112.952 17.0845 113.366 17.5452 113.661 18.1385C113.956 18.7318 114.104 19.4245 114.104 20.2166C114.104 21.0054 113.956 21.6948 113.661 22.2848C113.366 22.8748 112.952 23.3338 112.418 23.6619C111.885 23.9901 111.26 24.1541 110.544 24.1541ZM110.549 22.9062C111.013 22.9062 111.397 22.7836 111.702 22.5384C112.007 22.2931 112.233 21.9666 112.379 21.5589C112.528 21.1513 112.602 20.7022 112.602 20.2116C112.602 19.7244 112.528 19.277 112.379 18.8693C112.233 18.4583 112.007 18.1286 111.702 17.88C111.397 17.6314 111.013 17.5071 110.549 17.5071C110.082 17.5071 109.694 17.6314 109.386 17.88C109.081 18.1286 108.854 18.4583 108.705 18.8693C108.559 19.277 108.486 19.7244 108.486 20.2116C108.486 20.7022 108.559 21.1513 108.705 21.5589C108.854 21.9666 109.081 22.2931 109.386 22.5384C109.694 22.7836 110.082 22.9062 110.549 22.9062ZM123.003 24.1392C122.549 24.1326 122.101 24.0497 121.661 23.8906C121.223 23.7315 120.825 23.4664 120.467 23.0952C120.109 22.724 119.823 22.2251 119.607 21.5987C119.395 20.9723 119.289 20.1901 119.289 19.2521C119.289 18.3639 119.377 17.575 119.553 16.8857C119.732 16.1963 119.988 15.6146 120.323 15.1406C120.658 14.6634 121.062 14.3004 121.536 14.0518C122.01 13.8033 122.542 13.679 123.132 13.679C123.739 13.679 124.277 13.7983 124.748 14.0369C125.219 14.2756 125.6 14.6054 125.891 15.0263C126.186 15.4472 126.374 15.9261 126.453 16.4631H124.937C124.834 16.0388 124.63 15.6925 124.325 15.424C124.02 15.1555 123.623 15.0213 123.132 15.0213C122.386 15.0213 121.805 15.3461 121.387 15.9957C120.973 16.6454 120.764 17.5485 120.761 18.7053H120.835C121.011 18.4169 121.226 18.1716 121.482 17.9695C121.74 17.764 122.028 17.6065 122.347 17.4972C122.668 17.3845 123.006 17.3281 123.361 17.3281C123.951 17.3281 124.484 17.4723 124.962 17.7607C125.442 18.0457 125.825 18.4401 126.11 18.9439C126.395 19.4477 126.538 20.0244 126.538 20.674C126.538 21.3236 126.39 21.9119 126.095 22.4389C125.804 22.9659 125.393 23.3835 124.862 23.6918C124.332 23.9967 123.712 24.1458 123.003 24.1392ZM122.998 22.8466C123.389 22.8466 123.739 22.7505 124.047 22.5582C124.355 22.366 124.599 22.1075 124.778 21.7827C124.957 21.4579 125.046 21.0949 125.046 20.6939C125.046 20.3028 124.958 19.9465 124.783 19.625C124.61 19.3035 124.372 19.0483 124.067 18.8594C123.765 18.6705 123.42 18.576 123.033 18.576C122.738 18.576 122.464 18.6323 122.212 18.745C121.964 18.8577 121.745 19.0135 121.556 19.2124C121.367 19.4112 121.218 19.6399 121.109 19.8984C121.003 20.1536 120.95 20.4238 120.95 20.7088C120.95 21.09 121.037 21.4429 121.213 21.7678C121.392 22.0926 121.636 22.3544 121.944 22.5533C122.255 22.7488 122.607 22.8466 122.998 22.8466ZM131.893 24.169C131.108 24.1657 130.437 23.9586 129.88 23.5476C129.323 23.1366 128.897 22.5384 128.602 21.7528C128.307 20.9673 128.16 20.0211 128.16 18.9141C128.16 17.8104 128.307 16.8674 128.602 16.0852C128.9 15.303 129.328 14.7064 129.885 14.2955C130.445 13.8845 131.114 13.679 131.893 13.679C132.672 13.679 133.34 13.8861 133.897 14.3004C134.454 14.7114 134.88 15.308 135.175 16.0902C135.473 16.8691 135.622 17.8104 135.622 18.9141C135.622 20.0244 135.474 20.9723 135.18 21.7578C134.885 22.54 134.459 23.1383 133.902 23.5526C133.345 23.9635 132.675 24.169 131.893 24.169ZM131.893 22.8416C132.583 22.8416 133.121 22.5052 133.509 21.8324C133.9 21.1596 134.096 20.1868 134.096 18.9141C134.096 18.0689 134.006 17.3546 133.827 16.7713C133.652 16.1847 133.398 15.7405 133.067 15.4389C132.738 15.134 132.347 14.9815 131.893 14.9815C131.207 14.9815 130.669 15.3196 130.278 15.9957C129.886 16.6719 129.689 17.6446 129.686 18.9141C129.686 19.7625 129.774 20.4801 129.949 21.0668C130.128 21.6501 130.382 22.0926 130.71 22.3942C131.038 22.6925 131.433 22.8416 131.893 22.8416ZM142.7 22.0909V21.554C142.7 21.1695 142.78 20.8182 142.939 20.5C143.101 20.1785 143.337 19.9216 143.645 19.7294C143.956 19.5339 144.333 19.4361 144.773 19.4361C145.224 19.4361 145.602 19.5322 145.907 19.7244C146.212 19.9167 146.442 20.1735 146.598 20.495C146.757 20.8165 146.837 21.1695 146.837 21.554V22.0909C146.837 22.4754 146.757 22.8284 146.598 23.1499C146.439 23.468 146.205 23.7249 145.897 23.9205C145.592 24.1127 145.218 24.2088 144.773 24.2088C144.326 24.2088 143.948 24.1127 143.64 23.9205C143.332 23.7249 143.098 23.468 142.939 23.1499C142.78 22.8284 142.7 22.4754 142.7 22.0909ZM143.859 21.554V22.0909C143.859 22.3759 143.927 22.6345 144.062 22.8665C144.198 23.0985 144.435 23.2145 144.773 23.2145C145.108 23.2145 145.342 23.0985 145.474 22.8665C145.607 22.6345 145.673 22.3759 145.673 22.0909V21.554C145.673 21.2689 145.609 21.0104 145.479 20.7784C145.353 20.5464 145.118 20.4304 144.773 20.4304C144.442 20.4304 144.207 20.5464 144.067 20.7784C143.928 21.0104 143.859 21.2689 143.859 21.554ZM137.58 16.2642V15.7273C137.58 15.3428 137.659 14.9898 137.818 14.6683C137.981 14.3468 138.216 14.09 138.524 13.8977C138.836 13.7055 139.212 13.6094 139.653 13.6094C140.103 13.6094 140.481 13.7055 140.786 13.8977C141.091 14.09 141.321 14.3468 141.477 14.6683C141.633 14.9898 141.711 15.3428 141.711 15.7273V16.2642C141.711 16.6487 141.631 17.0017 141.472 17.3232C141.317 17.6413 141.085 17.8982 140.776 18.0938C140.471 18.286 140.097 18.3821 139.653 18.3821C139.202 18.3821 138.822 18.286 138.514 18.0938C138.209 17.8982 137.977 17.6413 137.818 17.3232C137.659 17.0017 137.58 16.6487 137.58 16.2642ZM138.743 15.7273V16.2642C138.743 16.5492 138.809 16.8078 138.942 17.0398C139.078 17.2718 139.315 17.3878 139.653 17.3878C139.984 17.3878 140.216 17.2718 140.349 17.0398C140.485 16.8078 140.553 16.5492 140.553 16.2642V15.7273C140.553 15.4422 140.488 15.1837 140.359 14.9517C140.229 14.7197 139.994 14.6037 139.653 14.6037C139.321 14.6037 139.086 14.7197 138.947 14.9517C138.811 15.1837 138.743 15.4422 138.743 15.7273ZM138.052 24L145.052 13.8182H146.24L139.24 24H138.052Z" fill="#010101"/>
<rect x="10" y="10" width="1" height="44" rx="0.5" fill="#F84204"/>
<rect x="14.1514" y="40" width="1" height="14" rx="0.5" fill="#F84204"/>
<rect x="18.3027" y="40" width="1" height="14" rx="0.5" fill="#F84204"/>
<rect x="22.4541" y="40" width="1" height="14" rx="0.5" fill="#F84204"/>
<rect x="26.6064" y="40" width="1" height="14" rx="0.5" fill="#F84204"/>
<rect x="30.7578" y="40" width="1" height="14" rx="0.5" fill="#F84204"/>
<rect x="34.9092" y="40" width="1" height="14" rx="0.5" fill="#F84204"/>
<rect x="39.0605" y="40" width="1" height="14" rx="0.5" fill="#F84204"/>
<rect x="43.2119" y="40" width="1" height="14" rx="0.5" fill="#F84204"/>
<rect x="47.3633" y="40" width="1" height="14" rx="0.5" fill="#F84204"/>
<rect x="51.5156" y="40" width="1" height="14" rx="0.5" fill="#F84204"/>
<rect x="55.667" y="40" width="1" height="14" rx="0.5" fill="#F84204"/>
<rect x="59.8184" y="40" width="1" height="14" rx="0.5" fill="#F84204"/>
<rect x="63.9697" y="40" width="1" height="14" rx="0.5" fill="#F84204"/>
<rect x="68.1211" y="40" width="1" height="14" rx="0.5" fill="#F84204"/>
<rect x="72.2725" y="40" width="1" height="14" rx="0.5" fill="#F84204"/>
<rect x="76.4238" y="40" width="1" height="14" rx="0.5" fill="#F84204"/>
<rect x="80.5762" y="40" width="1" height="14" rx="0.5" fill="#F84204"/>
<rect x="84.7275" y="40" width="1" height="14" rx="0.5" fill="#F84204"/>
<rect x="88.8789" y="40" width="1" height="14" rx="0.5" fill="#F84204"/>
<rect x="93.0303" y="40" width="1" height="14" rx="0.5" fill="#F84204"/>
<rect x="97.1816" y="40" width="1" height="14" rx="0.5" fill="#F84204"/>
<rect x="101.333" y="40" width="1" height="14" rx="0.5" fill="#F84204"/>
<rect x="105.484" y="40" width="1" height="14" rx="0.5" fill="#D3D3D3"/>
<rect x="109.637" y="40" width="1" height="14" rx="0.5" fill="#D3D3D3"/>
<rect x="113.788" y="40" width="1" height="14" rx="0.5" fill="#D3D3D3"/>
<rect x="117.939" y="40" width="1" height="14" rx="0.5" fill="#D3D3D3"/>
<rect x="122.091" y="40" width="1" height="14" rx="0.5" fill="#D3D3D3"/>
<rect x="126.242" y="40" width="1" height="14" rx="0.5" fill="#D3D3D3"/>
<rect x="130.394" y="40" width="1" height="14" rx="0.5" fill="#D3D3D3"/>
<rect x="134.546" y="40" width="1" height="14" rx="0.5" fill="#D3D3D3"/>
<rect x="138.697" y="40" width="1" height="14" rx="0.5" fill="#D3D3D3"/>
<rect x="142.849" y="40" width="1" height="14" rx="0.5" fill="#D3D3D3"/>
<rect x="147" y="40" width="1" height="14" rx="0.5" fill="#D3D3D3"/>
</svg>
