<svg width="320" height="160" viewBox="0 0 320 160" fill="none" xmlns="http://www.w3.org/2000/svg">
<rect width="320" height="160" rx="20" fill="white"/>
<path d="M42.0156 44V26.5391H47.9219C49.2891 26.5391 50.4062 26.7734 51.2734 27.2422C52.1484 27.7031 52.7969 28.3398 53.2188 29.1523C53.6406 29.957 53.8516 30.875 53.8516 31.9062C53.8516 32.9297 53.6406 33.8398 53.2188 34.6367C52.8047 35.4336 52.1602 36.0586 51.2852 36.5117C50.418 36.957 49.3047 37.1797 47.9453 37.1797H43.1875V35.2812H47.875C48.8125 35.2812 49.5664 35.1445 50.1367 34.8711C50.707 34.5977 51.1211 34.2109 51.3789 33.7109C51.6367 33.2031 51.7656 32.6016 51.7656 31.9062C51.7656 31.2031 51.6328 30.5898 51.3672 30.0664C51.1094 29.543 50.6953 29.1367 50.125 28.8477C49.5547 28.5586 48.7969 28.4141 47.8516 28.4141H44.125V44H42.0156ZM52.0703 44L47.8516 36.1484H50.2422L54.5312 44H52.0703ZM61.3281 44.2812C60.0703 44.2812 58.9805 44 58.0586 43.4375C57.1445 42.875 56.4414 42.0898 55.9492 41.082C55.457 40.0664 55.2109 38.8906 55.2109 37.5547C55.2109 36.2109 55.4531 35.0273 55.9375 34.0039C56.4219 32.9805 57.1016 32.1797 57.9766 31.6016C58.8594 31.0234 59.8906 30.7344 61.0703 30.7344C61.75 30.7344 62.4258 30.8477 63.0977 31.0742C63.7695 31.3008 64.3789 31.668 64.9258 32.1758C65.4805 32.6836 65.9219 33.3555 66.25 34.1914C66.5781 35.0273 66.7422 36.0547 66.7422 37.2734V38.1406H56.6406V36.4062H65.6523L64.7266 37.0625C64.7266 36.1875 64.5898 35.4102 64.3164 34.7305C64.043 34.0508 63.6328 33.5156 63.0859 33.125C62.5469 32.7344 61.875 32.5391 61.0703 32.5391C60.2656 32.5391 59.5742 32.7383 58.9961 33.1367C58.4258 33.5273 57.9883 34.0391 57.6836 34.6719C57.3789 35.3047 57.2266 35.9844 57.2266 36.7109V37.8594C57.2266 38.8516 57.3984 39.6914 57.7422 40.3789C58.0859 41.0664 58.5664 41.5898 59.1836 41.9492C59.8008 42.3008 60.5156 42.4766 61.3281 42.4766C61.8516 42.4766 62.3281 42.4023 62.7578 42.2539C63.1875 42.0977 63.5586 41.8672 63.8711 41.5625C64.1836 41.25 64.4219 40.8672 64.5859 40.4141L66.5312 40.9766C66.3281 41.6328 65.9844 42.2109 65.5 42.7109C65.0234 43.2031 64.4297 43.5898 63.7188 43.8711C63.0078 44.1445 62.2109 44.2812 61.3281 44.2812ZM78.8594 30.8984L74.0312 44H71.9688L67.1406 30.8984H69.3203L72.9297 41.3516H73.0703L76.6797 30.8984H78.8594ZM86.1953 44.3047C84.9453 44.3047 83.8633 44.1055 82.9492 43.707C82.0352 43.3008 81.3164 42.7383 80.793 42.0195C80.2773 41.293 79.9844 40.4531 79.9141 39.5H82.0938C82.1562 40.1562 82.3789 40.6992 82.7617 41.1289C83.1523 41.5586 83.6484 41.8789 84.25 42.0898C84.8516 42.3008 85.5 42.4062 86.1953 42.4062C87 42.4062 87.7227 42.2734 88.3633 42.0078C89.0117 41.7422 89.5234 41.3711 89.8984 40.8945C90.2734 40.418 90.4609 39.8594 90.4609 39.2188C90.4609 38.6406 90.2969 38.1719 89.9688 37.8125C89.6406 37.4531 89.2109 37.1602 88.6797 36.9336C88.1562 36.707 87.5859 36.5078 86.9688 36.3359L84.8359 35.7266C83.4688 35.3359 82.3867 34.7773 81.5898 34.0508C80.8008 33.3164 80.4062 32.3594 80.4062 31.1797C80.4062 30.2031 80.668 29.3516 81.1914 28.625C81.7227 27.8906 82.4375 27.3203 83.3359 26.9141C84.2422 26.5078 85.25 26.3047 86.3594 26.3047C87.4844 26.3047 88.4844 26.5078 89.3594 26.9141C90.2344 27.3125 90.9297 27.8594 91.4453 28.5547C91.9609 29.2422 92.2344 30.0234 92.2656 30.8984H90.2031C90.1016 30.0391 89.6875 29.3711 88.9609 28.8945C88.2422 28.418 87.3516 28.1797 86.2891 28.1797C85.5234 28.1797 84.8516 28.3047 84.2734 28.5547C83.6953 28.8047 83.2461 29.1484 82.9258 29.5859C82.6055 30.0234 82.4453 30.5234 82.4453 31.0859C82.4453 31.7031 82.6367 32.2031 83.0195 32.5859C83.4023 32.9609 83.8555 33.2539 84.3789 33.4648C84.9102 33.6758 85.3906 33.8438 85.8203 33.9688L87.5781 34.4609C88.0312 34.5859 88.5352 34.7539 89.0898 34.9648C89.6523 35.1758 90.1914 35.4609 90.707 35.8203C91.2305 36.1797 91.6602 36.6406 91.9961 37.2031C92.332 37.7578 92.5 38.4453 92.5 39.2656C92.5 40.2031 92.2539 41.0547 91.7617 41.8203C91.2695 42.5781 90.5547 43.1836 89.6172 43.6367C88.6797 44.082 87.5391 44.3047 86.1953 44.3047ZM96.5781 36.125V44H94.5859V26.5391H96.5781V32.9609H96.7656C97.0703 32.2812 97.5273 31.7422 98.1367 31.3438C98.7539 30.9375 99.5781 30.7344 100.609 30.7344C101.5 30.7344 102.281 30.9141 102.953 31.2734C103.625 31.625 104.148 32.168 104.523 32.9023C104.898 33.6289 105.086 34.5547 105.086 35.6797V44H103.07V35.8203C103.07 34.7734 102.801 33.9648 102.262 33.3945C101.723 32.8242 100.977 32.5391 100.023 32.5391C99.3594 32.5391 98.7695 32.6797 98.2539 32.9609C97.7383 33.2422 97.3281 33.6484 97.0234 34.1797C96.7266 34.7109 96.5781 35.3594 96.5781 36.125ZM111.508 44.3047C110.68 44.3047 109.926 44.1484 109.246 43.8359C108.566 43.5156 108.027 43.0547 107.629 42.4531C107.23 41.8516 107.031 41.125 107.031 40.2734C107.031 39.5234 107.18 38.918 107.477 38.457C107.773 37.9883 108.168 37.6211 108.66 37.3555C109.16 37.082 109.707 36.8789 110.301 36.7461C110.902 36.6133 111.508 36.5078 112.117 36.4297C112.914 36.3281 113.559 36.25 114.051 36.1953C114.551 36.1406 114.914 36.0469 115.141 35.9141C115.375 35.7812 115.492 35.5547 115.492 35.2344V35.1641C115.492 34.3281 115.262 33.6797 114.801 33.2188C114.348 32.75 113.656 32.5156 112.727 32.5156C111.773 32.5156 111.023 32.7266 110.477 33.1484C109.93 33.5625 109.547 34.0078 109.328 34.4844L107.406 33.8047C107.75 33.0078 108.207 32.3867 108.777 31.9414C109.355 31.4961 109.98 31.1836 110.652 31.0039C111.332 30.8242 112 30.7344 112.656 30.7344C113.078 30.7344 113.562 30.7852 114.109 30.8867C114.656 30.9805 115.188 31.1836 115.703 31.4961C116.227 31.8008 116.656 32.2656 116.992 32.8906C117.336 33.5078 117.508 34.3359 117.508 35.375V44H115.492V42.2188H115.398C115.266 42.5 115.039 42.8047 114.719 43.1328C114.398 43.4531 113.973 43.7305 113.441 43.9648C112.918 44.1914 112.273 44.3047 111.508 44.3047ZM111.812 42.5C112.609 42.5 113.281 42.3438 113.828 42.0312C114.375 41.7188 114.789 41.3164 115.07 40.8242C115.352 40.3242 115.492 39.8047 115.492 39.2656V37.4141C115.406 37.5156 115.219 37.6094 114.93 37.6953C114.648 37.7734 114.32 37.8438 113.945 37.9062C113.578 37.9688 113.219 38.0234 112.867 38.0703C112.516 38.1094 112.234 38.1406 112.023 38.1641C111.5 38.2344 111.012 38.3477 110.559 38.5039C110.105 38.6523 109.738 38.875 109.457 39.1719C109.184 39.4688 109.047 39.875 109.047 40.3906C109.047 41.0859 109.305 41.6133 109.82 41.9727C110.344 42.3242 111.008 42.5 111.812 42.5ZM120.086 44V30.8984H122.008V32.8906H122.148C122.391 32.2422 122.824 31.7188 123.449 31.3203C124.082 30.9141 124.789 30.7109 125.57 30.7109C125.719 30.7109 125.902 30.7148 126.121 30.7227C126.34 30.7227 126.508 30.7266 126.625 30.7344V32.7734C126.555 32.7578 126.398 32.7344 126.156 32.7031C125.914 32.6719 125.656 32.6562 125.383 32.6562C124.75 32.6562 124.184 32.7891 123.684 33.0547C123.184 33.3203 122.789 33.6836 122.5 34.1445C122.219 34.6055 122.078 35.1328 122.078 35.7266V44H120.086ZM132.977 44.2812C131.719 44.2812 130.629 44 129.707 43.4375C128.793 42.875 128.09 42.0898 127.598 41.082C127.105 40.0664 126.859 38.8906 126.859 37.5547C126.859 36.2109 127.102 35.0273 127.586 34.0039C128.07 32.9805 128.75 32.1797 129.625 31.6016C130.508 31.0234 131.539 30.7344 132.719 30.7344C133.398 30.7344 134.074 30.8477 134.746 31.0742C135.418 31.3008 136.027 31.668 136.574 32.1758C137.129 32.6836 137.57 33.3555 137.898 34.1914C138.227 35.0273 138.391 36.0547 138.391 37.2734V38.1406H128.289V36.4062H137.301L136.375 37.0625C136.375 36.1875 136.238 35.4102 135.965 34.7305C135.691 34.0508 135.281 33.5156 134.734 33.125C134.195 32.7344 133.523 32.5391 132.719 32.5391C131.914 32.5391 131.223 32.7383 130.645 33.1367C130.074 33.5273 129.637 34.0391 129.332 34.6719C129.027 35.3047 128.875 35.9844 128.875 36.7109V37.8594C128.875 38.8516 129.047 39.6914 129.391 40.3789C129.734 41.0664 130.215 41.5898 130.832 41.9492C131.449 42.3008 132.164 42.4766 132.977 42.4766C133.5 42.4766 133.977 42.4023 134.406 42.2539C134.836 42.0977 135.207 41.8672 135.52 41.5625C135.832 41.25 136.07 40.8672 136.234 40.4141L138.18 40.9766C137.977 41.6328 137.633 42.2109 137.148 42.7109C136.672 43.2031 136.078 43.5898 135.367 43.8711C134.656 44.1445 133.859 44.2812 132.977 44.2812Z" fill="#010101"/>
<path d="M179.094 74.1818V77.5909H167.177V74.1818H179.094ZM170.373 68.9545H174.62V89.5938C174.62 90.4176 174.743 91.0379 174.989 91.4545C175.236 91.8617 175.553 92.1411 175.941 92.2926C176.339 92.4347 176.77 92.5057 177.234 92.5057C177.575 92.5057 177.873 92.482 178.129 92.4347C178.384 92.3873 178.583 92.3494 178.725 92.321L179.492 95.8295C179.246 95.9242 178.896 96.0189 178.441 96.1136C177.987 96.2178 177.418 96.2746 176.737 96.2841C175.619 96.303 174.577 96.1042 173.612 95.6875C172.646 95.2708 171.864 94.6269 171.268 93.7557C170.671 92.8845 170.373 91.7907 170.373 90.4744V68.9545ZM192.983 96.4403C190.938 96.4403 189.152 95.9716 187.628 95.0341C186.103 94.0966 184.92 92.785 184.077 91.0994C183.234 89.4138 182.812 87.4441 182.812 85.1903C182.812 82.9271 183.234 80.9479 184.077 79.2528C184.92 77.5578 186.103 76.2415 187.628 75.304C189.152 74.3665 190.938 73.8977 192.983 73.8977C195.028 73.8977 196.813 74.3665 198.338 75.304C199.863 76.2415 201.046 77.5578 201.889 79.2528C202.732 80.9479 203.153 82.9271 203.153 85.1903C203.153 87.4441 202.732 89.4138 201.889 91.0994C201.046 92.785 199.863 94.0966 198.338 95.0341C196.813 95.9716 195.028 96.4403 192.983 96.4403ZM192.997 92.875C194.323 92.875 195.421 92.5246 196.293 91.8239C197.164 91.1231 197.808 90.1903 198.224 89.0256C198.651 87.8608 198.864 86.5777 198.864 85.1761C198.864 83.7841 198.651 82.5057 198.224 81.3409C197.808 80.1667 197.164 79.2244 196.293 78.5142C195.421 77.804 194.323 77.4489 192.997 77.4489C191.662 77.4489 190.554 77.804 189.673 78.5142C188.802 79.2244 188.153 80.1667 187.727 81.3409C187.311 82.5057 187.102 83.7841 187.102 85.1761C187.102 86.5777 187.311 87.8608 187.727 89.0256C188.153 90.1903 188.802 91.1231 189.673 91.8239C190.554 92.5246 191.662 92.875 192.997 92.875ZM228.58 96.3977C227.282 96.3788 226.004 96.142 224.744 95.6875C223.494 95.233 222.358 94.4754 221.335 93.4148C220.313 92.3542 219.493 90.929 218.878 89.1392C218.272 87.3494 217.969 85.1146 217.969 82.4347C217.969 79.8968 218.22 77.643 218.722 75.6733C219.233 73.7036 219.967 72.0417 220.923 70.6875C221.88 69.3239 223.035 68.2869 224.389 67.5767C225.743 66.8665 227.263 66.5114 228.949 66.5114C230.682 66.5114 232.221 66.8523 233.565 67.5341C234.91 68.2159 235.999 69.1581 236.832 70.3608C237.675 71.5634 238.21 72.9318 238.438 74.4659H234.105C233.812 73.2538 233.229 72.2642 232.358 71.4972C231.487 70.7301 230.35 70.3466 228.949 70.3466C226.818 70.3466 225.156 71.2746 223.963 73.1307C222.779 74.9867 222.183 77.5672 222.173 80.8722H222.386C222.888 80.0483 223.504 79.3475 224.233 78.7699C224.972 78.1828 225.795 77.733 226.705 77.4205C227.623 77.0985 228.589 76.9375 229.602 76.9375C231.288 76.9375 232.813 77.3494 234.176 78.1733C235.549 78.9877 236.643 80.1146 237.457 81.554C238.272 82.9934 238.679 84.6411 238.679 86.4972C238.679 88.3532 238.258 90.0341 237.415 91.5398C236.581 93.0455 235.407 94.2386 233.892 95.1193C232.377 95.9905 230.606 96.4167 228.58 96.3977ZM228.565 92.7045C229.683 92.7045 230.682 92.4299 231.562 91.8807C232.443 91.3314 233.139 90.5928 233.651 89.6648C234.162 88.7367 234.418 87.6998 234.418 86.554C234.418 85.4366 234.167 84.4186 233.665 83.5C233.172 82.5814 232.491 81.8523 231.619 81.3125C230.758 80.7727 229.773 80.5028 228.665 80.5028C227.822 80.5028 227.041 80.6638 226.321 80.9858C225.611 81.3078 224.986 81.7528 224.446 82.321C223.906 82.8892 223.48 83.5426 223.168 84.2812C222.865 85.0104 222.713 85.7822 222.713 86.5966C222.713 87.6856 222.964 88.6941 223.466 89.6222C223.977 90.5502 224.673 91.2983 225.554 91.8665C226.444 92.4252 227.448 92.7045 228.565 92.7045ZM253.981 96.483C251.737 96.4735 249.819 95.8816 248.228 94.7074C246.637 93.5331 245.42 91.8239 244.577 89.5795C243.735 87.3352 243.313 84.6316 243.313 81.4688C243.313 78.3153 243.735 75.6212 244.577 73.3864C245.43 71.1515 246.651 69.447 248.242 68.2727C249.843 67.0985 251.755 66.5114 253.981 66.5114C256.206 66.5114 258.114 67.1032 259.705 68.2869C261.296 69.4612 262.513 71.1657 263.356 73.4006C264.208 75.6259 264.634 78.3153 264.634 81.4688C264.634 84.6411 264.213 87.3494 263.37 89.5938C262.527 91.8286 261.31 93.5379 259.719 94.7216C258.129 95.8958 256.216 96.483 253.981 96.483ZM253.981 92.6903C255.951 92.6903 257.489 91.7292 258.597 89.8068C259.715 87.8845 260.273 85.1051 260.273 81.4688C260.273 79.054 260.018 77.0133 259.506 75.3466C259.004 73.6705 258.28 72.4015 257.333 71.5398C256.396 70.6686 255.278 70.233 253.981 70.233C252.021 70.233 250.482 71.1989 249.364 73.1307C248.247 75.0625 247.683 77.8419 247.674 81.4688C247.674 83.893 247.925 85.9432 248.427 87.6193C248.938 89.286 249.663 90.5502 250.6 91.4119C251.538 92.2642 252.665 92.6903 253.981 92.6903ZM284.858 90.5455V89.0114C284.858 87.9129 285.085 86.9091 285.54 86C286.004 85.0814 286.676 84.3475 287.557 83.7983C288.447 83.2396 289.522 82.9602 290.781 82.9602C292.069 82.9602 293.149 83.2348 294.02 83.7841C294.891 84.3333 295.549 85.0672 295.994 85.9858C296.449 86.9044 296.676 87.9129 296.676 89.0114V90.5455C296.676 91.6439 296.449 92.6525 295.994 93.571C295.54 94.4801 294.872 95.214 293.991 95.7727C293.12 96.322 292.05 96.5966 290.781 96.5966C289.503 96.5966 288.423 96.322 287.543 95.7727C286.662 95.214 285.994 94.4801 285.54 93.571C285.085 92.6525 284.858 91.6439 284.858 90.5455ZM288.168 89.0114V90.5455C288.168 91.3598 288.362 92.0985 288.75 92.7614C289.138 93.4242 289.815 93.7557 290.781 93.7557C291.738 93.7557 292.405 93.4242 292.784 92.7614C293.163 92.0985 293.352 91.3598 293.352 90.5455V89.0114C293.352 88.197 293.168 87.4583 292.798 86.7955C292.438 86.1326 291.766 85.8011 290.781 85.8011C289.834 85.8011 289.162 86.1326 288.764 86.7955C288.366 87.4583 288.168 88.197 288.168 89.0114ZM270.227 73.8977V72.3636C270.227 71.2652 270.455 70.2566 270.909 69.3381C271.373 68.4195 272.045 67.6856 272.926 67.1364C273.816 66.5871 274.891 66.3125 276.151 66.3125C277.438 66.3125 278.518 66.5871 279.389 67.1364C280.26 67.6856 280.919 68.4195 281.364 69.3381C281.809 70.2566 282.031 71.2652 282.031 72.3636V73.8977C282.031 74.9962 281.804 76.0047 281.349 76.9233C280.904 77.8324 280.241 78.5663 279.361 79.125C278.49 79.6742 277.42 79.9489 276.151 79.9489C274.863 79.9489 273.778 79.6742 272.898 79.125C272.027 78.5663 271.364 77.8324 270.909 76.9233C270.455 76.0047 270.227 74.9962 270.227 73.8977ZM273.551 72.3636V73.8977C273.551 74.7121 273.741 75.4508 274.119 76.1136C274.508 76.7765 275.185 77.108 276.151 77.108C277.098 77.108 277.76 76.7765 278.139 76.1136C278.527 75.4508 278.722 74.7121 278.722 73.8977V72.3636C278.722 71.5492 278.537 70.8106 278.168 70.1477C277.798 69.4848 277.126 69.1534 276.151 69.1534C275.204 69.1534 274.531 69.4848 274.134 70.1477C273.745 70.8106 273.551 71.5492 273.551 72.3636ZM271.577 96L291.577 66.9091H294.972L274.972 96H271.577Z" fill="#010101"/>
<rect x="20" y="20" width="2" height="120" rx="1" fill="#F84204"/>
<rect x="28.4238" y="120" width="2" height="20" rx="1" fill="#F84204"/>
<rect x="36.8486" y="120" width="2" height="20" rx="1" fill="#F84204"/>
<rect x="45.2725" y="120" width="2" height="20" rx="1" fill="#F84204"/>
<rect x="53.6973" y="120" width="2" height="20" rx="1" fill="#F84204"/>
<rect x="62.1211" y="120" width="2" height="20" rx="1" fill="#F84204"/>
<rect x="70.5454" y="120" width="2" height="20" rx="1" fill="#F84204"/>
<rect x="78.9697" y="120" width="2" height="20" rx="1" fill="#F84204"/>
<rect x="87.394" y="120" width="2" height="20" rx="1" fill="#F84204"/>
<rect x="95.8184" y="120" width="2" height="20" rx="1" fill="#F84204"/>
<rect x="104.242" y="120" width="2" height="20" rx="1" fill="#F84204"/>
<rect x="112.667" y="120" width="2" height="20" rx="1" fill="#F84204"/>
<rect x="121.091" y="120" width="2" height="20" rx="1" fill="#F84204"/>
<rect x="129.515" y="120" width="2" height="20" rx="1" fill="#F84204"/>
<rect x="137.939" y="120" width="2" height="20" rx="1" fill="#F84204"/>
<rect x="146.364" y="120" width="2" height="20" rx="1" fill="#F84204"/>
<rect x="154.788" y="120" width="2" height="20" rx="1" fill="#F84204"/>
<rect x="163.212" y="120" width="2" height="20" rx="1" fill="#F84204"/>
<rect x="171.636" y="120" width="2" height="20" rx="1" fill="#F84204"/>
<rect x="180.061" y="120" width="2" height="20" rx="1" fill="#F84204"/>
<rect x="188.485" y="120" width="2" height="20" rx="1" fill="#F84204"/>
<rect x="196.909" y="120" width="2" height="20" rx="1" fill="#F84204"/>
<rect x="205.333" y="120" width="2" height="20" rx="1" fill="#F84204"/>
<rect x="213.757" y="120" width="2" height="20" rx="1" fill="#D3D3D3"/>
<rect x="222.182" y="120" width="2" height="20" rx="1" fill="#D3D3D3"/>
<rect x="230.606" y="120" width="2" height="20" rx="1" fill="#D3D3D3"/>
<rect x="239.03" y="120" width="2" height="20" rx="1" fill="#D3D3D3"/>
<rect x="247.455" y="120" width="2" height="20" rx="1" fill="#D3D3D3"/>
<rect x="255.879" y="120" width="2" height="20" rx="1" fill="#D3D3D3"/>
<rect x="264.303" y="120" width="2" height="20" rx="1" fill="#D3D3D3"/>
<rect x="272.727" y="120" width="2" height="20" rx="1" fill="#D3D3D3"/>
<rect x="281.151" y="120" width="2" height="20" rx="1" fill="#D3D3D3"/>
<rect x="289.576" y="120" width="2" height="20" rx="1" fill="#D3D3D3"/>
<rect x="298" y="120" width="2" height="20" rx="1" fill="#D3D3D3"/>
</svg>
