<svg width="280" height="150" viewBox="0 0 280 150" fill="none" xmlns="http://www.w3.org/2000/svg">
<rect width="280" height="150" rx="20" fill="white"/>
<path d="M42.0156 44V26.5391H47.9219C49.2891 26.5391 50.4062 26.7734 51.2734 27.2422C52.1484 27.7031 52.7969 28.3398 53.2188 29.1523C53.6406 29.957 53.8516 30.875 53.8516 31.9062C53.8516 32.9297 53.6406 33.8398 53.2188 34.6367C52.8047 35.4336 52.1602 36.0586 51.2852 36.5117C50.418 36.957 49.3047 37.1797 47.9453 37.1797H43.1875V35.2812H47.875C48.8125 35.2812 49.5664 35.1445 50.1367 34.8711C50.707 34.5977 51.1211 34.2109 51.3789 33.7109C51.6367 33.2031 51.7656 32.6016 51.7656 31.9062C51.7656 31.2031 51.6328 30.5898 51.3672 30.0664C51.1094 29.543 50.6953 29.1367 50.125 28.8477C49.5547 28.5586 48.7969 28.4141 47.8516 28.4141H44.125V44H42.0156ZM52.0703 44L47.8516 36.1484H50.2422L54.5312 44H52.0703ZM61.3281 44.2812C60.0703 44.2812 58.9805 44 58.0586 43.4375C57.1445 42.875 56.4414 42.0898 55.9492 41.082C55.457 40.0664 55.2109 38.8906 55.2109 37.5547C55.2109 36.2109 55.4531 35.0273 55.9375 34.0039C56.4219 32.9805 57.1016 32.1797 57.9766 31.6016C58.8594 31.0234 59.8906 30.7344 61.0703 30.7344C61.75 30.7344 62.4258 30.8477 63.0977 31.0742C63.7695 31.3008 64.3789 31.668 64.9258 32.1758C65.4805 32.6836 65.9219 33.3555 66.25 34.1914C66.5781 35.0273 66.7422 36.0547 66.7422 37.2734V38.1406H56.6406V36.4062H65.6523L64.7266 37.0625C64.7266 36.1875 64.5898 35.4102 64.3164 34.7305C64.043 34.0508 63.6328 33.5156 63.0859 33.125C62.5469 32.7344 61.875 32.5391 61.0703 32.5391C60.2656 32.5391 59.5742 32.7383 58.9961 33.1367C58.4258 33.5273 57.9883 34.0391 57.6836 34.6719C57.3789 35.3047 57.2266 35.9844 57.2266 36.7109V37.8594C57.2266 38.8516 57.3984 39.6914 57.7422 40.3789C58.0859 41.0664 58.5664 41.5898 59.1836 41.9492C59.8008 42.3008 60.5156 42.4766 61.3281 42.4766C61.8516 42.4766 62.3281 42.4023 62.7578 42.2539C63.1875 42.0977 63.5586 41.8672 63.8711 41.5625C64.1836 41.25 64.4219 40.8672 64.5859 40.4141L66.5312 40.9766C66.3281 41.6328 65.9844 42.2109 65.5 42.7109C65.0234 43.2031 64.4297 43.5898 63.7188 43.8711C63.0078 44.1445 62.2109 44.2812 61.3281 44.2812ZM78.8594 30.8984L74.0312 44H71.9688L67.1406 30.8984H69.3203L72.9297 41.3516H73.0703L76.6797 30.8984H78.8594ZM86.1953 44.3047C84.9453 44.3047 83.8633 44.1055 82.9492 43.707C82.0352 43.3008 81.3164 42.7383 80.793 42.0195C80.2773 41.293 79.9844 40.4531 79.9141 39.5H82.0938C82.1562 40.1562 82.3789 40.6992 82.7617 41.1289C83.1523 41.5586 83.6484 41.8789 84.25 42.0898C84.8516 42.3008 85.5 42.4062 86.1953 42.4062C87 42.4062 87.7227 42.2734 88.3633 42.0078C89.0117 41.7422 89.5234 41.3711 89.8984 40.8945C90.2734 40.418 90.4609 39.8594 90.4609 39.2188C90.4609 38.6406 90.2969 38.1719 89.9688 37.8125C89.6406 37.4531 89.2109 37.1602 88.6797 36.9336C88.1562 36.707 87.5859 36.5078 86.9688 36.3359L84.8359 35.7266C83.4688 35.3359 82.3867 34.7773 81.5898 34.0508C80.8008 33.3164 80.4062 32.3594 80.4062 31.1797C80.4062 30.2031 80.668 29.3516 81.1914 28.625C81.7227 27.8906 82.4375 27.3203 83.3359 26.9141C84.2422 26.5078 85.25 26.3047 86.3594 26.3047C87.4844 26.3047 88.4844 26.5078 89.3594 26.9141C90.2344 27.3125 90.9297 27.8594 91.4453 28.5547C91.9609 29.2422 92.2344 30.0234 92.2656 30.8984H90.2031C90.1016 30.0391 89.6875 29.3711 88.9609 28.8945C88.2422 28.418 87.3516 28.1797 86.2891 28.1797C85.5234 28.1797 84.8516 28.3047 84.2734 28.5547C83.6953 28.8047 83.2461 29.1484 82.9258 29.5859C82.6055 30.0234 82.4453 30.5234 82.4453 31.0859C82.4453 31.7031 82.6367 32.2031 83.0195 32.5859C83.4023 32.9609 83.8555 33.2539 84.3789 33.4648C84.9102 33.6758 85.3906 33.8438 85.8203 33.9688L87.5781 34.4609C88.0312 34.5859 88.5352 34.7539 89.0898 34.9648C89.6523 35.1758 90.1914 35.4609 90.707 35.8203C91.2305 36.1797 91.6602 36.6406 91.9961 37.2031C92.332 37.7578 92.5 38.4453 92.5 39.2656C92.5 40.2031 92.2539 41.0547 91.7617 41.8203C91.2695 42.5781 90.5547 43.1836 89.6172 43.6367C88.6797 44.082 87.5391 44.3047 86.1953 44.3047ZM96.5781 36.125V44H94.5859V26.5391H96.5781V32.9609H96.7656C97.0703 32.2812 97.5273 31.7422 98.1367 31.3438C98.7539 30.9375 99.5781 30.7344 100.609 30.7344C101.5 30.7344 102.281 30.9141 102.953 31.2734C103.625 31.625 104.148 32.168 104.523 32.9023C104.898 33.6289 105.086 34.5547 105.086 35.6797V44H103.07V35.8203C103.07 34.7734 102.801 33.9648 102.262 33.3945C101.723 32.8242 100.977 32.5391 100.023 32.5391C99.3594 32.5391 98.7695 32.6797 98.2539 32.9609C97.7383 33.2422 97.3281 33.6484 97.0234 34.1797C96.7266 34.7109 96.5781 35.3594 96.5781 36.125ZM111.508 44.3047C110.68 44.3047 109.926 44.1484 109.246 43.8359C108.566 43.5156 108.027 43.0547 107.629 42.4531C107.23 41.8516 107.031 41.125 107.031 40.2734C107.031 39.5234 107.18 38.918 107.477 38.457C107.773 37.9883 108.168 37.6211 108.66 37.3555C109.16 37.082 109.707 36.8789 110.301 36.7461C110.902 36.6133 111.508 36.5078 112.117 36.4297C112.914 36.3281 113.559 36.25 114.051 36.1953C114.551 36.1406 114.914 36.0469 115.141 35.9141C115.375 35.7812 115.492 35.5547 115.492 35.2344V35.1641C115.492 34.3281 115.262 33.6797 114.801 33.2188C114.348 32.75 113.656 32.5156 112.727 32.5156C111.773 32.5156 111.023 32.7266 110.477 33.1484C109.93 33.5625 109.547 34.0078 109.328 34.4844L107.406 33.8047C107.75 33.0078 108.207 32.3867 108.777 31.9414C109.355 31.4961 109.98 31.1836 110.652 31.0039C111.332 30.8242 112 30.7344 112.656 30.7344C113.078 30.7344 113.562 30.7852 114.109 30.8867C114.656 30.9805 115.188 31.1836 115.703 31.4961C116.227 31.8008 116.656 32.2656 116.992 32.8906C117.336 33.5078 117.508 34.3359 117.508 35.375V44H115.492V42.2188H115.398C115.266 42.5 115.039 42.8047 114.719 43.1328C114.398 43.4531 113.973 43.7305 113.441 43.9648C112.918 44.1914 112.273 44.3047 111.508 44.3047ZM111.812 42.5C112.609 42.5 113.281 42.3438 113.828 42.0312C114.375 41.7188 114.789 41.3164 115.07 40.8242C115.352 40.3242 115.492 39.8047 115.492 39.2656V37.4141C115.406 37.5156 115.219 37.6094 114.93 37.6953C114.648 37.7734 114.32 37.8438 113.945 37.9062C113.578 37.9688 113.219 38.0234 112.867 38.0703C112.516 38.1094 112.234 38.1406 112.023 38.1641C111.5 38.2344 111.012 38.3477 110.559 38.5039C110.105 38.6523 109.738 38.875 109.457 39.1719C109.184 39.4688 109.047 39.875 109.047 40.3906C109.047 41.0859 109.305 41.6133 109.82 41.9727C110.344 42.3242 111.008 42.5 111.812 42.5ZM120.086 44V30.8984H122.008V32.8906H122.148C122.391 32.2422 122.824 31.7188 123.449 31.3203C124.082 30.9141 124.789 30.7109 125.57 30.7109C125.719 30.7109 125.902 30.7148 126.121 30.7227C126.34 30.7227 126.508 30.7266 126.625 30.7344V32.7734C126.555 32.7578 126.398 32.7344 126.156 32.7031C125.914 32.6719 125.656 32.6562 125.383 32.6562C124.75 32.6562 124.184 32.7891 123.684 33.0547C123.184 33.3203 122.789 33.6836 122.5 34.1445C122.219 34.6055 122.078 35.1328 122.078 35.7266V44H120.086ZM132.977 44.2812C131.719 44.2812 130.629 44 129.707 43.4375C128.793 42.875 128.09 42.0898 127.598 41.082C127.105 40.0664 126.859 38.8906 126.859 37.5547C126.859 36.2109 127.102 35.0273 127.586 34.0039C128.07 32.9805 128.75 32.1797 129.625 31.6016C130.508 31.0234 131.539 30.7344 132.719 30.7344C133.398 30.7344 134.074 30.8477 134.746 31.0742C135.418 31.3008 136.027 31.668 136.574 32.1758C137.129 32.6836 137.57 33.3555 137.898 34.1914C138.227 35.0273 138.391 36.0547 138.391 37.2734V38.1406H128.289V36.4062H137.301L136.375 37.0625C136.375 36.1875 136.238 35.4102 135.965 34.7305C135.691 34.0508 135.281 33.5156 134.734 33.125C134.195 32.7344 133.523 32.5391 132.719 32.5391C131.914 32.5391 131.223 32.7383 130.645 33.1367C130.074 33.5273 129.637 34.0391 129.332 34.6719C129.027 35.3047 128.875 35.9844 128.875 36.7109V37.8594C128.875 38.8516 129.047 39.6914 129.391 40.3789C129.734 41.0664 130.215 41.5898 130.832 41.9492C131.449 42.3008 132.164 42.4766 132.977 42.4766C133.5 42.4766 133.977 42.4023 134.406 42.2539C134.836 42.0977 135.207 41.8672 135.52 41.5625C135.832 41.25 136.07 40.8672 136.234 40.4141L138.18 40.9766C137.977 41.6328 137.633 42.2109 137.148 42.7109C136.672 43.2031 136.078 43.5898 135.367 43.8711C134.656 44.1445 133.859 44.2812 132.977 44.2812Z" fill="#010101"/>
<rect x="20" y="20" width="2" height="110" rx="1" fill="#F84204"/>
<rect x="27.2119" y="110" width="2" height="20" rx="1" fill="#F84204"/>
<rect x="34.4238" y="110" width="2" height="20" rx="1" fill="#F84204"/>
<rect x="41.6367" y="110" width="2" height="20" rx="1" fill="#F84204"/>
<rect x="48.8486" y="110" width="2" height="20" rx="1" fill="#F84204"/>
<rect x="56.0605" y="110" width="2" height="20" rx="1" fill="#F84204"/>
<rect x="63.2725" y="110" width="2" height="20" rx="1" fill="#F84204"/>
<rect x="70.4844" y="110" width="2" height="20" rx="1" fill="#F84204"/>
<rect x="77.6973" y="110" width="2" height="20" rx="1" fill="#F84204"/>
<rect x="84.9092" y="110" width="2" height="20" rx="1" fill="#F84204"/>
<rect x="92.1211" y="110" width="2" height="20" rx="1" fill="#F84204"/>
<rect x="99.333" y="110" width="2" height="20" rx="1" fill="#F84204"/>
<rect x="106.546" y="110" width="2" height="20" rx="1" fill="#F84204"/>
<rect x="113.758" y="110" width="2" height="20" rx="1" fill="#F84204"/>
<rect x="120.97" y="110" width="2" height="20" rx="1" fill="#F84204"/>
<rect x="128.182" y="110" width="2" height="20" rx="1" fill="#F84204"/>
<rect x="135.394" y="110" width="2" height="20" rx="1" fill="#F84204"/>
<rect x="142.606" y="110" width="2" height="20" rx="1" fill="#F84204"/>
<rect x="149.818" y="110" width="2" height="20" rx="1" fill="#F84204"/>
<rect x="157.03" y="110" width="2" height="20" rx="1" fill="#F84204"/>
<rect x="164.242" y="110" width="2" height="20" rx="1" fill="#F84204"/>
<rect x="171.454" y="110" width="2" height="20" rx="1" fill="#F84204"/>
<rect x="178.667" y="110" width="2" height="20" rx="1" fill="#F84204"/>
<rect x="185.879" y="110" width="2" height="20" rx="1" fill="#D3D3D3"/>
<rect x="193.091" y="110" width="2" height="20" rx="1" fill="#D3D3D3"/>
<rect x="200.303" y="110" width="2" height="20" rx="1" fill="#D3D3D3"/>
<rect x="207.516" y="110" width="2" height="20" rx="1" fill="#D3D3D3"/>
<rect x="214.728" y="110" width="2" height="20" rx="1" fill="#D3D3D3"/>
<rect x="221.939" y="110" width="2" height="20" rx="1" fill="#D3D3D3"/>
<rect x="229.151" y="110" width="2" height="20" rx="1" fill="#D3D3D3"/>
<rect x="236.363" y="110" width="2" height="20" rx="1" fill="#D3D3D3"/>
<rect x="243.576" y="110" width="2" height="20" rx="1" fill="#D3D3D3"/>
<rect x="250.788" y="110" width="2" height="20" rx="1" fill="#D3D3D3"/>
<rect x="258" y="110" width="2" height="20" rx="1" fill="#D3D3D3"/>
<path d="M158.38 72.4545V74.8693H148.77V72.4545H158.38ZM151.571 68.0114H154.42V85.6875C154.42 86.4924 154.537 87.0961 154.77 87.4986C155.012 87.893 155.318 88.1586 155.688 88.2955C156.066 88.4242 156.465 88.4886 156.883 88.4886C157.197 88.4886 157.455 88.4725 157.656 88.4403C157.857 88.4001 158.018 88.3679 158.139 88.3438L158.718 90.9034C158.525 90.9759 158.256 91.0483 157.909 91.1207C157.563 91.2012 157.125 91.2415 156.593 91.2415C155.788 91.2415 155 91.0684 154.227 90.7223C153.462 90.3762 152.826 89.849 152.319 89.1406C151.82 88.4323 151.571 87.5388 151.571 86.4602V68.0114ZM170.201 91.3864C168.526 91.3864 167.057 90.9879 165.794 90.1911C164.538 89.3942 163.556 88.2794 162.848 86.8466C162.147 85.4138 161.797 83.7396 161.797 81.8239C161.797 79.892 162.147 78.2057 162.848 76.7649C163.556 75.3241 164.538 74.2053 165.794 73.4084C167.057 72.6115 168.526 72.2131 170.201 72.2131C171.875 72.2131 173.34 72.6115 174.596 73.4084C175.859 74.2053 176.841 75.3241 177.542 76.7649C178.25 78.2057 178.604 79.892 178.604 81.8239C178.604 83.7396 178.25 85.4138 177.542 86.8466C176.841 88.2794 175.859 89.3942 174.596 90.1911C173.34 90.9879 171.875 91.3864 170.201 91.3864ZM170.201 88.8267C171.472 88.8267 172.519 88.5007 173.34 87.8487C174.161 87.1967 174.769 86.3395 175.163 85.277C175.557 84.2145 175.755 83.0634 175.755 81.8239C175.755 80.5843 175.557 79.4292 175.163 78.3587C174.769 77.2881 174.161 76.4228 173.34 75.7628C172.519 75.1027 171.472 74.7727 170.201 74.7727C168.929 74.7727 167.882 75.1027 167.061 75.7628C166.24 76.4228 165.633 77.2881 165.238 78.3587C164.844 79.4292 164.647 80.5843 164.647 81.8239C164.647 83.0634 164.844 84.2145 165.238 85.277C165.633 86.3395 166.24 87.1967 167.061 87.8487C167.882 88.5007 168.929 88.8267 170.201 88.8267ZM200.678 91.3381C199.664 91.322 198.65 91.1288 197.635 90.7585C196.621 90.3883 195.696 89.7644 194.858 88.8871C194.021 88.0017 193.349 86.8063 192.842 85.3011C192.335 83.7879 192.081 81.8883 192.081 79.6023C192.081 77.4129 192.287 75.473 192.697 73.7827C193.108 72.0843 193.703 70.6555 194.484 69.4964C195.265 68.3293 196.207 67.4439 197.309 66.8402C198.42 66.2365 199.672 65.9347 201.064 65.9347C202.449 65.9347 203.68 66.2124 204.759 66.7678C205.846 67.3151 206.731 68.0798 207.415 69.0618C208.099 70.0438 208.542 71.1747 208.743 72.4545H205.797C205.524 71.3437 204.992 70.4221 204.204 69.6896C203.415 68.9571 202.368 68.5909 201.064 68.5909C199.149 68.5909 197.64 69.424 196.537 71.0902C195.442 72.7564 194.891 75.0947 194.883 78.1051H195.076C195.527 77.4209 196.062 76.8374 196.682 76.3544C197.309 75.8634 198.002 75.4851 198.758 75.2195C199.515 74.9538 200.316 74.821 201.161 74.821C202.578 74.821 203.874 75.1752 205.049 75.8835C206.224 76.5838 207.166 77.5537 207.874 78.7933C208.582 80.0249 208.937 81.4375 208.937 83.0312C208.937 84.5606 208.595 85.9612 207.91 87.233C207.226 88.4967 206.264 89.5028 205.025 90.2514C203.793 90.992 202.344 91.3542 200.678 91.3381ZM200.678 88.6818C201.692 88.6818 202.602 88.4283 203.407 87.9212C204.22 87.4141 204.86 86.7339 205.327 85.8807C205.801 85.0275 206.039 84.0777 206.039 83.0312C206.039 82.009 205.809 81.0793 205.351 80.2422C204.9 79.397 204.276 78.7249 203.479 78.2259C202.69 77.7268 201.789 77.4773 200.775 77.4773C200.01 77.4773 199.298 77.6302 198.638 77.9361C197.978 78.2339 197.398 78.6444 196.899 79.1676C196.408 79.6908 196.022 80.2905 195.74 80.9666C195.458 81.6347 195.317 82.339 195.317 83.0795C195.317 84.0616 195.547 84.9792 196.006 85.8324C196.472 86.6856 197.108 87.3738 197.913 87.897C198.726 88.4202 199.648 88.6818 200.678 88.6818ZM221.75 91.3381C219.931 91.3381 218.381 90.843 217.102 89.853C215.822 88.8549 214.844 87.41 214.168 85.5185C213.491 83.6188 213.153 81.3248 213.153 78.6364C213.153 75.964 213.491 73.6821 214.168 71.7905C214.852 69.8909 215.834 68.442 217.114 67.4439C218.402 66.4377 219.947 65.9347 221.75 65.9347C223.553 65.9347 225.094 66.4377 226.374 67.4439C227.662 68.442 228.644 69.8909 229.32 71.7905C230.004 73.6821 230.347 75.964 230.347 78.6364C230.347 81.3248 230.009 83.6188 229.332 85.5185C228.656 87.41 227.678 88.8549 226.398 89.853C225.119 90.843 223.569 91.3381 221.75 91.3381ZM221.75 88.6818C223.553 88.6818 224.954 87.8125 225.952 86.0739C226.95 84.3352 227.449 81.8561 227.449 78.6364C227.449 76.4953 227.219 74.6721 226.761 73.1669C226.31 71.6617 225.658 70.5147 224.805 69.7259C223.96 68.937 222.941 68.5426 221.75 68.5426C219.963 68.5426 218.567 69.424 217.56 71.1868C216.554 72.9415 216.051 75.4247 216.051 78.6364C216.051 80.7775 216.277 82.5966 216.727 84.0938C217.178 85.5909 217.826 86.7299 218.671 87.5107C219.524 88.2914 220.551 88.6818 221.75 88.6818ZM247.54 86.3636V85.0597C247.54 84.1581 247.725 83.3331 248.095 82.5845C248.473 81.8279 249.021 81.2242 249.737 80.7734C250.462 80.3146 251.339 80.0852 252.369 80.0852C253.416 80.0852 254.293 80.3146 255.001 80.7734C255.71 81.2242 256.245 81.8279 256.607 82.5845C256.969 83.3331 257.151 84.1581 257.151 85.0597V86.3636C257.151 87.2652 256.965 88.0942 256.595 88.8509C256.233 89.5994 255.694 90.2031 254.977 90.6619C254.269 91.1127 253.4 91.3381 252.369 91.3381C251.323 91.3381 250.442 91.1127 249.725 90.6619C249.009 90.2031 248.465 89.5994 248.095 88.8509C247.725 88.0942 247.54 87.2652 247.54 86.3636ZM250.003 85.0597V86.3636C250.003 87.1122 250.18 87.7843 250.534 88.38C250.888 88.9676 251.5 89.2614 252.369 89.2614C253.214 89.2614 253.81 88.9676 254.156 88.38C254.51 87.7843 254.688 87.1122 254.688 86.3636V85.0597C254.688 84.3111 254.518 83.643 254.18 83.0554C253.842 82.4598 253.239 82.1619 252.369 82.1619C251.524 82.1619 250.916 82.4598 250.546 83.0554C250.184 83.643 250.003 84.3111 250.003 85.0597ZM235.224 72.2131V70.9091C235.224 70.0076 235.41 69.1825 235.78 68.4339C236.158 67.6773 236.705 67.0736 237.422 66.6229C238.146 66.1641 239.024 65.9347 240.054 65.9347C241.1 65.9347 241.978 66.1641 242.686 66.6229C243.394 67.0736 243.93 67.6773 244.292 68.4339C244.654 69.1825 244.835 70.0076 244.835 70.9091V72.2131C244.835 73.1146 244.65 73.9437 244.28 74.7003C243.918 75.4489 243.378 76.0526 242.662 76.5114C241.954 76.9621 241.084 77.1875 240.054 77.1875C239.008 77.1875 238.126 76.9621 237.41 76.5114C236.693 76.0526 236.15 75.4489 235.78 74.7003C235.41 73.9437 235.224 73.1146 235.224 72.2131ZM237.688 70.9091V72.2131C237.688 72.9616 237.865 73.6338 238.219 74.2294C238.573 74.817 239.185 75.1108 240.054 75.1108C240.899 75.1108 241.495 74.817 241.841 74.2294C242.195 73.6338 242.372 72.9616 242.372 72.2131V70.9091C242.372 70.1605 242.203 69.4924 241.865 68.9048C241.527 68.3092 240.923 68.0114 240.054 68.0114C239.209 68.0114 238.601 68.3092 238.231 68.9048C237.869 69.4924 237.688 70.1605 237.688 70.9091ZM236.142 91L253.142 66.2727H255.895L238.895 91H236.142Z" fill="#010101"/>
</svg>
