<svg width="158" height="64" viewBox="0 0 158 64" fill="none" xmlns="http://www.w3.org/2000/svg">
<rect width="158" height="64" rx="10" fill="white"/>
<path d="M21.4258 24V13.8145H24.8711C25.6686 13.8145 26.3203 13.9512 26.8262 14.2246C27.3366 14.4935 27.7148 14.8649 27.9609 15.3389C28.207 15.8083 28.3301 16.3438 28.3301 16.9453C28.3301 17.5423 28.207 18.0732 27.9609 18.5381C27.7194 19.0029 27.3434 19.3675 26.833 19.6318C26.3271 19.8916 25.6777 20.0215 24.8848 20.0215H22.1094V18.9141H24.8438C25.3906 18.9141 25.8304 18.8343 26.1631 18.6748C26.4958 18.5153 26.7373 18.2897 26.8877 17.998C27.0381 17.7018 27.1133 17.3509 27.1133 16.9453C27.1133 16.5352 27.0358 16.1774 26.8809 15.8721C26.7305 15.5667 26.4889 15.3298 26.1562 15.1611C25.8236 14.9925 25.3815 14.9082 24.8301 14.9082H22.6562V24H21.4258ZM27.291 24L24.8301 19.4199H26.2246L28.7266 24H27.291ZM32.6914 24.1641C31.9577 24.1641 31.3219 24 30.7842 23.6719C30.251 23.3438 29.8408 22.8857 29.5537 22.2979C29.2666 21.7054 29.123 21.0195 29.123 20.2402C29.123 19.4564 29.2643 18.766 29.5469 18.1689C29.8294 17.5719 30.2259 17.1048 30.7363 16.7676C31.2513 16.4303 31.8529 16.2617 32.541 16.2617C32.9375 16.2617 33.3317 16.3278 33.7236 16.46C34.1156 16.5921 34.471 16.8063 34.79 17.1025C35.1136 17.3988 35.3711 17.7907 35.5625 18.2783C35.7539 18.766 35.8496 19.3652 35.8496 20.0762V20.582H29.957V19.5703H35.2139L34.6738 19.9531C34.6738 19.4427 34.5941 18.9893 34.4346 18.5928C34.2751 18.1963 34.0358 17.8841 33.7168 17.6562C33.4023 17.4284 33.0104 17.3145 32.541 17.3145C32.0716 17.3145 31.6683 17.4307 31.3311 17.6631C30.9984 17.891 30.7432 18.1895 30.5654 18.5586C30.3877 18.9277 30.2988 19.3242 30.2988 19.748V20.418C30.2988 20.9967 30.3991 21.4867 30.5996 21.8877C30.8001 22.2887 31.0804 22.5941 31.4404 22.8037C31.8005 23.0088 32.2174 23.1113 32.6914 23.1113C32.9967 23.1113 33.2747 23.068 33.5254 22.9814C33.776 22.8903 33.9925 22.7559 34.1748 22.5781C34.3571 22.3958 34.4961 22.1725 34.5918 21.9082L35.7266 22.2363C35.6081 22.6191 35.4076 22.9564 35.125 23.248C34.847 23.5352 34.5007 23.7607 34.0859 23.9248C33.6712 24.0843 33.2064 24.1641 32.6914 24.1641ZM42.918 16.3574L40.1016 24H38.8984L36.082 16.3574H37.3535L39.459 22.4551H39.541L41.6465 16.3574H42.918ZM47.1973 24.1777C46.4681 24.1777 45.8369 24.0615 45.3037 23.8291C44.7705 23.5921 44.3512 23.264 44.0459 22.8447C43.7451 22.4209 43.5742 21.931 43.5332 21.375H44.8047C44.8411 21.7578 44.971 22.0745 45.1943 22.3252C45.4222 22.5758 45.7116 22.7627 46.0625 22.8857C46.4134 23.0088 46.7917 23.0703 47.1973 23.0703C47.6667 23.0703 48.0882 22.9928 48.4619 22.8379C48.8402 22.6829 49.1387 22.4665 49.3574 22.1885C49.5762 21.9105 49.6855 21.5846 49.6855 21.2109C49.6855 20.8737 49.5898 20.6003 49.3984 20.3906C49.207 20.181 48.9564 20.0101 48.6465 19.8779C48.3411 19.7458 48.0085 19.6296 47.6484 19.5293L46.4043 19.1738C45.6068 18.946 44.9756 18.6201 44.5107 18.1963C44.0505 17.7679 43.8203 17.2096 43.8203 16.5215C43.8203 15.9518 43.973 15.4551 44.2783 15.0312C44.5882 14.6029 45.0052 14.2702 45.5293 14.0332C46.0579 13.7962 46.6458 13.6777 47.293 13.6777C47.9492 13.6777 48.5326 13.7962 49.043 14.0332C49.5534 14.2656 49.959 14.5846 50.2598 14.9902C50.5605 15.3913 50.7201 15.847 50.7383 16.3574H49.5352C49.4759 15.8561 49.2344 15.4665 48.8105 15.1885C48.3913 14.9105 47.8717 14.7715 47.252 14.7715C46.8053 14.7715 46.4134 14.8444 46.0762 14.9902C45.7389 15.1361 45.4769 15.3366 45.29 15.5918C45.1032 15.847 45.0098 16.1387 45.0098 16.4668C45.0098 16.8268 45.1214 17.1185 45.3447 17.3418C45.568 17.5605 45.8324 17.7314 46.1377 17.8545C46.4476 17.9775 46.7279 18.0755 46.9785 18.1484L48.0039 18.4355C48.2682 18.5085 48.5622 18.6064 48.8857 18.7295C49.2139 18.8525 49.5283 19.0189 49.8291 19.2285C50.1344 19.4382 50.3851 19.707 50.5811 20.0352C50.777 20.3587 50.875 20.7598 50.875 21.2383C50.875 21.7852 50.7314 22.2819 50.4443 22.7285C50.1572 23.1706 49.7402 23.5238 49.1934 23.7881C48.6465 24.0479 47.9811 24.1777 47.1973 24.1777ZM53.2539 19.4062V24H52.0918V13.8145H53.2539V17.5605H53.3633C53.541 17.1641 53.8076 16.8496 54.1631 16.6172C54.5231 16.3802 55.0039 16.2617 55.6055 16.2617C56.125 16.2617 56.5807 16.3665 56.9727 16.5762C57.3646 16.7812 57.6699 17.098 57.8887 17.5264C58.1074 17.9502 58.2168 18.4902 58.2168 19.1465V24H57.041V19.2285C57.041 18.6178 56.8838 18.1462 56.5693 17.8135C56.2549 17.4808 55.8197 17.3145 55.2637 17.3145C54.8763 17.3145 54.5322 17.3965 54.2314 17.5605C53.9307 17.7246 53.6914 17.9616 53.5137 18.2715C53.3405 18.5814 53.2539 18.9596 53.2539 19.4062ZM61.9629 24.1777C61.4798 24.1777 61.04 24.0866 60.6436 23.9043C60.2471 23.7174 59.9326 23.4486 59.7002 23.0977C59.4678 22.7467 59.3516 22.3229 59.3516 21.8262C59.3516 21.3887 59.4382 21.0355 59.6113 20.7666C59.7845 20.4932 60.0146 20.279 60.3018 20.124C60.5934 19.9645 60.9124 19.846 61.2588 19.7686C61.6097 19.6911 61.9629 19.6296 62.3184 19.584C62.7832 19.5247 63.1592 19.4792 63.4463 19.4473C63.738 19.4154 63.9499 19.3607 64.082 19.2832C64.2188 19.2057 64.2871 19.0736 64.2871 18.8867V18.8457C64.2871 18.3581 64.1527 17.9798 63.8838 17.7109C63.6195 17.4375 63.2161 17.3008 62.6738 17.3008C62.1178 17.3008 61.6803 17.4238 61.3613 17.6699C61.0423 17.9115 60.819 18.1712 60.6914 18.4492L59.5703 18.0527C59.7708 17.5879 60.0374 17.2256 60.3701 16.9658C60.7074 16.7061 61.0719 16.5238 61.4639 16.4189C61.8604 16.3141 62.25 16.2617 62.6328 16.2617C62.8789 16.2617 63.1615 16.2913 63.4805 16.3506C63.7995 16.4053 64.1094 16.5238 64.4102 16.7061C64.7155 16.8838 64.9661 17.1549 65.1621 17.5195C65.3626 17.8796 65.4629 18.3626 65.4629 18.9688V24H64.2871V22.9609H64.2324C64.1549 23.125 64.0228 23.3027 63.8359 23.4941C63.6491 23.681 63.4007 23.8428 63.0908 23.9795C62.7855 24.1117 62.4095 24.1777 61.9629 24.1777ZM62.1406 23.125C62.6055 23.125 62.9974 23.0339 63.3164 22.8516C63.6354 22.6693 63.877 22.4346 64.041 22.1475C64.2051 21.8558 64.2871 21.5527 64.2871 21.2383V20.1582C64.237 20.2174 64.1276 20.2721 63.959 20.3223C63.7949 20.3678 63.6035 20.4089 63.3848 20.4453C63.1706 20.4818 62.9609 20.5137 62.7559 20.541C62.5508 20.5638 62.3867 20.582 62.2637 20.5957C61.9583 20.6367 61.6735 20.7028 61.4092 20.7939C61.1449 20.8805 60.9307 21.0104 60.7666 21.1836C60.6071 21.3568 60.5273 21.5938 60.5273 21.8945C60.5273 22.3001 60.6777 22.6077 60.9785 22.8174C61.2839 23.0225 61.6712 23.125 62.1406 23.125ZM66.9668 24V16.3574H68.0879V17.5195H68.1699C68.3112 17.1413 68.5641 16.8359 68.9287 16.6035C69.2979 16.3665 69.7103 16.248 70.166 16.248C70.2526 16.248 70.3597 16.2503 70.4873 16.2549C70.6149 16.2549 70.7129 16.2572 70.7812 16.2617V17.4512C70.7402 17.4421 70.6491 17.4284 70.5078 17.4102C70.3665 17.3919 70.2161 17.3828 70.0566 17.3828C69.6875 17.3828 69.3571 17.4603 69.0654 17.6152C68.7738 17.7702 68.5436 17.9821 68.375 18.251C68.2109 18.5199 68.1289 18.8275 68.1289 19.1738V24H66.9668ZM74.4863 24.1641C73.7526 24.1641 73.1169 24 72.5791 23.6719C72.0459 23.3438 71.6357 22.8857 71.3486 22.2979C71.0615 21.7054 70.918 21.0195 70.918 20.2402C70.918 19.4564 71.0592 18.766 71.3418 18.1689C71.6243 17.5719 72.0208 17.1048 72.5312 16.7676C73.0462 16.4303 73.6478 16.2617 74.3359 16.2617C74.7324 16.2617 75.1266 16.3278 75.5186 16.46C75.9105 16.5921 76.266 16.8063 76.585 17.1025C76.9085 17.3988 77.166 17.7907 77.3574 18.2783C77.5488 18.766 77.6445 19.3652 77.6445 20.0762V20.582H71.752V19.5703H77.0088L76.4688 19.9531C76.4688 19.4427 76.389 18.9893 76.2295 18.5928C76.07 18.1963 75.8307 17.8841 75.5117 17.6562C75.1973 17.4284 74.8053 17.3145 74.3359 17.3145C73.8665 17.3145 73.4632 17.4307 73.126 17.6631C72.7933 17.891 72.5381 18.1895 72.3604 18.5586C72.1826 18.9277 72.0938 19.3242 72.0938 19.748V20.418C72.0938 20.9967 72.194 21.4867 72.3945 21.8877C72.5951 22.2887 72.8753 22.5941 73.2354 22.8037C73.5954 23.0088 74.0124 23.1113 74.4863 23.1113C74.7917 23.1113 75.0697 23.068 75.3203 22.9814C75.571 22.8903 75.7874 22.7559 75.9697 22.5781C76.152 22.3958 76.291 22.1725 76.3867 21.9082L77.5215 22.2363C77.403 22.6191 77.2025 22.9564 76.9199 23.248C76.6419 23.5352 76.2956 23.7607 75.8809 23.9248C75.4661 24.0843 75.0013 24.1641 74.4863 24.1641Z" fill="#010101"/>
<path d="M100.914 26.2012V22.7148H101.529C101.689 22.569 101.826 22.3958 101.939 22.1953C102.053 21.9902 102.147 21.7487 102.22 21.4707C102.297 21.1882 102.363 20.8623 102.418 20.4932C102.473 20.124 102.521 19.6979 102.562 19.2148L102.801 16.3574H107.989V22.7148H109.165V26.2012H107.709V24H102.391V26.2012H100.914ZM103.129 22.7148H106.54V17.6289H104.127L103.963 19.2148C103.895 20.0215 103.801 20.7188 103.683 21.3066C103.569 21.89 103.384 22.3594 103.129 22.7148ZM113.239 24.1572C112.524 24.1572 111.897 23.9932 111.359 23.665C110.826 23.3369 110.411 22.8766 110.115 22.2842C109.824 21.6917 109.678 21.0036 109.678 20.2197C109.678 19.4268 109.824 18.734 110.115 18.1416C110.411 17.5446 110.826 17.082 111.359 16.7539C111.897 16.4258 112.524 16.2617 113.239 16.2617C113.959 16.2617 114.586 16.4258 115.119 16.7539C115.652 17.082 116.067 17.5446 116.363 18.1416C116.66 18.734 116.808 19.4268 116.808 20.2197C116.808 21.0036 116.66 21.6917 116.363 22.2842C116.067 22.8766 115.652 23.3369 115.119 23.665C114.586 23.9932 113.959 24.1572 113.239 24.1572ZM113.239 22.9062C113.709 22.9062 114.096 22.7832 114.401 22.5371C114.707 22.291 114.932 21.9652 115.078 21.5596C115.229 21.1494 115.304 20.7028 115.304 20.2197C115.304 19.7275 115.229 19.2764 115.078 18.8662C114.932 18.4561 114.707 18.1279 114.401 17.8818C114.096 17.6357 113.709 17.5127 113.239 17.5127C112.774 17.5127 112.389 17.6357 112.084 17.8818C111.783 18.1279 111.558 18.4561 111.407 18.8662C111.257 19.2764 111.182 19.7275 111.182 20.2197C111.182 20.7028 111.257 21.1494 111.407 21.5596C111.558 21.9652 111.783 22.291 112.084 22.5371C112.389 22.7832 112.774 22.9062 113.239 22.9062ZM124.498 24.1367C124.047 24.1367 123.6 24.057 123.158 23.8975C122.716 23.738 122.317 23.4736 121.962 23.1045C121.606 22.7308 121.319 22.2295 121.101 21.6006C120.886 20.9717 120.779 20.1901 120.779 19.2559C120.779 18.3672 120.868 17.5788 121.046 16.8906C121.228 16.1979 121.486 15.6146 121.818 15.1406C122.156 14.6621 122.561 14.2998 123.035 14.0537C123.509 13.8031 124.042 13.6777 124.635 13.6777C125.241 13.6777 125.779 13.7985 126.248 14.04C126.717 14.277 127.098 14.6051 127.39 15.0244C127.686 15.4437 127.87 15.9222 127.943 16.46H126.439C126.335 16.0361 126.13 15.6921 125.824 15.4277C125.519 15.1589 125.122 15.0244 124.635 15.0244C123.887 15.0244 123.304 15.3503 122.885 16.002C122.47 16.6491 122.263 17.5514 122.263 18.709H122.338C122.516 18.4219 122.732 18.1758 122.987 17.9707C123.243 17.7611 123.527 17.6016 123.842 17.4922C124.161 17.3828 124.5 17.3281 124.86 17.3281C125.448 17.3281 125.981 17.4717 126.46 17.7588C126.943 18.0459 127.326 18.4424 127.608 18.9482C127.896 19.4495 128.039 20.026 128.039 20.6777C128.039 21.3249 127.891 21.9105 127.595 22.4346C127.303 22.9587 126.891 23.3734 126.357 23.6787C125.829 23.984 125.209 24.1367 124.498 24.1367ZM124.491 22.8447C124.883 22.8447 125.232 22.749 125.537 22.5576C125.847 22.3662 126.093 22.1087 126.275 21.7852C126.458 21.457 126.549 21.0924 126.549 20.6914C126.549 20.2995 126.46 19.944 126.282 19.625C126.109 19.306 125.87 19.0531 125.564 18.8662C125.264 18.6748 124.917 18.5791 124.525 18.5791C124.138 18.5791 123.787 18.6771 123.473 18.873C123.158 19.069 122.908 19.3288 122.721 19.6523C122.538 19.9759 122.447 20.3268 122.447 20.7051C122.447 21.0833 122.536 21.4365 122.714 21.7646C122.892 22.0928 123.133 22.3548 123.438 22.5508C123.748 22.7467 124.099 22.8447 124.491 22.8447ZM132.756 24.1367C131.972 24.1367 131.3 23.9316 130.739 23.5215C130.183 23.1113 129.757 22.5189 129.461 21.7441C129.169 20.9648 129.023 20.0215 129.023 18.9141C129.023 17.8112 129.172 16.8701 129.468 16.0908C129.764 15.307 130.19 14.71 130.746 14.2998C131.307 13.8851 131.977 13.6777 132.756 13.6777C133.54 13.6777 134.21 13.8851 134.766 14.2998C135.326 14.71 135.752 15.307 136.044 16.0908C136.34 16.8701 136.488 17.8112 136.488 18.9141C136.488 20.0215 136.342 20.9648 136.051 21.7441C135.759 22.5189 135.335 23.1113 134.779 23.5215C134.223 23.9316 133.549 24.1367 132.756 24.1367ZM132.756 22.8242C133.234 22.8242 133.638 22.6715 133.966 22.3662C134.294 22.0609 134.545 21.6165 134.718 21.0332C134.891 20.4453 134.978 19.7389 134.978 18.9141C134.978 18.0846 134.891 17.3783 134.718 16.7949C134.545 16.207 134.294 15.7604 133.966 15.4551C133.638 15.1452 133.234 14.9902 132.756 14.9902C132.049 14.9902 131.503 15.3343 131.115 16.0225C130.732 16.7061 130.541 17.6699 130.541 18.9141C130.541 19.7389 130.628 20.4453 130.801 21.0332C130.974 21.6165 131.225 22.0609 131.553 22.3662C131.885 22.6715 132.286 22.8242 132.756 22.8242ZM142.996 22.0859V21.5527C142.996 21.1654 143.076 20.8122 143.235 20.4932C143.395 20.1742 143.63 19.9189 143.939 19.7275C144.249 19.5316 144.625 19.4336 145.067 19.4336C145.519 19.4336 145.897 19.5293 146.202 19.7207C146.507 19.9121 146.738 20.1696 146.893 20.4932C147.048 20.8122 147.125 21.1654 147.125 21.5527V22.0859C147.125 22.4733 147.045 22.8288 146.886 23.1523C146.731 23.4714 146.501 23.7266 146.195 23.918C145.89 24.1094 145.514 24.2051 145.067 24.2051C144.621 24.2051 144.243 24.1094 143.933 23.918C143.623 23.7266 143.388 23.4714 143.229 23.1523C143.074 22.8288 142.996 22.4733 142.996 22.0859ZM144.151 21.5527V22.0859C144.151 22.373 144.22 22.6328 144.356 22.8652C144.493 23.0977 144.73 23.2139 145.067 23.2139C145.4 23.2139 145.632 23.0977 145.765 22.8652C145.897 22.6328 145.963 22.373 145.963 22.0859V21.5527C145.963 21.2656 145.899 21.0081 145.771 20.7803C145.644 20.5479 145.409 20.4316 145.067 20.4316C144.735 20.4316 144.498 20.5479 144.356 20.7803C144.22 21.0081 144.151 21.2656 144.151 21.5527ZM137.876 16.2617V15.7285C137.876 15.3411 137.956 14.988 138.115 14.6689C138.279 14.3454 138.514 14.0879 138.819 13.8965C139.129 13.7051 139.503 13.6094 139.94 13.6094C140.392 13.6094 140.77 13.7051 141.075 13.8965C141.385 14.0879 141.618 14.3454 141.772 14.6689C141.927 14.988 142.003 15.3411 141.998 15.7285V16.2617C142.003 16.6445 141.925 16.9977 141.766 17.3213C141.606 17.6403 141.374 17.8978 141.068 18.0938C140.763 18.2852 140.387 18.3809 139.94 18.3809C139.494 18.3809 139.116 18.2852 138.806 18.0938C138.5 17.8978 138.268 17.6403 138.108 17.3213C137.953 16.9977 137.876 16.6445 137.876 16.2617ZM139.031 15.7285V16.2617C139.031 16.5488 139.1 16.8086 139.236 17.041C139.373 17.2734 139.608 17.3874 139.94 17.3828C140.278 17.3874 140.512 17.2734 140.645 17.041C140.777 16.8086 140.843 16.5488 140.843 16.2617V15.7285C140.843 15.4414 140.779 15.1816 140.651 14.9492C140.524 14.7168 140.287 14.6029 139.94 14.6074C139.612 14.6029 139.378 14.7168 139.236 14.9492C139.1 15.1816 139.031 15.4414 139.031 15.7285ZM138.348 24L145.348 13.8145H146.537L139.537 24H138.348Z" fill="#010101"/>
<rect x="10" y="10" width="1" height="44" rx="0.5" fill="#F84204"/>
<rect x="14.1514" y="40" width="1" height="14" rx="0.5" fill="#F84204"/>
<rect x="18.3032" y="40" width="1" height="14" rx="0.5" fill="#F84204"/>
<rect x="22.4546" y="40" width="1" height="14" rx="0.5" fill="#F84204"/>
<rect x="26.606" y="40" width="1" height="14" rx="0.5" fill="#F84204"/>
<rect x="30.7578" y="40" width="1" height="14" rx="0.5" fill="#F84204"/>
<rect x="34.9092" y="40" width="1" height="14" rx="0.5" fill="#F84204"/>
<rect x="39.0605" y="40" width="1" height="14" rx="0.5" fill="#F84204"/>
<rect x="43.2119" y="40" width="1" height="14" rx="0.5" fill="#F84204"/>
<rect x="47.3638" y="40" width="1" height="14" rx="0.5" fill="#F84204"/>
<rect x="51.5151" y="40" width="1" height="14" rx="0.5" fill="#F84204"/>
<rect x="55.6665" y="40" width="1" height="14" rx="0.5" fill="#F84204"/>
<rect x="59.8184" y="40" width="1" height="14" rx="0.5" fill="#F84204"/>
<rect x="63.9697" y="40" width="1" height="14" rx="0.5" fill="#F84204"/>
<rect x="68.1211" y="40" width="1" height="14" rx="0.5" fill="#F84204"/>
<rect x="72.2729" y="40" width="1" height="14" rx="0.5" fill="#F84204"/>
<rect x="76.4243" y="40" width="1" height="14" rx="0.5" fill="#F84204"/>
<rect x="80.5757" y="40" width="1" height="14" rx="0.5" fill="#F84204"/>
<rect x="84.7271" y="40" width="1" height="14" rx="0.5" fill="#F84204"/>
<rect x="88.8789" y="40" width="1" height="14" rx="0.5" fill="#F84204"/>
<rect x="93.0303" y="40" width="1" height="14" rx="0.5" fill="#F84204"/>
<rect x="97.1816" y="40" width="1" height="14" rx="0.5" fill="#F84204"/>
<rect x="101.333" y="40" width="1" height="14" rx="0.5" fill="#F84204"/>
<rect x="105.485" y="40" width="1" height="14" rx="0.5" fill="#D3D3D3"/>
<rect x="109.636" y="40" width="1" height="14" rx="0.5" fill="#D3D3D3"/>
<rect x="113.788" y="40" width="1" height="14" rx="0.5" fill="#D3D3D3"/>
<rect x="117.939" y="40" width="1" height="14" rx="0.5" fill="#D3D3D3"/>
<rect x="122.091" y="40" width="1" height="14" rx="0.5" fill="#D3D3D3"/>
<rect x="126.242" y="40" width="1" height="14" rx="0.5" fill="#D3D3D3"/>
<rect x="130.394" y="40" width="1" height="14" rx="0.5" fill="#D3D3D3"/>
<rect x="134.545" y="40" width="1" height="14" rx="0.5" fill="#D3D3D3"/>
<rect x="138.697" y="40" width="1" height="14" rx="0.5" fill="#D3D3D3"/>
<rect x="142.849" y="40" width="1" height="14" rx="0.5" fill="#D3D3D3"/>
<rect x="147" y="40" width="1" height="14" rx="0.5" fill="#D3D3D3"/>
</svg>
