<svg width="1082" height="220" viewBox="0 0 1082 220" fill="none" xmlns="http://www.w3.org/2000/svg">
<path d="M0 20C0 8.9543 8.95431 0 20 0H333.308C342.974 0 351.257 6.91248 352.986 16.4223L369.35 106.422C369.78 108.788 369.78 111.212 369.35 113.578L352.986 203.578C351.257 213.088 342.974 220 333.308 220H20C8.9543 220 0 211.046 0 200V20Z" fill="white"/>
<rect x="20" y="20" width="2" height="180" rx="1" fill="#F84204"/>
<rect x="29" y="180" width="2" height="20" rx="1" fill="#F84204"/>
<rect x="38" y="180" width="2" height="20" rx="1" fill="#F84204"/>
<rect x="47" y="180" width="2" height="20" rx="1" fill="#F84204"/>
<rect x="56" y="180" width="2" height="20" rx="1" fill="#F84204"/>
<rect x="65" y="180" width="2" height="20" rx="1" fill="#F84204"/>
<rect x="74" y="180" width="2" height="20" rx="1" fill="#F84204"/>
<rect x="83" y="180" width="2" height="20" rx="1" fill="#F84204"/>
<rect x="92" y="180" width="2" height="20" rx="1" fill="#F84204"/>
<rect x="101" y="180" width="2" height="20" rx="1" fill="#F84204"/>
<rect x="110" y="180" width="2" height="20" rx="1" fill="#F84204"/>
<rect x="119" y="180" width="2" height="20" rx="1" fill="#F84204"/>
<rect x="128" y="180" width="2" height="20" rx="1" fill="#F84204"/>
<rect x="137" y="180" width="2" height="20" rx="1" fill="#F84204"/>
<rect x="146" y="180" width="2" height="20" rx="1" fill="#F84204"/>
<rect x="155" y="180" width="2" height="20" rx="1" fill="#F84204"/>
<rect x="164" y="180" width="2" height="20" rx="1" fill="#F84204"/>
<rect x="173" y="180" width="2" height="20" rx="1" fill="#F84204"/>
<rect x="182" y="180" width="2" height="20" rx="1" fill="#F84204"/>
<rect x="191" y="180" width="2" height="20" rx="1" fill="#F84204"/>
<rect x="200" y="180" width="2" height="20" rx="1" fill="#F84204"/>
<rect x="209" y="180" width="2" height="20" rx="1" fill="#F84204"/>
<rect x="218" y="180" width="2" height="20" rx="1" fill="#F84204"/>
<rect x="227" y="180" width="2" height="20" rx="1" fill="#F84204"/>
<rect x="236" y="180" width="2" height="20" rx="1" fill="#F84204"/>
<rect x="245" y="180" width="2" height="20" rx="1" fill="#F84204"/>
<rect x="254" y="180" width="2" height="20" rx="1" fill="#F84204"/>
<rect x="263" y="180" width="2" height="20" rx="1" fill="#F84204"/>
<rect x="272" y="180" width="2" height="20" rx="1" fill="#F84204"/>
<rect x="281" y="180" width="2" height="20" rx="1" fill="#F84204"/>
<rect x="290" y="180" width="2" height="20" rx="1" fill="#F84204"/>
<rect x="299" y="180" width="2" height="20" rx="1" fill="#F84204"/>
<rect x="308" y="180" width="2" height="20" rx="1" fill="#F84204"/>
<rect x="317" y="180" width="2" height="20" rx="1" fill="#F84204"/>
<rect x="326" y="180" width="2" height="20" rx="1" fill="#F84204"/>
<rect x="335" y="180" width="2" height="20" rx="1" fill="#F84204"/>
<path d="M41.7812 44L49.5859 28.5547V28.4141H40.5859V26.5391H51.7891V28.5312L44.0078 44H41.7812ZM58.9375 44.2344C57.6562 44.2344 56.5625 43.8828 55.6562 43.1797C54.75 42.4766 54.0586 41.4609 53.582 40.1328C53.1055 38.7969 52.8672 37.1797 52.8672 35.2812C52.8672 33.3906 53.1055 31.7773 53.582 30.4414C54.0664 29.0977 54.7617 28.0742 55.668 27.3711C56.5742 26.6602 57.6641 26.3047 58.9375 26.3047C60.2109 26.3047 61.3008 26.6602 62.207 27.3711C63.1133 28.0742 63.8047 29.0977 64.2812 30.4414C64.7656 31.7773 65.0078 33.3906 65.0078 35.2812C65.0078 37.1797 64.7695 38.7969 64.293 40.1328C63.8164 41.4609 63.125 42.4766 62.2188 43.1797C61.3203 43.8828 60.2266 44.2344 58.9375 44.2344ZM58.9375 42.3828C59.8047 42.3828 60.5391 42.1055 61.1406 41.5508C61.7422 40.9883 62.1992 40.1758 62.5117 39.1133C62.832 38.0508 62.9922 36.7734 62.9922 35.2812C62.9922 33.7812 62.832 32.5 62.5117 31.4375C62.1992 30.375 61.7422 29.5625 61.1406 29C60.5391 28.4375 59.8047 28.1562 58.9375 28.1562C57.6406 28.1562 56.6406 28.7812 55.9375 30.0312C55.2344 31.2812 54.8828 33.0312 54.8828 35.2812C54.8828 36.7734 55.0391 38.0508 55.3516 39.1133C55.6719 40.1758 56.1328 40.9883 56.7344 41.5508C57.3438 42.1055 58.0781 42.3828 58.9375 42.3828ZM72.2734 42.8047V31.5547H74.1719V42.8047H72.2734ZM67.5859 38.1406V36.2188H78.8359V38.1406H67.5859ZM41.2891 75V61.8984H51.5781V75H49.5625V63.7734H43.2812V75H41.2891ZM54.1562 79.8984V61.8984H56.0781V63.9844H56.3125C56.4609 63.7578 56.668 63.4688 56.9336 63.1172C57.1992 62.7578 57.582 62.4375 58.082 62.1562C58.582 61.875 59.2578 61.7344 60.1094 61.7344C61.2109 61.7344 62.1797 62.0117 63.0156 62.5664C63.8516 63.1133 64.5039 63.8945 64.9727 64.9102C65.4492 65.918 65.6875 67.1094 65.6875 68.4844C65.6875 69.8672 65.4531 71.0703 64.9844 72.0938C64.5156 73.1094 63.8633 73.8945 63.0273 74.4492C62.1914 75.0039 61.2266 75.2812 60.1328 75.2812C59.2969 75.2812 58.625 75.1406 58.1172 74.8594C57.6094 74.5703 57.2188 74.2461 56.9453 73.8867C56.6719 73.5195 56.4609 73.2188 56.3125 72.9844H56.1484V79.8984H54.1562ZM59.875 73.4766C60.7109 73.4766 61.4102 73.2539 61.9727 72.8086C62.5352 72.3555 62.957 71.75 63.2383 70.9922C63.5273 70.2344 63.6719 69.3906 63.6719 68.4609C63.6719 67.5391 63.5312 66.707 63.25 65.9648C62.9688 65.2227 62.5469 64.6328 61.9844 64.1953C61.4297 63.7578 60.7266 63.5391 59.875 63.5391C59.0547 63.5391 58.3672 63.7461 57.8125 64.1602C57.2578 64.5664 56.8359 65.1406 56.5469 65.8828C56.2656 66.6172 56.125 67.4766 56.125 68.4609C56.125 69.4453 56.2695 70.3164 56.5586 71.0742C56.8477 71.8242 57.2695 72.4141 57.8242 72.8438C58.3867 73.2656 59.0703 73.4766 59.875 73.4766ZM72.9297 75.2812C71.75 75.2812 70.7148 75 69.8242 74.4375C68.9336 73.875 68.2383 73.0859 67.7383 72.0703C67.2461 71.0547 67 69.875 67 68.5312C67 67.1641 67.2461 65.9727 67.7383 64.957C68.2383 63.9336 68.9336 63.1406 69.8242 62.5781C70.7148 62.0156 71.75 61.7344 72.9297 61.7344C74.1172 61.7344 75.1562 62.0156 76.0469 62.5781C76.9375 63.1406 77.6328 63.9336 78.1328 64.957C78.6328 65.9727 78.8828 67.1641 78.8828 68.5312C78.8828 69.875 78.6328 71.0547 78.1328 72.0703C77.6328 73.0859 76.9375 73.875 76.0469 74.4375C75.1562 75 74.1172 75.2812 72.9297 75.2812ZM72.9297 73.4766C73.8359 73.4766 74.5781 73.2461 75.1562 72.7852C75.7344 72.3242 76.1641 71.7188 76.4453 70.9688C76.7266 70.2109 76.8672 69.3984 76.8672 68.5312C76.8672 67.6484 76.7266 66.8281 76.4453 66.0703C76.1641 65.3125 75.7344 64.7031 75.1562 64.2422C74.5781 63.7734 73.8359 63.5391 72.9297 63.5391C72.0391 63.5391 71.3047 63.7734 70.7266 64.2422C70.1484 64.7031 69.7188 65.3125 69.4375 66.0703C69.1562 66.8281 69.0156 67.6484 69.0156 68.5312C69.0156 69.3984 69.1562 70.2109 69.4375 70.9688C69.7188 71.7188 70.1484 72.3242 70.7266 72.7852C71.3047 73.2461 72.0391 73.4766 72.9297 73.4766ZM80.8281 75V61.8984H86.1719C87.5781 61.9062 88.6953 62.2305 89.5234 62.8711C90.3594 63.5039 90.7734 64.3438 90.7656 65.3906C90.7734 66.1875 90.5391 66.8008 90.0625 67.2305C89.5938 67.6602 88.9922 67.9531 88.2578 68.1094C88.7344 68.1797 89.1992 68.3516 89.6523 68.625C90.1133 68.8984 90.4961 69.2734 90.8008 69.75C91.1055 70.2188 91.2578 70.7969 91.2578 71.4844C91.2578 72.1562 91.0859 72.7578 90.7422 73.2891C90.3984 73.8203 89.9102 74.2383 89.2773 74.543C88.6445 74.8477 87.8828 75 86.9922 75H80.8281ZM82.7266 73.1484H86.9922C87.6797 73.1562 88.2188 72.9961 88.6094 72.668C89.0078 72.3398 89.2031 71.8906 89.1953 71.3203C89.2031 70.6406 89.0078 70.1094 88.6094 69.7266C88.2188 69.3359 87.6797 69.1406 86.9922 69.1406H82.7266V73.1484ZM82.7266 67.4062H86.1719C86.9766 67.3984 87.6094 67.2305 88.0703 66.9023C88.5312 66.5664 88.7578 66.1094 88.75 65.5312C88.7578 64.9766 88.5312 64.543 88.0703 64.2305C87.6094 63.9102 86.9766 63.75 86.1719 63.75H82.7266V67.4062ZM97.0234 75.3047C96.1953 75.3047 95.4414 75.1484 94.7617 74.8359C94.082 74.5156 93.543 74.0547 93.1445 73.4531C92.7461 72.8516 92.5469 72.125 92.5469 71.2734C92.5469 70.5234 92.6953 69.918 92.9922 69.457C93.2891 68.9883 93.6836 68.6211 94.1758 68.3555C94.6758 68.082 95.2227 67.8789 95.8164 67.7461C96.418 67.6133 97.0234 67.5078 97.6328 67.4297C98.4297 67.3281 99.0742 67.25 99.5664 67.1953C100.066 67.1406 100.43 67.0469 100.656 66.9141C100.891 66.7812 101.008 66.5547 101.008 66.2344V66.1641C101.008 65.3281 100.777 64.6797 100.316 64.2188C99.8633 63.75 99.1719 63.5156 98.2422 63.5156C97.2891 63.5156 96.5391 63.7266 95.9922 64.1484C95.4453 64.5625 95.0625 65.0078 94.8438 65.4844L92.9219 64.8047C93.2656 64.0078 93.7227 63.3867 94.293 62.9414C94.8711 62.4961 95.4961 62.1836 96.168 62.0039C96.8477 61.8242 97.5156 61.7344 98.1719 61.7344C98.5938 61.7344 99.0781 61.7852 99.625 61.8867C100.172 61.9805 100.703 62.1836 101.219 62.4961C101.742 62.8008 102.172 63.2656 102.508 63.8906C102.852 64.5078 103.023 65.3359 103.023 66.375V75H101.008V73.2188H100.914C100.781 73.5 100.555 73.8047 100.234 74.1328C99.9141 74.4531 99.4883 74.7305 98.957 74.9648C98.4336 75.1914 97.7891 75.3047 97.0234 75.3047ZM97.3281 73.5C98.125 73.5 98.7969 73.3438 99.3438 73.0312C99.8906 72.7188 100.305 72.3164 100.586 71.8242C100.867 71.3242 101.008 70.8047 101.008 70.2656V68.4141C100.922 68.5156 100.734 68.6094 100.445 68.6953C100.164 68.7734 99.8359 68.8438 99.4609 68.9062C99.0938 68.9688 98.7344 69.0234 98.3828 69.0703C98.0312 69.1094 97.75 69.1406 97.5391 69.1641C97.0156 69.2344 96.5273 69.3477 96.0742 69.5039C95.6211 69.6523 95.2539 69.875 94.9727 70.1719C94.6992 70.4688 94.5625 70.875 94.5625 71.3906C94.5625 72.0859 94.8203 72.6133 95.3359 72.9727C95.8594 73.3242 96.5234 73.5 97.3281 73.5ZM107.594 72.0234L113.898 61.8984H116.219V75H114.227V64.875L107.945 75H105.602V61.8984H107.594V72.0234ZM110.898 60.3398C109.852 60.3398 109 60.0469 108.344 59.4609C107.695 58.8672 107.371 58.0977 107.371 57.1523H109.246C109.246 57.6602 109.398 58.0742 109.703 58.3945C110.008 58.7148 110.406 58.875 110.898 58.875C111.391 58.875 111.789 58.7148 112.094 58.3945C112.398 58.0742 112.551 57.6602 112.551 57.1523H114.426C114.426 58.0977 114.098 58.8672 113.441 59.4609C112.793 60.0469 111.945 60.3398 110.898 60.3398ZM117.391 78.75V73.125H118.469C118.734 72.8438 118.965 72.543 119.16 72.2227C119.363 71.9023 119.535 71.5195 119.676 71.0742C119.816 70.6211 119.938 70.0742 120.039 69.4336C120.148 68.793 120.242 68.0156 120.32 67.1016L120.766 61.8984H129.086V73.125H131.102V78.75H129.086V75H119.406V78.75H117.391ZM120.766 73.125H127.07V63.7734H122.641L122.289 67.1016C122.156 68.4688 121.984 69.6641 121.773 70.6875C121.562 71.7109 121.227 72.5234 120.766 73.125ZM138.133 75.2812C136.875 75.2812 135.785 75 134.863 74.4375C133.949 73.875 133.246 73.0898 132.754 72.082C132.262 71.0664 132.016 69.8906 132.016 68.5547C132.016 67.2109 132.258 66.0273 132.742 65.0039C133.227 63.9805 133.906 63.1797 134.781 62.6016C135.664 62.0234 136.695 61.7344 137.875 61.7344C138.555 61.7344 139.23 61.8477 139.902 62.0742C140.574 62.3008 141.184 62.668 141.73 63.1758C142.285 63.6836 142.727 64.3555 143.055 65.1914C143.383 66.0273 143.547 67.0547 143.547 68.2734V69.1406H133.445V67.4062H142.457L141.531 68.0625C141.531 67.1875 141.395 66.4102 141.121 65.7305C140.848 65.0508 140.438 64.5156 139.891 64.125C139.352 63.7344 138.68 63.5391 137.875 63.5391C137.07 63.5391 136.379 63.7383 135.801 64.1367C135.23 64.5273 134.793 65.0391 134.488 65.6719C134.184 66.3047 134.031 66.9844 134.031 67.7109V68.8594C134.031 69.8516 134.203 70.6914 134.547 71.3789C134.891 72.0664 135.371 72.5898 135.988 72.9492C136.605 73.3008 137.32 73.4766 138.133 73.4766C138.656 73.4766 139.133 73.4023 139.562 73.2539C139.992 73.0977 140.363 72.8672 140.676 72.5625C140.988 72.25 141.227 71.8672 141.391 71.4141L143.336 71.9766C143.133 72.6328 142.789 73.2109 142.305 73.7109C141.828 74.2031 141.234 74.5898 140.523 74.8711C139.812 75.1445 139.016 75.2812 138.133 75.2812ZM145.445 79.8984V61.8984H147.367V63.9844H147.602C147.75 63.7578 147.957 63.4688 148.223 63.1172C148.488 62.7578 148.871 62.4375 149.371 62.1562C149.871 61.875 150.547 61.7344 151.398 61.7344C152.5 61.7344 153.469 62.0117 154.305 62.5664C155.141 63.1133 155.793 63.8945 156.262 64.9102C156.738 65.918 156.977 67.1094 156.977 68.4844C156.977 69.8672 156.742 71.0703 156.273 72.0938C155.805 73.1094 155.152 73.8945 154.316 74.4492C153.48 75.0039 152.516 75.2812 151.422 75.2812C150.586 75.2812 149.914 75.1406 149.406 74.8594C148.898 74.5703 148.508 74.2461 148.234 73.8867C147.961 73.5195 147.75 73.2188 147.602 72.9844H147.438V79.8984H145.445ZM151.164 73.4766C152 73.4766 152.699 73.2539 153.262 72.8086C153.824 72.3555 154.246 71.75 154.527 70.9922C154.816 70.2344 154.961 69.3906 154.961 68.4609C154.961 67.5391 154.82 66.707 154.539 65.9648C154.258 65.2227 153.836 64.6328 153.273 64.1953C152.719 63.7578 152.016 63.5391 151.164 63.5391C150.344 63.5391 149.656 63.7461 149.102 64.1602C148.547 64.5664 148.125 65.1406 147.836 65.8828C147.555 66.6172 147.414 67.4766 147.414 68.4609C147.414 69.4453 147.559 70.3164 147.848 71.0742C148.137 71.8242 148.559 72.4141 149.113 72.8438C149.676 73.2656 150.359 73.4766 151.164 73.4766ZM164.219 75.2812C163.039 75.2812 162.004 75 161.113 74.4375C160.223 73.875 159.527 73.0859 159.027 72.0703C158.535 71.0547 158.289 69.875 158.289 68.5312C158.289 67.1641 158.535 65.9727 159.027 64.957C159.527 63.9336 160.223 63.1406 161.113 62.5781C162.004 62.0156 163.039 61.7344 164.219 61.7344C165.406 61.7344 166.445 62.0156 167.336 62.5781C168.227 63.1406 168.922 63.9336 169.422 64.957C169.922 65.9727 170.172 67.1641 170.172 68.5312C170.172 69.875 169.922 71.0547 169.422 72.0703C168.922 73.0859 168.227 73.875 167.336 74.4375C166.445 75 165.406 75.2812 164.219 75.2812ZM164.219 73.4766C165.125 73.4766 165.867 73.2461 166.445 72.7852C167.023 72.3242 167.453 71.7188 167.734 70.9688C168.016 70.2109 168.156 69.3984 168.156 68.5312C168.156 67.6484 168.016 66.8281 167.734 66.0703C167.453 65.3125 167.023 64.7031 166.445 64.2422C165.867 63.7734 165.125 63.5391 164.219 63.5391C163.328 63.5391 162.594 63.7734 162.016 64.2422C161.438 64.7031 161.008 65.3125 160.727 66.0703C160.445 66.8281 160.305 67.6484 160.305 68.5312C160.305 69.3984 160.445 70.2109 160.727 70.9688C161.008 71.7188 161.438 72.3242 162.016 72.7852C162.594 73.2461 163.328 73.4766 164.219 73.4766ZM172.117 75V61.8984H177.461C178.867 61.9062 179.984 62.2305 180.812 62.8711C181.648 63.5039 182.062 64.3438 182.055 65.3906C182.062 66.1875 181.828 66.8008 181.352 67.2305C180.883 67.6602 180.281 67.9531 179.547 68.1094C180.023 68.1797 180.488 68.3516 180.941 68.625C181.402 68.8984 181.785 69.2734 182.09 69.75C182.395 70.2188 182.547 70.7969 182.547 71.4844C182.547 72.1562 182.375 72.7578 182.031 73.2891C181.688 73.8203 181.199 74.2383 180.566 74.543C179.934 74.8477 179.172 75 178.281 75H172.117ZM174.016 73.1484H178.281C178.969 73.1562 179.508 72.9961 179.898 72.668C180.297 72.3398 180.492 71.8906 180.484 71.3203C180.492 70.6406 180.297 70.1094 179.898 69.7266C179.508 69.3359 178.969 69.1406 178.281 69.1406H174.016V73.1484ZM174.016 67.4062H177.461C178.266 67.3984 178.898 67.2305 179.359 66.9023C179.82 66.5664 180.047 66.1094 180.039 65.5312C180.047 64.9766 179.82 64.543 179.359 64.2305C178.898 63.9102 178.266 63.75 177.461 63.75H174.016V67.4062Z" fill="#010101"/>
<path d="M358.143 11.7888C357.027 5.65044 361.743 0 367.982 0H689.308C698.974 0 707.257 6.91248 708.986 16.4223L725.35 106.422C725.78 108.788 725.78 111.212 725.35 113.578L708.986 203.578C707.257 213.088 698.974 220 689.308 220H367.982C361.743 220 357.027 214.35 358.143 208.211L375.35 113.578C375.78 111.212 375.78 108.788 375.35 106.422L358.143 11.7888Z" fill="white"/>
<rect x="386" y="180" width="2" height="20" rx="1" fill="#F84204"/>
<rect x="395" y="180" width="2" height="20" rx="1" fill="#F84204"/>
<rect x="404" y="180" width="2" height="20" rx="1" fill="#F84204"/>
<rect x="413" y="180" width="2" height="20" rx="1" fill="#F84204"/>
<rect x="422" y="180" width="2" height="20" rx="1" fill="#F84204"/>
<rect x="431" y="180" width="2" height="20" rx="1" fill="#F84204"/>
<rect x="440" y="180" width="2" height="20" rx="1" fill="#F84204"/>
<rect x="449" y="180" width="2" height="20" rx="1" fill="#F84204"/>
<rect x="458" y="180" width="2" height="20" rx="1" fill="#F84204"/>
<rect x="467" y="180" width="2" height="20" rx="1" fill="#F84204"/>
<rect x="476" y="180" width="2" height="20" rx="1" fill="#F84204"/>
<rect x="485" y="180" width="2" height="20" rx="1" fill="#F84204"/>
<rect x="494" y="180" width="2" height="20" rx="1" fill="#F84204"/>
<rect x="503" y="180" width="2" height="20" rx="1" fill="#F84204"/>
<rect x="512" y="180" width="2" height="20" rx="1" fill="#F84204"/>
<rect x="521" y="180" width="2" height="20" rx="1" fill="#F84204"/>
<rect x="530" y="180" width="2" height="20" rx="1" fill="#F84204"/>
<rect x="539" y="180" width="2" height="20" rx="1" fill="#F84204"/>
<rect x="548" y="180" width="2" height="20" rx="1" fill="#F84204"/>
<rect x="557" y="180" width="2" height="20" rx="1" fill="#F84204"/>
<rect x="566" y="180" width="2" height="20" rx="1" fill="#F84204"/>
<rect x="575" y="180" width="2" height="20" rx="1" fill="#F84204"/>
<rect x="584" y="180" width="2" height="20" rx="1" fill="#F84204"/>
<rect x="593" y="180" width="2" height="20" rx="1" fill="#F84204"/>
<rect x="602" y="180" width="2" height="20" rx="1" fill="#F84204"/>
<rect x="611" y="180" width="2" height="20" rx="1" fill="#F84204"/>
<rect x="620" y="180" width="2" height="20" rx="1" fill="#F84204"/>
<rect x="629" y="180" width="2" height="20" rx="1" fill="#F84204"/>
<rect x="638" y="180" width="2" height="20" rx="1" fill="#F84204"/>
<rect x="647" y="180" width="2" height="20" rx="1" fill="#F84204"/>
<rect x="656" y="180" width="2" height="20" rx="1" fill="#F84204"/>
<rect x="665" y="180" width="2" height="20" rx="1" fill="#F84204"/>
<rect x="674" y="180" width="2" height="20" rx="1" fill="#F84204"/>
<rect x="683" y="180" width="2" height="20" rx="1" fill="#F84204"/>
<rect x="692" y="180" width="2" height="20" rx="1" fill="#F84204"/>
<path d="M393.547 26.5391H395.656V40.2734H395.82L405.383 26.5391H407.422V44H405.312V30.2891H405.125L395.633 44H393.547V26.5391ZM419 36.5234V38.3984H411.781V36.5234H419ZM412.25 30.8984V44H410.258V30.8984H412.25ZM420.547 30.8984V44H418.531V30.8984H420.547ZM424.625 30.8984L427.742 36.2656L430.883 30.8984H433.203L428.984 37.4609L433.203 44H430.883L427.742 38.9141L424.625 44H422.305L426.453 37.4609L422.305 30.8984H424.625ZM438.805 44.3047C437.977 44.3047 437.223 44.1484 436.543 43.8359C435.863 43.5156 435.324 43.0547 434.926 42.4531C434.527 41.8516 434.328 41.125 434.328 40.2734C434.328 39.5234 434.477 38.918 434.773 38.457C435.07 37.9883 435.465 37.6211 435.957 37.3555C436.457 37.082 437.004 36.8789 437.598 36.7461C438.199 36.6133 438.805 36.5078 439.414 36.4297C440.211 36.3281 440.855 36.25 441.348 36.1953C441.848 36.1406 442.211 36.0469 442.438 35.9141C442.672 35.7812 442.789 35.5547 442.789 35.2344V35.1641C442.789 34.3281 442.559 33.6797 442.098 33.2188C441.645 32.75 440.953 32.5156 440.023 32.5156C439.07 32.5156 438.32 32.7266 437.773 33.1484C437.227 33.5625 436.844 34.0078 436.625 34.4844L434.703 33.8047C435.047 33.0078 435.504 32.3867 436.074 31.9414C436.652 31.4961 437.277 31.1836 437.949 31.0039C438.629 30.8242 439.297 30.7344 439.953 30.7344C440.375 30.7344 440.859 30.7852 441.406 30.8867C441.953 30.9805 442.484 31.1836 443 31.4961C443.523 31.8008 443.953 32.2656 444.289 32.8906C444.633 33.5078 444.805 34.3359 444.805 35.375V44H442.789V42.2188H442.695C442.562 42.5 442.336 42.8047 442.016 43.1328C441.695 43.4531 441.27 43.7305 440.738 43.9648C440.215 44.1914 439.57 44.3047 438.805 44.3047ZM439.109 42.5C439.906 42.5 440.578 42.3438 441.125 42.0312C441.672 41.7188 442.086 41.3164 442.367 40.8242C442.648 40.3242 442.789 39.8047 442.789 39.2656V37.4141C442.703 37.5156 442.516 37.6094 442.227 37.6953C441.945 37.7734 441.617 37.8438 441.242 37.9062C440.875 37.9688 440.516 38.0234 440.164 38.0703C439.812 38.1094 439.531 38.1406 439.32 38.1641C438.797 38.2344 438.309 38.3477 437.855 38.5039C437.402 38.6523 437.035 38.875 436.754 39.1719C436.48 39.4688 436.344 39.875 436.344 40.3906C436.344 41.0859 436.602 41.6133 437.117 41.9727C437.641 42.3242 438.305 42.5 439.109 42.5ZM448.203 48.8984C447.859 48.9062 447.555 48.8828 447.289 48.8281C447.023 48.7734 446.836 48.7188 446.727 48.6641L447.242 46.9062L447.441 46.9531C448.113 47.1094 448.676 47.0742 449.129 46.8477C449.59 46.6289 449.992 46.0469 450.336 45.1016L450.711 44.0703L445.883 30.8984H448.062L451.672 41.3516H451.812L455.422 30.8984H457.602L452.047 45.8984C451.797 46.5781 451.488 47.1406 451.121 47.5859C450.754 48.0312 450.328 48.3594 449.844 48.5703C449.359 48.7891 448.812 48.8984 448.203 48.8984ZM463.977 44.2812C462.758 44.2812 461.703 43.9922 460.812 43.4141C459.93 42.8281 459.246 42.0273 458.762 41.0117C458.285 39.9961 458.047 38.8359 458.047 37.5312C458.047 36.1953 458.293 35.0195 458.785 34.0039C459.277 32.9805 459.965 32.1797 460.848 31.6016C461.738 31.0234 462.773 30.7344 463.953 30.7344C464.875 30.7344 465.703 30.9062 466.438 31.25C467.18 31.5859 467.785 32.0625 468.254 32.6797C468.73 33.2969 469.023 34.0156 469.133 34.8359H467.117C467.016 34.4375 466.832 34.0625 466.566 33.7109C466.301 33.3594 465.949 33.0781 465.512 32.8672C465.082 32.6484 464.57 32.5391 463.977 32.5391C463.195 32.5391 462.512 32.7422 461.926 33.1484C461.34 33.5547 460.883 34.1289 460.555 34.8711C460.227 35.6055 460.062 36.4688 460.062 37.4609C460.062 38.4688 460.223 39.3516 460.543 40.1094C460.863 40.8594 461.316 41.4414 461.902 41.8555C462.496 42.2695 463.188 42.4766 463.977 42.4766C464.766 42.4766 465.441 42.2734 466.004 41.8672C466.566 41.4531 466.938 40.8906 467.117 40.1797H469.133C469.023 40.9531 468.742 41.6484 468.289 42.2656C467.844 42.8828 467.254 43.375 466.52 43.7422C465.793 44.1016 464.945 44.2812 463.977 44.2812ZM478.508 35.5859V37.4609H470.867V35.5859H478.508ZM482.914 41.0234L489.219 30.8984H491.539V44H489.547V33.875L483.266 44H480.922V30.8984H482.914V41.0234ZM502.18 30.8984V32.7734H496.109V44H494.117V30.8984H502.18ZM504.008 48.8984V30.8984H505.93V32.9844H506.164C506.312 32.7578 506.52 32.4688 506.785 32.1172C507.051 31.7578 507.434 31.4375 507.934 31.1562C508.434 30.875 509.109 30.7344 509.961 30.7344C511.062 30.7344 512.031 31.0117 512.867 31.5664C513.703 32.1133 514.355 32.8945 514.824 33.9102C515.301 34.918 515.539 36.1094 515.539 37.4844C515.539 38.8672 515.305 40.0703 514.836 41.0938C514.367 42.1094 513.715 42.8945 512.879 43.4492C512.043 44.0039 511.078 44.2812 509.984 44.2812C509.148 44.2812 508.477 44.1406 507.969 43.8594C507.461 43.5703 507.07 43.2461 506.797 42.8867C506.523 42.5195 506.312 42.2188 506.164 41.9844H506V48.8984H504.008ZM509.727 42.4766C510.562 42.4766 511.262 42.2539 511.824 41.8086C512.387 41.3555 512.809 40.75 513.09 39.9922C513.379 39.2344 513.523 38.3906 513.523 37.4609C513.523 36.5391 513.383 35.707 513.102 34.9648C512.82 34.2227 512.398 33.6328 511.836 33.1953C511.281 32.7578 510.578 32.5391 509.727 32.5391C508.906 32.5391 508.219 32.7461 507.664 33.1602C507.109 33.5664 506.688 34.1406 506.398 34.8828C506.117 35.6172 505.977 36.4766 505.977 37.4609C505.977 38.4453 506.121 39.3164 506.41 40.0742C506.699 40.8242 507.121 41.4141 507.676 41.8438C508.238 42.2656 508.922 42.4766 509.727 42.4766ZM519.219 35.6562H522.969C524.5 35.6484 525.672 36.0352 526.484 36.8164C527.297 37.5977 527.703 38.5859 527.703 39.7812C527.703 40.5625 527.52 41.2734 527.152 41.9141C526.793 42.5469 526.262 43.0547 525.559 43.4375C524.855 43.8125 523.992 44 522.969 44H517.484V30.8984H519.477V42.125H522.969C523.758 42.125 524.406 41.918 524.914 41.5039C525.43 41.082 525.688 40.5391 525.688 39.875C525.688 39.1797 525.43 38.6133 524.914 38.1758C524.406 37.7383 523.758 37.5234 522.969 37.5312H519.219V35.6562ZM529.789 44V30.8984H531.781V44H529.789Z" fill="#010101"/>
<path d="M723.982 1H1045.31C1054.35 1.00006 1062.11 7.36332 1063.92 16.1797L1064 16.6016L1080.37 106.602C1080.75 108.708 1080.77 110.864 1080.44 112.977L1080.37 113.398L1064 203.398C1062.36 212.433 1054.49 219 1045.31 219H723.982C718.543 219 714.39 214.227 715.049 208.906L715.127 208.39L732.333 113.757C732.756 111.428 732.784 109.045 732.413 106.71L732.333 106.243L715.127 11.6104C714.122 6.08579 718.367 1 723.982 1Z" fill="white" fill-opacity="0.01" stroke="url(#paint0_linear_184_5683)" stroke-width="2"/>
<rect x="742" y="180" width="2" height="20" rx="1" fill="white"/>
<rect x="751" y="180" width="2" height="20" rx="1" fill="white"/>
<rect x="760" y="180" width="2" height="20" rx="1" fill="white"/>
<rect x="769" y="180" width="2" height="20" rx="1" fill="white"/>
<rect x="778" y="180" width="2" height="20" rx="1" fill="white"/>
<rect x="787" y="180" width="2" height="20" rx="1" fill="white"/>
<rect x="796" y="180" width="2" height="20" rx="1" fill="white"/>
<rect x="805" y="180" width="2" height="20" rx="1" fill="white"/>
<rect x="814" y="180" width="2" height="20" rx="1" fill="white"/>
<rect x="823" y="180" width="2" height="20" rx="1" fill="white"/>
<rect x="832" y="180" width="2" height="20" rx="1" fill="white"/>
<rect x="841" y="180" width="2" height="20" rx="1" fill="white"/>
<rect x="850" y="180" width="2" height="20" rx="1" fill="white"/>
<rect x="859" y="180" width="2" height="20" rx="1" fill="white"/>
<rect x="868" y="180" width="2" height="20" rx="1" fill="white"/>
<rect x="877" y="180" width="2" height="20" rx="1" fill="white"/>
<rect x="886" y="180" width="2" height="20" rx="1" fill="white"/>
<rect x="895" y="180" width="2" height="20" rx="1" fill="white"/>
<rect x="904" y="180" width="2" height="20" rx="1" fill="white"/>
<rect x="913" y="180" width="2" height="20" rx="1" fill="white"/>
<rect x="922" y="180" width="2" height="20" rx="1" fill="white"/>
<rect x="931" y="180" width="2" height="20" rx="1" fill="white"/>
<rect x="940" y="180" width="2" height="20" rx="1" fill="white"/>
<rect x="949" y="180" width="2" height="20" rx="1" fill="white"/>
<rect x="958" y="180" width="2" height="20" rx="1" fill="white"/>
<rect x="967" y="180" width="2" height="20" rx="1" fill="white"/>
<rect x="976" y="180" width="2" height="20" rx="1" fill="white"/>
<rect x="985" y="180" width="2" height="20" rx="1" fill="white"/>
<rect x="994" y="180" width="2" height="20" rx="1" fill="white"/>
<rect x="1003" y="180" width="2" height="20" rx="1" fill="white"/>
<rect x="1012" y="180" width="2" height="20" rx="1" fill="white"/>
<rect x="1021" y="180" width="2" height="20" rx="1" fill="white"/>
<rect x="1030" y="180" width="2" height="20" rx="1" fill="white"/>
<rect x="1039" y="180" width="2" height="20" rx="1" fill="white"/>
<rect x="1048" y="180" width="2" height="20" rx="1" fill="white"/>
<path d="M756.578 44.2344C755.094 44.2344 753.77 43.8711 752.605 43.1445C751.441 42.418 750.527 41.3867 749.863 40.0508C749.199 38.707 748.867 37.1172 748.867 35.2812C748.867 33.4375 749.199 31.8438 749.863 30.5C750.527 29.1562 751.441 28.1211 752.605 27.3945C753.77 26.668 755.094 26.3047 756.578 26.3047C757.453 26.3047 758.277 26.4336 759.051 26.6914C759.832 26.9492 760.535 27.3242 761.16 27.8164C761.785 28.3008 762.305 28.8984 762.719 29.6094C763.141 30.3125 763.43 31.1094 763.586 32H761.477C761.352 31.3906 761.133 30.8555 760.82 30.3945C760.516 29.9336 760.141 29.5469 759.695 29.2344C759.258 28.9141 758.773 28.6758 758.242 28.5195C757.711 28.3555 757.156 28.2734 756.578 28.2734C755.523 28.2734 754.566 28.543 753.707 29.082C752.848 29.6133 752.164 30.4023 751.656 31.4492C751.156 32.4883 750.906 33.7656 750.906 35.2812C750.906 36.7891 751.156 38.0625 751.656 39.1016C752.164 40.1406 752.848 40.9297 753.707 41.4688C754.566 42 755.523 42.2656 756.578 42.2656C757.156 42.2656 757.711 42.1875 758.242 42.0312C758.773 41.8672 759.258 41.6289 759.695 41.3164C760.141 40.9961 760.516 40.6055 760.82 40.1445C761.133 39.6836 761.352 39.1484 761.477 38.5391H763.586C763.43 39.4375 763.141 40.2383 762.719 40.9414C762.305 41.6445 761.785 42.2422 761.16 42.7344C760.535 43.2188 759.832 43.5898 759.051 43.8477C758.277 44.1055 757.453 44.2344 756.578 44.2344ZM771.109 44.2812C769.852 44.2812 768.762 44 767.84 43.4375C766.926 42.875 766.223 42.0898 765.73 41.082C765.238 40.0664 764.992 38.8906 764.992 37.5547C764.992 36.2109 765.234 35.0273 765.719 34.0039C766.203 32.9805 766.883 32.1797 767.758 31.6016C768.641 31.0234 769.672 30.7344 770.852 30.7344C771.531 30.7344 772.207 30.8477 772.879 31.0742C773.551 31.3008 774.16 31.668 774.707 32.1758C775.262 32.6836 775.703 33.3555 776.031 34.1914C776.359 35.0273 776.523 36.0547 776.523 37.2734V38.1406H766.422V36.4062H775.434L774.508 37.0625C774.508 36.1875 774.371 35.4102 774.098 34.7305C773.824 34.0508 773.414 33.5156 772.867 33.125C772.328 32.7344 771.656 32.5391 770.852 32.5391C770.047 32.5391 769.355 32.7383 768.777 33.1367C768.207 33.5273 767.77 34.0391 767.465 34.6719C767.16 35.3047 767.008 35.9844 767.008 36.7109V37.8594C767.008 38.8516 767.18 39.6914 767.523 40.3789C767.867 41.0664 768.348 41.5898 768.965 41.9492C769.582 42.3008 770.297 42.4766 771.109 42.4766C771.633 42.4766 772.109 42.4023 772.539 42.2539C772.969 42.0977 773.34 41.8672 773.652 41.5625C773.965 41.25 774.203 40.8672 774.367 40.4141L776.312 40.9766C776.109 41.6328 775.766 42.2109 775.281 42.7109C774.805 43.2031 774.211 43.5898 773.5 43.8711C772.789 44.1445 771.992 44.2812 771.109 44.2812ZM778.422 48.8984V30.8984H780.344V32.9844H780.578C780.727 32.7578 780.934 32.4688 781.199 32.1172C781.465 31.7578 781.848 31.4375 782.348 31.1562C782.848 30.875 783.523 30.7344 784.375 30.7344C785.477 30.7344 786.445 31.0117 787.281 31.5664C788.117 32.1133 788.77 32.8945 789.238 33.9102C789.715 34.918 789.953 36.1094 789.953 37.4844C789.953 38.8672 789.719 40.0703 789.25 41.0938C788.781 42.1094 788.129 42.8945 787.293 43.4492C786.457 44.0039 785.492 44.2812 784.398 44.2812C783.562 44.2812 782.891 44.1406 782.383 43.8594C781.875 43.5703 781.484 43.2461 781.211 42.8867C780.938 42.5195 780.727 42.2188 780.578 41.9844H780.414V48.8984H778.422ZM784.141 42.4766C784.977 42.4766 785.676 42.2539 786.238 41.8086C786.801 41.3555 787.223 40.75 787.504 39.9922C787.793 39.2344 787.938 38.3906 787.938 37.4609C787.938 36.5391 787.797 35.707 787.516 34.9648C787.234 34.2227 786.812 33.6328 786.25 33.1953C785.695 32.7578 784.992 32.5391 784.141 32.5391C783.32 32.5391 782.633 32.7461 782.078 33.1602C781.523 33.5664 781.102 34.1406 780.812 34.8828C780.531 35.6172 780.391 36.4766 780.391 37.4609C780.391 38.4453 780.535 39.3164 780.824 40.0742C781.113 40.8242 781.535 41.4141 782.09 41.8438C782.652 42.2656 783.336 42.4766 784.141 42.4766ZM790.188 32.7734V30.8984H800.805V32.7734H796.516V44H794.5V32.7734H790.188ZM804.625 41.0234L810.93 30.8984H813.25V44H811.258V33.875L804.977 44H802.633V30.8984H804.625V41.0234ZM821.125 48.4766V26.5391H823.141V48.4766H821.125ZM821.125 44.2812C820.242 44.2812 819.438 44.1211 818.711 43.8008C817.984 43.4727 817.359 43.0117 816.836 42.418C816.312 41.8242 815.906 41.1133 815.617 40.2852C815.336 39.457 815.195 38.5391 815.195 37.5312C815.195 36.5078 815.336 35.5781 815.617 34.7422C815.906 33.9062 816.312 33.1914 816.836 32.5977C817.359 31.9961 817.984 31.5352 818.711 31.2148C819.438 30.8945 820.242 30.7344 821.125 30.7344H821.758V44.2812H821.125ZM821.125 42.4766H821.477V32.5391H821.125C820.234 32.5391 819.5 32.7734 818.922 33.2422C818.344 33.7109 817.914 34.3242 817.633 35.082C817.352 35.832 817.211 36.6484 817.211 37.5312C817.211 38.1875 817.289 38.8125 817.445 39.4062C817.602 39.9922 817.84 40.5156 818.16 40.9766C818.48 41.4375 818.887 41.8047 819.379 42.0781C819.871 42.3438 820.453 42.4766 821.125 42.4766ZM823.141 44.2812H822.531V30.7344H823.141C824.031 30.7344 824.84 30.8945 825.566 31.2148C826.293 31.5352 826.918 31.9961 827.441 32.5977C827.965 33.1914 828.367 33.9062 828.648 34.7422C828.93 35.5781 829.07 36.5078 829.07 37.5312C829.07 38.5391 828.93 39.457 828.648 40.2852C828.367 41.1133 827.965 41.8242 827.441 42.418C826.918 43.0117 826.293 43.4727 825.566 43.8008C824.84 44.1211 824.031 44.2812 823.141 44.2812ZM823.141 42.4766C823.812 42.4766 824.395 42.3438 824.887 42.0781C825.387 41.8047 825.797 41.4375 826.117 40.9766C826.438 40.5156 826.676 39.9922 826.832 39.4062C826.996 38.8125 827.078 38.1875 827.078 37.5312C827.078 36.6484 826.934 35.832 826.645 35.082C826.363 34.3242 825.934 33.7109 825.355 33.2422C824.777 32.7734 824.039 32.5391 823.141 32.5391H822.812V42.4766H823.141ZM833.008 41.0234L839.312 30.8984H841.633V44H839.641V33.875L833.359 44H831.016V30.8984H833.008V41.0234ZM854.5 30.8984V44H844.211V30.8984H846.227V42.125H852.508V30.8984H854.5ZM856.352 42.125V48.2188H854.336V42.125H856.352ZM859.984 41.0234L866.289 30.8984H868.609V44H866.617V33.875L860.336 44H857.992V30.8984H859.984V41.0234ZM871.188 48.8984V30.8984H873.109V32.9844H873.344C873.492 32.7578 873.699 32.4688 873.965 32.1172C874.23 31.7578 874.613 31.4375 875.113 31.1562C875.613 30.875 876.289 30.7344 877.141 30.7344C878.242 30.7344 879.211 31.0117 880.047 31.5664C880.883 32.1133 881.535 32.8945 882.004 33.9102C882.48 34.918 882.719 36.1094 882.719 37.4844C882.719 38.8672 882.484 40.0703 882.016 41.0938C881.547 42.1094 880.895 42.8945 880.059 43.4492C879.223 44.0039 878.258 44.2812 877.164 44.2812C876.328 44.2812 875.656 44.1406 875.148 43.8594C874.641 43.5703 874.25 43.2461 873.977 42.8867C873.703 42.5195 873.492 42.2188 873.344 41.9844H873.18V48.8984H871.188ZM876.906 42.4766C877.742 42.4766 878.441 42.2539 879.004 41.8086C879.566 41.3555 879.988 40.75 880.27 39.9922C880.559 39.2344 880.703 38.3906 880.703 37.4609C880.703 36.5391 880.562 35.707 880.281 34.9648C880 34.2227 879.578 33.6328 879.016 33.1953C878.461 32.7578 877.758 32.5391 876.906 32.5391C876.086 32.5391 875.398 32.7461 874.844 33.1602C874.289 33.5664 873.867 34.1406 873.578 34.8828C873.297 35.6172 873.156 36.4766 873.156 37.4609C873.156 38.4453 873.301 39.3164 873.59 40.0742C873.879 40.8242 874.301 41.4141 874.855 41.8438C875.418 42.2656 876.102 42.4766 876.906 42.4766ZM889.961 44.2812C888.781 44.2812 887.746 44 886.855 43.4375C885.965 42.875 885.27 42.0859 884.77 41.0703C884.277 40.0547 884.031 38.875 884.031 37.5312C884.031 36.1641 884.277 34.9727 884.77 33.957C885.27 32.9336 885.965 32.1406 886.855 31.5781C887.746 31.0156 888.781 30.7344 889.961 30.7344C891.148 30.7344 892.188 31.0156 893.078 31.5781C893.969 32.1406 894.664 32.9336 895.164 33.957C895.664 34.9727 895.914 36.1641 895.914 37.5312C895.914 38.875 895.664 40.0547 895.164 41.0703C894.664 42.0859 893.969 42.875 893.078 43.4375C892.188 44 891.148 44.2812 889.961 44.2812ZM889.961 42.4766C890.867 42.4766 891.609 42.2461 892.188 41.7852C892.766 41.3242 893.195 40.7188 893.477 39.9688C893.758 39.2109 893.898 38.3984 893.898 37.5312C893.898 36.6484 893.758 35.8281 893.477 35.0703C893.195 34.3125 892.766 33.7031 892.188 33.2422C891.609 32.7734 890.867 32.5391 889.961 32.5391C889.07 32.5391 888.336 32.7734 887.758 33.2422C887.18 33.7031 886.75 34.3125 886.469 35.0703C886.188 35.8281 886.047 36.6484 886.047 37.5312C886.047 38.3984 886.188 39.2109 886.469 39.9688C886.75 40.7188 887.18 41.3242 887.758 41.7852C888.336 42.2461 889.07 42.4766 889.961 42.4766ZM897.859 44V30.8984H903.203C904.609 30.9062 905.727 31.2305 906.555 31.8711C907.391 32.5039 907.805 33.3438 907.797 34.3906C907.805 35.1875 907.57 35.8008 907.094 36.2305C906.625 36.6602 906.023 36.9531 905.289 37.1094C905.766 37.1797 906.23 37.3516 906.684 37.625C907.145 37.8984 907.527 38.2734 907.832 38.75C908.137 39.2188 908.289 39.7969 908.289 40.4844C908.289 41.1562 908.117 41.7578 907.773 42.2891C907.43 42.8203 906.941 43.2383 906.309 43.543C905.676 43.8477 904.914 44 904.023 44H897.859ZM899.758 42.1484H904.023C904.711 42.1562 905.25 41.9961 905.641 41.668C906.039 41.3398 906.234 40.8906 906.227 40.3203C906.234 39.6406 906.039 39.1094 905.641 38.7266C905.25 38.3359 904.711 38.1406 904.023 38.1406H899.758V42.1484ZM899.758 36.4062H903.203C904.008 36.3984 904.641 36.2305 905.102 35.9023C905.562 35.5664 905.789 35.1094 905.781 34.5312C905.789 33.9766 905.562 33.543 905.102 33.2305C904.641 32.9102 904.008 32.75 903.203 32.75H899.758V36.4062ZM914.055 44.3047C913.227 44.3047 912.473 44.1484 911.793 43.8359C911.113 43.5156 910.574 43.0547 910.176 42.4531C909.777 41.8516 909.578 41.125 909.578 40.2734C909.578 39.5234 909.727 38.918 910.023 38.457C910.32 37.9883 910.715 37.6211 911.207 37.3555C911.707 37.082 912.254 36.8789 912.848 36.7461C913.449 36.6133 914.055 36.5078 914.664 36.4297C915.461 36.3281 916.105 36.25 916.598 36.1953C917.098 36.1406 917.461 36.0469 917.688 35.9141C917.922 35.7812 918.039 35.5547 918.039 35.2344V35.1641C918.039 34.3281 917.809 33.6797 917.348 33.2188C916.895 32.75 916.203 32.5156 915.273 32.5156C914.32 32.5156 913.57 32.7266 913.023 33.1484C912.477 33.5625 912.094 34.0078 911.875 34.4844L909.953 33.8047C910.297 33.0078 910.754 32.3867 911.324 31.9414C911.902 31.4961 912.527 31.1836 913.199 31.0039C913.879 30.8242 914.547 30.7344 915.203 30.7344C915.625 30.7344 916.109 30.7852 916.656 30.8867C917.203 30.9805 917.734 31.1836 918.25 31.4961C918.773 31.8008 919.203 32.2656 919.539 32.8906C919.883 33.5078 920.055 34.3359 920.055 35.375V44H918.039V42.2188H917.945C917.812 42.5 917.586 42.8047 917.266 43.1328C916.945 43.4531 916.52 43.7305 915.988 43.9648C915.465 44.1914 914.82 44.3047 914.055 44.3047ZM914.359 42.5C915.156 42.5 915.828 42.3438 916.375 42.0312C916.922 41.7188 917.336 41.3164 917.617 40.8242C917.898 40.3242 918.039 39.8047 918.039 39.2656V37.4141C917.953 37.5156 917.766 37.6094 917.477 37.6953C917.195 37.7734 916.867 37.8438 916.492 37.9062C916.125 37.9688 915.766 38.0234 915.414 38.0703C915.062 38.1094 914.781 38.1406 914.57 38.1641C914.047 38.2344 913.559 38.3477 913.105 38.5039C912.652 38.6523 912.285 38.875 912.004 39.1719C911.73 39.4688 911.594 39.875 911.594 40.3906C911.594 41.0859 911.852 41.6133 912.367 41.9727C912.891 42.3242 913.555 42.5 914.359 42.5ZM931.375 36.5234V38.3984H924.156V36.5234H931.375ZM924.625 30.8984V44H922.633V30.8984H924.625ZM932.922 30.8984V44H930.906V30.8984H932.922ZM944.242 36.5234V38.3984H937.023V36.5234H944.242ZM937.492 30.8984V44H935.5V30.8984H937.492ZM945.789 30.8984V44H943.773V30.8984H945.789ZM950.102 35.6562H953.852C955.383 35.6484 956.555 36.0352 957.367 36.8164C958.18 37.5977 958.586 38.5859 958.586 39.7812C958.586 40.5625 958.402 41.2734 958.035 41.9141C957.676 42.5469 957.145 43.0547 956.441 43.4375C955.738 43.8125 954.875 44 953.852 44H948.367V30.8984H950.359V42.125H953.852C954.641 42.125 955.289 41.918 955.797 41.5039C956.312 41.082 956.57 40.5391 956.57 39.875C956.57 39.1797 956.312 38.6133 955.797 38.1758C955.289 37.7383 954.641 37.5234 953.852 37.5312H950.102V35.6562ZM960.672 44V30.8984H962.664V44H960.672ZM970.727 44.2812C969.469 44.2812 968.379 44 967.457 43.4375C966.543 42.875 965.84 42.0898 965.348 41.082C964.855 40.0664 964.609 38.8906 964.609 37.5547C964.609 36.2109 964.852 35.0273 965.336 34.0039C965.82 32.9805 966.5 32.1797 967.375 31.6016C968.258 31.0234 969.289 30.7344 970.469 30.7344C971.148 30.7344 971.824 30.8477 972.496 31.0742C973.168 31.3008 973.777 31.668 974.324 32.1758C974.879 32.6836 975.32 33.3555 975.648 34.1914C975.977 35.0273 976.141 36.0547 976.141 37.2734V38.1406H966.039V36.4062H975.051L974.125 37.0625C974.125 36.1875 973.988 35.4102 973.715 34.7305C973.441 34.0508 973.031 33.5156 972.484 33.125C971.945 32.7344 971.273 32.5391 970.469 32.5391C969.664 32.5391 968.973 32.7383 968.395 33.1367C967.824 33.5273 967.387 34.0391 967.082 34.6719C966.777 35.3047 966.625 35.9844 966.625 36.7109V37.8594C966.625 38.8516 966.797 39.6914 967.141 40.3789C967.484 41.0664 967.965 41.5898 968.582 41.9492C969.199 42.3008 969.914 42.4766 970.727 42.4766C971.25 42.4766 971.727 42.4023 972.156 42.2539C972.586 42.0977 972.957 41.8672 973.27 41.5625C973.582 41.25 973.82 40.8672 973.984 40.4141L975.93 40.9766C975.727 41.6328 975.383 42.2109 974.898 42.7109C974.422 43.2031 973.828 43.5898 973.117 43.8711C972.406 44.1445 971.609 44.2812 970.727 44.2812ZM754.586 75.2812C753.367 75.2812 752.312 74.9922 751.422 74.4141C750.539 73.8281 749.855 73.0273 749.371 72.0117C748.895 70.9961 748.656 69.8359 748.656 68.5312C748.656 67.1953 748.902 66.0195 749.395 65.0039C749.887 63.9805 750.574 63.1797 751.457 62.6016C752.348 62.0234 753.383 61.7344 754.562 61.7344C755.484 61.7344 756.312 61.9062 757.047 62.25C757.789 62.5859 758.395 63.0625 758.863 63.6797C759.34 64.2969 759.633 65.0156 759.742 65.8359H757.727C757.625 65.4375 757.441 65.0625 757.176 64.7109C756.91 64.3594 756.559 64.0781 756.121 63.8672C755.691 63.6484 755.18 63.5391 754.586 63.5391C753.805 63.5391 753.121 63.7422 752.535 64.1484C751.949 64.5547 751.492 65.1289 751.164 65.8711C750.836 66.6055 750.672 67.4688 750.672 68.4609C750.672 69.4688 750.832 70.3516 751.152 71.1094C751.473 71.8594 751.926 72.4414 752.512 72.8555C753.105 73.2695 753.797 73.4766 754.586 73.4766C755.375 73.4766 756.051 73.2734 756.613 72.8672C757.176 72.4531 757.547 71.8906 757.727 71.1797H759.742C759.633 71.9531 759.352 72.6484 758.898 73.2656C758.453 73.8828 757.863 74.375 757.129 74.7422C756.402 75.1016 755.555 75.2812 754.586 75.2812ZM760.469 75V73.125H760.938C761.469 73.125 761.883 72.9805 762.18 72.6914C762.477 72.3945 762.695 71.8555 762.836 71.0742C762.984 70.293 763.086 69.1719 763.141 67.7109L763.375 61.8984H772.094V75H770.078V63.7734H765.273L765.062 68.4609C765.016 69.5312 764.922 70.4766 764.781 71.2969C764.641 72.1094 764.422 72.793 764.125 73.3477C763.836 73.8945 763.449 74.3086 762.965 74.5898C762.48 74.8633 761.875 75 761.148 75H760.469ZM779.969 75.2812C778.789 75.2812 777.754 75 776.863 74.4375C775.973 73.875 775.277 73.0859 774.777 72.0703C774.285 71.0547 774.039 69.875 774.039 68.5312C774.039 67.1641 774.285 65.9727 774.777 64.957C775.277 63.9336 775.973 63.1406 776.863 62.5781C777.754 62.0156 778.789 61.7344 779.969 61.7344C781.156 61.7344 782.195 62.0156 783.086 62.5781C783.977 63.1406 784.672 63.9336 785.172 64.957C785.672 65.9727 785.922 67.1641 785.922 68.5312C785.922 69.875 785.672 71.0547 785.172 72.0703C784.672 73.0859 783.977 73.875 783.086 74.4375C782.195 75 781.156 75.2812 779.969 75.2812ZM779.969 73.4766C780.875 73.4766 781.617 73.2461 782.195 72.7852C782.773 72.3242 783.203 71.7188 783.484 70.9688C783.766 70.2109 783.906 69.3984 783.906 68.5312C783.906 67.6484 783.766 66.8281 783.484 66.0703C783.203 65.3125 782.773 64.7031 782.195 64.2422C781.617 63.7734 780.875 63.5391 779.969 63.5391C779.078 63.5391 778.344 63.7734 777.766 64.2422C777.188 64.7031 776.758 65.3125 776.477 66.0703C776.195 66.8281 776.055 67.6484 776.055 68.5312C776.055 69.3984 776.195 70.2109 776.477 70.9688C776.758 71.7188 777.188 72.3242 777.766 72.7852C778.344 73.2461 779.078 73.4766 779.969 73.4766ZM786.156 63.7734V61.8984H796.773V63.7734H792.484V75H790.469V63.7734H786.156ZM800.336 66.6562H804.086C805.617 66.6484 806.789 67.0352 807.602 67.8164C808.414 68.5977 808.82 69.5859 808.82 70.7812C808.82 71.5625 808.637 72.2734 808.27 72.9141C807.91 73.5469 807.379 74.0547 806.676 74.4375C805.973 74.8125 805.109 75 804.086 75H798.602V61.8984H800.594V73.125H804.086C804.875 73.125 805.523 72.918 806.031 72.5039C806.547 72.082 806.805 71.5391 806.805 70.875C806.805 70.1797 806.547 69.6133 806.031 69.1758C805.523 68.7383 804.875 68.5234 804.086 68.5312H800.336V66.6562ZM810.906 75V61.8984H812.898V75H810.906Z" fill="#010101"/>
<defs>
<linearGradient id="paint0_linear_184_5683" x1="733" y1="-34" x2="777.078" y2="257.691" gradientUnits="userSpaceOnUse">
<stop stop-color="white"/>
<stop offset="0.295" stop-color="white" stop-opacity="0"/>
<stop offset="0.732787" stop-color="white" stop-opacity="0"/>
<stop offset="1" stop-color="white"/>
</linearGradient>
</defs>
</svg>
