<svg width="587" height="219" viewBox="0 0 587 219" fill="none" xmlns="http://www.w3.org/2000/svg">
<path d="M251.767 81.541L268.617 53.7871L276.615 53.7871V92H269.369V64.2119L252.587 92H244.555V53.7871H251.767V81.541ZM309.564 69.6807V76.1064L288.886 76.1064V69.6807L309.564 69.6807ZM290.937 53.7871V92H283.725V53.7871H290.937ZM314.76 53.7871V92H307.514V53.7871H314.76ZM327.714 53.7871L336.088 68.6895L344.599 53.7871H352.768L340.873 72.9277L352.836 92L344.735 92L336.088 77.7129L327.577 92H319.408L331.269 72.9277L319.545 53.7871H327.714ZM368.559 92.8203C366.143 92.8203 363.956 92.376 361.996 91.4873C360.036 90.5758 358.487 89.2542 357.348 87.5225C356.208 85.7907 355.639 83.6829 355.639 81.1992C355.639 79.0345 356.049 77.2686 356.869 75.9014C357.712 74.5114 358.84 73.4062 360.253 72.5859C361.666 71.7656 363.238 71.1504 364.97 70.7402C366.701 70.3301 368.479 70.0111 370.302 69.7832C372.603 69.5326 374.46 69.3161 375.873 69.1338C377.286 68.9515 378.311 68.6667 378.949 68.2793C379.61 67.8691 379.94 67.2197 379.94 66.3311V66.1602C379.94 63.9954 379.325 62.3206 378.095 61.1357C376.887 59.9508 375.087 59.3584 372.694 59.3584C370.211 59.3584 368.24 59.9053 366.781 60.999C365.346 62.07 364.354 63.2891 363.808 64.6562L356.801 63.0498C357.644 60.7256 358.863 58.8571 360.458 57.4443C362.076 56.0088 363.922 54.9606 365.995 54.2998C368.091 53.639 370.279 53.3086 372.558 53.3086C374.084 53.3086 375.702 53.4909 377.411 53.8555C379.12 54.1973 380.727 54.8467 382.23 55.8037C383.757 56.738 384.999 58.0824 385.956 59.8369C386.913 61.5915 387.392 63.8587 387.392 66.6387V92H380.111V86.7705H379.838C379.382 87.7048 378.664 88.639 377.685 89.5732C376.728 90.5075 375.497 91.2822 373.993 91.8975C372.489 92.5127 370.678 92.8203 368.559 92.8203ZM370.165 86.873C372.239 86.873 374.005 86.4743 375.463 85.6768C376.921 84.8564 378.038 83.7855 378.812 82.4639C379.587 81.1423 379.975 79.7409 379.975 78.2598V73.3037C379.701 73.5544 379.188 73.7936 378.437 74.0215C377.685 74.2493 376.83 74.443 375.873 74.6025C374.916 74.762 373.982 74.9102 373.07 75.0469C372.159 75.1608 371.396 75.252 370.78 75.3203C369.345 75.5254 368.035 75.8444 366.85 76.2773C365.665 76.6875 364.708 77.3027 363.979 78.123C363.272 78.9206 362.919 79.9801 362.919 81.3018C362.919 83.1475 363.603 84.5374 364.97 85.4717C366.337 86.4059 368.069 86.873 370.165 86.873ZM397.816 106.287C396.7 106.31 395.686 106.23 394.774 106.048C393.886 105.888 393.202 105.695 392.724 105.467L394.535 99.417L395.048 99.5537C396.939 100.032 398.534 99.998 399.833 99.4512C401.155 98.9271 402.26 97.4574 403.148 95.042L404.071 92.5127L390.126 53.7871H398.09L407.729 83.4551H408.139L417.812 53.7871H425.775L410.053 97.0586C409.324 99.0638 408.401 100.75 407.284 102.117C406.168 103.507 404.823 104.544 403.251 105.228C401.701 105.934 399.89 106.287 397.816 106.287ZM444.54 92.7861C440.871 92.7861 437.704 91.943 435.038 90.2568C432.372 88.5706 430.321 86.2464 428.886 83.2842C427.45 80.3219 426.732 76.9268 426.732 73.0986C426.732 69.2021 427.462 65.7728 428.92 62.8105C430.401 59.8255 432.463 57.5013 435.106 55.8379C437.772 54.1517 440.894 53.3086 444.472 53.3086C447.388 53.3086 449.975 53.8441 452.23 54.915C454.509 55.9632 456.343 57.4557 457.733 59.3926C459.146 61.3294 459.978 63.5853 460.229 66.1602H452.982C452.732 64.9525 452.242 63.8473 451.513 62.8447C450.806 61.8421 449.872 61.0446 448.71 60.4521C447.548 59.8597 446.169 59.5635 444.574 59.5635C442.501 59.5635 440.689 60.1104 439.14 61.2041C437.613 62.2751 436.417 63.8132 435.551 65.8184C434.685 67.8236 434.252 70.1934 434.252 72.9277C434.252 75.6849 434.674 78.0889 435.517 80.1396C436.36 82.1904 437.556 83.7741 439.105 84.8906C440.678 85.9844 442.501 86.5312 444.574 86.5312C446.716 86.5312 448.539 85.9388 450.043 84.7539C451.57 83.569 452.549 81.9512 452.982 79.9004H460.229C459.978 82.3841 459.18 84.5944 457.836 86.5312C456.492 88.4681 454.691 89.9948 452.436 91.1113C450.18 92.2279 447.548 92.7861 444.54 92.7861ZM488.29 81.541L505.141 53.7871H513.139V92H505.893V64.2119L489.11 92L481.078 92V53.7871H488.29V81.541ZM544.618 53.7871V60.2129L527.528 60.2129V92H520.248V53.7871L544.618 53.7871ZM549.574 106.287V53.7871H556.752V60.0078H557.367C557.823 59.2103 558.45 58.2874 559.247 57.2393C560.067 56.1911 561.207 55.2796 562.665 54.5049C564.123 53.7074 566.026 53.3086 568.373 53.3086C571.449 53.3086 574.184 54.0833 576.576 55.6328C578.992 57.1823 580.894 59.4268 582.284 62.3662C583.674 65.3057 584.369 68.849 584.369 72.9961C584.369 77.0977 583.686 80.6296 582.318 83.5918C580.951 86.5312 579.06 88.7985 576.645 90.3936C574.252 91.9658 571.506 92.752 568.407 92.752C566.106 92.752 564.215 92.3646 562.733 91.5898C561.275 90.7923 560.124 89.8695 559.281 88.8213C558.461 87.7731 557.823 86.8503 557.367 86.0527H556.957V106.287L549.574 106.287ZM566.801 86.4287C569.011 86.4287 570.857 85.8363 572.338 84.6514C573.819 83.4665 574.936 81.86 575.688 79.832C576.462 77.7812 576.85 75.4798 576.85 72.9277C576.85 70.3984 576.474 68.1312 575.722 66.126C574.97 64.1208 573.853 62.5371 572.372 61.375C570.891 60.2129 569.034 59.6318 566.801 59.6318C564.636 59.6318 562.813 60.1901 561.332 61.3066C559.851 62.4004 558.723 63.9499 557.948 65.9551C557.196 67.9375 556.82 70.2617 556.82 72.9277C556.82 75.5937 557.208 77.9408 557.982 79.9687C558.757 81.9967 559.885 83.5804 561.366 84.7197C562.87 85.859 564.682 86.4287 566.801 86.4287Z" fill="#010101"/>
<path d="M87.3047 0.738281L87.3047 219H61.5234L61.5234 28.5703H60.0586L7.03125 64.0195L7.03125 37.0664L61.5234 0.738281L87.3047 0.738281ZM193.945 0.738281L193.945 219H168.164L168.164 28.5703H166.699L113.672 64.0195L113.672 37.0664L168.164 0.738281L193.945 0.738281Z" fill="#010101"/>
</svg>
