<svg width="530" height="219" viewBox="0 0 530 219" fill="none" xmlns="http://www.w3.org/2000/svg">
<path d="M431.767 81.541L448.617 53.7871L456.615 53.7871V92H449.369V64.2119L432.587 92H424.555V53.7871H431.767V81.541ZM488.095 53.7871V60.2129L471.005 60.2129V92H463.725V53.7871L488.095 53.7871ZM493.051 106.287V53.7871H500.229V60.0078H500.844C501.299 59.2103 501.926 58.2874 502.724 57.2393C503.544 56.1911 504.683 55.2796 506.142 54.5049C507.6 53.7074 509.503 53.3086 511.85 53.3086C514.926 53.3086 517.66 54.0833 520.053 55.6328C522.468 57.1823 524.371 59.4268 525.761 62.3662C527.151 65.3057 527.846 68.849 527.846 72.9961C527.846 77.0977 527.162 80.6296 525.795 83.5918C524.428 86.5312 522.536 88.7985 520.121 90.3936C517.729 91.9658 514.983 92.752 511.884 92.752C509.582 92.752 507.691 92.3646 506.21 91.5898C504.752 90.7923 503.601 89.8695 502.758 88.8213C501.938 87.7731 501.299 86.8503 500.844 86.0527H500.434V106.287H493.051ZM510.277 86.4287C512.488 86.4287 514.333 85.8363 515.814 84.6514C517.296 83.4665 518.412 81.86 519.164 79.832C519.939 77.7812 520.326 75.4798 520.326 72.9277C520.326 70.3984 519.95 68.1312 519.198 66.126C518.446 64.1208 517.33 62.5371 515.849 61.375C514.368 60.2129 512.51 59.6318 510.277 59.6318C508.113 59.6318 506.29 60.1901 504.809 61.3066C503.327 62.4004 502.2 63.9499 501.425 65.9551C500.673 67.9375 500.297 70.2617 500.297 72.9277C500.297 75.5937 500.684 77.9408 501.459 79.9687C502.234 81.9967 503.362 83.5804 504.843 84.7197C506.347 85.859 508.158 86.4287 510.277 86.4287Z" fill="#010101"/>
<path d="M22.2656 219L119.824 25.9336V24.1758L7.32422 24.1758L7.32422 0.738281L147.363 0.738281V25.6406L50.0977 219H22.2656ZM170.801 219L170.801 55.2305H195.703L195.703 126.422H212.402L271.289 55.2305L303.516 55.2305L237.598 134.332L304.395 219H272.168L218.262 149.859H195.703V219H170.801Z" fill="#010101"/>
<rect x="302" y="86" width="100" height="100" rx="50" fill="#F84204"/>
<path fill-rule="evenodd" clip-rule="evenodd" d="M355.333 119.333C355.333 117.492 353.841 116 352 116C350.159 116 348.667 117.492 348.667 119.333V129.333C348.667 131.174 350.159 132.667 352 132.667C353.841 132.667 355.333 131.174 355.333 129.333V119.333ZM335.333 132.667C333.492 132.667 332 134.159 332 136C332 137.841 333.492 139.333 335.333 139.333H345.333C347.174 139.333 348.667 137.841 348.667 136C348.667 134.159 347.174 132.667 345.333 132.667H335.333ZM355.333 136C355.333 134.159 356.826 132.667 358.667 132.667H368.667C370.508 132.667 372 134.159 372 136C372 137.841 370.508 139.333 368.667 139.333H358.667C356.826 139.333 355.333 137.841 355.333 136ZM355.333 142.667C355.333 140.826 353.841 139.333 352 139.333C350.159 139.333 348.667 140.826 348.667 142.667V152.667C348.667 154.508 350.159 156 352 156C353.841 156 355.333 154.508 355.333 152.667V142.667Z" fill="white"/>
</svg>
