<svg width="1082" height="220" viewBox="0 0 1082 220" fill="none" xmlns="http://www.w3.org/2000/svg">
<path d="M0 20C0 8.9543 8.95431 0 20 0H333.308C342.974 0 351.257 6.91248 352.986 16.4223L369.35 106.422C369.78 108.788 369.78 111.212 369.35 113.578L352.986 203.578C351.257 213.088 342.974 220 333.308 220H20C8.9543 220 0 211.046 0 200V20Z" fill="white"/>
<rect x="20" y="20" width="2" height="180" rx="1" fill="#F84204"/>
<rect x="29" y="180" width="2" height="20" rx="1" fill="#F84204"/>
<rect x="38" y="180" width="2" height="20" rx="1" fill="#F84204"/>
<rect x="47" y="180" width="2" height="20" rx="1" fill="#F84204"/>
<rect x="56" y="180" width="2" height="20" rx="1" fill="#F84204"/>
<rect x="65" y="180" width="2" height="20" rx="1" fill="#F84204"/>
<rect x="74" y="180" width="2" height="20" rx="1" fill="#F84204"/>
<rect x="83" y="180" width="2" height="20" rx="1" fill="#F84204"/>
<rect x="92" y="180" width="2" height="20" rx="1" fill="#F84204"/>
<rect x="101" y="180" width="2" height="20" rx="1" fill="#F84204"/>
<rect x="110" y="180" width="2" height="20" rx="1" fill="#F84204"/>
<rect x="119" y="180" width="2" height="20" rx="1" fill="#F84204"/>
<rect x="128" y="180" width="2" height="20" rx="1" fill="#F84204"/>
<rect x="137" y="180" width="2" height="20" rx="1" fill="#F84204"/>
<rect x="146" y="180" width="2" height="20" rx="1" fill="#F84204"/>
<rect x="155" y="180" width="2" height="20" rx="1" fill="#F84204"/>
<rect x="164" y="180" width="2" height="20" rx="1" fill="#F84204"/>
<rect x="173" y="180" width="2" height="20" rx="1" fill="#F84204"/>
<rect x="182" y="180" width="2" height="20" rx="1" fill="#F84204"/>
<rect x="191" y="180" width="2" height="20" rx="1" fill="#F84204"/>
<rect x="200" y="180" width="2" height="20" rx="1" fill="#F84204"/>
<rect x="209" y="180" width="2" height="20" rx="1" fill="#F84204"/>
<rect x="218" y="180" width="2" height="20" rx="1" fill="#F84204"/>
<rect x="227" y="180" width="2" height="20" rx="1" fill="#F84204"/>
<rect x="236" y="180" width="2" height="20" rx="1" fill="#F84204"/>
<rect x="245" y="180" width="2" height="20" rx="1" fill="#F84204"/>
<rect x="254" y="180" width="2" height="20" rx="1" fill="#F84204"/>
<rect x="263" y="180" width="2" height="20" rx="1" fill="#F84204"/>
<rect x="272" y="180" width="2" height="20" rx="1" fill="#F84204"/>
<rect x="281" y="180" width="2" height="20" rx="1" fill="#F84204"/>
<rect x="290" y="180" width="2" height="20" rx="1" fill="#F84204"/>
<rect x="299" y="180" width="2" height="20" rx="1" fill="#F84204"/>
<rect x="308" y="180" width="2" height="20" rx="1" fill="#F84204"/>
<rect x="317" y="180" width="2" height="20" rx="1" fill="#F84204"/>
<rect x="326" y="180" width="2" height="20" rx="1" fill="#F84204"/>
<rect x="335" y="180" width="2" height="20" rx="1" fill="#F84204"/>
<path d="M42.3523 44L50.1591 28.5568V28.4205H41.1591V26.5455H52.3409V28.5227L44.5682 44H42.3523ZM60.8359 44.2386C59.5518 44.2386 58.4581 43.8892 57.5547 43.1903C56.6513 42.4858 55.9609 41.4659 55.4837 40.1307C55.0064 38.7898 54.7678 37.1705 54.7678 35.2727C54.7678 33.3864 55.0064 31.7756 55.4837 30.4403C55.9666 29.0994 56.6598 28.0767 57.5632 27.3722C58.4723 26.6619 59.5632 26.3068 60.8359 26.3068C62.1087 26.3068 63.1967 26.6619 64.1001 27.3722C65.0092 28.0767 65.7024 29.0994 66.1797 30.4403C66.6626 31.7756 66.9041 33.3864 66.9041 35.2727C66.9041 37.1705 66.6655 38.7898 66.1882 40.1307C65.7109 41.4659 65.0206 42.4858 64.1172 43.1903C63.2138 43.8892 62.12 44.2386 60.8359 44.2386ZM60.8359 42.3636C62.1087 42.3636 63.0973 41.75 63.8018 40.5227C64.5064 39.2955 64.8587 37.5455 64.8587 35.2727C64.8587 33.7614 64.6967 32.4744 64.3729 31.4119C64.0547 30.3494 63.5945 29.5398 62.9922 28.983C62.3956 28.4261 61.6768 28.1477 60.8359 28.1477C59.5746 28.1477 58.5888 28.7699 57.8786 30.0142C57.1683 31.2528 56.8132 33.0057 56.8132 35.2727C56.8132 36.7841 56.9723 38.0682 57.2905 39.125C57.6087 40.1818 58.0661 40.9858 58.6626 41.5369C59.2649 42.0881 59.9893 42.3636 60.8359 42.3636ZM75.2905 40.9318V29.6818H77.1996V40.9318H75.2905ZM70.62 36.2614V34.3523H81.87V36.2614H70.62ZM41.8409 79.9091V61.9091H43.7841V63.9886H44.0227C44.1705 63.7614 44.375 63.4716 44.6364 63.1193C44.9034 62.7614 45.2841 62.4432 45.7784 62.1648C46.2784 61.8807 46.9545 61.7386 47.8068 61.7386C48.9091 61.7386 49.8807 62.0142 50.7216 62.5653C51.5625 63.1165 52.2188 63.8977 52.6903 64.9091C53.1619 65.9205 53.3977 67.1136 53.3977 68.4886C53.3977 69.875 53.1619 71.0767 52.6903 72.0938C52.2188 73.1051 51.5653 73.8892 50.7301 74.446C49.8949 74.9972 48.9318 75.2727 47.8409 75.2727C47 75.2727 46.3267 75.1335 45.821 74.8551C45.3153 74.571 44.9261 74.25 44.6534 73.892C44.3807 73.5284 44.1705 73.2273 44.0227 72.9886H43.8523V79.9091H41.8409ZM43.8182 68.4545C43.8182 69.4432 43.9631 70.3153 44.2528 71.071C44.5426 71.821 44.9659 72.4091 45.5227 72.8352C46.0795 73.2557 46.7614 73.4659 47.5682 73.4659C48.4091 73.4659 49.1108 73.2443 49.6733 72.8011C50.2415 72.3523 50.6676 71.75 50.9517 70.9943C51.2415 70.233 51.3864 69.3864 51.3864 68.4545C51.3864 67.5341 51.2443 66.7045 50.9602 65.9659C50.6818 65.2216 50.2585 64.6335 49.6903 64.2017C49.1278 63.7642 48.4205 63.5455 47.5682 63.5455C46.75 63.5455 46.0625 63.7528 45.5057 64.1676C44.9489 64.5767 44.5284 65.1506 44.2443 65.8892C43.9602 66.6222 43.8182 67.4773 43.8182 68.4545ZM56.4659 75V61.9091H58.4091V63.8864H58.5455C58.7841 63.2386 59.2159 62.7131 59.8409 62.3097C60.4659 61.9062 61.1705 61.7045 61.9545 61.7045C62.1023 61.7045 62.2869 61.7074 62.5085 61.7131C62.7301 61.7187 62.8977 61.7273 63.0114 61.7386V63.7841C62.9432 63.767 62.7869 63.7415 62.5426 63.7074C62.304 63.6676 62.0511 63.6477 61.7841 63.6477C61.1477 63.6477 60.5795 63.7812 60.0795 64.0483C59.5852 64.3097 59.1932 64.6733 58.9034 65.1392C58.6193 65.5994 58.4773 66.125 58.4773 66.7159V75H56.4659ZM70.3153 75.2727C69.1335 75.2727 68.0966 74.9915 67.2045 74.429C66.3182 73.8665 65.625 73.0795 65.125 72.0682C64.6307 71.0568 64.3835 69.875 64.3835 68.5227C64.3835 67.1591 64.6307 65.9687 65.125 64.9517C65.625 63.9347 66.3182 63.1449 67.2045 62.5824C68.0966 62.0199 69.1335 61.7386 70.3153 61.7386C71.4972 61.7386 72.5313 62.0199 73.4176 62.5824C74.3097 63.1449 75.0028 63.9347 75.4972 64.9517C75.9972 65.9687 76.2472 67.1591 76.2472 68.5227C76.2472 69.875 75.9972 71.0568 75.4972 72.0682C75.0028 73.0795 74.3097 73.8665 73.4176 74.429C72.5313 74.9915 71.4972 75.2727 70.3153 75.2727ZM70.3153 73.4659C71.2131 73.4659 71.9517 73.2358 72.5312 72.7756C73.1108 72.3153 73.5398 71.7102 73.8182 70.9602C74.0966 70.2102 74.2358 69.3977 74.2358 68.5227C74.2358 67.6477 74.0966 66.8324 73.8182 66.0767C73.5398 65.321 73.1108 64.7102 72.5312 64.2443C71.9517 63.7784 71.2131 63.5455 70.3153 63.5455C69.4176 63.5455 68.679 63.7784 68.0994 64.2443C67.5199 64.7102 67.0909 65.321 66.8125 66.0767C66.5341 66.8324 66.3949 67.6477 66.3949 68.5227C66.3949 69.3977 66.5341 70.2102 66.8125 70.9602C67.0909 71.7102 67.5199 72.3153 68.0994 72.7756C68.679 73.2358 69.4176 73.4659 70.3153 73.4659ZM89.5533 61.9091L84.7124 75H82.6669L77.826 61.9091H80.0078L83.6214 72.3409H83.7578L87.3714 61.9091H89.5533ZM92.2081 75V61.9091H94.2195V75H92.2081ZM93.2308 59.7273C92.8388 59.7273 92.5007 59.5938 92.2166 59.3267C91.9382 59.0597 91.799 58.7386 91.799 58.3636C91.799 57.9886 91.9382 57.6676 92.2166 57.4006C92.5007 57.1335 92.8388 57 93.2308 57C93.6229 57 93.9581 57.1335 94.2365 57.4006C94.5206 57.6676 94.6626 57.9886 94.6626 58.3636C94.6626 58.7386 94.5206 59.0597 94.2365 59.3267C93.9581 59.5938 93.6229 59.7273 93.2308 59.7273ZM102.847 75.2727C101.756 75.2727 100.793 74.9972 99.9574 74.446C99.1222 73.8892 98.4688 73.1051 97.9972 72.0938C97.5256 71.0767 97.2898 69.875 97.2898 68.4886C97.2898 67.1136 97.5256 65.9205 97.9972 64.9091C98.4688 63.8977 99.125 63.1165 99.9659 62.5653C100.807 62.0142 101.778 61.7386 102.881 61.7386C103.733 61.7386 104.406 61.8807 104.901 62.1648C105.401 62.4432 105.781 62.7614 106.043 63.1193C106.31 63.4716 106.517 63.7614 106.665 63.9886H106.835V57.5455H108.847V75H106.903V72.9886H106.665C106.517 73.2273 106.307 73.5284 106.034 73.892C105.761 74.25 105.372 74.571 104.866 74.8551C104.361 75.1335 103.688 75.2727 102.847 75.2727ZM103.119 73.4659C103.926 73.4659 104.608 73.2557 105.165 72.8352C105.722 72.4091 106.145 71.821 106.435 71.071C106.724 70.3153 106.869 69.4432 106.869 68.4545C106.869 67.4773 106.727 66.6222 106.443 65.8892C106.159 65.1506 105.739 64.5767 105.182 64.1676C104.625 63.7528 103.938 63.5455 103.119 63.5455C102.267 63.5455 101.557 63.7642 100.989 64.2017C100.426 64.6335 100.003 65.2216 99.7188 65.9659C99.4403 66.7045 99.3011 67.5341 99.3011 68.4545C99.3011 69.3864 99.4432 70.233 99.7273 70.9943C100.017 71.75 100.443 72.3523 101.006 72.8011C101.574 73.2443 102.278 73.4659 103.119 73.4659ZM118.298 75.2727C117.037 75.2727 115.949 74.9943 115.034 74.4375C114.125 73.875 113.423 73.0909 112.929 72.0852C112.44 71.0739 112.196 69.8977 112.196 68.5568C112.196 67.2159 112.44 66.0341 112.929 65.0114C113.423 63.983 114.111 63.1818 114.991 62.608C115.878 62.0284 116.912 61.7386 118.094 61.7386C118.776 61.7386 119.449 61.8523 120.114 62.0795C120.778 62.3068 121.384 62.6761 121.929 63.1875C122.474 63.6932 122.909 64.3636 123.233 65.1989C123.557 66.0341 123.719 67.0625 123.719 68.2841V69.1364H113.628V67.3977H121.673C121.673 66.6591 121.526 66 121.23 65.4205C120.94 64.8409 120.526 64.3835 119.986 64.0483C119.452 63.7131 118.821 63.5455 118.094 63.5455C117.293 63.5455 116.599 63.7443 116.014 64.142C115.435 64.5341 114.989 65.0455 114.676 65.6761C114.364 66.3068 114.207 66.983 114.207 67.7045V68.8636C114.207 69.8523 114.378 70.6903 114.719 71.3778C115.065 72.0597 115.545 72.5795 116.159 72.9375C116.773 73.2898 117.486 73.4659 118.298 73.4659C118.827 73.4659 119.304 73.392 119.73 73.2443C120.162 73.0909 120.534 72.8636 120.847 72.5625C121.159 72.2557 121.401 71.875 121.571 71.4205L123.514 71.9659C123.31 72.625 122.966 73.2045 122.483 73.7045C122 74.1989 121.403 74.5852 120.693 74.8636C119.983 75.1364 119.185 75.2727 118.298 75.2727ZM126.778 75V61.9091H128.722V63.8864H128.858C129.097 63.2386 129.528 62.7131 130.153 62.3097C130.778 61.9062 131.483 61.7045 132.267 61.7045C132.415 61.7045 132.599 61.7074 132.821 61.7131C133.043 61.7187 133.21 61.7273 133.324 61.7386V63.7841C133.256 63.767 133.099 63.7415 132.855 63.7074C132.616 63.6676 132.364 63.6477 132.097 63.6477C131.46 63.6477 130.892 63.7812 130.392 64.0483C129.898 64.3097 129.506 64.6733 129.216 65.1392C128.932 65.5994 128.79 66.125 128.79 66.7159V75H126.778ZM144.981 64.8409L143.174 65.3523C143.06 65.0511 142.893 64.7585 142.671 64.4744C142.455 64.1847 142.16 63.946 141.785 63.7585C141.41 63.571 140.93 63.4773 140.344 63.4773C139.543 63.4773 138.876 63.6619 138.342 64.0312C137.813 64.3949 137.549 64.858 137.549 65.4205C137.549 65.9205 137.731 66.3153 138.094 66.6051C138.458 66.8949 139.026 67.1364 139.799 67.3295L141.742 67.8068C142.913 68.0909 143.785 68.5256 144.359 69.1108C144.933 69.6903 145.219 70.4375 145.219 71.3523C145.219 72.1023 145.004 72.7727 144.572 73.3636C144.146 73.9545 143.549 74.4205 142.782 74.7614C142.015 75.1023 141.123 75.2727 140.106 75.2727C138.771 75.2727 137.665 74.983 136.79 74.4034C135.915 73.8239 135.362 72.9773 135.129 71.8636L137.038 71.3864C137.219 72.0909 137.563 72.6193 138.069 72.9716C138.58 73.3239 139.248 73.5 140.072 73.5C141.009 73.5 141.754 73.3011 142.305 72.9034C142.862 72.5 143.14 72.017 143.14 71.4545C143.14 71 142.981 70.6193 142.663 70.3125C142.344 70 141.856 69.767 141.197 69.6136L139.015 69.1023C137.816 68.8182 136.935 68.3778 136.373 67.7812C135.816 67.179 135.538 66.4261 135.538 65.5227C135.538 64.7841 135.745 64.1307 136.16 63.5625C136.58 62.9943 137.151 62.5483 137.873 62.2244C138.6 61.9006 139.424 61.7386 140.344 61.7386C141.64 61.7386 142.657 62.0227 143.396 62.5909C144.14 63.1591 144.668 63.9091 144.981 64.8409Z" fill="#010101"/>
<path d="M358.143 11.7888C357.027 5.65044 361.743 0 367.982 0H689.308C698.974 0 707.257 6.91248 708.986 16.4223L725.35 106.422C725.78 108.788 725.78 111.212 725.35 113.578L708.986 203.578C707.257 213.088 698.974 220 689.308 220H367.982C361.743 220 357.027 214.35 358.143 208.211L375.35 113.578C375.78 111.212 375.78 108.788 375.35 106.422L358.143 11.7888Z" fill="white"/>
<rect x="386" y="180" width="2" height="20" rx="1" fill="#F84204"/>
<rect x="395" y="180" width="2" height="20" rx="1" fill="#F84204"/>
<rect x="404" y="180" width="2" height="20" rx="1" fill="#F84204"/>
<rect x="413" y="180" width="2" height="20" rx="1" fill="#F84204"/>
<rect x="422" y="180" width="2" height="20" rx="1" fill="#F84204"/>
<rect x="431" y="180" width="2" height="20" rx="1" fill="#F84204"/>
<rect x="440" y="180" width="2" height="20" rx="1" fill="#F84204"/>
<rect x="449" y="180" width="2" height="20" rx="1" fill="#F84204"/>
<rect x="458" y="180" width="2" height="20" rx="1" fill="#F84204"/>
<rect x="467" y="180" width="2" height="20" rx="1" fill="#F84204"/>
<rect x="476" y="180" width="2" height="20" rx="1" fill="#F84204"/>
<rect x="485" y="180" width="2" height="20" rx="1" fill="#F84204"/>
<rect x="494" y="180" width="2" height="20" rx="1" fill="#F84204"/>
<rect x="503" y="180" width="2" height="20" rx="1" fill="#F84204"/>
<rect x="512" y="180" width="2" height="20" rx="1" fill="#F84204"/>
<rect x="521" y="180" width="2" height="20" rx="1" fill="#F84204"/>
<rect x="530" y="180" width="2" height="20" rx="1" fill="#F84204"/>
<rect x="539" y="180" width="2" height="20" rx="1" fill="#F84204"/>
<rect x="548" y="180" width="2" height="20" rx="1" fill="#F84204"/>
<rect x="557" y="180" width="2" height="20" rx="1" fill="#F84204"/>
<rect x="566" y="180" width="2" height="20" rx="1" fill="#F84204"/>
<rect x="575" y="180" width="2" height="20" rx="1" fill="#F84204"/>
<rect x="584" y="180" width="2" height="20" rx="1" fill="#F84204"/>
<rect x="593" y="180" width="2" height="20" rx="1" fill="#F84204"/>
<rect x="602" y="180" width="2" height="20" rx="1" fill="#F84204"/>
<rect x="611" y="180" width="2" height="20" rx="1" fill="#F84204"/>
<rect x="620" y="180" width="2" height="20" rx="1" fill="#F84204"/>
<rect x="629" y="180" width="2" height="20" rx="1" fill="#F84204"/>
<rect x="638" y="180" width="2" height="20" rx="1" fill="#F84204"/>
<rect x="647" y="180" width="2" height="20" rx="1" fill="#F84204"/>
<rect x="656" y="180" width="2" height="20" rx="1" fill="#F84204"/>
<rect x="665" y="180" width="2" height="20" rx="1" fill="#F84204"/>
<rect x="674" y="180" width="2" height="20" rx="1" fill="#F84204"/>
<rect x="683" y="180" width="2" height="20" rx="1" fill="#F84204"/>
<rect x="692" y="180" width="2" height="20" rx="1" fill="#F84204"/>
<path d="M396.227 26.5455V44H394.114V26.5455H396.227ZM402.204 36.125V44H400.192V30.9091H402.136V32.9545H402.306C402.613 32.2898 403.079 31.7557 403.704 31.3523C404.329 30.9432 405.136 30.7386 406.124 30.7386C407.011 30.7386 407.786 30.9205 408.451 31.2841C409.116 31.642 409.633 32.1875 410.002 32.9205C410.371 33.6477 410.556 34.5682 410.556 35.6818V44H408.545V35.8182C408.545 34.7898 408.278 33.9886 407.744 33.4148C407.21 32.8352 406.477 32.5455 405.545 32.5455C404.903 32.5455 404.329 32.6847 403.823 32.9631C403.323 33.2415 402.928 33.6477 402.638 34.1818C402.349 34.7159 402.204 35.3636 402.204 36.125ZM416.243 36.125V44H414.232V26.5455H416.243V32.9545H416.413C416.72 32.2784 417.18 31.7415 417.794 31.3438C418.413 30.9403 419.237 30.7386 420.266 30.7386C421.158 30.7386 421.939 30.9176 422.609 31.2756C423.28 31.6278 423.8 32.1705 424.169 32.9034C424.544 33.6307 424.732 34.5568 424.732 35.6818V44H422.72V35.8182C422.72 34.7784 422.45 33.9744 421.911 33.4062C421.376 32.8324 420.635 32.5455 419.686 32.5455C419.027 32.5455 418.436 32.6847 417.913 32.9631C417.396 33.2415 416.987 33.6477 416.686 34.1818C416.391 34.7159 416.243 35.3636 416.243 36.125ZM433.729 44.2727C432.548 44.2727 431.511 43.9915 430.619 43.429C429.732 42.8665 429.039 42.0795 428.539 41.0682C428.045 40.0568 427.798 38.875 427.798 37.5227C427.798 36.1591 428.045 34.9687 428.539 33.9517C429.039 32.9347 429.732 32.1449 430.619 31.5824C431.511 31.0199 432.548 30.7386 433.729 30.7386C434.911 30.7386 435.945 31.0199 436.832 31.5824C437.724 32.1449 438.417 32.9347 438.911 33.9517C439.411 34.9687 439.661 36.1591 439.661 37.5227C439.661 38.875 439.411 40.0568 438.911 41.0682C438.417 42.0795 437.724 42.8665 436.832 43.429C435.945 43.9915 434.911 44.2727 433.729 44.2727ZM433.729 42.4659C434.627 42.4659 435.366 42.2358 435.945 41.7756C436.525 41.3153 436.954 40.7102 437.232 39.9602C437.511 39.2102 437.65 38.3977 437.65 37.5227C437.65 36.6477 437.511 35.8324 437.232 35.0767C436.954 34.321 436.525 33.7102 435.945 33.2443C435.366 32.7784 434.627 32.5455 433.729 32.5455C432.832 32.5455 432.093 32.7784 431.513 33.2443C430.934 33.7102 430.505 34.321 430.227 35.0767C429.948 35.8324 429.809 36.6477 429.809 37.5227C429.809 38.3977 429.948 39.2102 430.227 39.9602C430.505 40.7102 430.934 41.3153 431.513 41.7756C432.093 42.2358 432.832 42.4659 433.729 42.4659ZM450.982 38.6477V30.9091H452.993V44H450.982V41.7841H450.845C450.538 42.4489 450.061 43.0142 449.413 43.4801C448.766 43.9403 447.947 44.1705 446.959 44.1705C446.141 44.1705 445.413 43.9915 444.777 43.6335C444.141 43.2699 443.641 42.7244 443.277 41.9972C442.913 41.2642 442.732 40.3409 442.732 39.2273V30.9091H444.743V39.0909C444.743 40.0455 445.01 40.8068 445.544 41.375C446.084 41.9432 446.771 42.2273 447.607 42.2273C448.107 42.2273 448.615 42.0994 449.132 41.8438C449.655 41.5881 450.092 41.196 450.445 40.6676C450.803 40.1392 450.982 39.4659 450.982 38.6477ZM465.95 33.8409L464.143 34.3523C464.029 34.0511 463.862 33.7585 463.64 33.4744C463.424 33.1847 463.129 32.946 462.754 32.7585C462.379 32.571 461.898 32.4773 461.313 32.4773C460.512 32.4773 459.844 32.6619 459.31 33.0312C458.782 33.3949 458.518 33.858 458.518 34.4205C458.518 34.9205 458.7 35.3153 459.063 35.6051C459.427 35.8949 459.995 36.1364 460.768 36.3295L462.711 36.8068C463.881 37.0909 464.754 37.5256 465.327 38.1108C465.901 38.6903 466.188 39.4375 466.188 40.3523C466.188 41.1023 465.972 41.7727 465.54 42.3636C465.114 42.9545 464.518 43.4205 463.751 43.7614C462.984 44.1023 462.092 44.2727 461.075 44.2727C459.739 44.2727 458.634 43.983 457.759 43.4034C456.884 42.8239 456.33 41.9773 456.097 40.8636L458.006 40.3864C458.188 41.0909 458.532 41.6193 459.038 41.9716C459.549 42.3239 460.217 42.5 461.04 42.5C461.978 42.5 462.722 42.3011 463.273 41.9034C463.83 41.5 464.109 41.017 464.109 40.4545C464.109 40 463.95 39.6193 463.631 39.3125C463.313 39 462.825 38.767 462.165 38.6136L459.984 38.1023C458.785 37.8182 457.904 37.3778 457.342 36.7812C456.785 36.179 456.506 35.4261 456.506 34.5227C456.506 33.7841 456.714 33.1307 457.129 32.5625C457.549 31.9943 458.12 31.5483 458.842 31.2244C459.569 30.9006 460.393 30.7386 461.313 30.7386C462.609 30.7386 463.626 31.0227 464.364 31.5909C465.109 32.1591 465.637 32.9091 465.95 33.8409ZM474.705 44.2727C473.443 44.2727 472.355 43.9943 471.44 43.4375C470.531 42.875 469.83 42.0909 469.335 41.0852C468.847 40.0739 468.602 38.8977 468.602 37.5568C468.602 36.2159 468.847 35.0341 469.335 34.0114C469.83 32.983 470.517 32.1818 471.398 31.608C472.284 31.0284 473.318 30.7386 474.5 30.7386C475.182 30.7386 475.855 30.8523 476.52 31.0795C477.185 31.3068 477.79 31.6761 478.335 32.1875C478.881 32.6932 479.315 33.3636 479.639 34.1989C479.963 35.0341 480.125 36.0625 480.125 37.2841V38.1364H470.034V36.3977H478.08C478.08 35.6591 477.932 35 477.636 34.4205C477.347 33.8409 476.932 33.3835 476.392 33.0483C475.858 32.7131 475.227 32.5455 474.5 32.5455C473.699 32.5455 473.006 32.7443 472.42 33.142C471.841 33.5341 471.395 34.0455 471.082 34.6761C470.77 35.3068 470.614 35.983 470.614 36.7045V37.8636C470.614 38.8523 470.784 39.6903 471.125 40.3778C471.472 41.0597 471.952 41.5795 472.565 41.9375C473.179 42.2898 473.892 42.4659 474.705 42.4659C475.233 42.4659 475.71 42.392 476.136 42.2443C476.568 42.0909 476.94 41.8636 477.253 41.5625C477.565 41.2557 477.807 40.875 477.977 40.4205L479.92 40.9659C479.716 41.625 479.372 42.2045 478.889 42.7045C478.406 43.1989 477.81 43.5852 477.099 43.8636C476.389 44.1364 475.591 44.2727 474.705 44.2727ZM490.685 35.5795V37.4545H483.048V35.5795H490.685ZM499.508 49.1818C498.536 49.1818 497.701 49.0568 497.002 48.8068C496.303 48.5625 495.721 48.2386 495.255 47.8352C494.795 47.4375 494.428 47.0114 494.156 46.5568L495.758 45.4318C495.94 45.6705 496.17 45.9432 496.448 46.25C496.727 46.5625 497.107 46.8324 497.59 47.0597C498.079 47.2926 498.718 47.4091 499.508 47.4091C500.565 47.4091 501.437 47.1534 502.124 46.642C502.812 46.1307 503.156 45.3295 503.156 44.2386V41.5795H502.985C502.837 41.8182 502.627 42.1136 502.354 42.4659C502.087 42.8125 501.701 43.1222 501.195 43.3949C500.695 43.6619 500.019 43.7955 499.167 43.7955C498.11 43.7955 497.161 43.5455 496.32 43.0455C495.485 42.5455 494.823 41.8182 494.335 40.8636C493.852 39.9091 493.61 38.75 493.61 37.3864C493.61 36.0455 493.846 34.8778 494.317 33.8835C494.789 32.8835 495.445 32.1108 496.286 31.5653C497.127 31.0142 498.099 30.7386 499.201 30.7386C500.053 30.7386 500.729 30.8807 501.229 31.1648C501.735 31.4432 502.121 31.7614 502.388 32.1193C502.661 32.4716 502.871 32.7614 503.019 32.9886H503.224V30.9091H505.167V44.375C505.167 45.5 504.911 46.4148 504.4 47.1193C503.894 47.8295 503.212 48.3494 502.354 48.679C501.502 49.0142 500.553 49.1818 499.508 49.1818ZM499.44 41.9886C500.246 41.9886 500.928 41.804 501.485 41.4347C502.042 41.0653 502.465 40.5341 502.755 39.8409C503.045 39.1477 503.19 38.3182 503.19 37.3523C503.19 36.4091 503.048 35.5767 502.763 34.8551C502.479 34.1335 502.059 33.5682 501.502 33.1591C500.945 32.75 500.258 32.5455 499.44 32.5455C498.587 32.5455 497.877 32.7614 497.309 33.1932C496.746 33.625 496.323 34.2045 496.039 34.9318C495.761 35.6591 495.621 36.4659 495.621 37.3523C495.621 38.2614 495.763 39.0653 496.048 39.7642C496.337 40.4574 496.763 41.0028 497.326 41.4006C497.894 41.7926 498.599 41.9886 499.44 41.9886ZM512.701 44.3068C511.871 44.3068 511.119 44.1506 510.442 43.8381C509.766 43.5199 509.229 43.0625 508.832 42.4659C508.434 41.8636 508.235 41.1364 508.235 40.2841C508.235 39.5341 508.383 38.9261 508.678 38.4602C508.974 37.9886 509.369 37.6193 509.863 37.3523C510.357 37.0852 510.903 36.8864 511.499 36.7557C512.102 36.6193 512.707 36.5114 513.315 36.4318C514.11 36.3295 514.755 36.2528 515.249 36.2017C515.749 36.1449 516.113 36.0511 516.34 35.9205C516.573 35.7898 516.69 35.5625 516.69 35.2386V35.1705C516.69 34.3295 516.46 33.6761 515.999 33.2102C515.545 32.7443 514.854 32.5114 513.928 32.5114C512.968 32.5114 512.215 32.7216 511.67 33.142C511.124 33.5625 510.741 34.0114 510.519 34.4886L508.61 33.8068C508.951 33.0114 509.406 32.392 509.974 31.9489C510.548 31.5 511.173 31.1875 511.849 31.0114C512.531 30.8295 513.201 30.7386 513.86 30.7386C514.281 30.7386 514.763 30.7898 515.309 30.892C515.86 30.9886 516.391 31.1903 516.903 31.4972C517.42 31.804 517.849 32.267 518.19 32.8864C518.531 33.5057 518.701 34.3352 518.701 35.375V44H516.69V42.2273H516.587C516.451 42.5114 516.224 42.8153 515.906 43.1392C515.587 43.4631 515.164 43.7386 514.636 43.9659C514.107 44.1932 513.462 44.3068 512.701 44.3068ZM513.008 42.5C513.803 42.5 514.474 42.3438 515.019 42.0312C515.57 41.7188 515.985 41.3153 516.263 40.821C516.548 40.3267 516.69 39.8068 516.69 39.2614V37.4205C516.604 37.5227 516.417 37.6165 516.127 37.7017C515.843 37.7812 515.513 37.8523 515.138 37.9148C514.769 37.9716 514.408 38.0227 514.056 38.0682C513.71 38.108 513.428 38.142 513.212 38.1705C512.69 38.2386 512.201 38.3494 511.746 38.5028C511.298 38.6506 510.934 38.875 510.656 39.1761C510.383 39.4716 510.246 39.875 510.246 40.3864C510.246 41.0852 510.505 41.6136 511.022 41.9716C511.545 42.3239 512.207 42.5 513.008 42.5ZM522.372 44V30.9091H524.315V32.9545H524.486C524.759 32.2557 525.199 31.7131 525.807 31.3267C526.415 30.9347 527.145 30.7386 527.997 30.7386C528.861 30.7386 529.58 30.9347 530.153 31.3267C530.733 31.7131 531.185 32.2557 531.509 32.9545H531.645C531.98 32.2784 532.483 31.7415 533.153 31.3438C533.824 30.9403 534.628 30.7386 535.565 30.7386C536.736 30.7386 537.693 31.1051 538.438 31.8381C539.182 32.5653 539.554 33.6989 539.554 35.2386V44H537.543V35.2386C537.543 34.2727 537.278 33.5824 536.75 33.1676C536.222 32.7528 535.599 32.5455 534.884 32.5455C533.963 32.5455 533.25 32.8239 532.744 33.3807C532.239 33.9318 531.986 34.6307 531.986 35.4773V44H529.94V35.0341C529.94 34.2898 529.699 33.6903 529.216 33.2358C528.733 32.7756 528.111 32.5455 527.349 32.5455C526.827 32.5455 526.338 32.6847 525.884 32.9631C525.435 33.2415 525.071 33.6278 524.793 34.1222C524.52 34.6108 524.384 35.1761 524.384 35.8182V44H522.372ZM548.72 44.2727C547.459 44.2727 546.371 43.9943 545.456 43.4375C544.547 42.875 543.845 42.0909 543.351 41.0852C542.862 40.0739 542.618 38.8977 542.618 37.5568C542.618 36.2159 542.862 35.0341 543.351 34.0114C543.845 32.983 544.533 32.1818 545.413 31.608C546.3 31.0284 547.334 30.7386 548.516 30.7386C549.197 30.7386 549.871 30.8523 550.536 31.0795C551.2 31.3068 551.805 31.6761 552.351 32.1875C552.896 32.6932 553.331 33.3636 553.655 34.1989C553.979 35.0341 554.141 36.0625 554.141 37.2841V38.1364H544.05V36.3977H552.095C552.095 35.6591 551.947 35 551.652 34.4205C551.362 33.8409 550.947 33.3835 550.408 33.0483C549.874 32.7131 549.243 32.5455 548.516 32.5455C547.714 32.5455 547.021 32.7443 546.436 33.142C545.857 33.5341 545.411 34.0455 545.098 34.6761C544.786 35.3068 544.629 35.983 544.629 36.7045V37.8636C544.629 38.8523 544.8 39.6903 545.141 40.3778C545.487 41.0597 545.967 41.5795 546.581 41.9375C547.195 42.2898 547.908 42.4659 548.72 42.4659C549.249 42.4659 549.726 42.392 550.152 42.2443C550.584 42.0909 550.956 41.8636 551.268 41.5625C551.581 41.2557 551.822 40.875 551.993 40.4205L553.936 40.9659C553.732 41.625 553.388 42.2045 552.905 42.7045C552.422 43.1989 551.825 43.5852 551.115 43.8636C550.405 44.1364 549.607 44.2727 548.72 44.2727ZM566.473 33.8409L564.666 34.3523C564.553 34.0511 564.385 33.7585 564.163 33.4744C563.947 33.1847 563.652 32.946 563.277 32.7585C562.902 32.571 562.422 32.4773 561.837 32.4773C561.036 32.4773 560.368 32.6619 559.834 33.0312C559.305 33.3949 559.041 33.858 559.041 34.4205C559.041 34.9205 559.223 35.3153 559.587 35.6051C559.95 35.8949 560.518 36.1364 561.291 36.3295L563.234 36.8068C564.405 37.0909 565.277 37.5256 565.851 38.1108C566.425 38.6903 566.712 39.4375 566.712 40.3523C566.712 41.1023 566.496 41.7727 566.064 42.3636C565.638 42.9545 565.041 43.4205 564.274 43.7614C563.507 44.1023 562.615 44.2727 561.598 44.2727C560.263 44.2727 559.158 43.983 558.283 43.4034C557.408 42.8239 556.854 41.9773 556.621 40.8636L558.53 40.3864C558.712 41.0909 559.055 41.6193 559.561 41.9716C560.072 42.3239 560.74 42.5 561.564 42.5C562.501 42.5 563.246 42.3011 563.797 41.9034C564.354 41.5 564.632 41.017 564.632 40.4545C564.632 40 564.473 39.6193 564.155 39.3125C563.837 39 563.348 38.767 562.689 38.6136L560.507 38.1023C559.308 37.8182 558.428 37.3778 557.865 36.7812C557.308 36.179 557.03 35.4261 557.03 34.5227C557.03 33.7841 557.237 33.1307 557.652 32.5625C558.072 31.9943 558.643 31.5483 559.365 31.2244C560.092 30.9006 560.916 30.7386 561.837 30.7386C563.132 30.7386 564.149 31.0227 564.888 31.5909C565.632 32.1591 566.161 32.9091 566.473 33.8409Z" fill="#010101"/>
<path d="M723.982 1H1045.31C1054.35 1.00006 1062.11 7.36333 1063.92 16.1797L1064 16.6016L1080.37 106.602C1080.77 108.849 1080.77 111.151 1080.37 113.398L1064 203.398C1062.36 212.433 1054.49 219 1045.31 219H723.982C718.543 219 714.39 214.227 715.049 208.906L715.127 208.39L732.333 113.757C732.785 111.273 732.785 108.727 732.333 106.243L715.127 11.6104C714.122 6.08579 718.367 1 723.982 1Z" fill="white" fill-opacity="0.01" stroke="url(#paint0_linear_1683_7441)" stroke-width="2"/>
<rect x="742" y="180" width="2" height="20" rx="1" fill="white"/>
<rect x="751" y="180" width="2" height="20" rx="1" fill="white"/>
<rect x="760" y="180" width="2" height="20" rx="1" fill="white"/>
<rect x="769" y="180" width="2" height="20" rx="1" fill="white"/>
<rect x="778" y="180" width="2" height="20" rx="1" fill="white"/>
<rect x="787" y="180" width="2" height="20" rx="1" fill="white"/>
<rect x="796" y="180" width="2" height="20" rx="1" fill="white"/>
<rect x="805" y="180" width="2" height="20" rx="1" fill="white"/>
<rect x="814" y="180" width="2" height="20" rx="1" fill="white"/>
<rect x="823" y="180" width="2" height="20" rx="1" fill="white"/>
<rect x="832" y="180" width="2" height="20" rx="1" fill="white"/>
<rect x="841" y="180" width="2" height="20" rx="1" fill="white"/>
<rect x="850" y="180" width="2" height="20" rx="1" fill="white"/>
<rect x="859" y="180" width="2" height="20" rx="1" fill="white"/>
<rect x="868" y="180" width="2" height="20" rx="1" fill="white"/>
<rect x="877" y="180" width="2" height="20" rx="1" fill="white"/>
<rect x="886" y="180" width="2" height="20" rx="1" fill="white"/>
<rect x="895" y="180" width="2" height="20" rx="1" fill="white"/>
<rect x="904" y="180" width="2" height="20" rx="1" fill="white"/>
<rect x="913" y="180" width="2" height="20" rx="1" fill="white"/>
<rect x="922" y="180" width="2" height="20" rx="1" fill="white"/>
<rect x="931" y="180" width="2" height="20" rx="1" fill="white"/>
<rect x="940" y="180" width="2" height="20" rx="1" fill="white"/>
<rect x="949" y="180" width="2" height="20" rx="1" fill="white"/>
<rect x="958" y="180" width="2" height="20" rx="1" fill="white"/>
<rect x="967" y="180" width="2" height="20" rx="1" fill="white"/>
<rect x="976" y="180" width="2" height="20" rx="1" fill="white"/>
<rect x="985" y="180" width="2" height="20" rx="1" fill="white"/>
<rect x="994" y="180" width="2" height="20" rx="1" fill="white"/>
<rect x="1003" y="180" width="2" height="20" rx="1" fill="white"/>
<rect x="1012" y="180" width="2" height="20" rx="1" fill="white"/>
<rect x="1021" y="180" width="2" height="20" rx="1" fill="white"/>
<rect x="1030" y="180" width="2" height="20" rx="1" fill="white"/>
<rect x="1039" y="180" width="2" height="20" rx="1" fill="white"/>
<rect x="1048" y="180" width="2" height="20" rx="1" fill="white"/>
<path d="M759.659 30.9091C759.557 30.0455 759.142 29.375 758.415 28.8977C757.688 28.4205 756.795 28.1818 755.739 28.1818C754.966 28.1818 754.29 28.3068 753.71 28.5568C753.136 28.8068 752.688 29.1506 752.364 29.5881C752.045 30.0256 751.886 30.5227 751.886 31.0795C751.886 31.5455 751.997 31.946 752.219 32.2812C752.446 32.6108 752.736 32.8864 753.088 33.108C753.44 33.3239 753.81 33.5028 754.196 33.6449C754.582 33.7812 754.938 33.892 755.261 33.9773L757.034 34.4545C757.489 34.5739 757.994 34.7386 758.551 34.9489C759.114 35.1591 759.651 35.446 760.162 35.8097C760.679 36.1676 761.105 36.6278 761.44 37.1903C761.776 37.7528 761.943 38.4432 761.943 39.2614C761.943 40.2045 761.696 41.0568 761.202 41.8182C760.713 42.5795 759.997 43.1847 759.054 43.6335C758.116 44.0824 756.977 44.3068 755.636 44.3068C754.386 44.3068 753.304 44.1051 752.389 43.7017C751.48 43.2983 750.764 42.7358 750.241 42.0142C749.724 41.2926 749.432 40.4545 749.364 39.5H751.545C751.602 40.1591 751.824 40.7045 752.21 41.1364C752.602 41.5625 753.097 41.8807 753.693 42.0909C754.295 42.2955 754.943 42.3977 755.636 42.3977C756.443 42.3977 757.168 42.267 757.81 42.0057C758.452 41.7386 758.96 41.3693 759.335 40.8977C759.71 40.4205 759.898 39.8636 759.898 39.2273C759.898 38.6477 759.736 38.1761 759.412 37.8125C759.088 37.4489 758.662 37.1534 758.134 36.9261C757.605 36.6989 757.034 36.5 756.42 36.3295L754.273 35.7159C752.909 35.3239 751.83 34.7642 751.034 34.0369C750.239 33.3097 749.841 32.358 749.841 31.1818C749.841 30.2045 750.105 29.3523 750.634 28.625C751.168 27.892 751.884 27.3239 752.781 26.9205C753.685 26.5114 754.693 26.3068 755.807 26.3068C756.932 26.3068 757.932 26.5085 758.807 26.9119C759.682 27.3097 760.375 27.8551 760.886 28.5483C761.403 29.2415 761.676 30.0284 761.705 30.9091H759.659ZM770.634 44.2727C769.373 44.2727 768.285 43.9943 767.37 43.4375C766.461 42.875 765.759 42.0909 765.265 41.0852C764.776 40.0739 764.532 38.8977 764.532 37.5568C764.532 36.2159 764.776 35.0341 765.265 34.0114C765.759 32.983 766.447 32.1818 767.327 31.608C768.214 31.0284 769.248 30.7386 770.43 30.7386C771.112 30.7386 771.785 30.8523 772.45 31.0795C773.114 31.3068 773.719 31.6761 774.265 32.1875C774.81 32.6932 775.245 33.3636 775.569 34.1989C775.893 35.0341 776.055 36.0625 776.055 37.2841V38.1364H765.964V36.3977H774.009C774.009 35.6591 773.862 35 773.566 34.4205C773.276 33.8409 772.862 33.3835 772.322 33.0483C771.788 32.7131 771.157 32.5455 770.43 32.5455C769.629 32.5455 768.935 32.7443 768.35 33.142C767.771 33.5341 767.325 34.0455 767.012 34.6761C766.7 35.3068 766.543 35.983 766.543 36.7045V37.8636C766.543 38.8523 766.714 39.6903 767.055 40.3778C767.401 41.0597 767.881 41.5795 768.495 41.9375C769.109 42.2898 769.822 42.4659 770.634 42.4659C771.163 42.4659 771.64 42.392 772.066 42.2443C772.498 42.0909 772.87 41.8636 773.183 41.5625C773.495 41.2557 773.737 40.875 773.907 40.4205L775.85 40.9659C775.646 41.625 775.302 42.2045 774.819 42.7045C774.336 43.1989 773.739 43.5852 773.029 43.8636C772.319 44.1364 771.521 44.2727 770.634 44.2727ZM779.114 44V30.9091H781.058V32.8864H781.194C781.433 32.2386 781.864 31.7131 782.489 31.3097C783.114 30.9062 783.819 30.7045 784.603 30.7045C784.751 30.7045 784.935 30.7074 785.157 30.7131C785.379 30.7187 785.546 30.7273 785.66 30.7386V32.7841C785.592 32.767 785.435 32.7415 785.191 32.7074C784.952 32.6676 784.7 32.6477 784.433 32.6477C783.796 32.6477 783.228 32.7812 782.728 33.0483C782.234 33.3097 781.842 33.6733 781.552 34.1392C781.268 34.5994 781.126 35.125 781.126 35.7159V44H779.114ZM794.558 30.9091V32.6136H787.773V30.9091H794.558ZM789.751 27.7727H791.762V40.25C791.762 40.8182 791.844 41.2443 792.009 41.5284C792.18 41.8068 792.396 41.9943 792.657 42.0909C792.924 42.1818 793.205 42.2273 793.501 42.2273C793.722 42.2273 793.904 42.2159 794.046 42.1932C794.188 42.1648 794.302 42.142 794.387 42.125L794.796 43.9318C794.66 43.983 794.469 44.0341 794.225 44.0852C793.981 44.142 793.671 44.1705 793.296 44.1705C792.728 44.1705 792.171 44.0483 791.626 43.804C791.086 43.5597 790.637 43.1875 790.279 42.6875C789.927 42.1875 789.751 41.5568 789.751 40.7955V27.7727ZM797.583 44V30.9091H799.594V44H797.583ZM798.606 28.7273C798.214 28.7273 797.876 28.5938 797.592 28.3267C797.313 28.0597 797.174 27.7386 797.174 27.3636C797.174 26.9886 797.313 26.6676 797.592 26.4006C797.876 26.1335 798.214 26 798.606 26C798.998 26 799.333 26.1335 799.612 26.4006C799.896 26.6676 800.038 26.9886 800.038 27.3636C800.038 27.7386 799.896 28.0597 799.612 28.3267C799.333 28.5938 798.998 28.7273 798.606 28.7273ZM809.108 30.9091V32.6136H802.051V30.9091H809.108ZM804.165 44V29.1023C804.165 28.3523 804.341 27.7273 804.693 27.2273C805.045 26.7273 805.503 26.3523 806.065 26.1023C806.628 25.8523 807.222 25.7273 807.847 25.7273C808.341 25.7273 808.744 25.767 809.057 25.8466C809.369 25.9261 809.602 26 809.756 26.0682L809.176 27.8068C809.074 27.7727 808.932 27.7301 808.75 27.679C808.574 27.6278 808.341 27.6023 808.051 27.6023C807.386 27.6023 806.906 27.7699 806.611 28.1051C806.321 28.4403 806.176 28.9318 806.176 29.5795V44H804.165ZM811.927 44V30.9091H813.938V44H811.927ZM812.95 28.7273C812.558 28.7273 812.219 28.5938 811.935 28.3267C811.657 28.0597 811.518 27.7386 811.518 27.3636C811.518 26.9886 811.657 26.6676 811.935 26.4006C812.219 26.1335 812.558 26 812.95 26C813.342 26 813.677 26.1335 813.955 26.4006C814.239 26.6676 814.381 26.9886 814.381 27.3636C814.381 27.7386 814.239 28.0597 813.955 28.3267C813.677 28.5938 813.342 28.7273 812.95 28.7273ZM822.94 44.2727C821.713 44.2727 820.656 43.983 819.77 43.4034C818.884 42.8239 818.202 42.0256 817.724 41.0085C817.247 39.9915 817.009 38.8295 817.009 37.5227C817.009 36.1932 817.253 35.0199 817.741 34.0028C818.236 32.9801 818.923 32.1818 819.804 31.608C820.69 31.0284 821.724 30.7386 822.906 30.7386C823.827 30.7386 824.656 30.9091 825.395 31.25C826.134 31.5909 826.739 32.0682 827.21 32.6818C827.682 33.2955 827.974 34.0114 828.088 34.8295H826.077C825.923 34.233 825.582 33.7045 825.054 33.2443C824.531 32.7784 823.827 32.5455 822.94 32.5455C822.156 32.5455 821.469 32.75 820.878 33.1591C820.293 33.5625 819.835 34.1335 819.506 34.8722C819.182 35.6051 819.02 36.4659 819.02 37.4545C819.02 38.4659 819.179 39.3466 819.497 40.0966C819.821 40.8466 820.276 41.429 820.861 41.8438C821.452 42.2585 822.145 42.4659 822.94 42.4659C823.463 42.4659 823.938 42.375 824.364 42.1932C824.79 42.0114 825.151 41.75 825.446 41.4091C825.741 41.0682 825.952 40.6591 826.077 40.1818H828.088C827.974 40.9545 827.693 41.6506 827.244 42.2699C826.801 42.8835 826.213 43.3722 825.48 43.7358C824.753 44.0938 823.906 44.2727 822.94 44.2727ZM834.881 44.3068C834.051 44.3068 833.298 44.1506 832.622 43.8381C831.946 43.5199 831.409 43.0625 831.011 42.4659C830.614 41.8636 830.415 41.1364 830.415 40.2841C830.415 39.5341 830.563 38.9261 830.858 38.4602C831.153 37.9886 831.548 37.6193 832.043 37.3523C832.537 37.0852 833.082 36.8864 833.679 36.7557C834.281 36.6193 834.886 36.5114 835.494 36.4318C836.29 36.3295 836.935 36.2528 837.429 36.2017C837.929 36.1449 838.293 36.0511 838.52 35.9205C838.753 35.7898 838.869 35.5625 838.869 35.2386V35.1705C838.869 34.3295 838.639 33.6761 838.179 33.2102C837.724 32.7443 837.034 32.5114 836.108 32.5114C835.148 32.5114 834.395 32.7216 833.849 33.142C833.304 33.5625 832.92 34.0114 832.699 34.4886L830.79 33.8068C831.131 33.0114 831.585 32.392 832.153 31.9489C832.727 31.5 833.352 31.1875 834.028 31.0114C834.71 30.8295 835.381 30.7386 836.04 30.7386C836.46 30.7386 836.943 30.7898 837.489 30.892C838.04 30.9886 838.571 31.1903 839.082 31.4972C839.599 31.804 840.028 32.267 840.369 32.8864C840.71 33.5057 840.881 34.3352 840.881 35.375V44H838.869V42.2273H838.767C838.631 42.5114 838.403 42.8153 838.085 43.1392C837.767 43.4631 837.344 43.7386 836.815 43.9659C836.287 44.1932 835.642 44.3068 834.881 44.3068ZM835.188 42.5C835.983 42.5 836.653 42.3438 837.199 42.0312C837.75 41.7188 838.165 41.3153 838.443 40.821C838.727 40.3267 838.869 39.8068 838.869 39.2614V37.4205C838.784 37.5227 838.597 37.6165 838.307 37.7017C838.023 37.7812 837.693 37.8523 837.318 37.9148C836.949 37.9716 836.588 38.0227 836.236 38.0682C835.889 38.108 835.608 38.142 835.392 38.1705C834.869 38.2386 834.381 38.3494 833.926 38.5028C833.477 38.6506 833.114 38.875 832.835 39.1761C832.563 39.4716 832.426 39.875 832.426 40.3864C832.426 41.0852 832.685 41.6136 833.202 41.9716C833.724 42.3239 834.386 42.5 835.188 42.5ZM850.245 30.9091V32.6136H843.461V30.9091H850.245ZM845.438 27.7727H847.45V40.25C847.45 40.8182 847.532 41.2443 847.697 41.5284C847.867 41.8068 848.083 41.9943 848.344 42.0909C848.612 42.1818 848.893 42.2273 849.188 42.2273C849.41 42.2273 849.592 42.2159 849.734 42.1932C849.876 42.1648 849.989 42.142 850.075 42.125L850.484 43.9318C850.347 43.983 850.157 44.0341 849.913 44.0852C849.668 44.142 849.359 44.1705 848.984 44.1705C848.415 44.1705 847.859 44.0483 847.313 43.804C846.773 43.5597 846.325 43.1875 845.967 42.6875C845.614 42.1875 845.438 41.5568 845.438 40.7955V27.7727ZM858.619 44.2727C857.357 44.2727 856.269 43.9943 855.354 43.4375C854.445 42.875 853.744 42.0909 853.249 41.0852C852.761 40.0739 852.516 38.8977 852.516 37.5568C852.516 36.2159 852.761 35.0341 853.249 34.0114C853.744 32.983 854.431 32.1818 855.312 31.608C856.198 31.0284 857.232 30.7386 858.414 30.7386C859.096 30.7386 859.769 30.8523 860.434 31.0795C861.099 31.3068 861.704 31.6761 862.249 32.1875C862.795 32.6932 863.229 33.3636 863.553 34.1989C863.877 35.0341 864.039 36.0625 864.039 37.2841V38.1364H853.948V36.3977H861.994C861.994 35.6591 861.846 35 861.55 34.4205C861.261 33.8409 860.846 33.3835 860.306 33.0483C859.772 32.7131 859.141 32.5455 858.414 32.5455C857.613 32.5455 856.92 32.7443 856.335 33.142C855.755 33.5341 855.309 34.0455 854.996 34.6761C854.684 35.3068 854.528 35.983 854.528 36.7045V37.8636C854.528 38.8523 854.698 39.6903 855.039 40.3778C855.386 41.0597 855.866 41.5795 856.479 41.9375C857.093 42.2898 857.806 42.4659 858.619 42.4659C859.147 42.4659 859.624 42.392 860.05 42.2443C860.482 42.0909 860.854 41.8636 861.167 41.5625C861.479 41.2557 861.721 40.875 861.891 40.4205L863.835 40.9659C863.63 41.625 863.286 42.2045 862.803 42.7045C862.32 43.1989 861.724 43.5852 861.013 43.8636C860.303 44.1364 859.505 44.2727 858.619 44.2727ZM872.042 44.2727C870.951 44.2727 869.988 43.9972 869.153 43.446C868.317 42.8892 867.664 42.1051 867.192 41.0938C866.721 40.0767 866.485 38.875 866.485 37.4886C866.485 36.1136 866.721 34.9205 867.192 33.9091C867.664 32.8977 868.32 32.1165 869.161 31.5653C870.002 31.0142 870.974 30.7386 872.076 30.7386C872.928 30.7386 873.602 30.8807 874.096 31.1648C874.596 31.4432 874.977 31.7614 875.238 32.1193C875.505 32.4716 875.712 32.7614 875.86 32.9886H876.031V26.5455H878.042V44H876.099V41.9886H875.86C875.712 42.2273 875.502 42.5284 875.229 42.892C874.957 43.25 874.567 43.571 874.062 43.8551C873.556 44.1335 872.883 44.2727 872.042 44.2727ZM872.315 42.4659C873.121 42.4659 873.803 42.2557 874.36 41.8352C874.917 41.4091 875.34 40.821 875.63 40.071C875.92 39.3153 876.065 38.4432 876.065 37.4545C876.065 36.4773 875.923 35.6222 875.638 34.8892C875.354 34.1506 874.934 33.5767 874.377 33.1676C873.82 32.7528 873.133 32.5455 872.315 32.5455C871.462 32.5455 870.752 32.7642 870.184 33.2017C869.621 33.6335 869.198 34.2216 868.914 34.9659C868.636 35.7045 868.496 36.5341 868.496 37.4545C868.496 38.3864 868.638 39.233 868.923 39.9943C869.212 40.75 869.638 41.3523 870.201 41.8011C870.769 42.2443 871.474 42.4659 872.315 42.4659ZM898.573 30.9091C898.471 30.0455 898.056 29.375 897.329 28.8977C896.602 28.4205 895.71 28.1818 894.653 28.1818C893.88 28.1818 893.204 28.3068 892.624 28.5568C892.05 28.8068 891.602 29.1506 891.278 29.5881C890.96 30.0256 890.8 30.5227 890.8 31.0795C890.8 31.5455 890.911 31.946 891.133 32.2812C891.36 32.6108 891.65 32.8864 892.002 33.108C892.354 33.3239 892.724 33.5028 893.11 33.6449C893.496 33.7812 893.852 33.892 894.175 33.9773L895.948 34.4545C896.403 34.5739 896.908 34.7386 897.465 34.9489C898.028 35.1591 898.565 35.446 899.076 35.8097C899.593 36.1676 900.019 36.6278 900.354 37.1903C900.69 37.7528 900.857 38.4432 900.857 39.2614C900.857 40.2045 900.61 41.0568 900.116 41.8182C899.627 42.5795 898.911 43.1847 897.968 43.6335C897.031 44.0824 895.891 44.3068 894.55 44.3068C893.3 44.3068 892.218 44.1051 891.303 43.7017C890.394 43.2983 889.678 42.7358 889.156 42.0142C888.638 41.2926 888.346 40.4545 888.278 39.5H890.46C890.516 40.1591 890.738 40.7045 891.124 41.1364C891.516 41.5625 892.011 41.8807 892.607 42.0909C893.21 42.2955 893.857 42.3977 894.55 42.3977C895.357 42.3977 896.082 42.267 896.724 42.0057C897.366 41.7386 897.874 41.3693 898.249 40.8977C898.624 40.4205 898.812 39.8636 898.812 39.2273C898.812 38.6477 898.65 38.1761 898.326 37.8125C898.002 37.4489 897.576 37.1534 897.048 36.9261C896.519 36.6989 895.948 36.5 895.335 36.3295L893.187 35.7159C891.823 35.3239 890.744 34.7642 889.948 34.0369C889.153 33.3097 888.755 32.358 888.755 31.1818C888.755 30.2045 889.019 29.3523 889.548 28.625C890.082 27.892 890.798 27.3239 891.695 26.9205C892.599 26.5114 893.607 26.3068 894.721 26.3068C895.846 26.3068 896.846 26.5085 897.721 26.9119C898.596 27.3097 899.289 27.8551 899.8 28.5483C900.317 29.2415 900.59 30.0284 900.619 30.9091H898.573ZM906.071 26.5455V44H904.06V26.5455H906.071ZM915.073 44.2727C913.891 44.2727 912.854 43.9915 911.962 43.429C911.076 42.8665 910.383 42.0795 909.883 41.0682C909.388 40.0568 909.141 38.875 909.141 37.5227C909.141 36.1591 909.388 34.9687 909.883 33.9517C910.383 32.9347 911.076 32.1449 911.962 31.5824C912.854 31.0199 913.891 30.7386 915.073 30.7386C916.255 30.7386 917.289 31.0199 918.175 31.5824C919.067 32.1449 919.761 32.9347 920.255 33.9517C920.755 34.9687 921.005 36.1591 921.005 37.5227C921.005 38.875 920.755 40.0568 920.255 41.0682C919.761 42.0795 919.067 42.8665 918.175 43.429C917.289 43.9915 916.255 44.2727 915.073 44.2727ZM915.073 42.4659C915.971 42.4659 916.71 42.2358 917.289 41.7756C917.869 41.3153 918.298 40.7102 918.576 39.9602C918.854 39.2102 918.994 38.3977 918.994 37.5227C918.994 36.6477 918.854 35.8324 918.576 35.0767C918.298 34.321 917.869 33.7102 917.289 33.2443C916.71 32.7784 915.971 32.5455 915.073 32.5455C914.175 32.5455 913.437 32.7784 912.857 33.2443C912.278 33.7102 911.849 34.321 911.57 35.0767C911.292 35.8324 911.153 36.6477 911.153 37.5227C911.153 38.3977 911.292 39.2102 911.57 39.9602C911.849 40.7102 912.278 41.3153 912.857 41.7756C913.437 42.2358 914.175 42.4659 915.073 42.4659ZM929.768 30.9091V32.6136H922.984V30.9091H929.768ZM924.962 27.7727H926.973V40.25C926.973 40.8182 927.055 41.2443 927.22 41.5284C927.391 41.8068 927.607 41.9943 927.868 42.0909C928.135 42.1818 928.416 42.2273 928.712 42.2273C928.933 42.2273 929.115 42.2159 929.257 42.1932C929.399 42.1648 929.513 42.142 929.598 42.125L930.007 43.9318C929.871 43.983 929.68 44.0341 929.436 44.0852C929.192 44.142 928.882 44.1705 928.507 44.1705C927.939 44.1705 927.382 44.0483 926.837 43.804C926.297 43.5597 925.848 43.1875 925.49 42.6875C925.138 42.1875 924.962 41.5568 924.962 40.7955V27.7727ZM941.832 33.8409L940.026 34.3523C939.912 34.0511 939.744 33.7585 939.523 33.4744C939.307 33.1847 939.011 32.946 938.636 32.7585C938.261 32.571 937.781 32.4773 937.196 32.4773C936.395 32.4773 935.727 32.6619 935.193 33.0312C934.665 33.3949 934.401 33.858 934.401 34.4205C934.401 34.9205 934.582 35.3153 934.946 35.6051C935.31 35.8949 935.878 36.1364 936.651 36.3295L938.594 36.8068C939.764 37.0909 940.636 37.5256 941.21 38.1108C941.784 38.6903 942.071 39.4375 942.071 40.3523C942.071 41.1023 941.855 41.7727 941.423 42.3636C940.997 42.9545 940.401 43.4205 939.634 43.7614C938.866 44.1023 937.974 44.2727 936.957 44.2727C935.622 44.2727 934.517 43.983 933.642 43.4034C932.767 42.8239 932.213 41.9773 931.98 40.8636L933.889 40.3864C934.071 41.0909 934.415 41.6193 934.92 41.9716C935.432 42.3239 936.099 42.5 936.923 42.5C937.861 42.5 938.605 42.3011 939.156 41.9034C939.713 41.5 939.991 41.017 939.991 40.4545C939.991 40 939.832 39.6193 939.514 39.3125C939.196 39 938.707 38.767 938.048 38.6136L935.866 38.1023C934.668 37.8182 933.787 37.3778 933.224 36.7812C932.668 36.179 932.389 35.4261 932.389 34.5227C932.389 33.7841 932.597 33.1307 933.011 32.5625C933.432 31.9943 934.003 31.5483 934.724 31.2244C935.452 30.9006 936.276 30.7386 937.196 30.7386C938.491 30.7386 939.509 31.0227 940.247 31.5909C940.991 32.1591 941.52 32.9091 941.832 33.8409Z" fill="#010101"/>
<defs>
<linearGradient id="paint0_linear_1683_7441" x1="733" y1="-34" x2="777.078" y2="257.691" gradientUnits="userSpaceOnUse">
<stop stop-color="white"/>
<stop offset="0.295" stop-color="white" stop-opacity="0"/>
<stop offset="0.732787" stop-color="white" stop-opacity="0"/>
<stop offset="1" stop-color="white"/>
</linearGradient>
</defs>
</svg>
