<svg width="886" height="225" viewBox="0 0 886 225" fill="none" xmlns="http://www.w3.org/2000/svg">
<path d="M625.585 95.7861C621.916 95.7861 618.749 94.943 616.083 93.2568C613.417 91.5706 611.366 89.2464 609.931 86.2842C608.495 83.3219 607.777 79.9268 607.777 76.0986C607.777 72.2021 608.507 68.7728 609.965 65.8105C611.446 62.8255 613.508 60.5013 616.151 58.8379C618.817 57.1517 621.939 56.3086 625.517 56.3086C628.433 56.3086 631.02 56.8441 633.275 57.915C635.554 58.9632 637.388 60.4557 638.778 62.3926C640.191 64.3294 641.023 66.5853 641.273 69.1602H634.027C633.777 67.9525 633.287 66.8473 632.558 65.8447C631.851 64.8421 630.917 64.0446 629.755 63.4521C628.593 62.8597 627.214 62.5635 625.619 62.5635C623.546 62.5635 621.734 63.1104 620.185 64.2041C618.658 65.2751 617.462 66.8132 616.596 68.8184C615.73 70.8236 615.297 73.1934 615.297 75.9277C615.297 78.6849 615.718 81.0889 616.562 83.1396C617.405 85.1904 618.601 86.7741 620.15 87.8906C621.723 88.9844 623.546 89.5312 625.619 89.5312C627.761 89.5312 629.584 88.9388 631.088 87.7539C632.615 86.569 633.594 84.9512 634.027 82.9004H641.273C641.023 85.3841 640.225 87.5944 638.881 89.5312C637.536 91.4681 635.736 92.9948 633.48 94.1113C631.225 95.2279 628.593 95.7861 625.585 95.7861ZM662.567 95.7861C658.99 95.7861 655.857 94.9658 653.168 93.3252C650.502 91.6846 648.428 89.3831 646.947 86.4209C645.489 83.4587 644.76 80.0179 644.76 76.0986C644.76 72.1338 645.489 68.6702 646.947 65.708C648.428 62.723 650.502 60.4102 653.168 58.7695C655.857 57.1289 658.99 56.3086 662.567 56.3086C666.168 56.3086 669.301 57.1289 671.967 58.7695C674.633 60.4102 676.706 62.723 678.188 65.708C679.669 68.6702 680.409 72.1338 680.409 76.0986C680.409 80.0179 679.669 83.4587 678.188 86.4209C676.706 89.3831 674.633 91.6846 671.967 93.3252C669.301 94.9658 666.168 95.7861 662.567 95.7861ZM662.567 89.5312C664.914 89.5312 666.851 88.916 668.378 87.6855C669.905 86.4551 671.033 84.8258 671.762 82.7979C672.514 80.7471 672.89 78.514 672.89 76.0986C672.89 73.6377 672.514 71.3818 671.762 69.3311C671.033 67.2803 669.905 65.6396 668.378 64.4092C666.851 63.1787 664.914 62.5635 662.567 62.5635C660.243 62.5635 658.318 63.1787 656.791 64.4092C655.287 65.6396 654.159 67.2803 653.407 69.3311C652.655 71.3818 652.279 73.6377 652.279 76.0986C652.279 78.514 652.655 80.7471 653.407 82.7979C654.159 84.8258 655.287 86.4551 656.791 87.6855C658.318 88.916 660.243 89.5312 662.567 89.5312ZM715.17 42.6025L718.246 47.2852C717.13 48.3333 715.842 49.0739 714.384 49.5068C712.925 49.9398 711.251 50.2132 709.359 50.3271C707.468 50.4411 705.303 50.5436 702.865 50.6348C700.108 50.7031 697.841 51.2956 696.063 52.4121C694.309 53.5059 692.953 55.1237 691.996 57.2656C691.039 59.4076 690.424 62.1077 690.15 65.3662H690.629C691.837 62.9964 693.546 61.2305 695.756 60.0684C697.989 58.8835 700.495 58.291 703.275 58.291C706.352 58.291 709.086 58.9974 711.479 60.4102C713.871 61.8001 715.762 63.8509 717.152 66.5625C718.542 69.2741 719.226 72.5781 719.203 76.4746C719.226 80.4395 718.52 83.8688 717.084 86.7627C715.648 89.6566 713.609 91.8783 710.966 93.4277C708.345 94.9772 705.258 95.7633 701.703 95.7861C696.348 95.7633 692.064 93.9404 688.852 90.3174C685.639 86.6715 684.021 81.3395 683.998 74.3213V70.5957C684.021 61.8457 685.593 55.2718 688.715 50.874C691.837 46.4762 696.496 44.209 702.694 44.0723C704.7 44.0267 706.488 44.0153 708.061 44.0381C709.633 44.0609 711.011 43.9925 712.196 43.833C713.381 43.6507 714.372 43.2406 715.17 42.6025ZM701.703 89.5654C703.799 89.5426 705.588 89.0072 707.069 87.959C708.55 86.9108 709.701 85.4183 710.521 83.4814C711.342 81.5446 711.741 79.2546 711.718 76.6113C711.741 74.0365 711.342 71.849 710.521 70.0488C709.701 68.2259 708.539 66.8359 707.035 65.8789C705.531 64.9219 703.72 64.4434 701.601 64.4434C700.051 64.4434 698.661 64.7168 697.431 65.2637C696.2 65.8105 695.152 66.6081 694.286 67.6562C693.42 68.6816 692.748 69.9463 692.27 71.4502C691.814 72.9541 691.563 74.6745 691.518 76.6113C691.518 80.5306 692.418 83.6637 694.218 86.0107C696.041 88.3577 698.536 89.5426 701.703 89.5654ZM730.175 69.9805H741.283C745.932 69.9577 749.509 71.1084 752.016 73.4326C754.545 75.7568 755.821 78.7533 755.844 82.4219C755.844 84.8145 755.274 86.9564 754.135 88.8477C752.995 90.7389 751.343 92.2428 749.179 93.3594C747.014 94.4531 744.382 95 741.283 95H724.604V56.7871L731.815 56.7871V88.5742H741.283C743.402 88.5742 745.146 88.0273 746.513 86.9336C747.88 85.8171 748.575 84.3815 748.598 82.627C748.575 80.7812 747.88 79.2773 746.513 78.1152C745.146 76.9531 743.402 76.3835 741.283 76.4062H730.175V69.9805ZM761.278 95V56.7871H768.661V95H761.278ZM773.583 63.2129V56.7871H805.746V63.2129H793.339V95H786.059V63.2129H773.583ZM817.948 84.541L834.799 56.7871L842.797 56.7871V95H835.551V67.2119L818.769 95H810.736V56.7871L817.948 56.7871V84.541ZM857.118 84.541L873.969 56.7871H881.967V95H874.721V67.2119L857.938 95H849.906V56.7871H857.118V84.541ZM865.868 52.3437C862.61 52.3437 859.966 51.4551 857.938 49.6777C855.91 47.8776 854.896 45.542 854.896 42.6709H861.015C861.015 44.1292 861.459 45.3141 862.348 46.2256C863.236 47.1143 864.41 47.5586 865.868 47.5586C867.326 47.5586 868.5 47.1143 869.389 46.2256C870.277 45.3141 870.722 44.1292 870.722 42.6709H876.84C876.84 45.542 875.826 47.8776 873.798 49.6777C871.77 51.4551 869.127 52.3437 865.868 52.3437Z" fill="#010101"/>
<path d="M83.7891 224.93C71.2891 224.93 60.0098 222.488 49.9512 217.605C39.9902 212.625 31.9824 205.789 25.9277 197.098C19.873 188.406 16.6016 178.543 16.1133 167.508H41.6016C42.5781 177.273 47.0215 185.379 54.9316 191.824C62.9395 198.27 72.5586 201.492 83.7891 201.492C92.7734 201.492 100.732 199.393 107.666 195.193C114.6 190.994 120.068 185.232 124.072 177.908C128.076 170.584 130.078 162.234 130.078 152.859C130.078 143.387 127.979 134.891 123.779 127.371C119.678 119.852 114.014 113.943 106.787 109.646C99.5605 105.252 91.3086 103.055 82.0313 103.055C75.293 103.055 68.4082 104.129 61.377 106.277C54.4434 108.328 48.7305 110.965 44.2383 114.187L19.3359 111.258L32.5195 3.73828L145.898 3.73828V27.1758L54.7852 27.1758L47.168 91.6289H48.3398C52.832 88.0156 58.4473 85.0859 65.1855 82.8398C71.9238 80.4961 79.0039 79.3242 86.4258 79.3242C99.8047 79.3242 111.719 82.498 122.168 88.8457C132.617 95.1934 140.82 103.885 146.777 114.92C152.832 125.857 155.859 138.406 155.859 152.566C155.859 166.434 152.734 178.836 146.484 189.773C140.234 200.711 131.689 209.305 120.85 215.555C110.01 221.805 97.6563 224.93 83.7891 224.93ZM253.418 224.93C237.402 224.93 223.73 220.535 212.402 211.746C201.074 202.957 192.432 190.262 186.475 173.66C180.518 156.961 177.539 136.746 177.539 113.016C177.539 89.3828 180.518 69.2168 186.475 52.5176C192.529 35.7207 201.221 22.9277 212.549 14.1387C223.877 5.25195 237.5 0.808594 253.418 0.808594C269.336 0.808594 282.959 5.25195 294.287 14.1387C305.615 22.9277 314.258 35.7207 320.215 52.5176C326.27 69.2168 329.297 89.3828 329.297 113.016C329.297 136.746 326.318 156.961 320.361 173.66C314.404 190.262 305.762 202.957 294.434 211.746C283.203 220.535 269.531 224.93 253.418 224.93ZM253.418 201.785C264.258 201.785 273.438 198.318 280.957 191.385C288.477 184.354 294.189 174.197 298.096 160.916C302.1 147.635 304.102 131.668 304.102 113.016C304.102 94.2656 302.1 78.25 298.096 64.9687C294.189 51.6875 288.477 41.5312 280.957 34.5C273.438 27.4687 264.258 23.9531 253.418 23.9531C237.207 23.9531 224.707 31.7656 215.918 47.3906C207.129 63.0156 202.734 84.8906 202.734 113.016C202.734 131.668 204.688 147.635 208.594 160.916C212.598 174.197 218.359 184.354 225.879 191.385C233.496 198.318 242.676 201.785 253.418 201.785ZM356.25 222L356.25 58.2305L381.152 58.2305V129.422H397.852L456.738 58.2305L488.965 58.2305L423.047 137.332L489.844 222H457.617L403.711 152.859H381.152L381.152 222H356.25Z" fill="#010101"/>
<rect x="487" y="89" width="100" height="100" rx="50" fill="#F84204"/>
<path d="M537 142.333C538.841 142.333 540.333 143.826 540.333 145.667V155.667C540.333 157.508 538.841 159 537 159C535.159 159 533.667 157.508 533.667 155.667V145.667C533.667 143.826 535.159 142.333 537 142.333ZM530.333 135.667C532.174 135.667 533.667 137.159 533.667 139C533.667 140.841 532.174 142.333 530.333 142.333H520.333C518.492 142.333 517 140.841 517 139C517 137.159 518.492 135.667 520.333 135.667H530.333ZM553.667 135.667C555.508 135.667 557 137.159 557 139C557 140.841 555.508 142.333 553.667 142.333H543.667C541.826 142.333 540.333 140.841 540.333 139C540.333 137.159 541.826 135.667 543.667 135.667H553.667ZM537 119C538.841 119 540.333 120.492 540.333 122.333V132.333C540.333 134.174 538.841 135.667 537 135.667C535.159 135.667 533.667 134.174 533.667 132.333V122.333C533.667 120.492 535.159 119 537 119Z" fill="white"/>
</svg>
