<svg width="350" height="84" viewBox="0 0 350 84" fill="none" xmlns="http://www.w3.org/2000/svg">
<rect y="4" width="80" height="80" rx="40" fill="#010101"/>
<path d="M39.5625 59.3906C37.7786 59.3906 36.1771 59.0521 34.7578 58.375C33.3516 57.6849 32.2253 56.7409 31.3789 55.543C30.5326 54.332 30.0833 52.9583 30.0312 51.4219H34.2891C34.3932 52.6589 34.9466 53.681 35.9492 54.4883C36.9518 55.2956 38.1562 55.6992 39.5625 55.6992C40.6823 55.6992 41.6719 55.4388 42.5312 54.918C43.3906 54.3971 44.0677 53.6875 44.5625 52.7891C45.0573 51.8776 45.3047 50.8359 45.3047 49.6641C45.3047 48.4922 45.0508 47.444 44.543 46.5195C44.0352 45.582 43.332 44.8464 42.4336 44.3125C41.5482 43.7786 40.526 43.5117 39.3672 43.5117C38.4818 43.5117 37.5964 43.668 36.7109 43.9805C35.8255 44.2799 35.1094 44.6706 34.5625 45.1523L30.5195 44.5664L32.1602 29.8984H48.1562V33.668H35.832L34.9141 41.8125H35.0703C35.6302 41.2526 36.3789 40.7969 37.3164 40.4453C38.2669 40.0807 39.2891 39.8984 40.3828 39.8984C42.1536 39.8984 43.7292 40.3216 45.1094 41.168C46.5026 42.0013 47.5964 43.1471 48.3906 44.6055C49.1849 46.0508 49.582 47.7109 49.582 49.5859C49.582 51.474 49.1523 53.1602 48.293 54.6445C47.4336 56.1159 46.2487 57.2747 44.7383 58.1211C43.2409 58.9674 41.5156 59.3906 39.5625 59.3906Z" fill="white"/>
<rect x="56" width="28" height="28" rx="14" fill="#F84204"/>
<path d="M73.3594 20.5L68.4551 14.4883H67.2422V20.5H65.6602V7.4043H67.2422V13.082H68.4551L73.1836 7.4043H75.0645L69.7734 13.7852L75.2578 20.5H73.3594Z" fill="white"/>
<path d="M120.403 42.6314L117.516 43.1428C117.396 42.7734 117.204 42.4219 116.941 42.0881C116.685 41.7543 116.337 41.4808 115.897 41.2678C115.457 41.0547 114.906 40.9482 114.246 40.9482C113.344 40.9482 112.591 41.1506 111.987 41.5554C111.384 41.9531 111.082 42.468 111.082 43.1001C111.082 43.647 111.284 44.0874 111.689 44.4212C112.094 44.755 112.747 45.0284 113.649 45.2415L116.249 45.8381C117.754 46.1861 118.876 46.7223 119.615 47.4467C120.354 48.1712 120.723 49.1122 120.723 50.2699C120.723 51.25 120.439 52.1236 119.871 52.8906C119.31 53.6506 118.525 54.2472 117.516 54.6804C116.515 55.1136 115.354 55.3303 114.033 55.3303C112.2 55.3303 110.705 54.9396 109.548 54.1584C108.39 53.37 107.68 52.2514 107.417 50.8026L110.496 50.3338C110.688 51.1364 111.082 51.7436 111.678 52.1555C112.275 52.5604 113.053 52.7628 114.011 52.7628C115.055 52.7628 115.89 52.5462 116.515 52.1129C117.14 51.6726 117.452 51.1364 117.452 50.5043C117.452 49.9929 117.261 49.5632 116.877 49.2152C116.501 48.8672 115.922 48.6044 115.141 48.4268L112.371 47.8196C110.844 47.4716 109.714 46.9176 108.983 46.1577C108.259 45.3977 107.896 44.4354 107.896 43.2706C107.896 42.3047 108.166 41.4595 108.706 40.7351C109.246 40.0107 109.991 39.446 110.943 39.0412C111.895 38.6293 112.985 38.4233 114.214 38.4233C115.982 38.4233 117.374 38.8068 118.39 39.5739C119.406 40.3338 120.077 41.353 120.403 42.6314ZM131.864 38.6364V41.1932H122.926V38.6364H131.864ZM125.323 34.7159H128.508V50.1953C128.508 50.8132 128.6 51.2784 128.785 51.5909C128.97 51.8963 129.208 52.1058 129.499 52.2195C129.797 52.326 130.12 52.3793 130.468 52.3793C130.724 52.3793 130.948 52.3615 131.139 52.326C131.331 52.2905 131.48 52.2621 131.587 52.2408L132.162 54.8722C131.977 54.9432 131.715 55.0142 131.374 55.0852C131.033 55.1634 130.607 55.206 130.095 55.2131C129.257 55.2273 128.476 55.0781 127.752 54.7656C127.027 54.4531 126.441 53.9702 125.994 53.3168C125.546 52.6634 125.323 51.843 125.323 50.8558V34.7159ZM135.387 55V38.6364H138.466V41.2358H138.637C138.935 40.3551 139.461 39.6626 140.213 39.1584C140.973 38.647 141.833 38.3913 142.792 38.3913C142.99 38.3913 143.225 38.3984 143.495 38.4126C143.772 38.4268 143.988 38.4446 144.145 38.4659V41.5128C144.017 41.4773 143.789 41.4382 143.463 41.3956C143.136 41.3459 142.809 41.321 142.483 41.321C141.73 41.321 141.059 41.4808 140.469 41.8004C139.887 42.1129 139.425 42.5497 139.084 43.1108C138.743 43.6648 138.573 44.2969 138.573 45.0071V55H135.387ZM153.368 55.3303C151.756 55.3303 150.367 54.9858 149.202 54.2969C148.045 53.6009 147.15 52.6243 146.518 51.3672C145.893 50.103 145.58 48.6222 145.58 46.9247C145.58 45.2486 145.893 43.7713 146.518 42.4929C147.15 41.2145 148.03 40.2166 149.16 39.4993C150.296 38.782 151.624 38.4233 153.144 38.4233C154.067 38.4233 154.962 38.576 155.829 38.8814C156.695 39.1868 157.473 39.6662 158.162 40.3196C158.851 40.973 159.394 41.8217 159.792 42.8658C160.189 43.9027 160.388 45.1634 160.388 46.6477V47.777H147.381V45.3906H157.267C157.267 44.5526 157.096 43.8104 156.756 43.1641C156.415 42.5107 155.935 41.9957 155.317 41.6193C154.706 41.2429 153.989 41.0547 153.165 41.0547C152.27 41.0547 151.489 41.2749 150.822 41.7152C150.161 42.1484 149.65 42.7166 149.287 43.4197C148.932 44.1158 148.755 44.8722 148.755 45.6889V47.5533C148.755 48.647 148.947 49.5774 149.33 50.3445C149.721 51.1115 150.264 51.6974 150.96 52.1023C151.656 52.5 152.469 52.6989 153.4 52.6989C154.003 52.6989 154.554 52.6136 155.051 52.4432C155.548 52.2656 155.978 52.0028 156.34 51.6548C156.702 51.3068 156.979 50.8771 157.171 50.3658L160.186 50.9091C159.944 51.7969 159.511 52.5746 158.886 53.2422C158.268 53.9027 157.491 54.4176 156.553 54.7869C155.623 55.1491 154.561 55.3303 153.368 55.3303ZM168.685 55.3622C167.648 55.3622 166.71 55.1705 165.872 54.7869C165.034 54.3963 164.37 53.8317 163.88 53.093C163.397 52.3544 163.156 51.4489 163.156 50.3764C163.156 49.4531 163.333 48.6932 163.688 48.0966C164.043 47.5 164.523 47.0277 165.126 46.6797C165.73 46.3317 166.405 46.0689 167.151 45.8913C167.896 45.7138 168.656 45.5788 169.43 45.4865C170.411 45.3729 171.206 45.2805 171.817 45.2095C172.428 45.1314 172.871 45.0071 173.148 44.8366C173.425 44.6662 173.564 44.3892 173.564 44.0057V43.9311C173.564 43.0007 173.301 42.2798 172.776 41.7685C172.257 41.2571 171.483 41.0014 170.453 41.0014C169.381 41.0014 168.536 41.2393 167.918 41.7152C167.307 42.1839 166.884 42.706 166.65 43.2812L163.656 42.5994C164.011 41.6051 164.53 40.8026 165.212 40.1918C165.901 39.5739 166.692 39.1264 167.587 38.8494C168.482 38.5653 169.423 38.4233 170.411 38.4233C171.064 38.4233 171.756 38.5014 172.488 38.6577C173.227 38.8068 173.915 39.0838 174.555 39.4886C175.201 39.8935 175.73 40.4723 176.142 41.2251C176.554 41.9709 176.76 42.9403 176.76 44.1335V55H173.649V52.7628H173.521C173.315 53.1747 173.006 53.5795 172.594 53.9773C172.183 54.375 171.653 54.7053 171.007 54.968C170.361 55.2308 169.587 55.3622 168.685 55.3622ZM169.377 52.8054C170.258 52.8054 171.011 52.6314 171.636 52.2834C172.268 51.9354 172.747 51.4808 173.074 50.9197C173.408 50.3516 173.575 49.7443 173.575 49.098V46.9886C173.461 47.1023 173.241 47.2088 172.914 47.3082C172.594 47.4006 172.229 47.4822 171.817 47.5533C171.405 47.6172 171.004 47.6776 170.613 47.7344C170.222 47.7841 169.896 47.8267 169.633 47.8622C169.015 47.9403 168.45 48.0717 167.939 48.2564C167.435 48.4411 167.03 48.7074 166.724 49.0554C166.426 49.3963 166.277 49.8509 166.277 50.419C166.277 51.2074 166.568 51.804 167.151 52.2088C167.733 52.6065 168.475 52.8054 169.377 52.8054ZM181.003 55V38.6364H184.06V41.2997H184.263C184.604 40.3977 185.161 39.6946 185.935 39.1903C186.709 38.679 187.636 38.4233 188.716 38.4233C189.809 38.4233 190.726 38.679 191.464 39.1903C192.21 39.7017 192.76 40.4048 193.116 41.2997H193.286C193.677 40.4261 194.298 39.7301 195.15 39.2116C196.003 38.6861 197.018 38.4233 198.197 38.4233C199.682 38.4233 200.893 38.8885 201.83 39.8189C202.775 40.7493 203.247 42.152 203.247 44.027V55H200.062V44.3253C200.062 43.2173 199.76 42.4148 199.156 41.9176C198.552 41.4205 197.831 41.1719 196.993 41.1719C195.956 41.1719 195.15 41.4915 194.575 42.1307C194 42.7628 193.712 43.576 193.712 44.5703V55H190.537V44.1229C190.537 43.2351 190.26 42.5213 189.706 41.9815C189.153 41.4418 188.432 41.1719 187.544 41.1719C186.94 41.1719 186.383 41.3317 185.871 41.6513C185.367 41.9638 184.959 42.4006 184.646 42.9616C184.341 43.5227 184.188 44.1726 184.188 44.9112V55H181.003ZM219.778 42.6314L216.891 43.1428C216.771 42.7734 216.579 42.4219 216.316 42.0881C216.06 41.7543 215.712 41.4808 215.272 41.2678C214.832 41.0547 214.281 40.9482 213.621 40.9482C212.719 40.9482 211.966 41.1506 211.362 41.5554C210.759 41.9531 210.457 42.468 210.457 43.1001C210.457 43.647 210.659 44.0874 211.064 44.4212C211.469 44.755 212.122 45.0284 213.024 45.2415L215.624 45.8381C217.129 46.1861 218.251 46.7223 218.99 47.4467C219.729 48.1712 220.098 49.1122 220.098 50.2699C220.098 51.25 219.814 52.1236 219.246 52.8906C218.685 53.6506 217.9 54.2472 216.891 54.6804C215.89 55.1136 214.729 55.3303 213.408 55.3303C211.575 55.3303 210.08 54.9396 208.923 54.1584C207.765 53.37 207.055 52.2514 206.792 50.8026L209.871 50.3338C210.063 51.1364 210.457 51.7436 211.053 52.1555C211.65 52.5604 212.428 52.7628 213.386 52.7628C214.43 52.7628 215.265 52.5462 215.89 52.1129C216.515 51.6726 216.827 51.1364 216.827 50.5043C216.827 49.9929 216.636 49.5632 216.252 49.2152C215.876 48.8672 215.297 48.6044 214.516 48.4268L211.746 47.8196C210.219 47.4716 209.089 46.9176 208.358 46.1577C207.634 45.3977 207.271 44.4354 207.271 43.2706C207.271 42.3047 207.541 41.4595 208.081 40.7351C208.621 40.0107 209.366 39.446 210.318 39.0412C211.27 38.6293 212.36 38.4233 213.589 38.4233C215.357 38.4233 216.749 38.8068 217.765 39.5739C218.781 40.3338 219.452 41.353 219.778 42.6314ZM231.54 61.1364V38.6364H234.651V41.2891H234.917C235.102 40.9482 235.368 40.554 235.716 40.1065C236.064 39.6591 236.547 39.2685 237.165 38.9347C237.783 38.5938 238.599 38.4233 239.615 38.4233C240.936 38.4233 242.115 38.7571 243.152 39.4247C244.189 40.0923 245.002 41.0547 245.592 42.3118C246.188 43.5689 246.487 45.0817 246.487 46.8501C246.487 48.6186 246.192 50.1349 245.602 51.3991C245.013 52.6562 244.203 53.6257 243.173 54.3075C242.143 54.9822 240.968 55.3196 239.647 55.3196C238.653 55.3196 237.839 55.1527 237.207 54.8189C236.582 54.4851 236.092 54.0945 235.737 53.647C235.382 53.1996 235.109 52.8018 234.917 52.4538H234.725V61.1364H231.54ZM234.661 46.8182C234.661 47.9687 234.828 48.9773 235.162 49.8438C235.496 50.7102 235.979 51.3885 236.611 51.8786C237.243 52.3615 238.017 52.603 238.933 52.603C239.885 52.603 240.68 52.3509 241.32 51.8466C241.959 51.3352 242.442 50.6428 242.768 49.7692C243.102 48.8956 243.269 47.9119 243.269 46.8182C243.269 45.7386 243.106 44.7692 242.779 43.9098C242.46 43.0504 241.977 42.3722 241.33 41.875C240.691 41.3778 239.892 41.1293 238.933 41.1293C238.01 41.1293 237.229 41.3672 236.589 41.843C235.957 42.3189 235.478 42.983 235.151 43.8352C234.825 44.6875 234.661 45.6818 234.661 46.8182ZM257.108 55.3303C255.496 55.3303 254.107 54.9858 252.942 54.2969C251.785 53.6009 250.89 52.6243 250.258 51.3672C249.633 50.103 249.32 48.6222 249.32 46.9247C249.32 45.2486 249.633 43.7713 250.258 42.4929C250.89 41.2145 251.771 40.2166 252.9 39.4993C254.036 38.782 255.364 38.4233 256.884 38.4233C257.808 38.4233 258.702 38.576 259.569 38.8814C260.435 39.1868 261.213 39.6662 261.902 40.3196C262.591 40.973 263.134 41.8217 263.532 42.8658C263.93 43.9027 264.129 45.1634 264.129 46.6477V47.777H251.121V45.3906H261.007C261.007 44.5526 260.837 43.8104 260.496 43.1641C260.155 42.5107 259.675 41.9957 259.058 41.6193C258.447 41.2429 257.729 41.0547 256.906 41.0547C256.011 41.0547 255.229 41.2749 254.562 41.7152C253.901 42.1484 253.39 42.7166 253.028 43.4197C252.673 44.1158 252.495 44.8722 252.495 45.6889V47.5533C252.495 48.647 252.687 49.5774 253.07 50.3445C253.461 51.1115 254.004 51.6974 254.7 52.1023C255.396 52.5 256.21 52.6989 257.14 52.6989C257.744 52.6989 258.294 52.6136 258.791 52.4432C259.288 52.2656 259.718 52.0028 260.08 51.6548C260.442 51.3068 260.719 50.8771 260.911 50.3658L263.926 50.9091C263.685 51.7969 263.251 52.5746 262.626 53.2422C262.009 53.9027 261.231 54.4176 260.293 54.7869C259.363 55.1491 258.301 55.3303 257.108 55.3303ZM267.663 55V38.6364H270.742V41.2358H270.912C271.21 40.3551 271.736 39.6626 272.489 39.1584C273.249 38.647 274.108 38.3913 275.067 38.3913C275.266 38.3913 275.5 38.3984 275.77 38.4126C276.047 38.4268 276.264 38.4446 276.42 38.4659V41.5128C276.292 41.4773 276.065 41.4382 275.738 41.3956C275.411 41.3459 275.085 41.321 274.758 41.321C274.005 41.321 273.334 41.4808 272.744 41.8004C272.162 42.1129 271.7 42.5497 271.36 43.1108C271.019 43.6648 270.848 44.2969 270.848 45.0071V55H267.663ZM289.129 61.1364C288.654 61.1364 288.22 61.0973 287.83 61.0192C287.439 60.9482 287.148 60.87 286.956 60.7848L287.723 58.1747C288.306 58.331 288.824 58.3984 289.279 58.3771C289.733 58.3558 290.134 58.1854 290.482 57.8658C290.838 57.5462 291.15 57.0241 291.42 56.2997L291.814 55.2131L285.827 38.6364H289.236L293.38 51.3352H293.551L297.695 38.6364H301.115L294.371 57.1839C294.058 58.0362 293.661 58.7571 293.178 59.3466C292.695 59.9432 292.119 60.3906 291.452 60.6889C290.784 60.9872 290.01 61.1364 289.129 61.1364ZM310.604 55.3303C308.992 55.3303 307.603 54.9858 306.439 54.2969C305.281 53.6009 304.386 52.6243 303.754 51.3672C303.129 50.103 302.816 48.6222 302.816 46.9247C302.816 45.2486 303.129 43.7713 303.754 42.4929C304.386 41.2145 305.267 40.2166 306.396 39.4993C307.532 38.782 308.86 38.4233 310.38 38.4233C311.304 38.4233 312.199 38.576 313.065 38.8814C313.931 39.1868 314.709 39.6662 315.398 40.3196C316.087 40.973 316.63 41.8217 317.028 42.8658C317.426 43.9027 317.625 45.1634 317.625 46.6477V47.777H304.617V45.3906H314.503C314.503 44.5526 314.333 43.8104 313.992 43.1641C313.651 42.5107 313.172 41.9957 312.554 41.6193C311.943 41.2429 311.225 41.0547 310.402 41.0547C309.507 41.0547 308.725 41.2749 308.058 41.7152C307.397 42.1484 306.886 42.7166 306.524 43.4197C306.169 44.1158 305.991 44.8722 305.991 45.6889V47.5533C305.991 48.647 306.183 49.5774 306.566 50.3445C306.957 51.1115 307.5 51.6974 308.196 52.1023C308.892 52.5 309.706 52.6989 310.636 52.6989C311.24 52.6989 311.79 52.6136 312.287 52.4432C312.784 52.2656 313.214 52.0028 313.576 51.6548C313.939 51.3068 314.216 50.8771 314.407 50.3658L317.422 50.9091C317.181 51.7969 316.748 52.5746 316.123 53.2422C315.505 53.9027 314.727 54.4176 313.789 54.7869C312.859 55.1491 311.797 55.3303 310.604 55.3303ZM325.921 55.3622C324.884 55.3622 323.947 55.1705 323.108 54.7869C322.27 54.3963 321.606 53.8317 321.116 53.093C320.633 52.3544 320.392 51.4489 320.392 50.3764C320.392 49.4531 320.569 48.6932 320.925 48.0966C321.28 47.5 321.759 47.0277 322.363 46.6797C322.966 46.3317 323.641 46.0689 324.387 45.8913C325.133 45.7138 325.893 45.5788 326.667 45.4865C327.647 45.3729 328.442 45.2805 329.053 45.2095C329.664 45.1314 330.108 45.0071 330.385 44.8366C330.662 44.6662 330.8 44.3892 330.8 44.0057V43.9311C330.8 43.0007 330.537 42.2798 330.012 41.7685C329.493 41.2571 328.719 41.0014 327.689 41.0014C326.617 41.0014 325.772 41.2393 325.154 41.7152C324.543 42.1839 324.121 42.706 323.886 43.2812L320.893 42.5994C321.248 41.6051 321.766 40.8026 322.448 40.1918C323.137 39.5739 323.929 39.1264 324.824 38.8494C325.719 38.5653 326.66 38.4233 327.647 38.4233C328.3 38.4233 328.993 38.5014 329.724 38.6577C330.463 38.8068 331.152 39.0838 331.791 39.4886C332.437 39.8935 332.966 40.4723 333.378 41.2251C333.79 41.9709 333.996 42.9403 333.996 44.1335V55H330.885V52.7628H330.758C330.552 53.1747 330.243 53.5795 329.831 53.9773C329.419 54.375 328.89 54.7053 328.243 54.968C327.597 55.2308 326.823 55.3622 325.921 55.3622ZM326.613 52.8054C327.494 52.8054 328.247 52.6314 328.872 52.2834C329.504 51.9354 329.983 51.4808 330.31 50.9197C330.644 50.3516 330.811 49.7443 330.811 49.098V46.9886C330.697 47.1023 330.477 47.2088 330.15 47.3082C329.831 47.4006 329.465 47.4822 329.053 47.5533C328.641 47.6172 328.24 47.6776 327.849 47.7344C327.459 47.7841 327.132 47.8267 326.869 47.8622C326.251 47.9403 325.687 48.0717 325.175 48.2564C324.671 48.4411 324.266 48.7074 323.961 49.0554C323.662 49.3963 323.513 49.8509 323.513 50.419C323.513 51.2074 323.805 51.804 324.387 52.2088C324.969 52.6065 325.711 52.8054 326.613 52.8054ZM338.239 55V38.6364H341.318V41.2358H341.488C341.787 40.3551 342.312 39.6626 343.065 39.1584C343.825 38.647 344.684 38.3913 345.643 38.3913C345.842 38.3913 346.076 38.3984 346.346 38.4126C346.623 38.4268 346.84 38.4446 346.996 38.4659V41.5128C346.868 41.4773 346.641 41.4382 346.314 41.3956C345.988 41.3459 345.661 41.321 345.334 41.321C344.581 41.321 343.91 41.4808 343.321 41.8004C342.738 42.1129 342.277 42.5497 341.936 43.1108C341.595 43.6648 341.424 44.2969 341.424 45.0071V55H338.239Z" fill="#010101"/>
</svg>
