<svg width="202" height="73" viewBox="0 0 202 73" fill="none" xmlns="http://www.w3.org/2000/svg">
<path d="M86.6914 25.4141L92.4688 15.8984H95.2109V29L92.7266 29V19.4727L86.9727 29H84.2188V15.8984H86.6914V25.4141ZM106.508 21.3477V23.5508L99.418 23.5508V21.3477L106.508 21.3477ZM100.121 15.8984V29H97.6484V15.8984H100.121ZM108.289 15.8984V29H105.805V15.8984H108.289ZM112.73 15.8984L115.602 21.0078L118.52 15.8984L121.32 15.8984L117.242 22.4609L121.344 29H118.566L115.602 24.1016L112.684 29H109.883L113.949 22.4609L109.93 15.8984H112.73ZM126.734 29.2812C125.906 29.2812 125.156 29.1289 124.484 28.8242C123.812 28.5117 123.281 28.0586 122.891 27.4648C122.5 26.8711 122.305 26.1484 122.305 25.2969C122.305 24.5547 122.445 23.9492 122.727 23.4805C123.016 23.0039 123.402 22.625 123.887 22.3437C124.371 22.0625 124.91 21.8516 125.504 21.7109C126.098 21.5703 126.707 21.4609 127.332 21.3828C128.121 21.2969 128.758 21.2227 129.242 21.1602C129.727 21.0977 130.078 21 130.297 20.8672C130.523 20.7266 130.637 20.5039 130.637 20.1992V20.1406C130.637 19.3984 130.426 18.8242 130.004 18.418C129.59 18.0117 128.973 17.8086 128.152 17.8086C127.301 17.8086 126.625 17.9961 126.125 18.3711C125.633 18.7383 125.293 19.1562 125.105 19.625L122.703 19.0742C122.992 18.2773 123.41 17.6367 123.957 17.1523C124.512 16.6602 125.145 16.3008 125.855 16.0742C126.574 15.8477 127.324 15.7344 128.105 15.7344C128.629 15.7344 129.184 15.7969 129.77 15.9219C130.355 16.0391 130.906 16.2617 131.422 16.5898C131.945 16.9102 132.371 17.3711 132.699 17.9727C133.027 18.5742 133.191 19.3516 133.191 20.3047V29H130.695V27.207H130.602C130.445 27.5273 130.199 27.8477 129.863 28.168C129.535 28.4883 129.113 28.7539 128.598 28.9648C128.082 29.1758 127.461 29.2812 126.734 29.2812ZM127.285 27.2422C127.996 27.2422 128.602 27.1055 129.102 26.832C129.602 26.5508 129.984 26.1836 130.25 25.7305C130.516 25.2773 130.648 24.7969 130.648 24.2891V22.5898C130.555 22.6758 130.379 22.7578 130.121 22.8359C129.863 22.9141 129.57 22.9805 129.242 23.0352C128.914 23.0898 128.594 23.1406 128.281 23.1875C127.969 23.2266 127.707 23.2578 127.496 23.2812C127.004 23.3516 126.555 23.4609 126.148 23.6094C125.742 23.75 125.414 23.9609 125.164 24.2422C124.922 24.5156 124.801 24.8789 124.801 25.332C124.801 25.9648 125.035 26.4414 125.504 26.7617C125.973 27.082 126.566 27.2422 127.285 27.2422ZM136.766 33.8984C136.383 33.9062 136.035 33.8789 135.723 33.8164C135.418 33.7617 135.184 33.6953 135.02 33.6172L135.641 31.543L135.816 31.5898C136.465 31.7539 137.012 31.7422 137.457 31.5547C137.91 31.375 138.289 30.8711 138.594 30.043L138.91 29.1758L134.129 15.8984L136.859 15.8984L140.164 26.0703H140.305L143.621 15.8984H146.352L140.961 30.7344C140.711 31.4219 140.395 32 140.012 32.4687C139.629 32.9453 139.168 33.3008 138.629 33.5352C138.098 33.7773 137.477 33.8984 136.766 33.8984ZM152.785 29.2695C151.527 29.2695 150.441 28.9805 149.527 28.4023C148.613 27.8242 147.91 27.0273 147.418 26.0117C146.926 24.9961 146.68 23.832 146.68 22.5195C146.68 21.1836 146.93 20.0078 147.43 18.9922C147.938 17.9687 148.645 17.1719 149.551 16.6016C150.465 16.0234 151.535 15.7344 152.762 15.7344C153.762 15.7344 154.648 15.918 155.422 16.2852C156.203 16.6445 156.832 17.1562 157.309 17.8203C157.793 18.4844 158.078 19.2578 158.164 20.1406H155.68C155.594 19.7266 155.426 19.3477 155.176 19.0039C154.934 18.6602 154.613 18.3867 154.215 18.1836C153.816 17.9805 153.344 17.8789 152.797 17.8789C152.086 17.8789 151.465 18.0664 150.934 18.4414C150.41 18.8086 150 19.3359 149.703 20.0234C149.406 20.7109 149.258 21.5234 149.258 22.4609C149.258 23.4062 149.402 24.2305 149.691 24.9336C149.98 25.6367 150.391 26.1797 150.922 26.5625C151.461 26.9375 152.086 27.125 152.797 27.125C153.531 27.125 154.156 26.9219 154.672 26.5156C155.195 26.1094 155.531 25.5547 155.68 24.8516H158.164C158.078 25.7031 157.805 26.4609 157.344 27.125C156.883 27.7891 156.266 28.3125 155.492 28.6953C154.719 29.0781 153.816 29.2695 152.785 29.2695ZM167.785 25.4141L173.562 15.8984H176.305V29H173.82V19.4727L168.066 29H165.312V15.8984H167.785V25.4141ZM187.098 15.8984V18.1016H181.238V29H178.742V15.8984L187.098 15.8984ZM188.797 33.8984V15.8984H191.258V18.0312H191.469C191.625 17.7578 191.84 17.4414 192.113 17.082C192.395 16.7227 192.785 16.4102 193.285 16.1445C193.785 15.8711 194.438 15.7344 195.242 15.7344C196.297 15.7344 197.234 16 198.055 16.5312C198.883 17.0625 199.535 17.832 200.012 18.8398C200.488 19.8477 200.727 21.0625 200.727 22.4844C200.727 23.8906 200.492 25.1016 200.023 26.1172C199.555 27.125 198.906 27.9023 198.078 28.4492C197.258 28.9883 196.316 29.2578 195.254 29.2578C194.465 29.2578 193.816 29.125 193.309 28.8594C192.809 28.5859 192.414 28.2695 192.125 27.9102C191.844 27.5508 191.625 27.2344 191.469 26.9609H191.328V33.8984H188.797ZM194.703 27.0898C195.461 27.0898 196.094 26.8867 196.602 26.4805C197.109 26.0742 197.492 25.5234 197.75 24.8281C198.016 24.125 198.148 23.3359 198.148 22.4609C198.148 21.5937 198.02 20.8164 197.762 20.1289C197.504 19.4414 197.121 18.8984 196.613 18.5C196.105 18.1016 195.469 17.9023 194.703 17.9023C193.961 17.9023 193.336 18.0937 192.828 18.4766C192.32 18.8516 191.934 19.3828 191.668 20.0703C191.41 20.75 191.281 21.5469 191.281 22.4609C191.281 23.375 191.414 24.1797 191.68 24.875C191.945 25.5703 192.332 26.1133 192.84 26.5039C193.355 26.8945 193.977 27.0898 194.703 27.0898Z" fill="#010101"/>
<path d="M29.1016 0.246094L29.1016 73H20.5078L20.5078 9.52344H20.0195L2.34375 21.3398L2.34375 12.3555L20.5078 0.246094L29.1016 0.246094ZM64.6484 0.246094L64.6484 73H56.0547L56.0547 9.52344H55.5664L37.8906 21.3398V12.3555L56.0547 0.246094L64.6484 0.246094Z" fill="#010101"/>
</svg>
