<svg width="306" height="75" viewBox="0 0 306 75" fill="none" xmlns="http://www.w3.org/2000/svg">
<path d="M216.715 30.2695C215.457 30.2695 214.371 29.9805 213.457 29.4023C212.543 28.8242 211.84 28.0273 211.348 27.0117C210.855 25.9961 210.609 24.832 210.609 23.5195C210.609 22.1836 210.859 21.0078 211.359 19.9922C211.867 18.9688 212.574 18.1719 213.48 17.6016C214.395 17.0234 215.465 16.7344 216.691 16.7344C217.691 16.7344 218.578 16.918 219.352 17.2852C220.133 17.6445 220.762 18.1562 221.238 18.8203C221.723 19.4844 222.008 20.2578 222.094 21.1406H219.609C219.523 20.7266 219.355 20.3477 219.105 20.0039C218.863 19.6602 218.543 19.3867 218.145 19.1836C217.746 18.9805 217.273 18.8789 216.727 18.8789C216.016 18.8789 215.395 19.0664 214.863 19.4414C214.34 19.8086 213.93 20.3359 213.633 21.0234C213.336 21.7109 213.188 22.5234 213.188 23.4609C213.188 24.4062 213.332 25.2305 213.621 25.9336C213.91 26.6367 214.32 27.1797 214.852 27.5625C215.391 27.9375 216.016 28.125 216.727 28.125C217.461 28.125 218.086 27.9219 218.602 27.5156C219.125 27.1094 219.461 26.5547 219.609 25.8516L222.094 25.8516C222.008 26.7031 221.734 27.4609 221.273 28.125C220.812 28.7891 220.195 29.3125 219.422 29.6953C218.648 30.0781 217.746 30.2695 216.715 30.2695ZM229.395 30.2695C228.168 30.2695 227.094 29.9883 226.172 29.4258C225.258 28.8633 224.547 28.0742 224.039 27.0586C223.539 26.043 223.289 24.8633 223.289 23.5195C223.289 22.1602 223.539 20.9727 224.039 19.957C224.547 18.9336 225.258 18.1406 226.172 17.5781C227.094 17.0156 228.168 16.7344 229.395 16.7344C230.629 16.7344 231.703 17.0156 232.617 17.5781C233.531 18.1406 234.242 18.9336 234.75 19.957C235.258 20.9727 235.512 22.1602 235.512 23.5195C235.512 24.8633 235.258 26.043 234.75 27.0586C234.242 28.0742 233.531 28.8633 232.617 29.4258C231.703 29.9883 230.629 30.2695 229.395 30.2695ZM229.395 28.125C230.199 28.125 230.863 27.9141 231.387 27.4922C231.91 27.0703 232.297 26.5117 232.547 25.8164C232.805 25.1133 232.934 24.3477 232.934 23.5195C232.934 22.6758 232.805 21.9023 232.547 21.1992C232.297 20.4961 231.91 19.9336 231.387 19.5117C230.863 19.0898 230.199 18.8789 229.395 18.8789C228.598 18.8789 227.938 19.0898 227.414 19.5117C226.898 19.9336 226.512 20.4961 226.254 21.1992C225.996 21.9023 225.867 22.6758 225.867 23.5195C225.867 24.3477 225.996 25.1133 226.254 25.8164C226.512 26.5117 226.898 27.0703 227.414 27.4922C227.938 27.9141 228.598 28.125 229.395 28.125ZM247.43 12.0352L248.484 13.6406C248.102 14 247.66 14.2539 247.16 14.4023C246.66 14.5508 246.086 14.6445 245.438 14.6836C244.789 14.7227 244.047 14.7578 243.211 14.7891C242.266 14.8125 241.488 15.0156 240.879 15.3984C240.277 15.7734 239.812 16.3281 239.484 17.0625C239.156 17.7969 238.945 18.7227 238.852 19.8398H239.016C239.43 19.0273 240.016 18.4219 240.773 18.0234C241.539 17.6172 242.398 17.4141 243.352 17.4141C244.406 17.4141 245.344 17.6562 246.164 18.1406C246.984 18.6172 247.633 19.3203 248.109 20.25C248.586 21.1797 248.82 22.3125 248.812 23.6484C248.82 25.0078 248.578 26.1836 248.086 27.1758C247.594 28.168 246.895 28.9297 245.988 29.4609C245.09 29.9922 244.031 30.2617 242.812 30.2695C240.977 30.2617 239.508 29.6367 238.406 28.3945C237.305 27.1445 236.75 25.3164 236.742 22.9102V21.6328C236.75 18.6328 237.289 16.3789 238.359 14.8711C239.43 13.3633 241.027 12.5859 243.152 12.5391C243.84 12.5234 244.453 12.5195 244.992 12.5273C245.531 12.5352 246.004 12.5117 246.41 12.457C246.816 12.3945 247.156 12.2539 247.43 12.0352ZM242.812 28.1367C243.531 28.1289 244.145 27.9453 244.652 27.5859C245.16 27.2266 245.555 26.7148 245.836 26.0508C246.117 25.3867 246.254 24.6016 246.246 23.6953C246.254 22.8125 246.117 22.0625 245.836 21.4453C245.555 20.8203 245.156 20.3437 244.641 20.0156C244.125 19.6875 243.504 19.5234 242.777 19.5234C242.246 19.5234 241.77 19.6172 241.348 19.8047C240.926 19.9922 240.566 20.2656 240.27 20.625C239.973 20.9766 239.742 21.4102 239.578 21.9258C239.422 22.4414 239.336 23.0312 239.32 23.6953C239.32 25.0391 239.629 26.1133 240.246 26.918C240.871 27.7227 241.727 28.1289 242.812 28.1367ZM252.574 21.4219H256.383C257.977 21.4141 259.203 21.8086 260.062 22.6055C260.93 23.4023 261.367 24.4297 261.375 25.6875C261.375 26.5078 261.18 27.2422 260.789 27.8906C260.398 28.5391 259.832 29.0547 259.09 29.4375C258.348 29.8125 257.445 30 256.383 30H250.664V16.8984H253.137V27.7969H256.383C257.109 27.7969 257.707 27.6094 258.176 27.2344C258.645 26.8516 258.883 26.3594 258.891 25.7578C258.883 25.125 258.645 24.6094 258.176 24.2109C257.707 23.8125 257.109 23.6172 256.383 23.625H252.574V21.4219ZM263.238 30V16.8984H265.77V30L263.238 30ZM267.457 19.1016V16.8984L278.484 16.8984V19.1016H274.23V30H271.734V19.1016L267.457 19.1016ZM282.668 26.4141L288.445 16.8984H291.188V30H288.703V20.4727L282.949 30H280.195V16.8984H282.668V26.4141ZM296.098 26.4141L301.875 16.8984H304.617V30H302.133V20.4727L296.379 30H293.625V16.8984H296.098V26.4141ZM299.098 15.375C297.98 15.375 297.074 15.0703 296.379 14.4609C295.684 13.8437 295.336 13.043 295.336 12.0586H297.434C297.434 12.5586 297.586 12.9648 297.891 13.2773C298.195 13.582 298.598 13.7344 299.098 13.7344C299.598 13.7344 300 13.582 300.305 13.2773C300.609 12.9648 300.762 12.5586 300.762 12.0586H302.859C302.859 13.043 302.512 13.8437 301.816 14.4609C301.121 15.0703 300.215 15.375 299.098 15.375Z" fill="#010101"/>
<path d="M27.9297 74.9766C23.763 74.9766 20.0033 74.1628 16.6504 72.5352C13.3301 70.875 10.6608 68.5964 8.64258 65.6992C6.62435 62.8021 5.53385 59.5143 5.37109 55.8359H13.8672C14.1927 59.0911 15.6738 61.793 18.3105 63.9414C20.9798 66.0898 24.1862 67.1641 27.9297 67.1641C30.9245 67.1641 33.5775 66.4642 35.8887 65.0645C38.1999 63.6647 40.0228 61.7441 41.3574 59.3027C42.6921 56.8613 43.3594 54.0781 43.3594 50.9531C43.3594 47.7956 42.6595 44.9635 41.2598 42.457C39.8926 39.9505 38.0046 37.9811 35.5957 36.5488C33.1868 35.084 30.4362 34.3516 27.3438 34.3516C25.0977 34.3516 22.8027 34.7096 20.459 35.4258C18.1478 36.1094 16.2435 36.9883 14.7461 38.0625L6.44531 37.0859L10.8398 1.24609L48.6328 1.24609V9.05859L18.2617 9.05859L15.7227 30.543H16.1133C17.6107 29.3385 19.4824 28.362 21.7285 27.6133C23.9746 26.832 26.3346 26.4414 28.8086 26.4414C33.2682 26.4414 37.2396 27.4993 40.7227 29.6152C44.2057 31.7311 46.9401 34.6283 48.9258 38.3066C50.944 41.9525 51.9531 46.1354 51.9531 50.8555C51.9531 55.4779 50.9115 59.612 48.8281 63.2578C46.7448 66.9036 43.8965 69.7682 40.2832 71.8516C36.6699 73.9349 32.5521 74.9766 27.9297 74.9766ZM84.4727 74.9766C79.1341 74.9766 74.5768 73.5117 70.8008 70.582C67.0247 67.6523 64.1439 63.4206 62.1582 57.8867C60.1725 52.3203 59.1797 45.582 59.1797 37.6719C59.1797 29.7943 60.1725 23.0723 62.1582 17.5059C64.1764 11.9069 67.0736 7.64258 70.8496 4.71289C74.6257 1.75065 79.1667 0.269531 84.4727 0.269531C89.7786 0.269531 94.3197 1.75065 98.0957 4.71289C101.872 7.64258 104.753 11.9069 106.738 17.5059C108.757 23.0723 109.766 29.7943 109.766 37.6719C109.766 45.582 108.773 52.3203 106.787 57.8867C104.801 63.4206 101.921 67.6523 98.1445 70.582C94.401 73.5117 89.8438 74.9766 84.4727 74.9766ZM84.4727 67.2617C88.0859 67.2617 91.1458 66.1061 93.6523 63.7949C96.1589 61.4512 98.0632 58.0658 99.3652 53.6387C100.7 49.2116 101.367 43.8893 101.367 37.6719C101.367 31.4219 100.7 26.0833 99.3652 21.6562C98.0632 17.2292 96.1589 13.8437 93.6523 11.5C91.1458 9.15625 88.0859 7.98437 84.4727 7.98437C79.069 7.98437 74.9023 10.5885 71.9727 15.7969C69.043 21.0052 67.5781 28.2969 67.5781 37.6719C67.5781 43.8893 68.2292 49.2116 69.5313 53.6387C70.8659 58.0658 72.7865 61.4512 75.293 63.7949C77.832 66.1061 80.8919 67.2617 84.4727 67.2617ZM118.75 74L118.75 19.4102L127.051 19.4102V43.1406H132.617L152.246 19.4102H162.988L141.016 45.7773L163.281 74H152.539L134.57 50.9531H127.051V74H118.75Z" fill="#010101"/>
<rect x="166" y="27" width="40" height="40" rx="20" fill="#F84204"/>
<path d="M186 48.333C186.736 48.333 187.333 48.9306 187.333 49.667V53.667C187.333 54.4032 186.736 55 186 55C185.264 55 184.667 54.4032 184.667 53.667V49.667C184.667 48.9306 185.264 48.333 186 48.333ZM183.333 45.667C184.069 45.667 184.667 46.2636 184.667 47C184.667 47.7364 184.069 48.333 183.333 48.333H179.333C178.597 48.3328 178 47.7363 178 47C178 46.2637 178.597 45.6672 179.333 45.667H183.333ZM192.667 45.667C193.403 45.6672 194 46.2637 194 47C194 47.7363 193.403 48.3328 192.667 48.333H188.667C187.931 48.333 187.333 47.7364 187.333 47C187.333 46.2636 187.931 45.667 188.667 45.667H192.667ZM186 39C186.736 39 187.333 39.5968 187.333 40.333V44.333C187.333 45.0694 186.736 45.667 186 45.667C185.264 45.667 184.667 45.0694 184.667 44.333V40.333C184.667 39.5968 185.264 39 186 39Z" fill="white"/>
</svg>
