<svg width="81" height="233" viewBox="0 0 81 233" fill="none" xmlns="http://www.w3.org/2000/svg">
<path d="M31.1219 29.3601C30.1875 28.4099 28.6597 28.397 27.7095 29.3314C26.7592 30.2658 26.7464 31.7936 27.6808 32.7439L31.1219 29.3601ZM50.7891 55.2359C52.1218 55.2471 53.2112 54.1759 53.2224 52.8432L53.4049 31.1264C53.4161 29.7938 52.3449 28.7043 51.0122 28.6931C49.6796 28.6819 48.5902 29.7532 48.579 31.0858L48.4167 50.3897L29.1129 50.2275C27.7802 50.2163 26.6908 51.2875 26.6796 52.6202C26.6684 53.9528 27.7397 55.0422 29.0723 55.0534L50.7891 55.2359ZM29.4014 31.052L27.6808 32.7439L49.0889 54.5149L50.8094 52.823L52.53 51.1311L31.1219 29.3601L29.4014 31.052Z" fill="white"/>
<path d="M26.0037 15.1356C38.2625 8.73361 54.8924 15.0163 62.8526 30.2582C70.8127 45.5002 66.4664 62.7377 54.2077 69.1401C41.9489 75.5423 25.3183 69.26 17.358 54.0179C9.39787 38.7758 13.7449 21.5378 26.0037 15.1356Z" stroke="white" stroke-width="4.82613"/>
<path d="M31.1219 103.32C30.1875 102.37 28.6597 102.357 27.7095 103.292C26.7592 104.226 26.7464 105.754 27.6808 106.704L31.1219 103.32ZM50.7891 129.196C52.1218 129.207 53.2112 128.136 53.2224 126.803L53.4049 105.087C53.4161 103.754 52.3449 102.665 51.0122 102.653C49.6796 102.642 48.5902 103.713 48.579 105.046L48.4167 124.35L29.1129 124.188C27.7802 124.176 26.6908 125.248 26.6796 126.58C26.6684 127.913 27.7397 129.002 29.0723 129.014L50.7891 129.196ZM29.4014 105.012L27.6808 106.704L49.0889 128.475L50.8094 126.783L52.53 125.091L31.1219 103.32L29.4014 105.012Z" fill="white"/>
<path d="M26.0037 89.0958C38.2625 82.6938 54.8924 88.9765 62.8526 104.218C70.8127 119.46 66.4664 136.698 54.2077 143.1C41.9489 149.503 25.3183 143.22 17.358 127.978C9.39787 112.736 13.7449 95.498 26.0037 89.0958Z" stroke="white" stroke-width="4.82613"/>
<path d="M31.1221 177.28C30.1877 176.33 28.6598 176.317 27.7096 177.251C26.7593 178.186 26.7465 179.714 27.6809 180.664L31.1221 177.28ZM50.7893 203.156C52.1219 203.167 53.2113 202.096 53.2225 200.763L53.4051 179.046C53.4163 177.714 52.345 176.624 51.0124 176.613C49.6797 176.602 48.5903 177.673 48.5791 179.006L48.4168 198.31L29.113 198.147C27.7803 198.136 26.6909 199.207 26.6797 200.54C26.6685 201.873 27.7398 202.962 29.0724 202.973L50.7893 203.156ZM29.4015 178.972L27.6809 180.664L49.089 202.435L50.8095 200.743L52.5301 199.051L31.1221 177.28L29.4015 178.972Z" fill="white"/>
<path d="M26.0039 163.055C38.2627 156.653 54.8925 162.936 62.8527 178.178C70.8129 193.42 66.4665 210.658 54.2079 217.06C41.949 223.462 25.3184 217.18 17.3582 201.938C9.39799 186.696 13.745 169.458 26.0039 163.055Z" stroke="white" stroke-width="4.82613"/>
</svg>
