<svg width="160" height="142" viewBox="0 0 160 142" fill="none" xmlns="http://www.w3.org/2000/svg">
<path d="M5.06329 48.3293C5.06329 49.7275 3.92983 50.8609 2.53165 50.8609C1.13346 50.8609 0 49.7275 0 48.3293C0 46.9311 1.13346 45.7976 2.53165 45.7976C3.92983 45.7976 5.06329 46.9311 5.06329 48.3293Z" fill="white" fill-opacity="0.5"/>
<path d="M5.06329 57.4432C5.06329 58.8414 3.92983 59.9749 2.53165 59.9749C1.13346 59.9749 0 58.8414 0 57.4432C0 56.045 1.13346 54.9116 2.53165 54.9116C3.92983 54.9116 5.06329 56.045 5.06329 57.4432Z" fill="white" fill-opacity="0.5"/>
<path d="M5.06329 66.5571C5.06329 67.9553 3.92983 69.0888 2.53165 69.0888C1.13346 69.0888 0 67.9553 0 66.5571C0 65.159 1.13346 64.0255 2.53165 64.0255C3.92983 64.0255 5.06329 65.159 5.06329 66.5571Z" fill="white" fill-opacity="0.5"/>
<path d="M5.06329 75.6711C5.06329 77.0693 3.92983 78.2027 2.53165 78.2027C1.13346 78.2027 0 77.0693 0 75.6711C0 74.2729 1.13346 73.1394 2.53165 73.1394C3.92983 73.1394 5.06329 74.2729 5.06329 75.6711Z" fill="white" fill-opacity="0.5"/>
<path d="M5.06329 84.785C5.06329 86.1832 3.92983 87.3166 2.53165 87.3166C1.13346 87.3166 0 86.1832 0 84.785C0 83.3868 1.13346 82.2533 2.53165 82.2533C3.92983 82.2533 5.06329 83.3868 5.06329 84.785Z" fill="white" fill-opacity="0.5"/>
<path d="M5.06329 93.8989C5.06329 95.2971 3.92983 96.4306 2.53165 96.4306C1.13346 96.4306 0 95.2971 0 93.8989C0 92.5007 1.13346 91.3673 2.53165 91.3673C3.92983 91.3673 5.06329 92.5007 5.06329 93.8989Z" fill="white" fill-opacity="0.5"/>
<path d="M5.06329 103.013C5.06329 104.411 3.92983 105.544 2.53165 105.544C1.13346 105.544 0 104.411 0 103.013C0 101.615 1.13346 100.481 2.53165 100.481C3.92983 100.481 5.06329 101.615 5.06329 103.013Z" fill="white" fill-opacity="0.5"/>
<path d="M5.06329 112.127C5.06329 113.525 3.92983 114.658 2.53165 114.658C1.13346 114.658 0 113.525 0 112.127C0 110.729 1.13346 109.595 2.53165 109.595C3.92983 109.595 5.06329 110.729 5.06329 112.127Z" fill="white" fill-opacity="0.5"/>
<path d="M5.06329 121.241C5.06329 122.639 3.92983 123.772 2.53165 123.772C1.13346 123.772 0 122.639 0 121.241C0 119.842 1.13346 118.709 2.53165 118.709C3.92983 118.709 5.06329 119.842 5.06329 121.241Z" fill="white" fill-opacity="0.5"/>
<path d="M5.06329 130.355C5.06329 131.753 3.92983 132.886 2.53165 132.886C1.13346 132.886 0 131.753 0 130.355C0 128.956 1.13346 127.823 2.53165 127.823C3.92983 127.823 5.06329 128.956 5.06329 130.355Z" fill="white" fill-opacity="0.5"/>
<path d="M5.06329 139.469C5.06329 140.867 3.92983 142 2.53165 142C1.13346 142 0 140.867 0 139.469C0 138.07 1.13346 136.937 2.53165 136.937C3.92983 136.937 5.06329 138.07 5.06329 139.469Z" fill="white" fill-opacity="0.5"/>
<path d="M14.1772 75.6711C14.1772 77.0693 13.0438 78.2027 11.6456 78.2027C10.2474 78.2027 9.11392 77.0693 9.11392 75.6711C9.11392 74.2729 10.2474 73.1394 11.6456 73.1394C13.0438 73.1394 14.1772 74.2729 14.1772 75.6711Z" fill="white" fill-opacity="0.5"/>
<path d="M14.1772 84.785C14.1772 86.1832 13.0438 87.3166 11.6456 87.3166C10.2474 87.3166 9.11392 86.1832 9.11392 84.785C9.11392 83.3868 10.2474 82.2533 11.6456 82.2533C13.0438 82.2533 14.1772 83.3868 14.1772 84.785Z" fill="white" fill-opacity="0.5"/>
<path d="M14.1772 93.8989C14.1772 95.2971 13.0438 96.4306 11.6456 96.4306C10.2474 96.4306 9.11392 95.2971 9.11392 93.8989C9.11392 92.5007 10.2474 91.3673 11.6456 91.3673C13.0438 91.3673 14.1772 92.5007 14.1772 93.8989Z" fill="white" fill-opacity="0.5"/>
<path d="M14.1772 103.013C14.1772 104.411 13.0438 105.544 11.6456 105.544C10.2474 105.544 9.11392 104.411 9.11392 103.013C9.11392 101.615 10.2474 100.481 11.6456 100.481C13.0438 100.481 14.1772 101.615 14.1772 103.013Z" fill="white" fill-opacity="0.5"/>
<path d="M14.1772 112.127C14.1772 113.525 13.0438 114.658 11.6456 114.658C10.2474 114.658 9.11392 113.525 9.11392 112.127C9.11392 110.729 10.2474 109.595 11.6456 109.595C13.0438 109.595 14.1772 110.729 14.1772 112.127Z" fill="white" fill-opacity="0.5"/>
<path d="M14.1772 121.241C14.1772 122.639 13.0438 123.772 11.6456 123.772C10.2474 123.772 9.11392 122.639 9.11392 121.241C9.11392 119.842 10.2474 118.709 11.6456 118.709C13.0438 118.709 14.1772 119.842 14.1772 121.241Z" fill="white" fill-opacity="0.5"/>
<path d="M14.1772 130.355C14.1772 131.753 13.0438 132.886 11.6456 132.886C10.2474 132.886 9.11392 131.753 9.11392 130.355C9.11392 128.956 10.2474 127.823 11.6456 127.823C13.0438 127.823 14.1772 128.956 14.1772 130.355Z" fill="white" fill-opacity="0.5"/>
<path d="M14.1772 139.469C14.1772 140.867 13.0438 142 11.6456 142C10.2474 142 9.11392 140.867 9.11392 139.469C9.11392 138.07 10.2474 136.937 11.6456 136.937C13.0438 136.937 14.1772 138.07 14.1772 139.469Z" fill="white" fill-opacity="0.5"/>
<path d="M23.2911 57.4432C23.2911 58.8414 22.1577 59.9749 20.7595 59.9749C19.3613 59.9749 18.2278 58.8414 18.2278 57.4432C18.2278 56.045 19.3613 54.9116 20.7595 54.9116C22.1577 54.9116 23.2911 56.045 23.2911 57.4432Z" fill="white" fill-opacity="0.5"/>
<path d="M23.2911 66.5571C23.2911 67.9553 22.1577 69.0888 20.7595 69.0888C19.3613 69.0888 18.2278 67.9553 18.2278 66.5571C18.2278 65.159 19.3613 64.0255 20.7595 64.0255C22.1577 64.0255 23.2911 65.159 23.2911 66.5571Z" fill="white" fill-opacity="0.5"/>
<path d="M23.2911 75.6711C23.2911 77.0693 22.1577 78.2027 20.7595 78.2027C19.3613 78.2027 18.2278 77.0693 18.2278 75.6711C18.2278 74.2729 19.3613 73.1394 20.7595 73.1394C22.1577 73.1394 23.2911 74.2729 23.2911 75.6711Z" fill="white" fill-opacity="0.5"/>
<path d="M23.2911 84.785C23.2911 86.1832 22.1577 87.3166 20.7595 87.3166C19.3613 87.3166 18.2278 86.1832 18.2278 84.785C18.2278 83.3868 19.3613 82.2533 20.7595 82.2533C22.1577 82.2533 23.2911 83.3868 23.2911 84.785Z" fill="white" fill-opacity="0.5"/>
<path d="M23.2911 93.8989C23.2911 95.2971 22.1577 96.4306 20.7595 96.4306C19.3613 96.4306 18.2278 95.2971 18.2278 93.8989C18.2278 92.5007 19.3613 91.3673 20.7595 91.3673C22.1577 91.3673 23.2911 92.5007 23.2911 93.8989Z" fill="white" fill-opacity="0.5"/>
<path d="M23.2911 103.013C23.2911 104.411 22.1577 105.544 20.7595 105.544C19.3613 105.544 18.2278 104.411 18.2278 103.013C18.2278 101.615 19.3613 100.481 20.7595 100.481C22.1577 100.481 23.2911 101.615 23.2911 103.013Z" fill="white" fill-opacity="0.5"/>
<path d="M23.2911 112.127C23.2911 113.525 22.1577 114.658 20.7595 114.658C19.3613 114.658 18.2278 113.525 18.2278 112.127C18.2278 110.729 19.3613 109.595 20.7595 109.595C22.1577 109.595 23.2911 110.729 23.2911 112.127Z" fill="white" fill-opacity="0.5"/>
<path d="M23.2911 121.241C23.2911 122.639 22.1577 123.772 20.7595 123.772C19.3613 123.772 18.2278 122.639 18.2278 121.241C18.2278 119.842 19.3613 118.709 20.7595 118.709C22.1577 118.709 23.2911 119.842 23.2911 121.241Z" fill="white" fill-opacity="0.5"/>
<path d="M23.2911 130.355C23.2911 131.753 22.1577 132.886 20.7595 132.886C19.3613 132.886 18.2278 131.753 18.2278 130.355C18.2278 128.956 19.3613 127.823 20.7595 127.823C22.1577 127.823 23.2911 128.956 23.2911 130.355Z" fill="white" fill-opacity="0.5"/>
<path d="M23.2911 139.469C23.2911 140.867 22.1577 142 20.7595 142C19.3613 142 18.2278 140.867 18.2278 139.469C18.2278 138.07 19.3613 136.937 20.7595 136.937C22.1577 136.937 23.2911 138.07 23.2911 139.469Z" fill="white" fill-opacity="0.5"/>
<path d="M32.4051 84.785C32.4051 86.1832 31.2716 87.3166 29.8734 87.3166C28.4752 87.3166 27.3418 86.1832 27.3418 84.785C27.3418 83.3868 28.4752 82.2533 29.8734 82.2533C31.2716 82.2533 32.4051 83.3868 32.4051 84.785Z" fill="white" fill-opacity="0.5"/>
<path d="M32.4051 93.8989C32.4051 95.2971 31.2716 96.4306 29.8734 96.4306C28.4752 96.4306 27.3418 95.2971 27.3418 93.8989C27.3418 92.5007 28.4752 91.3673 29.8734 91.3673C31.2716 91.3673 32.4051 92.5007 32.4051 93.8989Z" fill="white" fill-opacity="0.5"/>
<path d="M32.4051 103.013C32.4051 104.411 31.2716 105.544 29.8734 105.544C28.4752 105.544 27.3418 104.411 27.3418 103.013C27.3418 101.615 28.4752 100.481 29.8734 100.481C31.2716 100.481 32.4051 101.615 32.4051 103.013Z" fill="white" fill-opacity="0.5"/>
<path d="M32.4051 112.127C32.4051 113.525 31.2716 114.658 29.8734 114.658C28.4752 114.658 27.3418 113.525 27.3418 112.127C27.3418 110.729 28.4752 109.595 29.8734 109.595C31.2716 109.595 32.4051 110.729 32.4051 112.127Z" fill="white" fill-opacity="0.5"/>
<path d="M32.4051 121.241C32.4051 122.639 31.2716 123.772 29.8734 123.772C28.4752 123.772 27.3418 122.639 27.3418 121.241C27.3418 119.842 28.4752 118.709 29.8734 118.709C31.2716 118.709 32.4051 119.842 32.4051 121.241Z" fill="white" fill-opacity="0.5"/>
<path d="M32.4051 130.355C32.4051 131.753 31.2716 132.886 29.8734 132.886C28.4752 132.886 27.3418 131.753 27.3418 130.355C27.3418 128.956 28.4752 127.823 29.8734 127.823C31.2716 127.823 32.4051 128.956 32.4051 130.355Z" fill="white" fill-opacity="0.5"/>
<path d="M32.4051 139.469C32.4051 140.867 31.2716 142 29.8734 142C28.4752 142 27.3418 140.867 27.3418 139.469C27.3418 138.07 28.4752 136.937 29.8734 136.937C31.2716 136.937 32.4051 138.07 32.4051 139.469Z" fill="white" fill-opacity="0.5"/>
<path d="M41.519 75.6711C41.519 77.0693 40.3855 78.2027 38.9873 78.2027C37.5892 78.2027 36.4557 77.0693 36.4557 75.6711C36.4557 74.2729 37.5892 73.1394 38.9873 73.1394C40.3855 73.1394 41.519 74.2729 41.519 75.6711Z" fill="white" fill-opacity="0.5"/>
<path d="M41.519 84.785C41.519 86.1832 40.3855 87.3166 38.9873 87.3166C37.5892 87.3166 36.4557 86.1832 36.4557 84.785C36.4557 83.3868 37.5892 82.2533 38.9873 82.2533C40.3855 82.2533 41.519 83.3868 41.519 84.785Z" fill="white" fill-opacity="0.5"/>
<path d="M41.519 93.8989C41.519 95.2971 40.3855 96.4306 38.9873 96.4306C37.5892 96.4306 36.4557 95.2971 36.4557 93.8989C36.4557 92.5007 37.5892 91.3673 38.9873 91.3673C40.3855 91.3673 41.519 92.5007 41.519 93.8989Z" fill="white" fill-opacity="0.5"/>
<path d="M41.519 103.013C41.519 104.411 40.3855 105.544 38.9873 105.544C37.5892 105.544 36.4557 104.411 36.4557 103.013C36.4557 101.615 37.5892 100.481 38.9873 100.481C40.3855 100.481 41.519 101.615 41.519 103.013Z" fill="white" fill-opacity="0.5"/>
<path d="M41.519 112.127C41.519 113.525 40.3855 114.658 38.9873 114.658C37.5892 114.658 36.4557 113.525 36.4557 112.127C36.4557 110.729 37.5892 109.595 38.9873 109.595C40.3855 109.595 41.519 110.729 41.519 112.127Z" fill="white" fill-opacity="0.5"/>
<path d="M41.519 121.241C41.519 122.639 40.3855 123.772 38.9873 123.772C37.5892 123.772 36.4557 122.639 36.4557 121.241C36.4557 119.842 37.5892 118.709 38.9873 118.709C40.3855 118.709 41.519 119.842 41.519 121.241Z" fill="white" fill-opacity="0.5"/>
<path d="M41.519 130.355C41.519 131.753 40.3855 132.886 38.9873 132.886C37.5892 132.886 36.4557 131.753 36.4557 130.355C36.4557 128.956 37.5892 127.823 38.9873 127.823C40.3855 127.823 41.519 128.956 41.519 130.355Z" fill="white" fill-opacity="0.5"/>
<path d="M41.519 139.469C41.519 140.867 40.3855 142 38.9873 142C37.5892 142 36.4557 140.867 36.4557 139.469C36.4557 138.07 37.5892 136.937 38.9873 136.937C40.3855 136.937 41.519 138.07 41.519 139.469Z" fill="white" fill-opacity="0.5"/>
<path d="M50.6329 57.4432C50.6329 58.8414 49.4995 59.9749 48.1013 59.9749C46.7031 59.9749 45.5696 58.8414 45.5696 57.4432C45.5696 56.045 46.7031 54.9116 48.1013 54.9116C49.4995 54.9116 50.6329 56.045 50.6329 57.4432Z" fill="white" fill-opacity="0.5"/>
<path d="M50.6329 66.5571C50.6329 67.9553 49.4995 69.0888 48.1013 69.0888C46.7031 69.0888 45.5696 67.9553 45.5696 66.5571C45.5696 65.159 46.7031 64.0255 48.1013 64.0255C49.4995 64.0255 50.6329 65.159 50.6329 66.5571Z" fill="white" fill-opacity="0.5"/>
<path d="M50.6329 75.6711C50.6329 77.0693 49.4995 78.2027 48.1013 78.2027C46.7031 78.2027 45.5696 77.0693 45.5696 75.6711C45.5696 74.2729 46.7031 73.1394 48.1013 73.1394C49.4995 73.1394 50.6329 74.2729 50.6329 75.6711Z" fill="white" fill-opacity="0.5"/>
<path d="M50.6329 84.785C50.6329 86.1832 49.4995 87.3166 48.1013 87.3166C46.7031 87.3166 45.5696 86.1832 45.5696 84.785C45.5696 83.3868 46.7031 82.2533 48.1013 82.2533C49.4995 82.2533 50.6329 83.3868 50.6329 84.785Z" fill="white" fill-opacity="0.5"/>
<path d="M50.6329 93.8989C50.6329 95.2971 49.4995 96.4306 48.1013 96.4306C46.7031 96.4306 45.5696 95.2971 45.5696 93.8989C45.5696 92.5007 46.7031 91.3673 48.1013 91.3673C49.4995 91.3673 50.6329 92.5007 50.6329 93.8989Z" fill="white" fill-opacity="0.5"/>
<path d="M50.6329 103.013C50.6329 104.411 49.4995 105.544 48.1013 105.544C46.7031 105.544 45.5696 104.411 45.5696 103.013C45.5696 101.615 46.7031 100.481 48.1013 100.481C49.4995 100.481 50.6329 101.615 50.6329 103.013Z" fill="white" fill-opacity="0.5"/>
<path d="M50.6329 112.127C50.6329 113.525 49.4995 114.658 48.1013 114.658C46.7031 114.658 45.5696 113.525 45.5696 112.127C45.5696 110.729 46.7031 109.595 48.1013 109.595C49.4995 109.595 50.6329 110.729 50.6329 112.127Z" fill="white" fill-opacity="0.5"/>
<path d="M50.6329 121.241C50.6329 122.639 49.4995 123.772 48.1013 123.772C46.7031 123.772 45.5696 122.639 45.5696 121.241C45.5696 119.842 46.7031 118.709 48.1013 118.709C49.4995 118.709 50.6329 119.842 50.6329 121.241Z" fill="white" fill-opacity="0.5"/>
<path d="M50.6329 130.355C50.6329 131.753 49.4995 132.886 48.1013 132.886C46.7031 132.886 45.5696 131.753 45.5696 130.355C45.5696 128.956 46.7031 127.823 48.1013 127.823C49.4995 127.823 50.6329 128.956 50.6329 130.355Z" fill="white" fill-opacity="0.5"/>
<path d="M50.6329 139.469C50.6329 140.867 49.4995 142 48.1013 142C46.7031 142 45.5696 140.867 45.5696 139.469C45.5696 138.07 46.7031 136.937 48.1013 136.937C49.4995 136.937 50.6329 138.07 50.6329 139.469Z" fill="white" fill-opacity="0.5"/>
<path d="M59.7468 48.3293C59.7468 49.7275 58.6134 50.8609 57.2152 50.8609C55.817 50.8609 54.6835 49.7275 54.6835 48.3293C54.6835 46.9311 55.817 45.7976 57.2152 45.7976C58.6134 45.7976 59.7468 46.9311 59.7468 48.3293Z" fill="white" fill-opacity="0.5"/>
<path d="M59.7468 57.4432C59.7468 58.8414 58.6134 59.9749 57.2152 59.9749C55.817 59.9749 54.6835 58.8414 54.6835 57.4432C54.6835 56.045 55.817 54.9116 57.2152 54.9116C58.6134 54.9116 59.7468 56.045 59.7468 57.4432Z" fill="white" fill-opacity="0.5"/>
<path d="M59.7468 66.5571C59.7468 67.9553 58.6134 69.0888 57.2152 69.0888C55.817 69.0888 54.6835 67.9553 54.6835 66.5571C54.6835 65.159 55.817 64.0255 57.2152 64.0255C58.6134 64.0255 59.7468 65.159 59.7468 66.5571Z" fill="white" fill-opacity="0.5"/>
<path d="M59.7468 75.6711C59.7468 77.0693 58.6134 78.2027 57.2152 78.2027C55.817 78.2027 54.6835 77.0693 54.6835 75.6711C54.6835 74.2729 55.817 73.1394 57.2152 73.1394C58.6134 73.1394 59.7468 74.2729 59.7468 75.6711Z" fill="white" fill-opacity="0.5"/>
<path d="M59.7468 84.785C59.7468 86.1832 58.6134 87.3166 57.2152 87.3166C55.817 87.3166 54.6835 86.1832 54.6835 84.785C54.6835 83.3868 55.817 82.2533 57.2152 82.2533C58.6134 82.2533 59.7468 83.3868 59.7468 84.785Z" fill="white" fill-opacity="0.5"/>
<path d="M59.7468 93.8989C59.7468 95.2971 58.6134 96.4306 57.2152 96.4306C55.817 96.4306 54.6835 95.2971 54.6835 93.8989C54.6835 92.5007 55.817 91.3673 57.2152 91.3673C58.6134 91.3673 59.7468 92.5007 59.7468 93.8989Z" fill="white" fill-opacity="0.5"/>
<path d="M59.7468 103.013C59.7468 104.411 58.6134 105.544 57.2152 105.544C55.817 105.544 54.6835 104.411 54.6835 103.013C54.6835 101.615 55.817 100.481 57.2152 100.481C58.6134 100.481 59.7468 101.615 59.7468 103.013Z" fill="white" fill-opacity="0.5"/>
<path d="M59.7468 112.127C59.7468 113.525 58.6134 114.658 57.2152 114.658C55.817 114.658 54.6835 113.525 54.6835 112.127C54.6835 110.729 55.817 109.595 57.2152 109.595C58.6134 109.595 59.7468 110.729 59.7468 112.127Z" fill="white" fill-opacity="0.5"/>
<path d="M59.7468 121.241C59.7468 122.639 58.6134 123.772 57.2152 123.772C55.817 123.772 54.6835 122.639 54.6835 121.241C54.6835 119.842 55.817 118.709 57.2152 118.709C58.6134 118.709 59.7468 119.842 59.7468 121.241Z" fill="white" fill-opacity="0.5"/>
<path d="M59.7468 130.355C59.7468 131.753 58.6134 132.886 57.2152 132.886C55.817 132.886 54.6835 131.753 54.6835 130.355C54.6835 128.956 55.817 127.823 57.2152 127.823C58.6134 127.823 59.7468 128.956 59.7468 130.355Z" fill="white" fill-opacity="0.5"/>
<path d="M59.7468 139.469C59.7468 140.867 58.6134 142 57.2152 142C55.817 142 54.6835 140.867 54.6835 139.469C54.6835 138.07 55.817 136.937 57.2152 136.937C58.6134 136.937 59.7468 138.07 59.7468 139.469Z" fill="white" fill-opacity="0.5"/>
<path d="M68.8608 57.4432C68.8608 58.8414 67.7273 59.9749 66.3291 59.9749C64.9309 59.9749 63.7975 58.8414 63.7975 57.4432C63.7975 56.045 64.9309 54.9116 66.3291 54.9116C67.7273 54.9116 68.8608 56.045 68.8608 57.4432Z" fill="white" fill-opacity="0.5"/>
<path d="M68.8608 66.5571C68.8608 67.9553 67.7273 69.0888 66.3291 69.0888C64.9309 69.0888 63.7975 67.9553 63.7975 66.5571C63.7975 65.159 64.9309 64.0255 66.3291 64.0255C67.7273 64.0255 68.8608 65.159 68.8608 66.5571Z" fill="white" fill-opacity="0.5"/>
<path d="M68.8608 75.6711C68.8608 77.0693 67.7273 78.2027 66.3291 78.2027C64.9309 78.2027 63.7975 77.0693 63.7975 75.6711C63.7975 74.2729 64.9309 73.1394 66.3291 73.1394C67.7273 73.1394 68.8608 74.2729 68.8608 75.6711Z" fill="white" fill-opacity="0.5"/>
<path d="M68.8608 84.785C68.8608 86.1832 67.7273 87.3166 66.3291 87.3166C64.9309 87.3166 63.7975 86.1832 63.7975 84.785C63.7975 83.3868 64.9309 82.2533 66.3291 82.2533C67.7273 82.2533 68.8608 83.3868 68.8608 84.785Z" fill="white" fill-opacity="0.5"/>
<path d="M68.8608 93.8989C68.8608 95.2971 67.7273 96.4306 66.3291 96.4306C64.9309 96.4306 63.7975 95.2971 63.7975 93.8989C63.7975 92.5007 64.9309 91.3673 66.3291 91.3673C67.7273 91.3673 68.8608 92.5007 68.8608 93.8989Z" fill="white" fill-opacity="0.5"/>
<path d="M68.8608 103.013C68.8608 104.411 67.7273 105.544 66.3291 105.544C64.9309 105.544 63.7975 104.411 63.7975 103.013C63.7975 101.615 64.9309 100.481 66.3291 100.481C67.7273 100.481 68.8608 101.615 68.8608 103.013Z" fill="white" fill-opacity="0.5"/>
<path d="M68.8608 112.127C68.8608 113.525 67.7273 114.658 66.3291 114.658C64.9309 114.658 63.7975 113.525 63.7975 112.127C63.7975 110.729 64.9309 109.595 66.3291 109.595C67.7273 109.595 68.8608 110.729 68.8608 112.127Z" fill="white" fill-opacity="0.5"/>
<path d="M68.8608 121.241C68.8608 122.639 67.7273 123.772 66.3291 123.772C64.9309 123.772 63.7975 122.639 63.7975 121.241C63.7975 119.842 64.9309 118.709 66.3291 118.709C67.7273 118.709 68.8608 119.842 68.8608 121.241Z" fill="white" fill-opacity="0.5"/>
<path d="M68.8608 130.355C68.8608 131.753 67.7273 132.886 66.3291 132.886C64.9309 132.886 63.7975 131.753 63.7975 130.355C63.7975 128.956 64.9309 127.823 66.3291 127.823C67.7273 127.823 68.8608 128.956 68.8608 130.355Z" fill="white" fill-opacity="0.5"/>
<path d="M68.8608 139.469C68.8608 140.867 67.7273 142 66.3291 142C64.9309 142 63.7975 140.867 63.7975 139.469C63.7975 138.07 64.9309 136.937 66.3291 136.937C67.7273 136.937 68.8608 138.07 68.8608 139.469Z" fill="white" fill-opacity="0.5"/>
<path d="M77.9747 48.3293C77.9747 49.7275 76.8412 50.8609 75.443 50.8609C74.0449 50.8609 72.9114 49.7275 72.9114 48.3293C72.9114 46.9311 74.0449 45.7976 75.443 45.7976C76.8412 45.7976 77.9747 46.9311 77.9747 48.3293Z" fill="white" fill-opacity="0.5"/>
<path d="M77.9747 57.4432C77.9747 58.8414 76.8412 59.9749 75.443 59.9749C74.0449 59.9749 72.9114 58.8414 72.9114 57.4432C72.9114 56.045 74.0449 54.9116 75.443 54.9116C76.8412 54.9116 77.9747 56.045 77.9747 57.4432Z" fill="white" fill-opacity="0.5"/>
<path d="M77.9747 66.5571C77.9747 67.9553 76.8412 69.0888 75.443 69.0888C74.0449 69.0888 72.9114 67.9553 72.9114 66.5571C72.9114 65.159 74.0449 64.0255 75.443 64.0255C76.8412 64.0255 77.9747 65.159 77.9747 66.5571Z" fill="white" fill-opacity="0.5"/>
<path d="M77.9747 75.6711C77.9747 77.0693 76.8412 78.2027 75.443 78.2027C74.0449 78.2027 72.9114 77.0693 72.9114 75.6711C72.9114 74.2729 74.0449 73.1394 75.443 73.1394C76.8412 73.1394 77.9747 74.2729 77.9747 75.6711Z" fill="white" fill-opacity="0.5"/>
<path d="M77.9747 84.785C77.9747 86.1832 76.8412 87.3166 75.443 87.3166C74.0449 87.3166 72.9114 86.1832 72.9114 84.785C72.9114 83.3868 74.0449 82.2533 75.443 82.2533C76.8412 82.2533 77.9747 83.3868 77.9747 84.785Z" fill="white" fill-opacity="0.5"/>
<path d="M77.9747 93.8989C77.9747 95.2971 76.8412 96.4306 75.443 96.4306C74.0449 96.4306 72.9114 95.2971 72.9114 93.8989C72.9114 92.5007 74.0449 91.3673 75.443 91.3673C76.8412 91.3673 77.9747 92.5007 77.9747 93.8989Z" fill="white" fill-opacity="0.5"/>
<path d="M77.9747 103.013C77.9747 104.411 76.8412 105.544 75.443 105.544C74.0449 105.544 72.9114 104.411 72.9114 103.013C72.9114 101.615 74.0449 100.481 75.443 100.481C76.8412 100.481 77.9747 101.615 77.9747 103.013Z" fill="white" fill-opacity="0.5"/>
<path d="M77.9747 112.127C77.9747 113.525 76.8412 114.658 75.443 114.658C74.0449 114.658 72.9114 113.525 72.9114 112.127C72.9114 110.729 74.0449 109.595 75.443 109.595C76.8412 109.595 77.9747 110.729 77.9747 112.127Z" fill="white" fill-opacity="0.5"/>
<path d="M77.9747 121.241C77.9747 122.639 76.8412 123.772 75.443 123.772C74.0449 123.772 72.9114 122.639 72.9114 121.241C72.9114 119.842 74.0449 118.709 75.443 118.709C76.8412 118.709 77.9747 119.842 77.9747 121.241Z" fill="white" fill-opacity="0.5"/>
<path d="M77.9747 130.355C77.9747 131.753 76.8412 132.886 75.443 132.886C74.0449 132.886 72.9114 131.753 72.9114 130.355C72.9114 128.956 74.0449 127.823 75.443 127.823C76.8412 127.823 77.9747 128.956 77.9747 130.355Z" fill="white" fill-opacity="0.5"/>
<path d="M77.9747 139.469C77.9747 140.867 76.8412 142 75.443 142C74.0449 142 72.9114 140.867 72.9114 139.469C72.9114 138.07 74.0449 136.937 75.443 136.937C76.8412 136.937 77.9747 138.07 77.9747 139.469Z" fill="white" fill-opacity="0.5"/>
<path d="M87.0886 66.5571C87.0886 67.9553 85.9552 69.0888 84.557 69.0888C83.1588 69.0888 82.0253 67.9553 82.0253 66.5571C82.0253 65.159 83.1588 64.0255 84.557 64.0255C85.9552 64.0255 87.0886 65.159 87.0886 66.5571Z" fill="white" fill-opacity="0.5"/>
<path d="M87.0886 75.6711C87.0886 77.0693 85.9552 78.2027 84.557 78.2027C83.1588 78.2027 82.0253 77.0693 82.0253 75.6711C82.0253 74.2729 83.1588 73.1394 84.557 73.1394C85.9552 73.1394 87.0886 74.2729 87.0886 75.6711Z" fill="white" fill-opacity="0.5"/>
<path d="M87.0886 84.785C87.0886 86.1832 85.9552 87.3166 84.557 87.3166C83.1588 87.3166 82.0253 86.1832 82.0253 84.785C82.0253 83.3868 83.1588 82.2533 84.557 82.2533C85.9552 82.2533 87.0886 83.3868 87.0886 84.785Z" fill="white" fill-opacity="0.5"/>
<path d="M87.0886 93.8989C87.0886 95.2971 85.9552 96.4306 84.557 96.4306C83.1588 96.4306 82.0253 95.2971 82.0253 93.8989C82.0253 92.5007 83.1588 91.3673 84.557 91.3673C85.9552 91.3673 87.0886 92.5007 87.0886 93.8989Z" fill="white" fill-opacity="0.5"/>
<path d="M87.0886 103.013C87.0886 104.411 85.9552 105.544 84.557 105.544C83.1588 105.544 82.0253 104.411 82.0253 103.013C82.0253 101.615 83.1588 100.481 84.557 100.481C85.9552 100.481 87.0886 101.615 87.0886 103.013Z" fill="white" fill-opacity="0.5"/>
<path d="M87.0886 112.127C87.0886 113.525 85.9552 114.658 84.557 114.658C83.1588 114.658 82.0253 113.525 82.0253 112.127C82.0253 110.729 83.1588 109.595 84.557 109.595C85.9552 109.595 87.0886 110.729 87.0886 112.127Z" fill="white" fill-opacity="0.5"/>
<path d="M87.0886 121.241C87.0886 122.639 85.9552 123.772 84.557 123.772C83.1588 123.772 82.0253 122.639 82.0253 121.241C82.0253 119.842 83.1588 118.709 84.557 118.709C85.9552 118.709 87.0886 119.842 87.0886 121.241Z" fill="white" fill-opacity="0.5"/>
<path d="M87.0886 130.355C87.0886 131.753 85.9552 132.886 84.557 132.886C83.1588 132.886 82.0253 131.753 82.0253 130.355C82.0253 128.956 83.1588 127.823 84.557 127.823C85.9552 127.823 87.0886 128.956 87.0886 130.355Z" fill="white" fill-opacity="0.5"/>
<path d="M87.0886 139.469C87.0886 140.867 85.9552 142 84.557 142C83.1588 142 82.0253 140.867 82.0253 139.469C82.0253 138.07 83.1588 136.937 84.557 136.937C85.9552 136.937 87.0886 138.07 87.0886 139.469Z" fill="white" fill-opacity="0.5"/>
<path d="M96.2025 57.4432C96.2025 58.8414 95.0691 59.9749 93.6709 59.9749C92.2727 59.9749 91.1392 58.8414 91.1392 57.4432C91.1392 56.045 92.2727 54.9116 93.6709 54.9116C95.0691 54.9116 96.2025 56.045 96.2025 57.4432Z" fill="white" fill-opacity="0.5"/>
<path d="M96.2025 66.5571C96.2025 67.9553 95.0691 69.0888 93.6709 69.0888C92.2727 69.0888 91.1392 67.9553 91.1392 66.5571C91.1392 65.159 92.2727 64.0255 93.6709 64.0255C95.0691 64.0255 96.2025 65.159 96.2025 66.5571Z" fill="white" fill-opacity="0.5"/>
<path d="M96.2025 75.6711C96.2025 77.0693 95.0691 78.2027 93.6709 78.2027C92.2727 78.2027 91.1392 77.0693 91.1392 75.6711C91.1392 74.2729 92.2727 73.1394 93.6709 73.1394C95.0691 73.1394 96.2025 74.2729 96.2025 75.6711Z" fill="white" fill-opacity="0.5"/>
<path d="M96.2025 84.785C96.2025 86.1832 95.0691 87.3166 93.6709 87.3166C92.2727 87.3166 91.1392 86.1832 91.1392 84.785C91.1392 83.3868 92.2727 82.2533 93.6709 82.2533C95.0691 82.2533 96.2025 83.3868 96.2025 84.785Z" fill="white" fill-opacity="0.5"/>
<path d="M96.2025 93.8989C96.2025 95.2971 95.0691 96.4306 93.6709 96.4306C92.2727 96.4306 91.1392 95.2971 91.1392 93.8989C91.1392 92.5007 92.2727 91.3673 93.6709 91.3673C95.0691 91.3673 96.2025 92.5007 96.2025 93.8989Z" fill="white" fill-opacity="0.5"/>
<path d="M96.2025 103.013C96.2025 104.411 95.0691 105.544 93.6709 105.544C92.2727 105.544 91.1392 104.411 91.1392 103.013C91.1392 101.615 92.2727 100.481 93.6709 100.481C95.0691 100.481 96.2025 101.615 96.2025 103.013Z" fill="white" fill-opacity="0.5"/>
<path d="M96.2025 112.127C96.2025 113.525 95.0691 114.658 93.6709 114.658C92.2727 114.658 91.1392 113.525 91.1392 112.127C91.1392 110.729 92.2727 109.595 93.6709 109.595C95.0691 109.595 96.2025 110.729 96.2025 112.127Z" fill="white" fill-opacity="0.5"/>
<path d="M96.2025 121.241C96.2025 122.639 95.0691 123.772 93.6709 123.772C92.2727 123.772 91.1392 122.639 91.1392 121.241C91.1392 119.842 92.2727 118.709 93.6709 118.709C95.0691 118.709 96.2025 119.842 96.2025 121.241Z" fill="white" fill-opacity="0.5"/>
<path d="M96.2025 130.355C96.2025 131.753 95.0691 132.886 93.6709 132.886C92.2727 132.886 91.1392 131.753 91.1392 130.355C91.1392 128.956 92.2727 127.823 93.6709 127.823C95.0691 127.823 96.2025 128.956 96.2025 130.355Z" fill="white" fill-opacity="0.5"/>
<path d="M96.2025 139.469C96.2025 140.867 95.0691 142 93.6709 142C92.2727 142 91.1392 140.867 91.1392 139.469C91.1392 138.07 92.2727 136.937 93.6709 136.937C95.0691 136.937 96.2025 138.07 96.2025 139.469Z" fill="white" fill-opacity="0.5"/>
<path d="M105.316 48.3293C105.316 49.7275 104.183 50.8609 102.785 50.8609C101.387 50.8609 100.253 49.7275 100.253 48.3293C100.253 46.9311 101.387 45.7976 102.785 45.7976C104.183 45.7976 105.316 46.9311 105.316 48.3293Z" fill="white" fill-opacity="0.5"/>
<path d="M105.316 57.4432C105.316 58.8414 104.183 59.9749 102.785 59.9749C101.387 59.9749 100.253 58.8414 100.253 57.4432C100.253 56.045 101.387 54.9116 102.785 54.9116C104.183 54.9116 105.316 56.045 105.316 57.4432Z" fill="white" fill-opacity="0.5"/>
<path d="M105.316 66.5571C105.316 67.9553 104.183 69.0888 102.785 69.0888C101.387 69.0888 100.253 67.9553 100.253 66.5571C100.253 65.159 101.387 64.0255 102.785 64.0255C104.183 64.0255 105.316 65.159 105.316 66.5571Z" fill="white" fill-opacity="0.5"/>
<path d="M105.316 75.6711C105.316 77.0693 104.183 78.2027 102.785 78.2027C101.387 78.2027 100.253 77.0693 100.253 75.6711C100.253 74.2729 101.387 73.1394 102.785 73.1394C104.183 73.1394 105.316 74.2729 105.316 75.6711Z" fill="white" fill-opacity="0.5"/>
<path d="M105.316 84.785C105.316 86.1832 104.183 87.3166 102.785 87.3166C101.387 87.3166 100.253 86.1832 100.253 84.785C100.253 83.3868 101.387 82.2533 102.785 82.2533C104.183 82.2533 105.316 83.3868 105.316 84.785Z" fill="white" fill-opacity="0.5"/>
<path d="M105.316 93.8989C105.316 95.2971 104.183 96.4306 102.785 96.4306C101.387 96.4306 100.253 95.2971 100.253 93.8989C100.253 92.5007 101.387 91.3673 102.785 91.3673C104.183 91.3673 105.316 92.5007 105.316 93.8989Z" fill="white" fill-opacity="0.5"/>
<path d="M105.316 103.013C105.316 104.411 104.183 105.544 102.785 105.544C101.387 105.544 100.253 104.411 100.253 103.013C100.253 101.615 101.387 100.481 102.785 100.481C104.183 100.481 105.316 101.615 105.316 103.013Z" fill="white" fill-opacity="0.5"/>
<path d="M105.316 112.127C105.316 113.525 104.183 114.658 102.785 114.658C101.387 114.658 100.253 113.525 100.253 112.127C100.253 110.729 101.387 109.595 102.785 109.595C104.183 109.595 105.316 110.729 105.316 112.127Z" fill="white" fill-opacity="0.5"/>
<path d="M105.316 121.241C105.316 122.639 104.183 123.772 102.785 123.772C101.387 123.772 100.253 122.639 100.253 121.241C100.253 119.842 101.387 118.709 102.785 118.709C104.183 118.709 105.316 119.842 105.316 121.241Z" fill="white" fill-opacity="0.5"/>
<path d="M105.316 130.355C105.316 131.753 104.183 132.886 102.785 132.886C101.387 132.886 100.253 131.753 100.253 130.355C100.253 128.956 101.387 127.823 102.785 127.823C104.183 127.823 105.316 128.956 105.316 130.355Z" fill="white" fill-opacity="0.5"/>
<path d="M105.316 139.469C105.316 140.867 104.183 142 102.785 142C101.387 142 100.253 140.867 100.253 139.469C100.253 138.07 101.387 136.937 102.785 136.937C104.183 136.937 105.316 138.07 105.316 139.469Z" fill="white" fill-opacity="0.5"/>
<path d="M114.43 2.75967C114.43 4.15786 113.297 5.29132 111.899 5.29132C110.501 5.29132 109.367 4.15786 109.367 2.75967C109.367 1.36148 110.501 0.228027 111.899 0.228027C113.297 0.228027 114.43 1.36148 114.43 2.75967Z" fill="#F84204"/>
<path d="M114.43 11.8736C114.43 13.2718 113.297 14.4052 111.899 14.4052C110.501 14.4052 109.367 13.2718 109.367 11.8736C109.367 10.4754 110.501 9.34195 111.899 9.34195C113.297 9.34195 114.43 10.4754 114.43 11.8736Z" fill="#F84204"/>
<path d="M114.43 20.9875C114.43 22.3857 113.297 23.5192 111.899 23.5192C110.501 23.5192 109.367 22.3857 109.367 20.9875C109.367 19.5893 110.501 18.4559 111.899 18.4559C113.297 18.4559 114.43 19.5893 114.43 20.9875Z" fill="#F84204"/>
<path d="M114.43 30.1014C114.43 31.4996 113.297 32.6331 111.899 32.6331C110.501 32.6331 109.367 31.4996 109.367 30.1014C109.367 28.7033 110.501 27.5698 111.899 27.5698C113.297 27.5698 114.43 28.7033 114.43 30.1014Z" fill="#F84204"/>
<path d="M114.43 39.2154C114.43 40.6136 113.297 41.747 111.899 41.747C110.501 41.747 109.367 40.6136 109.367 39.2154C109.367 37.8172 110.501 36.6837 111.899 36.6837C113.297 36.6837 114.43 37.8172 114.43 39.2154Z" fill="#F84204"/>
<path d="M114.43 48.3293C114.43 49.7275 113.297 50.8609 111.899 50.8609C110.501 50.8609 109.367 49.7275 109.367 48.3293C109.367 46.9311 110.501 45.7976 111.899 45.7976C113.297 45.7976 114.43 46.9311 114.43 48.3293Z" fill="#F84204"/>
<path d="M114.43 57.4432C114.43 58.8414 113.297 59.9749 111.899 59.9749C110.501 59.9749 109.367 58.8414 109.367 57.4432C109.367 56.045 110.501 54.9116 111.899 54.9116C113.297 54.9116 114.43 56.045 114.43 57.4432Z" fill="#F84204"/>
<path d="M114.43 66.5571C114.43 67.9553 113.297 69.0888 111.899 69.0888C110.501 69.0888 109.367 67.9553 109.367 66.5571C109.367 65.159 110.501 64.0255 111.899 64.0255C113.297 64.0255 114.43 65.159 114.43 66.5571Z" fill="#F84204"/>
<path d="M114.43 75.6711C114.43 77.0693 113.297 78.2027 111.899 78.2027C110.501 78.2027 109.367 77.0693 109.367 75.6711C109.367 74.2729 110.501 73.1394 111.899 73.1394C113.297 73.1394 114.43 74.2729 114.43 75.6711Z" fill="#F84204"/>
<path d="M114.43 84.785C114.43 86.1832 113.297 87.3166 111.899 87.3166C110.501 87.3166 109.367 86.1832 109.367 84.785C109.367 83.3868 110.501 82.2533 111.899 82.2533C113.297 82.2533 114.43 83.3868 114.43 84.785Z" fill="#F84204"/>
<path d="M114.43 93.8989C114.43 95.2971 113.297 96.4306 111.899 96.4306C110.501 96.4306 109.367 95.2971 109.367 93.8989C109.367 92.5007 110.501 91.3673 111.899 91.3673C113.297 91.3673 114.43 92.5007 114.43 93.8989Z" fill="#F84204"/>
<path d="M114.43 103.013C114.43 104.411 113.297 105.544 111.899 105.544C110.501 105.544 109.367 104.411 109.367 103.013C109.367 101.615 110.501 100.481 111.899 100.481C113.297 100.481 114.43 101.615 114.43 103.013Z" fill="#F84204"/>
<path d="M114.43 112.127C114.43 113.525 113.297 114.658 111.899 114.658C110.501 114.658 109.367 113.525 109.367 112.127C109.367 110.729 110.501 109.595 111.899 109.595C113.297 109.595 114.43 110.729 114.43 112.127Z" fill="#F84204"/>
<path d="M114.43 121.241C114.43 122.639 113.297 123.772 111.899 123.772C110.501 123.772 109.367 122.639 109.367 121.241C109.367 119.842 110.501 118.709 111.899 118.709C113.297 118.709 114.43 119.842 114.43 121.241Z" fill="#F84204"/>
<path d="M114.43 130.355C114.43 131.753 113.297 132.886 111.899 132.886C110.501 132.886 109.367 131.753 109.367 130.355C109.367 128.956 110.501 127.823 111.899 127.823C113.297 127.823 114.43 128.956 114.43 130.355Z" fill="#F84204"/>
<path d="M114.43 139.469C114.43 140.867 113.297 142 111.899 142C110.501 142 109.367 140.867 109.367 139.469C109.367 138.07 110.501 136.937 111.899 136.937C113.297 136.937 114.43 138.07 114.43 139.469Z" fill="#F84204"/>
<path d="M123.544 11.8736C123.544 13.2718 122.411 14.4052 121.013 14.4052C119.614 14.4052 118.481 13.2718 118.481 11.8736C118.481 10.4754 119.614 9.34195 121.013 9.34195C122.411 9.34195 123.544 10.4754 123.544 11.8736Z" fill="#F84204"/>
<path d="M123.544 20.9875C123.544 22.3857 122.411 23.5192 121.013 23.5192C119.614 23.5192 118.481 22.3857 118.481 20.9875C118.481 19.5893 119.614 18.4559 121.013 18.4559C122.411 18.4559 123.544 19.5893 123.544 20.9875Z" fill="#F84204"/>
<path d="M123.544 30.1014C123.544 31.4996 122.411 32.6331 121.013 32.6331C119.614 32.6331 118.481 31.4996 118.481 30.1014C118.481 28.7033 119.614 27.5698 121.013 27.5698C122.411 27.5698 123.544 28.7033 123.544 30.1014Z" fill="#F84204"/>
<path d="M123.544 39.2154C123.544 40.6136 122.411 41.747 121.013 41.747C119.614 41.747 118.481 40.6136 118.481 39.2154C118.481 37.8172 119.614 36.6837 121.013 36.6837C122.411 36.6837 123.544 37.8172 123.544 39.2154Z" fill="#F84204"/>
<path d="M123.544 48.3293C123.544 49.7275 122.411 50.8609 121.013 50.8609C119.614 50.8609 118.481 49.7275 118.481 48.3293C118.481 46.9311 119.614 45.7976 121.013 45.7976C122.411 45.7976 123.544 46.9311 123.544 48.3293Z" fill="#F84204"/>
<path d="M123.544 57.4432C123.544 58.8414 122.411 59.9749 121.013 59.9749C119.614 59.9749 118.481 58.8414 118.481 57.4432C118.481 56.045 119.614 54.9116 121.013 54.9116C122.411 54.9116 123.544 56.045 123.544 57.4432Z" fill="#F84204"/>
<path d="M123.544 66.5571C123.544 67.9553 122.411 69.0888 121.013 69.0888C119.614 69.0888 118.481 67.9553 118.481 66.5571C118.481 65.159 119.614 64.0255 121.013 64.0255C122.411 64.0255 123.544 65.159 123.544 66.5571Z" fill="#F84204"/>
<path d="M123.544 75.6711C123.544 77.0693 122.411 78.2027 121.013 78.2027C119.614 78.2027 118.481 77.0693 118.481 75.6711C118.481 74.2729 119.614 73.1394 121.013 73.1394C122.411 73.1394 123.544 74.2729 123.544 75.6711Z" fill="#F84204"/>
<path d="M123.544 84.785C123.544 86.1832 122.411 87.3166 121.013 87.3166C119.614 87.3166 118.481 86.1832 118.481 84.785C118.481 83.3868 119.614 82.2533 121.013 82.2533C122.411 82.2533 123.544 83.3868 123.544 84.785Z" fill="#F84204"/>
<path d="M123.544 93.8989C123.544 95.2971 122.411 96.4306 121.013 96.4306C119.614 96.4306 118.481 95.2971 118.481 93.8989C118.481 92.5007 119.614 91.3673 121.013 91.3673C122.411 91.3673 123.544 92.5007 123.544 93.8989Z" fill="#F84204"/>
<path d="M123.544 103.013C123.544 104.411 122.411 105.544 121.013 105.544C119.614 105.544 118.481 104.411 118.481 103.013C118.481 101.615 119.614 100.481 121.013 100.481C122.411 100.481 123.544 101.615 123.544 103.013Z" fill="#F84204"/>
<path d="M123.544 112.127C123.544 113.525 122.411 114.658 121.013 114.658C119.614 114.658 118.481 113.525 118.481 112.127C118.481 110.729 119.614 109.595 121.013 109.595C122.411 109.595 123.544 110.729 123.544 112.127Z" fill="#F84204"/>
<path d="M123.544 121.241C123.544 122.639 122.411 123.772 121.013 123.772C119.614 123.772 118.481 122.639 118.481 121.241C118.481 119.842 119.614 118.709 121.013 118.709C122.411 118.709 123.544 119.842 123.544 121.241Z" fill="#F84204"/>
<path d="M123.544 130.355C123.544 131.753 122.411 132.886 121.013 132.886C119.614 132.886 118.481 131.753 118.481 130.355C118.481 128.956 119.614 127.823 121.013 127.823C122.411 127.823 123.544 128.956 123.544 130.355Z" fill="#F84204"/>
<path d="M123.544 139.469C123.544 140.867 122.411 142 121.013 142C119.614 142 118.481 140.867 118.481 139.469C118.481 138.07 119.614 136.937 121.013 136.937C122.411 136.937 123.544 138.07 123.544 139.469Z" fill="#F84204"/>
<path d="M132.658 11.8736C132.658 13.2718 131.525 14.4052 130.127 14.4052C128.728 14.4052 127.595 13.2718 127.595 11.8736C127.595 10.4754 128.728 9.34195 130.127 9.34195C131.525 9.34195 132.658 10.4754 132.658 11.8736Z" fill="#F84204"/>
<path d="M132.658 20.9875C132.658 22.3857 131.525 23.5192 130.127 23.5192C128.728 23.5192 127.595 22.3857 127.595 20.9875C127.595 19.5893 128.728 18.4559 130.127 18.4559C131.525 18.4559 132.658 19.5893 132.658 20.9875Z" fill="#F84204"/>
<path d="M132.658 30.1014C132.658 31.4996 131.525 32.6331 130.127 32.6331C128.728 32.6331 127.595 31.4996 127.595 30.1014C127.595 28.7033 128.728 27.5698 130.127 27.5698C131.525 27.5698 132.658 28.7033 132.658 30.1014Z" fill="#F84204"/>
<path d="M132.658 39.2154C132.658 40.6136 131.525 41.747 130.127 41.747C128.728 41.747 127.595 40.6136 127.595 39.2154C127.595 37.8172 128.728 36.6837 130.127 36.6837C131.525 36.6837 132.658 37.8172 132.658 39.2154Z" fill="#F84204"/>
<path d="M132.658 48.3293C132.658 49.7275 131.525 50.8609 130.127 50.8609C128.728 50.8609 127.595 49.7275 127.595 48.3293C127.595 46.9311 128.728 45.7976 130.127 45.7976C131.525 45.7976 132.658 46.9311 132.658 48.3293Z" fill="#F84204"/>
<path d="M132.658 57.4432C132.658 58.8414 131.525 59.9749 130.127 59.9749C128.728 59.9749 127.595 58.8414 127.595 57.4432C127.595 56.045 128.728 54.9116 130.127 54.9116C131.525 54.9116 132.658 56.045 132.658 57.4432Z" fill="#F84204"/>
<path d="M132.658 66.5571C132.658 67.9553 131.525 69.0888 130.127 69.0888C128.728 69.0888 127.595 67.9553 127.595 66.5571C127.595 65.159 128.728 64.0255 130.127 64.0255C131.525 64.0255 132.658 65.159 132.658 66.5571Z" fill="#F84204"/>
<path d="M132.658 75.6711C132.658 77.0693 131.525 78.2027 130.127 78.2027C128.728 78.2027 127.595 77.0693 127.595 75.6711C127.595 74.2729 128.728 73.1394 130.127 73.1394C131.525 73.1394 132.658 74.2729 132.658 75.6711Z" fill="#F84204"/>
<path d="M132.658 84.785C132.658 86.1832 131.525 87.3166 130.127 87.3166C128.728 87.3166 127.595 86.1832 127.595 84.785C127.595 83.3868 128.728 82.2533 130.127 82.2533C131.525 82.2533 132.658 83.3868 132.658 84.785Z" fill="#F84204"/>
<path d="M132.658 93.8989C132.658 95.2971 131.525 96.4306 130.127 96.4306C128.728 96.4306 127.595 95.2971 127.595 93.8989C127.595 92.5007 128.728 91.3673 130.127 91.3673C131.525 91.3673 132.658 92.5007 132.658 93.8989Z" fill="#F84204"/>
<path d="M132.658 103.013C132.658 104.411 131.525 105.544 130.127 105.544C128.728 105.544 127.595 104.411 127.595 103.013C127.595 101.615 128.728 100.481 130.127 100.481C131.525 100.481 132.658 101.615 132.658 103.013Z" fill="#F84204"/>
<path d="M132.658 112.127C132.658 113.525 131.525 114.658 130.127 114.658C128.728 114.658 127.595 113.525 127.595 112.127C127.595 110.729 128.728 109.595 130.127 109.595C131.525 109.595 132.658 110.729 132.658 112.127Z" fill="#F84204"/>
<path d="M132.658 121.241C132.658 122.639 131.525 123.772 130.127 123.772C128.728 123.772 127.595 122.639 127.595 121.241C127.595 119.842 128.728 118.709 130.127 118.709C131.525 118.709 132.658 119.842 132.658 121.241Z" fill="#F84204"/>
<path d="M132.658 130.355C132.658 131.753 131.525 132.886 130.127 132.886C128.728 132.886 127.595 131.753 127.595 130.355C127.595 128.956 128.728 127.823 130.127 127.823C131.525 127.823 132.658 128.956 132.658 130.355Z" fill="#F84204"/>
<path d="M132.658 139.469C132.658 140.867 131.525 142 130.127 142C128.728 142 127.595 140.867 127.595 139.469C127.595 138.07 128.728 136.937 130.127 136.937C131.525 136.937 132.658 138.07 132.658 139.469Z" fill="#F84204"/>
<path d="M141.772 66.5571C141.772 67.9553 140.639 69.0888 139.241 69.0888C137.842 69.0888 136.709 67.9553 136.709 66.5571C136.709 65.159 137.842 64.0255 139.241 64.0255C140.639 64.0255 141.772 65.159 141.772 66.5571Z" fill="white" fill-opacity="0.5"/>
<path d="M141.772 75.6711C141.772 77.0693 140.639 78.2027 139.241 78.2027C137.842 78.2027 136.709 77.0693 136.709 75.6711C136.709 74.2729 137.842 73.1394 139.241 73.1394C140.639 73.1394 141.772 74.2729 141.772 75.6711Z" fill="white" fill-opacity="0.5"/>
<path d="M141.772 84.785C141.772 86.1832 140.639 87.3166 139.241 87.3166C137.842 87.3166 136.709 86.1832 136.709 84.785C136.709 83.3868 137.842 82.2533 139.241 82.2533C140.639 82.2533 141.772 83.3868 141.772 84.785Z" fill="white" fill-opacity="0.5"/>
<path d="M141.772 93.8989C141.772 95.2971 140.639 96.4306 139.241 96.4306C137.842 96.4306 136.709 95.2971 136.709 93.8989C136.709 92.5007 137.842 91.3673 139.241 91.3673C140.639 91.3673 141.772 92.5007 141.772 93.8989Z" fill="white" fill-opacity="0.5"/>
<path d="M141.772 103.013C141.772 104.411 140.639 105.544 139.241 105.544C137.842 105.544 136.709 104.411 136.709 103.013C136.709 101.615 137.842 100.481 139.241 100.481C140.639 100.481 141.772 101.615 141.772 103.013Z" fill="white" fill-opacity="0.5"/>
<path d="M141.772 112.127C141.772 113.525 140.639 114.658 139.241 114.658C137.842 114.658 136.709 113.525 136.709 112.127C136.709 110.729 137.842 109.595 139.241 109.595C140.639 109.595 141.772 110.729 141.772 112.127Z" fill="white" fill-opacity="0.5"/>
<path d="M141.772 121.241C141.772 122.639 140.639 123.772 139.241 123.772C137.842 123.772 136.709 122.639 136.709 121.241C136.709 119.842 137.842 118.709 139.241 118.709C140.639 118.709 141.772 119.842 141.772 121.241Z" fill="white" fill-opacity="0.5"/>
<path d="M141.772 130.355C141.772 131.753 140.639 132.886 139.241 132.886C137.842 132.886 136.709 131.753 136.709 130.355C136.709 128.956 137.842 127.823 139.241 127.823C140.639 127.823 141.772 128.956 141.772 130.355Z" fill="white" fill-opacity="0.5"/>
<path d="M141.772 139.469C141.772 140.867 140.639 142 139.241 142C137.842 142 136.709 140.867 136.709 139.469C136.709 138.07 137.842 136.937 139.241 136.937C140.639 136.937 141.772 138.07 141.772 139.469Z" fill="white" fill-opacity="0.5"/>
<path d="M150.886 48.3293C150.886 49.7275 149.753 50.8609 148.354 50.8609C146.956 50.8609 145.823 49.7275 145.823 48.3293C145.823 46.9311 146.956 45.7976 148.354 45.7976C149.753 45.7976 150.886 46.9311 150.886 48.3293Z" fill="white" fill-opacity="0.5"/>
<path d="M150.886 57.4432C150.886 58.8414 149.753 59.9749 148.354 59.9749C146.956 59.9749 145.823 58.8414 145.823 57.4432C145.823 56.045 146.956 54.9116 148.354 54.9116C149.753 54.9116 150.886 56.045 150.886 57.4432Z" fill="white" fill-opacity="0.5"/>
<path d="M150.886 66.5571C150.886 67.9553 149.753 69.0888 148.354 69.0888C146.956 69.0888 145.823 67.9553 145.823 66.5571C145.823 65.159 146.956 64.0255 148.354 64.0255C149.753 64.0255 150.886 65.159 150.886 66.5571Z" fill="white" fill-opacity="0.5"/>
<path d="M150.886 75.6711C150.886 77.0693 149.753 78.2027 148.354 78.2027C146.956 78.2027 145.823 77.0693 145.823 75.6711C145.823 74.2729 146.956 73.1394 148.354 73.1394C149.753 73.1394 150.886 74.2729 150.886 75.6711Z" fill="white" fill-opacity="0.5"/>
<path d="M150.886 84.785C150.886 86.1832 149.753 87.3166 148.354 87.3166C146.956 87.3166 145.823 86.1832 145.823 84.785C145.823 83.3868 146.956 82.2533 148.354 82.2533C149.753 82.2533 150.886 83.3868 150.886 84.785Z" fill="white" fill-opacity="0.5"/>
<path d="M150.886 93.8989C150.886 95.2971 149.753 96.4306 148.354 96.4306C146.956 96.4306 145.823 95.2971 145.823 93.8989C145.823 92.5007 146.956 91.3673 148.354 91.3673C149.753 91.3673 150.886 92.5007 150.886 93.8989Z" fill="white" fill-opacity="0.5"/>
<path d="M150.886 103.013C150.886 104.411 149.753 105.544 148.354 105.544C146.956 105.544 145.823 104.411 145.823 103.013C145.823 101.615 146.956 100.481 148.354 100.481C149.753 100.481 150.886 101.615 150.886 103.013Z" fill="white" fill-opacity="0.5"/>
<path d="M150.886 112.127C150.886 113.525 149.753 114.658 148.354 114.658C146.956 114.658 145.823 113.525 145.823 112.127C145.823 110.729 146.956 109.595 148.354 109.595C149.753 109.595 150.886 110.729 150.886 112.127Z" fill="white" fill-opacity="0.5"/>
<path d="M150.886 121.241C150.886 122.639 149.753 123.772 148.354 123.772C146.956 123.772 145.823 122.639 145.823 121.241C145.823 119.842 146.956 118.709 148.354 118.709C149.753 118.709 150.886 119.842 150.886 121.241Z" fill="white" fill-opacity="0.5"/>
<path d="M150.886 130.355C150.886 131.753 149.753 132.886 148.354 132.886C146.956 132.886 145.823 131.753 145.823 130.355C145.823 128.956 146.956 127.823 148.354 127.823C149.753 127.823 150.886 128.956 150.886 130.355Z" fill="white" fill-opacity="0.5"/>
<path d="M150.886 139.469C150.886 140.867 149.753 142 148.354 142C146.956 142 145.823 140.867 145.823 139.469C145.823 138.07 146.956 136.937 148.354 136.937C149.753 136.937 150.886 138.07 150.886 139.469Z" fill="white" fill-opacity="0.5"/>
<path d="M160 20.9875C160 22.3857 158.867 23.5192 157.468 23.5192C156.07 23.5192 154.937 22.3857 154.937 20.9875C154.937 19.5893 156.07 18.4559 157.468 18.4559C158.867 18.4559 160 19.5893 160 20.9875Z" fill="white" fill-opacity="0.5"/>
<path d="M160 30.1014C160 31.4996 158.867 32.6331 157.468 32.6331C156.07 32.6331 154.937 31.4996 154.937 30.1014C154.937 28.7033 156.07 27.5698 157.468 27.5698C158.867 27.5698 160 28.7033 160 30.1014Z" fill="white" fill-opacity="0.5"/>
<path d="M160 39.2154C160 40.6136 158.867 41.747 157.468 41.747C156.07 41.747 154.937 40.6136 154.937 39.2154C154.937 37.8172 156.07 36.6837 157.468 36.6837C158.867 36.6837 160 37.8172 160 39.2154Z" fill="white" fill-opacity="0.5"/>
<path d="M160 48.3293C160 49.7275 158.867 50.8609 157.468 50.8609C156.07 50.8609 154.937 49.7275 154.937 48.3293C154.937 46.9311 156.07 45.7976 157.468 45.7976C158.867 45.7976 160 46.9311 160 48.3293Z" fill="white" fill-opacity="0.5"/>
<path d="M160 57.4432C160 58.8414 158.867 59.9749 157.468 59.9749C156.07 59.9749 154.937 58.8414 154.937 57.4432C154.937 56.045 156.07 54.9116 157.468 54.9116C158.867 54.9116 160 56.045 160 57.4432Z" fill="white" fill-opacity="0.5"/>
<path d="M160 66.5571C160 67.9553 158.867 69.0888 157.468 69.0888C156.07 69.0888 154.937 67.9553 154.937 66.5571C154.937 65.159 156.07 64.0255 157.468 64.0255C158.867 64.0255 160 65.159 160 66.5571Z" fill="white" fill-opacity="0.5"/>
<path d="M160 75.6711C160 77.0693 158.867 78.2027 157.468 78.2027C156.07 78.2027 154.937 77.0693 154.937 75.6711C154.937 74.2729 156.07 73.1394 157.468 73.1394C158.867 73.1394 160 74.2729 160 75.6711Z" fill="white" fill-opacity="0.5"/>
<path d="M160 84.785C160 86.1832 158.867 87.3166 157.468 87.3166C156.07 87.3166 154.937 86.1832 154.937 84.785C154.937 83.3868 156.07 82.2533 157.468 82.2533C158.867 82.2533 160 83.3868 160 84.785Z" fill="white" fill-opacity="0.5"/>
<path d="M160 93.8989C160 95.2971 158.867 96.4306 157.468 96.4306C156.07 96.4306 154.937 95.2971 154.937 93.8989C154.937 92.5007 156.07 91.3673 157.468 91.3673C158.867 91.3673 160 92.5007 160 93.8989Z" fill="white" fill-opacity="0.5"/>
<path d="M160 103.013C160 104.411 158.867 105.544 157.468 105.544C156.07 105.544 154.937 104.411 154.937 103.013C154.937 101.615 156.07 100.481 157.468 100.481C158.867 100.481 160 101.615 160 103.013Z" fill="white" fill-opacity="0.5"/>
<path d="M160 112.127C160 113.525 158.867 114.658 157.468 114.658C156.07 114.658 154.937 113.525 154.937 112.127C154.937 110.729 156.07 109.595 157.468 109.595C158.867 109.595 160 110.729 160 112.127Z" fill="white" fill-opacity="0.5"/>
<path d="M160 121.241C160 122.639 158.867 123.772 157.468 123.772C156.07 123.772 154.937 122.639 154.937 121.241C154.937 119.842 156.07 118.709 157.468 118.709C158.867 118.709 160 119.842 160 121.241Z" fill="white" fill-opacity="0.5"/>
<path d="M160 130.355C160 131.753 158.867 132.886 157.468 132.886C156.07 132.886 154.937 131.753 154.937 130.355C154.937 128.956 156.07 127.823 157.468 127.823C158.867 127.823 160 128.956 160 130.355Z" fill="white" fill-opacity="0.5"/>
<path d="M160 139.469C160 140.867 158.867 142 157.468 142C156.07 142 154.937 140.867 154.937 139.469C154.937 138.07 156.07 136.937 157.468 136.937C158.867 136.937 160 138.07 160 139.469Z" fill="white" fill-opacity="0.5"/>
</svg>
