<svg width="100" height="100" viewBox="0 0 100 100" fill="none" xmlns="http://www.w3.org/2000/svg">
<rect width="100" height="100" rx="50" fill="#F84204"/>
<path d="M50 53.333C51.841 53.333 53.333 54.826 53.333 56.667V66.667C53.3328 68.5078 51.8408 70 50 70C48.1592 70 46.6672 68.5078 46.667 66.667V56.667C46.667 54.826 48.1591 53.333 50 53.333ZM43.333 46.667C45.174 46.667 46.667 48.159 46.667 50C46.667 51.841 45.174 53.333 43.333 53.333H33.333C31.4922 53.3328 30 51.8408 30 50C30 48.1592 31.4922 46.6672 33.333 46.667H43.333ZM66.667 46.667C68.5078 46.6672 70 48.1592 70 50C70 51.8408 68.5078 53.3328 66.667 53.333H56.667C54.826 53.333 53.333 51.841 53.333 50C53.333 48.159 54.826 46.667 56.667 46.667H66.667ZM50 30C51.8408 30 53.3328 31.4922 53.333 33.333V43.333C53.333 45.174 51.841 46.667 50 46.667C48.159 46.667 46.667 45.174 46.667 43.333V33.333C46.6672 31.4922 48.1592 30 50 30Z" fill="white"/>
</svg>
