<svg width="380" height="60" viewBox="0 0 380 60" fill="none" xmlns="http://www.w3.org/2000/svg">
<path d="M350 0C366.569 0 380 13.4315 380 30C380 46.5685 366.569 60 350 60H87C76.9533 60 68.0612 55.061 62.6172 47.4789C60.929 45.1277 56.071 45.1277 54.3828 47.4789C48.9388 55.061 40.0467 60 30 60C13.4315 60 0 46.5685 0 30C0 13.4315 13.4315 0 30 0C40.0467 0 48.939 4.93892 54.3831 12.5211C56.0712 14.8722 60.9288 14.8722 62.6169 12.5211C68.061 4.93892 76.9533 1.1964e-07 87 0H350Z" fill="white"/>
<rect x="4" y="4" width="52" height="52" rx="26" fill="#010101"/>
<path d="M30 32C31.1046 32 32 32.8954 32 34V40C32 41.1046 31.1046 42 30 42C28.8954 42 28 41.1046 28 40V34C28 32.8954 28.8954 32 30 32ZM26 28C27.1046 28 28 28.8954 28 30C28 31.1046 27.1046 32 26 32H20C18.8954 32 18 31.1046 18 30C18 28.8954 18.8954 28 20 28H26ZM40 28C41.1046 28 42 28.8954 42 30C42 31.1046 41.1046 32 40 32H34C32.8954 32 32 31.1046 32 30C32 28.8954 32.8954 28 34 28H40ZM30 18C31.1046 18 32 18.8954 32 20V26C32 27.1046 31.1046 28 30 28C28.8954 28 28 27.1046 28 26V20C28 18.8954 28.8954 18 30 18Z" fill="white"/>
</svg>
