<svg width="20" height="14" viewBox="0 0 20 14" fill="none" xmlns="http://www.w3.org/2000/svg">
<path fill-rule="evenodd" clip-rule="evenodd" d="M0.769531 1.61561C0.769531 0.765941 1.45832 0.0771484 2.30799 0.0771484H17.6926C18.5423 0.0771484 19.2311 0.765941 19.2311 1.61561C19.2311 2.46528 18.5423 3.15407 17.6926 3.15407H2.30799C1.45832 3.15407 0.769531 2.46528 0.769531 1.61561Z" fill="white"/>
<path fill-rule="evenodd" clip-rule="evenodd" d="M0.769531 7.00038C0.769531 6.15071 1.45832 5.46191 2.30799 5.46191H17.6926C18.5423 5.46191 19.2311 6.15071 19.2311 7.00038C19.2311 7.85004 18.5423 8.53884 17.6926 8.53884H2.30799C1.45832 8.53884 0.769531 7.85004 0.769531 7.00038Z" fill="white"/>
<path fill-rule="evenodd" clip-rule="evenodd" d="M0.769531 12.3842C0.769531 11.5345 1.45832 10.8457 2.30799 10.8457H17.6926C18.5423 10.8457 19.2311 11.5345 19.2311 12.3842C19.2311 13.2338 18.5423 13.9226 17.6926 13.9226H2.30799C1.45832 13.9226 0.769531 13.2338 0.769531 12.3842Z" fill="white"/>
</svg>
