<svg width="24" height="24" viewBox="0 0 24 24" fill="none" xmlns="http://www.w3.org/2000/svg">
<path fill-rule="evenodd" clip-rule="evenodd" d="M3.85668 11.1334L3.83953 11.1486C3.83344 11.154 3.82153 11.1674 3.81147 11.1898C3.80115 11.2128 3.8 11.2292 3.8 11.232V19.992C3.8 20.0247 3.81307 20.0834 3.87364 20.1447C3.90164 20.1731 3.92767 20.1884 3.94324 20.1952C3.95499 20.2003 3.95897 20.2001 3.95986 20.2L20.04 20.2C20.0575 20.2 20.0678 20.1986 20.0729 20.1975C20.0746 20.1962 20.0773 20.1938 20.081 20.1901C20.0956 20.1753 20.1758 20.0844 20.2 19.8593V11.232C20.2 11.2307 20.1998 11.2227 20.197 11.2097C20.1942 11.1968 20.1899 11.1839 20.1851 11.1731C20.1843 11.1714 20.1836 11.1699 20.183 11.1686L20.1662 11.1542L12.1385 3.86938C12.09 3.83094 12.0549 3.81493 12.0374 3.80833C12.0169 3.8006 12.0053 3.8 12 3.8C11.9947 3.8 11.9831 3.8006 11.9626 3.80833C11.9451 3.81493 11.91 3.83094 11.8615 3.86938L3.85668 11.1334ZM9.36 1.008L1.32 8.304C0.48 9.048 0 10.128 0 11.232V19.992C0 22.176 1.8 24 3.96 24H20.04C22.2 24 23.88 22.296 24 19.992V11.232C24 10.128 23.52 9.024 22.68 8.304L14.64 1.008C13.08 -0.336 10.92 -0.336 9.36 1.008Z" fill="white"/>
</svg>
