<svg width="60" height="60" viewBox="0 0 60 60" fill="none" xmlns="http://www.w3.org/2000/svg">
<rect width="60" height="60" rx="30" fill="url(#paint0_linear_201_8464)"/>
<path d="M36 18H24C20.7003 18 18 20.6991 18 24V36C18 39.2997 20.7003 42 24 42H36C39.2997 42 42 39.2997 42 36V24C42 20.6991 39.2997 18 36 18ZM30 34.9998C27.2382 34.9998 24.9999 32.7606 24.9999 30C24.9999 27.2382 27.2382 24.9999 30 24.9999C32.7606 24.9999 35.0001 27.2382 35.0001 30C35.0001 32.7606 32.7606 34.9998 30 34.9998ZM36.5001 24.9999C35.6709 24.9999 35.0001 24.3282 35.0001 23.4999C35.0001 22.6716 35.6709 21.9999 36.5001 21.9999C37.3293 21.9999 38.0001 22.6716 38.0001 23.4999C38.0001 24.3282 37.3293 24.9999 36.5001 24.9999Z" fill="white"/>
<defs>
<linearGradient id="paint0_linear_201_8464" x1="4.0285" y1="56.091" x2="59.6226" y2="7.96552" gradientUnits="userSpaceOnUse">
<stop stop-color="#FFDD55"/>
<stop offset="0.5" stop-color="#FF543E"/>
<stop offset="1" stop-color="#C837AB"/>
</linearGradient>
</defs>
</svg>
