<svg width="326" height="60" viewBox="0 0 326 60" fill="none" xmlns="http://www.w3.org/2000/svg">
<path d="M30 0C13.4315 0 0 13.4315 0 30C0 46.5685 13.4315 60 30 60C39.8853 60 48.6539 55.2188 54.1194 47.8428C55.9517 45.3702 62.0483 45.3702 63.8806 47.8429C69.3461 55.2188 78.1147 60 88 60H296C312.569 60 326 46.5685 326 30C326 13.4315 312.569 0 296 0H88C78.1147 0 69.3461 4.78116 63.8806 12.1571C62.0483 14.6298 55.9517 14.6298 54.1194 12.1571C48.6539 4.78115 39.8853 0 30 0Z" fill="white"/>
<rect x="4" y="4" width="52" height="52" rx="26" fill="#F84204"/>
<path d="M30 32C31.1046 32 32 32.8954 32 34V40C32 41.1046 31.1046 42 30 42C28.8954 42 28 41.1046 28 40V34C28 32.8954 28.8954 32 30 32ZM26 28C27.1046 28 28 28.8954 28 30C28 31.1046 27.1046 32 26 32H20C18.8954 32 18 31.1046 18 30C18 28.8954 18.8954 28 20 28H26ZM40 28C41.1046 28 42 28.8954 42 30C42 31.1046 41.1046 32 40 32H34C32.8954 32 32 31.1046 32 30C32 28.8954 32.8954 28 34 28H40ZM30 18C31.1046 18 32 18.8954 32 20V26C32 27.1046 31.1046 28 30 28C28.8954 28 28 27.1046 28 26V20C28 18.8954 28.8954 18 30 18Z" fill="white"/>
</svg>
