<svg width="350" height="84" viewBox="0 0 350 84" fill="none" xmlns="http://www.w3.org/2000/svg">
<rect y="4" width="80" height="80" rx="40" fill="#010101"/>
<path d="M39.7764 56.332C38.1051 56.332 36.6221 56.0498 35.3271 55.4854C34.0322 54.9098 33.0085 54.113 32.2559 53.0947C31.5033 52.0765 31.1048 50.8978 31.0605 49.5586H34.8125C34.8678 50.2891 35.1169 50.9199 35.5596 51.4512C36.0023 51.9824 36.5833 52.3975 37.3027 52.6963C38.0332 52.984 38.8467 53.1279 39.7432 53.1279C40.7171 53.1279 41.5804 52.9564 42.333 52.6133C43.0856 52.2702 43.6722 51.7998 44.0928 51.2021C44.5244 50.5934 44.7402 49.8906 44.7402 49.0938C44.7402 48.2637 44.5299 47.5332 44.1094 46.9023C43.6888 46.2604 43.0745 45.7624 42.2666 45.4082C41.4587 45.054 40.4847 44.877 39.3447 44.877H37.2363V41.8223H39.3447C40.2523 41.8223 41.0547 41.6562 41.752 41.3242C42.4492 40.9922 42.9915 40.5329 43.3789 39.9463C43.7773 39.3597 43.9766 38.668 43.9766 37.8711C43.9766 37.1074 43.805 36.4434 43.4619 35.8789C43.1188 35.3034 42.6374 34.8607 42.0176 34.5508C41.3978 34.2298 40.6673 34.0693 39.8262 34.0693C39.0182 34.0693 38.2656 34.2132 37.5684 34.501C36.8711 34.7887 36.3011 35.2038 35.8584 35.7461C35.4268 36.2773 35.1999 36.9248 35.1777 37.6885H31.5752C31.6084 36.3493 31.9958 35.1761 32.7373 34.1689C33.4899 33.1507 34.486 32.3594 35.7256 31.7949C36.9762 31.2194 38.3597 30.9316 39.876 30.9316C41.4587 30.9316 42.8255 31.2415 43.9766 31.8613C45.1387 32.4701 46.0352 33.2891 46.666 34.3184C47.2969 35.3366 47.6123 36.4489 47.6123 37.6553C47.6123 39.0609 47.2249 40.2451 46.4502 41.208C45.6755 42.1598 44.6406 42.8073 43.3457 43.1504V43.333C44.9837 43.5876 46.251 44.2406 47.1475 45.292C48.055 46.3434 48.5088 47.6494 48.5088 49.21C48.5088 50.5713 48.127 51.7887 47.3633 52.8623C46.6107 53.9359 45.5758 54.7826 44.2588 55.4023C42.9528 56.0221 41.4587 56.332 39.7764 56.332Z" fill="white"/>
<rect x="56" width="28" height="28" rx="14" fill="#F84204"/>
<path d="M70.6113 18.0391V17.3535C70.6113 16.873 70.708 16.4336 70.9014 16.0352C71.1006 15.6367 71.3906 15.3174 71.7715 15.0771C72.1523 14.8369 72.6152 14.7168 73.1602 14.7168C73.7168 14.7168 74.1826 14.8369 74.5576 15.0771C74.9326 15.3174 75.2139 15.6367 75.4014 16.0352C75.5947 16.4336 75.6914 16.873 75.6914 17.3535V18.0391C75.6914 18.5195 75.5947 18.959 75.4014 19.3574C75.208 19.7559 74.9238 20.0752 74.5488 20.3154C74.1738 20.5557 73.7109 20.6758 73.1602 20.6758C72.6094 20.6758 72.1436 20.5557 71.7627 20.3154C71.3818 20.0752 71.0947 19.7559 70.9014 19.3574C70.708 18.959 70.6113 18.5195 70.6113 18.0391ZM71.9121 17.3535V18.0391C71.9121 18.4375 72.0059 18.7949 72.1934 19.1113C72.3809 19.4219 72.7031 19.5801 73.1602 19.5859C73.6113 19.5801 73.9277 19.4219 74.1094 19.1113C74.2969 18.7949 74.3906 18.4375 74.3906 18.0391V17.3535C74.3906 16.9551 74.2998 16.6006 74.1182 16.29C73.9424 15.9795 73.623 15.8242 73.1602 15.8242C72.7148 15.8242 72.3955 15.9795 72.2021 16.29C72.0088 16.6006 71.9121 16.9551 71.9121 17.3535ZM64.0898 10.5508V9.86523C64.0898 9.38477 64.1895 8.94531 64.3887 8.54688C64.5879 8.14844 64.875 7.8291 65.25 7.58887C65.6309 7.34863 66.0938 7.22852 66.6387 7.22852C67.1953 7.22852 67.6611 7.34863 68.0361 7.58887C68.417 7.8291 68.7012 8.14844 68.8887 8.54688C69.082 8.94531 69.1758 9.38477 69.1699 9.86523V10.5508C69.1758 11.0254 69.0791 11.4648 68.8799 11.8691C68.6865 12.2676 68.4023 12.5869 68.0273 12.8271C67.6523 13.0674 67.1895 13.1875 66.6387 13.1875C66.0879 13.1875 65.6221 13.0674 65.2412 12.8271C64.8604 12.5869 64.5732 12.2676 64.3799 11.8691C64.1865 11.4648 64.0898 11.0254 64.0898 10.5508ZM65.3906 9.86523V10.5508C65.3906 10.9492 65.4844 11.3066 65.6719 11.623C65.8594 11.9336 66.1816 12.0859 66.6387 12.0801C67.0898 12.0859 67.4062 11.9336 67.5879 11.623C67.7754 11.3066 67.8691 10.9492 67.8691 10.5508V9.86523C67.8691 9.4668 67.7783 9.1123 67.5967 8.80176C67.4209 8.48535 67.1016 8.33008 66.6387 8.33594C66.1934 8.33008 65.874 8.48535 65.6807 8.80176C65.4873 9.1123 65.3906 9.4668 65.3906 9.86523ZM64.582 20.5L73.582 7.4043H75.041L66.041 20.5H64.582Z" fill="white"/>
<path d="M107.523 61.123V38.623H110.6V41.2891H110.863C111.059 40.9473 111.327 40.5518 111.669 40.1025C112.021 39.6533 112.509 39.2627 113.134 38.9307C113.759 38.5889 114.574 38.418 115.58 38.418C116.898 38.418 118.07 38.75 119.096 39.4141C120.131 40.0781 120.946 41.04 121.542 42.2998C122.138 43.5596 122.436 45.0781 122.436 46.8555C122.436 48.6133 122.143 50.127 121.557 51.3965C120.971 52.6562 120.16 53.6279 119.125 54.3115C118.1 54.9854 116.923 55.3223 115.595 55.3223C114.608 55.3223 113.798 55.1562 113.163 54.8242C112.538 54.4824 112.045 54.0869 111.684 53.6377C111.332 53.1885 111.059 52.793 110.863 52.4512H110.688V61.123H107.523ZM114.906 52.6123C115.854 52.6123 116.645 52.3584 117.279 51.8506C117.914 51.3428 118.393 50.6543 118.715 49.7852C119.047 48.9062 119.213 47.9199 119.213 46.8262C119.213 45.7422 119.052 44.7705 118.729 43.9111C118.407 43.0518 117.929 42.373 117.294 41.875C116.659 41.377 115.863 41.1279 114.906 41.1279C113.979 41.1279 113.197 41.3672 112.562 41.8457C111.928 42.3145 111.444 42.9785 111.112 43.8379C110.79 44.6875 110.629 45.6836 110.629 46.8262C110.629 47.9688 110.795 48.9746 111.127 49.8438C111.459 50.7129 111.942 51.3916 112.577 51.8799C113.222 52.3682 113.998 52.6123 114.906 52.6123ZM131.796 55.3369C130.194 55.3369 128.808 54.9902 127.636 54.2969C126.464 53.6035 125.561 52.627 124.926 51.3672C124.301 50.0977 123.988 48.6182 123.988 46.9287C123.988 45.249 124.296 43.7695 124.911 42.4902C125.536 41.2109 126.41 40.2148 127.533 39.502C128.666 38.7793 129.994 38.418 131.518 38.418C132.445 38.418 133.344 38.5693 134.213 38.8721C135.082 39.1748 135.863 39.6533 136.557 40.3076C137.25 40.9619 137.797 41.8115 138.197 42.8564C138.607 43.9014 138.812 45.1611 138.812 46.6357V47.7783H125.79V45.3906H137.172L135.692 46.1816C135.692 45.1758 135.536 44.2871 135.224 43.5156C134.911 42.7441 134.442 42.1436 133.817 41.7139C133.202 41.2744 132.436 41.0547 131.518 41.0547C130.6 41.0547 129.813 41.2744 129.159 41.7139C128.515 42.1533 128.021 42.7344 127.68 43.457C127.338 44.1797 127.167 44.9707 127.167 45.8301V47.4561C127.167 48.5791 127.362 49.5312 127.753 50.3125C128.144 51.0938 128.686 51.6895 129.379 52.0996C130.082 52.5098 130.897 52.7148 131.825 52.7148C132.431 52.7148 132.978 52.627 133.466 52.4512C133.964 52.2754 134.394 52.0117 134.755 51.6602C135.116 51.3086 135.39 50.874 135.575 50.3564L138.593 50.9277C138.349 51.8066 137.919 52.5781 137.304 53.2422C136.688 53.9062 135.912 54.4238 134.975 54.7949C134.047 55.1562 132.987 55.3369 131.796 55.3369ZM148.056 60.5811V33.1738H151.234V60.5811H148.056ZM148.056 55.3369C146.903 55.3369 145.849 55.1367 144.892 54.7363C143.944 54.3262 143.124 53.75 142.431 53.0078C141.747 52.2656 141.215 51.377 140.834 50.3418C140.463 49.3066 140.277 48.1592 140.277 46.8994C140.277 45.6299 140.463 44.4775 140.834 43.4424C141.215 42.3975 141.747 41.499 142.431 40.7471C143.124 39.9951 143.944 39.4189 144.892 39.0186C145.849 38.6182 146.903 38.418 148.056 38.418H148.861V55.3369H148.056ZM148.056 52.6562H148.51V41.0986H148.056C147.04 41.0986 146.195 41.3672 145.521 41.9043C144.857 42.4414 144.354 43.1494 144.013 44.0283C143.681 44.9072 143.515 45.8643 143.515 46.8994C143.515 47.6807 143.607 48.418 143.793 49.1113C143.979 49.7949 144.262 50.4053 144.643 50.9424C145.023 51.4697 145.497 51.8896 146.063 52.2021C146.63 52.5049 147.294 52.6562 148.056 52.6562ZM151.234 55.3369H150.458V38.418H151.234C152.396 38.418 153.451 38.6182 154.398 39.0186C155.355 39.4189 156.176 39.9951 156.859 40.7471C157.553 41.499 158.085 42.3975 158.456 43.4424C158.827 44.4775 159.013 45.6299 159.013 46.8994C159.013 48.1592 158.827 49.3066 158.456 50.3418C158.085 51.377 157.553 52.2656 156.859 53.0078C156.176 53.75 155.355 54.3262 154.398 54.7363C153.451 55.1367 152.396 55.3369 151.234 55.3369ZM151.234 52.6562C152.006 52.6562 152.675 52.5049 153.241 52.2021C153.817 51.8896 154.291 51.4697 154.662 50.9424C155.043 50.4053 155.326 49.7949 155.512 49.1113C155.707 48.418 155.805 47.6807 155.805 46.8994C155.805 45.8643 155.634 44.9072 155.292 44.0283C154.96 43.1494 154.457 42.4414 153.783 41.9043C153.109 41.3672 152.26 41.0986 151.234 41.0986H150.81V52.6562H151.234ZM168.358 55.3369C166.757 55.3369 165.37 54.9902 164.198 54.2969C163.026 53.6035 162.123 52.627 161.488 51.3672C160.863 50.0977 160.551 48.6182 160.551 46.9287C160.551 45.249 160.858 43.7695 161.474 42.4902C162.099 41.2109 162.973 40.2148 164.096 39.502C165.229 38.7793 166.557 38.418 168.08 38.418C169.008 38.418 169.906 38.5693 170.775 38.8721C171.645 39.1748 172.426 39.6533 173.119 40.3076C173.812 40.9619 174.359 41.8115 174.76 42.8564C175.17 43.9014 175.375 45.1611 175.375 46.6357V47.7783H162.353V45.3906H173.734L172.255 46.1816C172.255 45.1758 172.099 44.2871 171.786 43.5156C171.474 42.7441 171.005 42.1436 170.38 41.7139C169.765 41.2744 168.998 41.0547 168.08 41.0547C167.162 41.0547 166.376 41.2744 165.722 41.7139C165.077 42.1533 164.584 42.7344 164.242 43.457C163.9 44.1797 163.729 44.9707 163.729 45.8301V47.4561C163.729 48.5791 163.925 49.5312 164.315 50.3125C164.706 51.0938 165.248 51.6895 165.941 52.0996C166.645 52.5098 167.46 52.7148 168.388 52.7148C168.993 52.7148 169.54 52.627 170.028 52.4512C170.526 52.2754 170.956 52.0117 171.317 51.6602C171.679 51.3086 171.952 50.874 172.138 50.3564L175.155 50.9277C174.911 51.8066 174.481 52.5781 173.866 53.2422C173.251 53.9062 172.475 54.4238 171.537 54.7949C170.609 55.1562 169.55 55.3369 168.358 55.3369ZM177.602 61.123V38.623H180.678V41.2891H180.941C181.137 40.9473 181.405 40.5518 181.747 40.1025C182.099 39.6533 182.587 39.2627 183.212 38.9307C183.837 38.5889 184.652 38.418 185.658 38.418C186.977 38.418 188.148 38.75 189.174 39.4141C190.209 40.0781 191.024 41.04 191.62 42.2998C192.216 43.5596 192.514 45.0781 192.514 46.8555C192.514 48.6133 192.221 50.127 191.635 51.3965C191.049 52.6562 190.238 53.6279 189.203 54.3115C188.178 54.9854 187.001 55.3223 185.673 55.3223C184.687 55.3223 183.876 55.1562 183.241 54.8242C182.616 54.4824 182.123 54.0869 181.762 53.6377C181.41 53.1885 181.137 52.793 180.941 52.4512H180.766V61.123H177.602ZM184.984 52.6123C185.932 52.6123 186.723 52.3584 187.357 51.8506C187.992 51.3428 188.471 50.6543 188.793 49.7852C189.125 48.9062 189.291 47.9199 189.291 46.8262C189.291 45.7422 189.13 44.7705 188.808 43.9111C188.485 43.0518 188.007 42.373 187.372 41.875C186.737 41.377 185.941 41.1279 184.984 41.1279C184.057 41.1279 183.275 41.3672 182.641 41.8457C182.006 42.3145 181.522 42.9785 181.19 43.8379C180.868 44.6875 180.707 45.6836 180.707 46.8262C180.707 47.9688 180.873 48.9746 181.205 49.8438C181.537 50.7129 182.021 51.3916 182.655 51.8799C183.3 52.3682 184.076 52.6123 184.984 52.6123ZM199.574 55.3516C198.539 55.3516 197.602 55.1611 196.762 54.7803C195.922 54.3896 195.258 53.8232 194.77 53.0811C194.281 52.3389 194.037 51.4355 194.037 50.3711C194.037 49.4434 194.213 48.6865 194.564 48.1006C194.926 47.5049 195.409 47.0312 196.015 46.6797C196.62 46.3281 197.294 46.0645 198.036 45.8887C198.778 45.7129 199.54 45.5762 200.321 45.4785C201.308 45.3711 202.104 45.2783 202.709 45.2002C203.314 45.1221 203.754 45 204.027 44.834C204.311 44.6582 204.452 44.3799 204.452 43.999V43.9258C204.452 42.998 204.188 42.2803 203.661 41.7725C203.144 41.2646 202.372 41.0107 201.347 41.0107C200.282 41.0107 199.438 41.2451 198.812 41.7139C198.197 42.1729 197.772 42.6953 197.538 43.2812L194.535 42.5928C194.896 41.5967 195.419 40.7959 196.103 40.1904C196.796 39.5752 197.587 39.126 198.476 38.8428C199.374 38.5596 200.312 38.418 201.288 38.418C201.942 38.418 202.636 38.4961 203.368 38.6523C204.101 38.7988 204.789 39.0771 205.434 39.4873C206.088 39.8877 206.62 40.4639 207.03 41.2158C207.44 41.9678 207.646 42.9395 207.646 44.1309V55H204.525V52.7588H204.408C204.213 53.1592 203.905 53.5596 203.485 53.96C203.075 54.3604 202.548 54.6924 201.903 54.9561C201.259 55.2197 200.482 55.3516 199.574 55.3516ZM200.263 52.8027C201.151 52.8027 201.908 52.6318 202.533 52.29C203.158 51.9385 203.637 51.4795 203.969 50.9131C204.301 50.3467 204.467 49.7461 204.467 49.1113V46.9873C204.35 47.0947 204.13 47.1973 203.808 47.2949C203.485 47.3926 203.119 47.4756 202.709 47.5439C202.299 47.6123 201.898 47.6758 201.508 47.7344C201.117 47.7832 200.79 47.8223 200.526 47.8516C199.911 47.9395 199.35 48.0762 198.842 48.2617C198.334 48.4375 197.924 48.7012 197.611 49.0527C197.309 49.3945 197.157 49.8486 197.157 50.415C197.157 51.2061 197.45 51.8018 198.036 52.2021C198.622 52.6025 199.364 52.8027 200.263 52.8027ZM209.403 55L209.389 52.2461H209.96C210.575 52.2363 211.059 52.0557 211.41 51.7041C211.771 51.3428 212.04 50.7031 212.216 49.7852C212.401 48.8672 212.523 47.5684 212.582 45.8887L212.875 38.623H224.286V55H221.166V41.377H215.805L215.541 46.958C215.482 48.3057 215.351 49.4824 215.146 50.4883C214.94 51.4941 214.638 52.334 214.237 53.0078C213.837 53.6719 213.324 54.1699 212.699 54.502C212.074 54.834 211.312 55 210.414 55H209.403ZM229.706 44.2773H234.467C236.459 44.2676 237.992 44.7607 239.066 45.7568C240.15 46.7529 240.697 48.0371 240.707 49.6094C240.707 50.6348 240.463 51.5527 239.975 52.3633C239.486 53.1738 238.778 53.8184 237.851 54.2969C236.923 54.7656 235.795 55 234.467 55H227.318V38.623H230.409V52.2461H234.467C235.375 52.2461 236.122 52.0117 236.708 51.543C237.294 51.0645 237.592 50.4492 237.602 49.6973C237.592 48.9062 237.294 48.2617 236.708 47.7637C236.122 47.2656 235.375 47.0215 234.467 47.0312H229.706V44.2773ZM254.066 45.4346V48.1885H245.204V45.4346H254.066ZM246.083 38.623V55H242.992V38.623H246.083ZM256.293 38.623V55H253.188V38.623H256.293ZM261.728 44.2773H266.488C268.48 44.2676 270.014 44.7607 271.088 45.7568C272.172 46.7529 272.719 48.0371 272.729 49.6094C272.729 50.6348 272.484 51.5527 271.996 52.3633C271.508 53.1738 270.8 53.8184 269.872 54.2969C268.944 54.7656 267.816 55 266.488 55H259.34V38.623H262.431V52.2461H266.488C267.396 52.2461 268.144 52.0117 268.729 51.543C269.315 51.0645 269.613 50.4492 269.623 49.6973C269.613 48.9062 269.315 48.2617 268.729 47.7637C268.144 47.2656 267.396 47.0215 266.488 47.0312H261.728V44.2773ZM275.058 55V38.623H278.222V55H275.058ZM283.759 38.623L287.348 45.0098L290.995 38.623H294.496L289.398 46.8262L294.525 55H291.054L287.348 48.877L283.7 55H280.199L285.282 46.8262L280.258 38.623H283.759Z" fill="#010101"/>
</svg>
