<svg width="350" height="84" viewBox="0 0 350 84" fill="none" xmlns="http://www.w3.org/2000/svg">
<rect y="4" width="80" height="80" rx="40" fill="#010101"/>
<path d="M39.5625 59.3906C37.7786 59.3906 36.1771 59.0521 34.7578 58.375C33.3516 57.6849 32.2253 56.7409 31.3789 55.543C30.5326 54.332 30.0833 52.9583 30.0312 51.4219H34.2891C34.3932 52.6589 34.9466 53.681 35.9492 54.4883C36.9518 55.2956 38.1562 55.6992 39.5625 55.6992C40.6823 55.6992 41.6719 55.4388 42.5312 54.918C43.3906 54.3971 44.0677 53.6875 44.5625 52.7891C45.0573 51.8776 45.3047 50.8359 45.3047 49.6641C45.3047 48.4922 45.0508 47.444 44.543 46.5195C44.0352 45.582 43.332 44.8464 42.4336 44.3125C41.5482 43.7786 40.526 43.5117 39.3672 43.5117C38.4818 43.5117 37.5964 43.668 36.7109 43.9805C35.8255 44.2799 35.1094 44.6706 34.5625 45.1523L30.5195 44.5664L32.1602 29.8984H48.1562V33.668H35.832L34.9141 41.8125H35.0703C35.6302 41.2526 36.3789 40.7969 37.3164 40.4453C38.2669 40.0807 39.2891 39.8984 40.3828 39.8984C42.1536 39.8984 43.7292 40.3216 45.1094 41.168C46.5026 42.0013 47.5964 43.1471 48.3906 44.6055C49.1849 46.0508 49.582 47.7109 49.582 49.5859C49.582 51.474 49.1523 53.1602 48.293 54.6445C47.4336 56.1159 46.2487 57.2747 44.7383 58.1211C43.2409 58.9674 41.5156 59.3906 39.5625 59.3906Z" fill="white"/>
<rect x="56" width="28" height="28" rx="14" fill="#F84204"/>
<path d="M73.3594 20.5L68.4551 14.4883H67.2422V20.5H65.6602V7.4043H67.2422V13.082H68.4551L73.1836 7.4043H75.0645L69.7734 13.7852L75.2578 20.5H73.3594Z" fill="white"/>
<path d="M114.394 55.3369C112.821 55.3369 111.464 54.9756 110.321 54.2529C109.179 53.5303 108.3 52.5342 107.685 51.2646C107.069 49.9951 106.762 48.54 106.762 46.8994C106.762 45.2295 107.074 43.7598 107.699 42.4902C108.334 41.2109 109.218 40.2148 110.351 39.502C111.493 38.7793 112.831 38.418 114.364 38.418C115.614 38.418 116.723 38.6475 117.689 39.1064C118.666 39.5557 119.452 40.1953 120.048 41.0254C120.653 41.8555 121.01 42.8223 121.117 43.9258H118.012C117.904 43.4082 117.694 42.9346 117.382 42.5049C117.079 42.0752 116.679 41.7334 116.181 41.4795C115.683 41.2256 115.092 41.0986 114.408 41.0986C113.52 41.0986 112.743 41.333 112.079 41.8018C111.425 42.2607 110.912 42.9199 110.541 43.7793C110.17 44.6387 109.984 45.6543 109.984 46.8262C109.984 48.0078 110.165 49.0381 110.526 49.917C110.888 50.7959 111.4 51.4746 112.064 51.9531C112.738 52.4219 113.52 52.6562 114.408 52.6562C115.326 52.6562 116.107 52.4023 116.752 51.8945C117.406 51.3867 117.826 50.6934 118.012 49.8145H121.117C121.01 50.8789 120.668 51.8262 120.092 52.6562C119.516 53.4863 118.744 54.1406 117.777 54.6191C116.811 55.0977 115.683 55.3369 114.394 55.3369ZM121.396 41.377V38.623H135.18V41.377H129.862V55H126.742V41.377H121.396ZM137.318 61.123V38.623H140.395V41.2891H140.658C140.854 40.9473 141.122 40.5518 141.464 40.1025C141.815 39.6533 142.304 39.2627 142.929 38.9307C143.554 38.5889 144.369 38.418 145.375 38.418C146.693 38.418 147.865 38.75 148.891 39.4141C149.926 40.0781 150.741 41.04 151.337 42.2998C151.933 43.5596 152.23 45.0781 152.23 46.8555C152.23 48.6133 151.938 50.127 151.352 51.3965C150.766 52.6562 149.955 53.6279 148.92 54.3115C147.895 54.9854 146.718 55.3223 145.39 55.3223C144.403 55.3223 143.593 55.1562 142.958 54.8242C142.333 54.4824 141.84 54.0869 141.479 53.6377C141.127 53.1885 140.854 52.793 140.658 52.4512H140.482V61.123H137.318ZM144.701 52.6123C145.648 52.6123 146.439 52.3584 147.074 51.8506C147.709 51.3428 148.188 50.6543 148.51 49.7852C148.842 48.9062 149.008 47.9199 149.008 46.8262C149.008 45.7422 148.847 44.7705 148.524 43.9111C148.202 43.0518 147.724 42.373 147.089 41.875C146.454 41.377 145.658 41.1279 144.701 41.1279C143.773 41.1279 142.992 41.3672 142.357 41.8457C141.723 42.3145 141.239 42.9785 140.907 43.8379C140.585 44.6875 140.424 45.6836 140.424 46.8262C140.424 47.9688 140.59 48.9746 140.922 49.8438C141.254 50.7129 141.737 51.3916 142.372 51.8799C143.017 52.3682 143.793 52.6123 144.701 52.6123ZM157.636 50.5176L164.857 38.623H168.285V55H165.18V43.0908L157.987 55H154.545V38.623H157.636V50.5176ZM180.502 51.0596L185.79 38.623H188.529L181.688 55H179.315L172.606 38.623H175.316L180.502 51.0596ZM174.423 38.623V55H171.332V38.623H174.423ZM186.654 55V38.623H189.73V55H186.654ZM199.647 55.3369C198.114 55.3369 196.771 54.9854 195.619 54.2822C194.477 53.5791 193.588 52.5928 192.953 51.3232C192.328 50.0537 192.016 48.5791 192.016 46.8994C192.016 45.2002 192.328 43.7158 192.953 42.4463C193.588 41.167 194.477 40.1758 195.619 39.4727C196.771 38.7695 198.114 38.418 199.647 38.418C201.19 38.418 202.533 38.7695 203.676 39.4727C204.818 40.1758 205.707 41.167 206.342 42.4463C206.977 43.7158 207.294 45.2002 207.294 46.8994C207.294 48.5791 206.977 50.0537 206.342 51.3232C205.707 52.5928 204.818 53.5791 203.676 54.2822C202.533 54.9854 201.19 55.3369 199.647 55.3369ZM199.647 52.6562C200.653 52.6562 201.483 52.3926 202.138 51.8652C202.792 51.3379 203.275 50.6396 203.588 49.7705C203.91 48.8916 204.071 47.9346 204.071 46.8994C204.071 45.8447 203.91 44.8779 203.588 43.999C203.275 43.1201 202.792 42.417 202.138 41.8896C201.483 41.3623 200.653 41.0986 199.647 41.0986C198.651 41.0986 197.826 41.3623 197.172 41.8896C196.527 42.417 196.044 43.1201 195.722 43.999C195.399 44.8779 195.238 45.8447 195.238 46.8994C195.238 47.9346 195.399 48.8916 195.722 49.7705C196.044 50.6396 196.527 51.3379 197.172 51.8652C197.826 52.3926 198.651 52.6562 199.647 52.6562ZM209.594 55V38.623H216.361C218.207 38.6328 219.672 39.0332 220.756 39.8242C221.84 40.6055 222.377 41.6699 222.367 43.0176C222.377 43.9746 222.074 44.7314 221.459 45.2881C220.844 45.835 220.038 46.2109 219.042 46.416C219.765 46.4941 220.429 46.709 221.034 47.0605C221.649 47.4121 222.143 47.8857 222.514 48.4814C222.895 49.0674 223.085 49.7656 223.085 50.5762C223.085 51.4453 222.855 52.2168 222.396 52.8906C221.947 53.5547 221.303 54.0723 220.463 54.4434C219.623 54.8145 218.603 55 217.401 55H209.594ZM212.582 52.3193H217.401C218.183 52.3291 218.798 52.1484 219.247 51.7773C219.696 51.3965 219.916 50.8838 219.906 50.2393C219.916 49.4775 219.696 48.8818 219.247 48.4521C218.798 48.0127 218.183 47.793 217.401 47.793H212.582V52.3193ZM212.582 45.4639H216.391C217.289 45.4541 217.992 45.2637 218.5 44.8926C219.018 44.5117 219.271 43.999 219.262 43.3545C219.271 42.7197 219.018 42.2266 218.5 41.875C217.982 41.5137 217.27 41.333 216.361 41.333H212.582V45.4639ZM232.006 55V38.623H238.773C240.619 38.6328 242.084 39.0332 243.168 39.8242C244.252 40.6055 244.789 41.6699 244.779 43.0176C244.789 43.9746 244.486 44.7314 243.871 45.2881C243.256 45.835 242.45 46.2109 241.454 46.416C242.177 46.4941 242.841 46.709 243.446 47.0605C244.062 47.4121 244.555 47.8857 244.926 48.4814C245.307 49.0674 245.497 49.7656 245.497 50.5762C245.497 51.4453 245.268 52.2168 244.809 52.8906C244.359 53.5547 243.715 54.0723 242.875 54.4434C242.035 54.8145 241.015 55 239.813 55H232.006ZM234.994 52.3193H239.813C240.595 52.3291 241.21 52.1484 241.659 51.7773C242.108 51.3965 242.328 50.8838 242.318 50.2393C242.328 49.4775 242.108 48.8818 241.659 48.4521C241.21 48.0127 240.595 47.793 239.813 47.793H234.994V52.3193ZM234.994 45.4639H238.803C239.701 45.4541 240.404 45.2637 240.912 44.8926C241.43 44.5117 241.684 43.999 241.674 43.3545C241.684 42.7197 241.43 42.2266 240.912 41.875C240.395 41.5137 239.682 41.333 238.773 41.333H234.994V45.4639ZM264.862 38.623V41.377H257.538V55H254.418V38.623H264.862ZM273.095 55.3369C271.562 55.3369 270.219 54.9854 269.066 54.2822C267.924 53.5791 267.035 52.5928 266.4 51.3232C265.775 50.0537 265.463 48.5791 265.463 46.8994C265.463 45.2002 265.775 43.7158 266.4 42.4463C267.035 41.167 267.924 40.1758 269.066 39.4727C270.219 38.7695 271.562 38.418 273.095 38.418C274.638 38.418 275.98 38.7695 277.123 39.4727C278.266 40.1758 279.154 41.167 279.789 42.4463C280.424 43.7158 280.741 45.2002 280.741 46.8994C280.741 48.5791 280.424 50.0537 279.789 51.3232C279.154 52.5928 278.266 53.5791 277.123 54.2822C275.98 54.9854 274.638 55.3369 273.095 55.3369ZM273.095 52.6562C274.101 52.6562 274.931 52.3926 275.585 51.8652C276.239 51.3379 276.723 50.6396 277.035 49.7705C277.357 48.8916 277.519 47.9346 277.519 46.8994C277.519 45.8447 277.357 44.8779 277.035 43.999C276.723 43.1201 276.239 42.417 275.585 41.8896C274.931 41.3623 274.101 41.0986 273.095 41.0986C272.099 41.0986 271.273 41.3623 270.619 41.8896C269.975 42.417 269.491 43.1201 269.169 43.999C268.847 44.8779 268.686 45.8447 268.686 46.8994C268.686 47.9346 268.847 48.8916 269.169 49.7705C269.491 50.6396 269.975 51.3379 270.619 51.8652C271.273 52.3926 272.099 52.6562 273.095 52.6562ZM281.43 59.7168V52.2461H282.748C283.09 51.9336 283.383 51.5625 283.627 51.1328C283.871 50.6934 284.071 50.1758 284.228 49.5801C284.394 48.9746 284.535 48.2764 284.652 47.4854C284.77 46.6943 284.872 45.7812 284.96 44.7461L285.473 38.623H296.591V52.2461H299.11V59.7168H295.99V55H284.594V59.7168H281.43ZM286.176 52.2461H293.485V41.3477H288.314L287.963 44.7461C287.816 46.4746 287.616 47.9688 287.362 49.2285C287.118 50.4785 286.723 51.4844 286.176 52.2461Z" fill="#010101"/>
</svg>
