<svg width="40" height="40" viewBox="0 0 40 40" fill="none" xmlns="http://www.w3.org/2000/svg">
<rect width="40" height="40" rx="20" fill="#010101"/>
<path d="M18.9117 21.0874C19.5124 21.6883 19.5118 22.6625 18.911 23.2633L15.6476 26.5268C15.0468 27.1274 14.0731 27.1274 13.4724 26.5268C12.8716 25.926 12.8711 24.9517 13.4717 24.3509L16.7352 21.0874C17.336 20.4866 18.3109 20.4866 18.9117 21.0874ZM18.9124 16.7364C19.5128 17.3371 19.5128 18.3109 18.9124 18.9116C18.3117 19.5123 17.3374 19.5128 16.7365 18.9123L13.4724 15.6481C12.8718 15.0473 12.8724 14.073 13.4731 13.4722C14.0738 12.8718 15.0475 12.8718 15.6483 13.4722L18.9124 16.7364ZM26.5262 24.3516C27.1268 24.9524 27.127 25.9261 26.5262 26.5268C25.9255 27.1275 24.9519 27.1273 24.3511 26.5268L21.0869 23.2626C20.4864 22.6618 20.4862 21.6881 21.0869 21.0874C21.6876 20.4868 22.6612 20.487 23.2621 21.0874L26.5262 24.3516ZM26.5269 13.4722C27.1276 14.073 27.1282 15.0473 26.5276 15.6481L23.2635 18.9123C22.6626 19.5128 21.6883 19.5123 21.0876 18.9116C20.4872 18.3109 20.4872 17.3371 21.0876 16.7364L24.3517 13.4722C24.9525 12.8718 25.9262 12.8718 26.5269 13.4722Z" fill="white"/>
</svg>
