<svg width="14" height="14" viewBox="0 0 14 14" fill="none" xmlns="http://www.w3.org/2000/svg">
<path fill-rule="evenodd" clip-rule="evenodd" d="M13.5268 2.62556C14.1276 2.02477 14.1276 1.0507 13.5268 0.449907C12.926 -0.150884 11.9519 -0.150884 11.3512 0.449906L8.08767 3.71339C7.48688 4.31418 7.48688 5.28826 8.08767 5.88905C8.68846 6.48984 9.66253 6.48984 10.2633 5.88905L13.5268 2.62556ZM2.64841 0.450345C2.04762 -0.150446 1.07354 -0.150447 0.472751 0.450344C-0.128039 1.05114 -0.128039 2.02521 0.472751 2.626L3.73624 5.88949C4.33703 6.49028 5.3111 6.49028 5.91189 5.88949C6.51268 5.2887 6.51268 4.31462 5.91189 3.71383L2.64841 0.450345ZM8.0868 8.06479C8.68759 7.464 9.66167 7.464 10.2625 8.06479L13.5259 11.3283C14.1267 11.9291 14.1267 12.9031 13.5259 13.5039C12.9252 14.1047 11.9511 14.1047 11.3503 13.5039L8.0868 10.2404C7.48601 9.63965 7.48601 8.66558 8.0868 8.06479ZM5.91139 10.2406C6.51218 9.6398 6.51218 8.66573 5.91139 8.06494C5.3106 7.46415 4.33652 7.46415 3.73573 8.06494L0.472244 11.3284C-0.128546 11.9292 -0.128547 12.9033 0.472244 13.5041C1.07304 14.1049 2.04711 14.1049 2.6479 13.5041L5.91139 10.2406Z" fill="white"/>
</svg>
