<svg width="20" height="20" viewBox="0 0 20 20" fill="none" xmlns="http://www.w3.org/2000/svg">
<path fill-rule="evenodd" clip-rule="evenodd" d="M11.6677 1.66646C11.6677 0.7461 10.9216 0 10.0012 0C9.08087 0 8.33477 0.7461 8.33477 1.66646V6.66687C8.33477 7.58723 9.08087 8.33333 10.0012 8.33333C10.9216 8.33333 11.6677 7.58723 11.6677 6.66687V1.66646ZM1.66844 8.33345C0.747962 8.33345 0.00177002 9.07964 0.00177002 10.0001C0.00177002 10.9206 0.747963 11.6668 1.66844 11.6668H6.66742C7.58789 11.6668 8.33408 10.9206 8.33408 10.0001C8.33408 9.07964 7.58789 8.33345 6.66741 8.33345H1.66844ZM11.6677 10.0001C11.6677 9.07964 12.4139 8.33345 13.3344 8.33345H18.3333C19.2538 8.33345 20 9.07964 20 10.0001C20 10.9206 19.2538 11.6668 18.3333 11.6668H13.3344C12.4139 11.6668 11.6677 10.9206 11.6677 10.0001ZM11.6677 13.333C11.6677 12.4126 10.9216 11.6665 10.0012 11.6665C9.08087 11.6665 8.33477 12.4126 8.33477 13.333V18.3334C8.33477 19.2538 9.08087 19.9999 10.0012 19.9999C10.9216 19.9999 11.6677 19.2538 11.6677 18.3334V13.333Z" fill="#F84204"/>
</svg>
