<svg width="60" height="60" viewBox="0 0 60 60" fill="none" xmlns="http://www.w3.org/2000/svg">
<rect width="60" height="60" rx="30" fill="#F61C0D"/>
<path d="M37.6001 21H22.3999C19.4176 21 17 23.3653 17 26.283V33.717C17 36.6347 19.4176 39 22.3999 39H37.6001C40.5824 39 43 36.6347 43 33.717V26.283C43 23.3653 40.5824 21 37.6001 21ZM33.9482 30.3617L26.8386 33.6792C26.6491 33.7676 26.4303 33.6324 26.4303 33.4271V26.5848C26.4303 26.3766 26.6549 26.2416 26.8447 26.3357L33.9544 29.8606C34.1658 29.9653 34.1621 30.2619 33.9482 30.3617Z" fill="white"/>
</svg>
