<svg width="150" height="29" viewBox="0 0 150 29" fill="none" xmlns="http://www.w3.org/2000/svg">
<path fill-rule="evenodd" clip-rule="evenodd" d="M0 0C0.701362 1.05638 1.18301 2.58281 1.18301 3.91328L1.18318 25.321C1.18318 27.5134 2.58891 29 4.65696 29H28.5714V20.9304H14.603V4.03108C14.603 1.60439 13.0888 0 10.8311 0H0ZM76.1904 0C76.8918 1.05638 77.3734 2.5828 77.3734 3.91328L77.3736 25.321C77.3736 27.5134 78.7793 29 80.8474 29H104.762V20.9304H90.7934V4.03107C90.7934 1.60439 89.2793 0 87.0215 0H76.1904ZM26.9335 3.91326C26.0898 2.23072 25.1353 0.782463 23.8097 0H35.865C38.0702 0 40.3471 1.60438 41.559 4.03105L51.4448 24.0304L64.2688 0H72.6193L57.0395 29H42.8454C40.7869 29 38.3634 27.1613 37.4059 25.321L26.9335 3.91326ZM134.364 29L127.327 20.7499L118.312 29H108.333L122.952 15.6211L112.964 3.91174C111.407 2.11361 109.703 0.547979 108.333 0H121.086C123.381 0 125.161 0.743847 126.051 1.72169L131.437 7.85598L140.021 0H150L135.883 12.9199L150 28.9998H134.364L134.364 29Z" fill="white"/>
</svg>
